<?xml version="1.0" encoding="utf-8"?>
<!-- Generator: Adobe Illustrator 26.1.0, SVG Export Plug-In . SVG Version: 6.00 Build 0)  -->
<svg version="1.1" id="Layer_1" xmlns="http://www.w3.org/2000/svg" xmlns:xlink="http://www.w3.org/1999/xlink" x="0px" y="0px"
	 viewBox="0 0 900 450" style="enable-background:new 0 0 900 450;" xml:space="preserve">
<style type="text/css">
	.st0{fill:url(#SVGID_1_);}
	.st1{fill:none;}
	.st2{fill:#A2FA87;}
	.st3{fill:#FABB55;}
	.st4{fill:#FBC56E;}
	.st5{fill:#55ACFA;}
	.st6{fill:#FA61E1;}
	.st7{fill:#FFFFFF;}
</style>
<g>
	<g>
		
			<linearGradient id="SVGID_1_" gradientUnits="userSpaceOnUse" x1="28.7215" y1="416.3347" x2="910.4606" y2="15.6391" gradientTransform="matrix(1 0 0 -1 0 449.8898)">
			<stop  offset="0.2737" style="stop-color:#A2FA87"/>
			<stop  offset="1" style="stop-color:#55ACFA"/>
		</linearGradient>
		<rect y="0" class="st0" width="900" height="450"/>
	</g>
</g>
<path class="st1" d="M923,598.2l-45.7-15.3c-22.4,16.9-58.3,29-100,32.4l127.2,39.8c4.1,1.3,8.4-0.9,9.7-4.9l13.8-42.4
	C929.3,603.8,927.1,599.5,923,598.2z"/>
<rect x="76.7" y="-64.8" class="st2" width="52.2" height="52.2"/>
<rect x="146" y="-64.8" class="st3" width="52.2" height="52.2"/>
<rect x="469.4" y="-212.6" class="st4" width="52.2" height="52.2"/>
<rect x="212.1" y="-64.8" class="st5" width="52.2" height="52.2"/>
<rect x="278.6" y="-64.8" class="st6" width="52.2" height="52.2"/>
<g>
	<path d="M229.7,232.8c0.1,0.2,0.2,0.4,0.2,0.6c0,0.4-0.3,0.7-0.8,0.7h-5.9c-0.5,0-0.8-0.2-1.1-0.8l-6-8.3l-2.1,2.1v6.2
		c0,0.5-0.3,0.8-0.8,0.8H208c-0.5,0-0.8-0.3-0.8-0.8v-27.7c0-0.5,0.3-0.8,0.8-0.8h5.2c0.5,0,0.8,0.3,0.8,0.8v13.6l6.4-7.2
		c0.5-0.5,0.7-0.6,1.4-0.6h5.2c0.6,0,1,0.4,1,0.8c0,0.2-0.1,0.4-0.2,0.5l-7.5,7.9L229.7,232.8z"/>
	<path d="M235.9,204.1c0-1,0.5-1.5,1.5-1.5h4.1c0.9,0,1.3,0.5,1.3,1.5v3.4c0,1-0.4,1.3-1.3,1.3h-4.1c-1,0-1.5-0.3-1.5-1.3V204.1z
		 M235.9,212.3c0-0.5,0.4-0.8,0.8-0.8h5.3c0.4,0,0.8,0.3,0.8,0.8v21.1c0,0.5-0.3,0.8-0.8,0.8h-5.3c-0.5,0-0.8-0.3-0.8-0.8V212.3z"/>
	<path d="M273.7,233.3c0,0.5-0.3,0.8-0.8,0.8h-4c-0.6,0-0.9-0.7-1.3-1.7l-0.2-0.6c-1.6,1.7-3.8,2.7-6.1,2.7c-2,0-3.9-0.5-5.6-1.5
		c-1.8-1-3.1-2.3-4.2-4.1s-1.6-3.8-1.6-6c0-2.1,0.5-4.1,1.5-5.9c1-1.8,2.4-3.2,4.1-4.2c1.7-1,3.7-1.6,5.8-1.6c2.7,0,4.8,1.1,6.4,3
		l0.7-2c0.2-0.6,0.3-0.8,0.8-0.8h3.8c0.5,0,0.8,0.3,0.8,0.8L273.7,233.3L273.7,233.3z M261.5,217.3c-2.8-0.1-5.4,2.4-5.3,5.6
		c-0.1,3.1,2.3,5.7,5.3,5.6c3,0.1,5.5-2.6,5.4-5.6C267,219.9,264.5,217.2,261.5,217.3z"/>
	<path d="M304.1,233.3c0,0.5-0.3,0.8-0.8,0.8H299c-0.6,0-0.9-0.7-1.3-1.7l-0.2-0.6c-1.6,1.7-3.5,2.6-5.8,2.6
		c-5.9,0.1-11.1-4.8-11-11.6c-0.1-6.3,4.6-11.7,11-11.6c2.1,0,4,0.7,5.6,2.2v-7.8c0-0.5,0.3-0.8,0.8-0.8h5.2c0.5,0,0.8,0.3,0.8,0.8
		L304.1,233.3L304.1,233.3z M292.2,217.2c-2.9-0.1-5.2,2.6-5.1,5.6c0,3.1,2.2,5.7,5.1,5.6c3,0.1,5.7-2.5,5.6-5.6
		C297.9,219.8,295.2,217.2,292.2,217.2z"/>
	<path d="M324.2,233.4c-0.2,0.5-0.6,0.8-1.1,0.8h-2.7c-0.5,0-0.9-0.3-1.1-0.8l-8.6-20.5c-0.1-0.2-0.1-0.4-0.1-0.6
		c0-0.5,0.3-0.7,0.9-0.7h5.1c0.5,0,0.9,0.3,1.1,0.8l4.3,12.3l4.1-12.3c0.2-0.5,0.5-0.8,1.1-0.8h5.4c0.4,0,0.6,0.2,0.6,0.5
		c0,0.2-0.1,0.4-0.2,0.7L324.2,233.4z"/>
	<path d="M360.7,233.3c0,0.5-0.3,0.8-0.8,0.8h-4c-0.6,0-0.9-0.7-1.3-1.7l-0.2-0.6c-1.6,1.7-3.8,2.7-6.1,2.7c-2,0-3.9-0.5-5.6-1.5
		c-1.8-1-3.1-2.3-4.2-4.1s-1.6-3.8-1.6-6c0-2.1,0.5-4.1,1.5-5.9c1-1.8,2.4-3.2,4.1-4.2s3.7-1.6,5.8-1.6c2.7,0,4.8,1.1,6.4,3l0.7-2
		c0.2-0.6,0.3-0.8,0.8-0.8h3.8c0.5,0,0.8,0.3,0.8,0.8L360.7,233.3L360.7,233.3z M348.5,217.3c-2.8-0.1-5.4,2.4-5.3,5.6
		c-0.1,3.1,2.3,5.7,5.3,5.6c3,0.1,5.5-2.6,5.4-5.6C354,219.9,351.5,217.2,348.5,217.3z M351.5,208c-0.3,0.7-0.5,0.8-1.1,0.8h-3.6
		c-0.4,0-0.6-0.2-0.6-0.6c0-0.1,0-0.2,0.1-0.3l1.3-3.9c0.2-0.6,0.5-0.8,1.1-0.8h4c0.3,0,0.6,0.3,0.6,0.6c0,0.1,0,0.2-0.1,0.3
		L351.5,208z"/>
	<path d="M383.2,221.7c0-2.3-1.5-4.1-3.9-4.1s-4.1,1.8-4.1,4.1v11.5c0,0.5-0.6,1-1.2,1h-4.7c-0.6,0-0.8-0.3-0.8-0.8v-21
		c0-0.6,0.3-0.8,0.8-0.8h3.3c0.6,0,1.1,0.5,1.3,1l0.5,2c1.8-2.3,4.3-3.3,7-3.3c1.2,0,2.4,0.3,3.7,0.9c1.3,0.6,2.4,1.7,3.3,3.1
		c0.9,1.5,1.4,3.3,1.4,5.7v12.4c0,0.5-0.3,0.8-0.8,0.8h-5c-0.6,0-0.8-0.3-0.8-0.8L383.2,221.7L383.2,221.7z"/>
	<path d="M408.2,242.3c-0.2,0.5-0.6,0.7-1.1,0.7h-4.4c-0.7,0-1.2-0.3-1.2-0.9c0-0.2,0.1-0.4,0.1-0.7l2.9-7.4l-8.5-21.2
		c-0.1-0.2-0.1-0.4-0.1-0.6c0-0.5,0.4-0.8,0.9-0.8h5c0.5,0,0.8,0.3,1.1,0.8l5.1,14.4l5-14.4c0.2-0.5,0.5-0.8,1.1-0.8h5.3
		c0.5,0,0.8,0.2,0.8,0.7c0,0.2,0,0.4-0.1,0.5L408.2,242.3z"/>
	<path d="M426,217.1c1.1-1.8,2.5-3.2,4.2-4.2c1.8-1,3.7-1.6,5.9-1.6s4.1,0.5,5.9,1.6s3.2,2.5,4.2,4.2c1.1,1.8,1.6,3.7,1.6,5.8
		s-0.5,4-1.6,5.8s-2.5,3.2-4.3,4.2c-1.8,1.1-3.8,1.6-5.9,1.6s-4.1-0.5-5.9-1.6c-1.8-1-3.2-2.4-4.2-4.2c-1.1-1.8-1.6-3.7-1.6-5.8
		C424.5,220.8,425,218.8,426,217.1z M436.1,228.5c3,0.1,5.2-2.7,5.2-5.6c0.1-3-2.1-5.7-5.1-5.6c-3-0.1-5.2,2.6-5.2,5.6
		C430.9,225.9,433.2,228.6,436.1,228.5z"/>
	<path d="M477.2,232.8c0.1,0.2,0.2,0.4,0.2,0.6c0,0.4-0.3,0.7-0.8,0.7h-5.9c-0.5,0-0.8-0.2-1.1-0.8l-6-8.3l-2.1,2.1v6.2
		c0,0.5-0.3,0.8-0.8,0.8h-5.2c-0.5,0-0.8-0.3-0.8-0.8v-27.7c0-0.5,0.3-0.8,0.8-0.8h5.2c0.5,0,0.8,0.3,0.8,0.8v13.6l6.4-7.2
		c0.5-0.5,0.7-0.6,1.4-0.6h5.2c0.6,0,1,0.4,1,0.8c0,0.2-0.1,0.4-0.2,0.5l-7.5,7.9L477.2,232.8z"/>
</g>
<g>
	
		<image style="overflow:visible;opacity:0.1;enable-background:new    ;" width="64" height="156" xlink:href="A1F74DB6.png"  transform="matrix(1.1904 0 0 1.1904 720.9096 186.0404)">
	</image>
	<g>
		<path class="st7" d="M751.7,198.7c0,0,15.8,40.3,18.7,56.4c2.8,14.9,1.8,25.9-1.6,36.6c-4.6,14.4-14,28.1-30.4,55.7
			c-2.4-0.4-5-4.5-5-4.5s32.2-47.4,31.8-69.1c-0.5-32.8-21.9-75.8-21.9-75.8L751.7,198.7z"/>
	</g>
</g>
<g>
	
		<image style="overflow:visible;opacity:0.1;enable-background:new    ;" width="78" height="152" xlink:href="A1F74DBA.png"  transform="matrix(1.1938 0 0 1.1938 561.2798 163.9771)">
	</image>
	<g>
		<path class="st7" d="M622,175.8c0,0-46.6,45.7-47.9,80.5c-0.5,13.9,1.5,27.5,3.3,37.5c2.7,15,5.2,26,5.2,26s0,0.8,1.5,1.1
			c1.5,0.2,3.6-1.2,3.6-2.1c0.1-0.8-11.9-55.7-4.8-74.6c11-29.6,47.2-67.2,47.2-67.2L622,175.8z"/>
	</g>
</g>
<g>
	
		<image style="overflow:visible;opacity:0.1;enable-background:new    ;" width="73" height="165" xlink:href="A1F74DBB.png"  transform="matrix(1.1927 0 0 1.1927 589.0941 167.7935)">
	</image>
	<g>
		<path class="st7" d="M643.7,184.1c0,0-9.4,19-26.2,47.5c-5.3,9.1-13.9,28.2-14.8,43.3c-0.4,7.5-1.3,14.6-0.5,22.4
			c2.4,21.2,5.3,41.4,5.3,41.4s0.1,0.8,1.6,1.2c2.1,0.5,5.4-1.3,4.8-3.6c-0.1-0.7-3-19.5-3.4-23.1c-0.4-3.6-5-23.3,1.1-49.2
			c4.2-18.1,11.6-29.4,28.1-58.9c8.7-15.6,11.2-23.2,11.2-23.2l-3-2.3L643.7,184.1z"/>
	</g>
</g>
<g>
	
		<image style="overflow:visible;opacity:0.1;enable-background:new    ;" width="51" height="139" xlink:href="A1F74DBC.png"  transform="matrix(1.1856 0 0 1.1856 602.3965 164.4468)">
	</image>
	<g>
		<path class="st7" d="M632.2,175.9c0,0-13.1,37.2-15.2,52.1c-1,6.4-2.3,16-1.9,31.1c0.5,20,2.8,45.5,2.8,45.5s0.5,1,1.2,1.1
			c0.7,0.1,4.5-0.1,5.1-1c0.6-0.8-3.1-31-3.6-43.8c-0.4-12.7,1.1-34,6.5-51.9c5.4-17.9,10.5-32.3,10.5-32.3L632.2,175.9z"/>
	</g>
</g>
<g>
	
		<image style="overflow:visible;opacity:0.1;enable-background:new    ;" width="62" height="133" xlink:href="A1F74DBD.png"  transform="matrix(1.1898 0 0 1.1898 668.9089 177.3984)">
	</image>
	<g>
		<path class="st7" d="M717.4,190.9c0,0-0.1,37.6-3,51.8c-1.3,6-3.1,15-8.6,28.4c-7.1,17.7-17.9,39.7-17.9,39.7s-0.8,0.7-1.5,0.6
			c-0.7-0.1-4.1-1.6-4.5-2.5s13.3-26.6,18-38c4.6-11.1,10.4-30.7,11.2-48.6c0.8-17.9,0.8-32.4,0.8-32.4L717.4,190.9z"/>
	</g>
</g>
<g>
	
		<image style="overflow:visible;opacity:0.1;enable-background:new    ;" width="64" height="169" xlink:href="A1F74DB8.png"  transform="matrix(1.1904 0 0 1.1904 616.9083 170.4421)">
	</image>
	<g>
		<path class="st7" d="M663.1,183.1c0,0-3.5,13.8-8.9,26.2c-5.4,12.6-21.8,54.7-23.9,78.5c-2.2,23.9-0.4,52.1-0.4,54.8
			c0,2.7,0.4,4.6,2.7,5c2.3,0.4,4.4-1,4-2.9c-0.4-1.8-2.4-44.5,1-63.7c3.4-19.2,12.5-42.8,19-60.5c6.7-17.8,10.6-31.4,11.6-35.7
			C669.1,180.5,663.1,183.1,663.1,183.1"/>
	</g>
</g>
<g>
	
		<image style="overflow:visible;opacity:0.1;enable-background:new    ;" width="59" height="172" xlink:href="A1F74DB9.png"  transform="matrix(1.1888 0 0 1.1888 643.5132 171.8175)">
	</image>
	<g>
		<path class="st7" d="M682.7,182.9c0,0-6.5,39.3-10.3,62c-3.7,22.7-7,41-9.8,59.4c-2.8,18.4-6.2,43.9-6.4,45.6
			c-0.4,1.7,0.2,2.8,2.3,3.1c2.1,0.4,3.7-0.2,4.1-1.9c0.4-1.7,7-50.1,10.4-71c3.5-20.9,15.4-87.2,16-91.7
			C689.4,184.1,682.7,182.9,682.7,182.9"/>
	</g>
</g>
<g>
	
		<image style="overflow:visible;opacity:0.1;enable-background:new    ;" width="57" height="170" xlink:href="A1F74DA8.png"  transform="matrix(1.1881 0 0 1.1881 666.4902 177.9047)">
	</image>
	<g>
		<path class="st7" d="M703.1,189.2c0,0-3.1,27.3-1.2,55.5c2.1,28.2-7.7,62.5-9.6,69.4c-1.8,6.9-10.9,31.3-11.9,35.7
			c-1,4.4-1.3,6,0.6,6.4c2.1,0.4,4.1,0.7,5-2.8c0.8-3.5,15.7-44,18.6-60.6c2.9-16.6,3-38.1,3.3-63.2c0.2-25.2,1.1-39.4,1.1-39.4
			L703.1,189.2z"/>
	</g>
</g>
<g>
	
		<image style="overflow:visible;opacity:0.1;enable-background:new    ;" width="59" height="168" xlink:href="A1F74DA9.png"  transform="matrix(1.1888 0 0 1.1888 691.8859 180.2417)">
	</image>
	<g>
		<path class="st7" d="M721.4,191.5c0,0-1.3,3.4,0.1,13.5c0.6,4.2,1.5,13.1,3.3,23.2c2.4,14.3,6.5,31.3,6.3,41.5
			c-0.2,16.1-0.7,24.2-5.4,37.7c-5.1,14.4-14.5,31.6-17.2,38.3c-2.8,6.8-4.2,8.2-2.8,9.4c1.5,1.2,4,3.4,5.7-0.8
			c1.7-4.2,21.4-40.3,24.2-58.7c2.7-18.4,3-31.8-3.3-63.5c-6.3-31.7-5.3-36.9-4.6-38.6C728.3,191.9,721.4,191.5,721.4,191.5"/>
	</g>
</g>
<g>
	
		<image style="overflow:visible;opacity:0.1;enable-background:new    ;" width="62" height="166" xlink:href="68BE3ACE.png"  transform="matrix(1.1898 0 0 1.1898 707.607 178.9296)">
	</image>
	<g>
		<path class="st7" d="M732.8,193.6c0,0-1.2,10.6,6.9,34.5c8.1,23.9,11.6,40.8,11,46c-0.6,5.3-1.5,26.7-14.9,47.8
			s-15.6,27.8-15.4,28.8s1.9,2.2,3.3,2.4s1.9-0.6,2.9-2.2c1-1.6,13.1-23.8,16.3-29.5c3.4-5.7,16.7-36.6,13.3-54.3
			c-4-20.6-16.4-58.7-17.4-66c-1-7.4,0.1-10.8,0.1-10.8L732.8,193.6z"/>
	</g>
</g>
<g>
	
		<image style="overflow:visible;opacity:0.1;enable-background:new    ;" width="290" height="197" xlink:href="68BE3ACA.png"  transform="matrix(1.2032 0 0 1.2032 530.123 -10.738)">
	</image>
	<g>
		<path class="st7" d="M581.4,4.1c-42,43.9-38.9,135.2-38.9,135.2c0.6,5.6,2.8,6.8,4.6,5.3c1.9-1.5,3.7,2.4,5,7.1
			c1.2,4.7,3.5,1.6,6.5-0.6c2.9-2.2,6.7,3.9,8.3,7.7c1.7,3.9,8.2,5.1,10.2,1.8c1.9-3.3,5.2-1.8,12.3,6.7c7.1,8.5,8.5,0.6,11.9,1.2
			c3.4,0.6,9.6,8,13.3,5.1c3.7-2.9,4.1,1.6,5.7,3.7c1.6,2.1,5.6,6.4,11,1.9c5.4-4.5,5,3.6,8.7,6c3.7,2.4,7.9-5,11.9-1.5
			c4,3.4,10.4,1.8,13.7,0.6c3.3-1.2,4.7,4.5,8.7,6.9c4,2.5,7.7-4,10.5-3.5c2.8,0.5,8.1,6.8,11.4,6.5c3.3-0.4,4-2.9,7.3-1.5
			c3.3,1.5,11,4.6,16.8,2.1c5.8-2.5,7.3,4,11.2,3.7c4-0.2,6.2-4.4,8.1-2.2c1.9,2.2,6.9,6.7,12,3c5.1-3.6,6.5,0.2,9.6,0.7
			c2.9,0.5,8.9-8.3,10.5-2.7c1.6,5.7,9.2,0.7,12.2-2.3c3-3,4.2-0.1,6.2,3.7c1.9,4,9.7-1,14-3.9c4.5-2.8,6.7-0.6,8.6,2.4
			c2.1,3,10.5-4.5,12.6-7.6c2.1-3.3,6.4,1.1,8.9-1.1c2.5-2.3,2.5-2.1,8.2-17.4c22.4-60.8,14.9-124.2-21-154.8
			c-6.9-5.9-12.7-11-17.5-15.4H584.1C583.3,2.3,582.3,3.2,581.4,4.1"/>
	</g>
</g>
<g>
	
		<image style="overflow:visible;opacity:0.1;enable-background:new    ;" width="53" height="54" xlink:href="68BE3AC9.png"  transform="matrix(1.1865 0 0 1.1865 716.0722 385.9291)">
	</image>
	<g>
		<path class="st7" d="M746.1,424.1c6.8-2.7,10.3-10.3,7.6-17.2c-2.7-6.8-10.3-10.3-17.1-7.6c-6.8,2.7-10.3,10.3-7.6,17.2
			C731.6,423.3,739.4,426.7,746.1,424.1z"/>
	</g>
</g>
<g>
	
		<image style="overflow:visible;opacity:0.1;enable-background:new    ;" width="53" height="54" xlink:href="68BE3AC6.png"  transform="matrix(1.1865 0 0 1.1865 404.6078 55.5704)">
	</image>
	<g>
		<path class="st7" d="M434.7,93.7c6.8-2.7,10.3-10.3,7.6-17.2c-2.7-6.8-10.3-10.3-17.1-7.6c-6.8,2.7-10.3,10.3-7.6,17.2
			C420.2,93,427.9,96.4,434.7,93.7z"/>
	</g>
</g>
<g>
	
		<image style="overflow:visible;opacity:0.1;enable-background:new    ;" width="53" height="54" xlink:href="68BE3AD9.png"  transform="matrix(1.1865 0 0 1.1865 272.6578 368.394)">
	</image>
	<g>
		<path class="st7" d="M302.7,406.5c6.8-2.7,10.3-10.3,7.6-17.2c-2.7-6.8-10.3-10.3-17.1-7.6c-6.8,2.7-10.3,10.3-7.6,17.2
			C288.2,405.8,296,409.2,302.7,406.5z"/>
	</g>
</g>
<g>
	
		<image style="overflow:visible;opacity:0.1;enable-background:new    ;" width="44" height="44" xlink:href="68BE3ADE.png"  transform="matrix(1.1818 0 0 1.1818 733.0028 348.4289)">
	</image>
	<g>
		<path class="st7" d="M755.7,375.1c3.6-1.5,5.4-5.4,4.1-9.1c-1.5-3.6-5.4-5.4-9.1-4.1c-3.6,1.5-5.4,5.4-4.1,9.1
			S752.1,376.4,755.7,375.1z"/>
	</g>
</g>
<g>
	
		<image style="overflow:visible;opacity:0.1;enable-background:new    ;" width="48" height="48" xlink:href="68BE3ADC.png"  transform="matrix(1.1841 0 0 1.1841 674.9554 356.8941)">
	</image>
	<g>
		<path class="st7" d="M701.3,388.4c5-1.9,7.5-7.5,5.6-12.6c-1.9-5-7.5-7.5-12.6-5.6c-5,1.9-7.5,7.5-5.6,12.6
			C690.6,387.8,696.2,390.3,701.3,388.4z"/>
	</g>
</g>
<g>
	
		<image style="overflow:visible;opacity:0.1;enable-background:new    ;" width="44" height="43" xlink:href="68BE3AD4.png"  transform="matrix(1.1812 0 0 1.1812 509.2932 319.4053)">
	</image>
	<g>
		<path class="st7" d="M533.4,344.4c3.1-2.3,3.9-6.7,1.6-9.9c-2.3-3.1-6.7-3.9-9.9-1.6c-3.1,2.3-3.9,6.7-1.6,9.9
			C525.8,346.1,530.3,346.7,533.4,344.4z"/>
	</g>
</g>
<g>
	
		<image style="overflow:visible;opacity:0.1;enable-background:new    ;" width="44" height="43" xlink:href="68BE3AD5.png"  transform="matrix(1.1812 0 0 1.1812 342.5138 280.7072)">
	</image>
	<g>
		<path class="st7" d="M366.7,305.7c3.1-2.3,3.9-6.7,1.6-9.9c-2.3-3.1-6.7-3.9-9.9-1.6c-3.1,2.3-3.9,6.7-1.6,9.9
			C359,307.4,363.5,308,366.7,305.7z"/>
	</g>
</g>
<g>
	
		<image style="overflow:visible;opacity:0.1;enable-background:new    ;" width="44" height="43" xlink:href="68BE3AD6.png"  transform="matrix(2.2779 0 0 2.2779 55.8308 281.412)">
	</image>
	<g>
		<path class="st7" d="M102.4,329.6c6.1-4.4,7.5-12.8,3-19.1c-4.4-6.1-12.8-7.5-19.1-3c-6.1,4.4-7.5,12.8-3,19.1
			C87.7,332.8,96.3,334,102.4,329.6z"/>
	</g>
</g>
<g>
	
		<image style="overflow:visible;opacity:0.1;enable-background:new    ;" width="40" height="39" xlink:href="68BE3AFF.png"  transform="matrix(1.1783 0 0 1.1783 537.1089 313.3587)">
	</image>
	<g>
		<path class="st7" d="M557.3,334c1.9-1.5,2.4-4.2,1-6.2c-1.5-1.9-4.2-2.4-6.2-1c-1.9,1.5-2.4,4.2-1,6.2
			C552.5,334.9,555.3,335.3,557.3,334z"/>
	</g>
</g>
<g>
	
		<image style="overflow:visible;opacity:0.1;enable-background:new    ;" width="39" height="39" xlink:href="68BE3AFD.png"  transform="matrix(1.1783 0 0 1.1783 514.1165 283.1258)">
	</image>
	<g>
		<path class="st7" d="M533.4,303.9c1.9-1.5,2.4-4.2,1-6.2c-1.5-1.9-4.2-2.4-6.2-1c-1.9,1.5-2.4,4.2-1,6.2S531.5,305.3,533.4,303.9z
			"/>
	</g>
</g>
<g>
	
		<image style="overflow:visible;opacity:0.1;enable-background:new    ;" width="39" height="39" xlink:href="68BE3AFA.png"  transform="matrix(1.1783 0 0 1.1783 105.923 141.0001)">
	</image>
	<g>
		<path class="st7" d="M125.2,161.7c1.9-1.5,2.4-4.2,1-6.2c-1.5-1.9-4.2-2.4-6.2-1c-1.9,1.5-2.4,4.2-1,6.2
			C120.5,162.7,123.3,163.2,125.2,161.7z"/>
	</g>
</g>
<g>
	
		<image style="overflow:visible;opacity:0.1;enable-background:new    ;" width="44" height="44" xlink:href="68BE3AF5.png"  transform="matrix(1.1818 0 0 1.1818 522.5817 252.8929)">
	</image>
	<g>
		<path class="st7" d="M549.8,272.7c0.2,3.9-2.7,7.3-6.5,7.5s-7.3-2.7-7.5-6.5c-0.2-3.9,2.7-7.3,6.5-7.5
			C546.1,265.9,549.5,268.8,549.8,272.7z"/>
	</g>
</g>
<g>
	
		<image style="overflow:visible;opacity:0.1;enable-background:new    ;" width="39" height="39" xlink:href="68BE3AF6.png"  transform="matrix(1.1783 0 0 1.1783 526.2096 214.1948)">
	</image>
	<g>
		<path class="st7" d="M547.7,231.2c0.1,2.4-1.7,4.6-4.1,4.7c-2.4,0.1-4.6-1.7-4.7-4.1c-0.1-2.4,1.7-4.6,4.1-4.7
			C545.5,227,547.6,228.8,547.7,231.2z"/>
	</g>
</g>
<g>
	
		<image style="overflow:visible;opacity:0.1;enable-background:new    ;" width="39" height="40" xlink:href="68BE3AF4.png"  transform="matrix(1.1783 0 0 1.1783 505.6512 232.35)">
	</image>
	<g>
		<path class="st7" d="M527.4,249.6c0.1,2.4-1.7,4.6-4.1,4.7c-2.4,0.1-4.6-1.7-4.7-4.1c-0.1-2.4,1.7-4.6,4.1-4.7
			C525.1,245.3,527.1,247.2,527.4,249.6z"/>
	</g>
</g>
<g>
	
		<image style="overflow:visible;opacity:0.1;enable-background:new    ;" width="39" height="40" xlink:href="68BE3AEA.png"  transform="matrix(1.1783 0 0 1.1783 206.923 77.6416)">
	</image>
	<g>
		<path class="st7" d="M228.7,94.9c0.1,2.4-1.7,4.6-4.1,4.7c-2.4,0.1-4.6-1.7-4.7-4.1s1.7-4.6,4.1-4.7
			C226.4,90.6,228.4,92.4,228.7,94.9z"/>
	</g>
</g>
<g>
	
		<image style="overflow:visible;opacity:0.1;enable-background:new    ;" width="39" height="40" xlink:href="68BE3AED.png"  transform="matrix(1.1783 0 0 1.1783 149.123 337.914)">
	</image>
	<g>
		<path class="st7" d="M170.9,355.1c0.1,2.4-1.7,4.6-4.1,4.7c-2.4,0.1-4.6-1.7-4.7-4.1c-0.1-2.4,1.7-4.6,4.1-4.7
			C168.6,350.9,170.6,352.7,170.9,355.1z"/>
	</g>
</g>
</svg>
