<?xml version="1.0" encoding="utf-8"?>
<!-- Generator: Adobe Illustrator 26.1.0, SVG Export Plug-In . SVG Version: 6.00 Build 0)  -->
<svg version="1.1" id="Layer_1" xmlns="http://www.w3.org/2000/svg" xmlns:xlink="http://www.w3.org/1999/xlink" x="0px" y="0px"
	 viewBox="0 0 1920 1080" style="enable-background:new 0 0 1920 1080;" xml:space="preserve">
<style type="text/css">
	.st0{fill:#FFFFFF;}
	.st1{fill:#E0E0DD;}
</style>
<g id="Layer_2_00000176008947223279103490000016511140348801221782_">
	<rect y="0.6" class="st0" width="1920" height="1079.4"/>
</g>
<polygon class="st1" points="1551.8,329.9 1542.4,333.7 1541.5,323.5 1511.9,-32.4 1521.6,-33.2 1551,319.8 "/>
<polygon class="st1" points="1553.7,351.9 1544.2,355.6 1543.4,345.5 1552.8,341.7 1552.8,341.7 "/>
<polygon class="st1" points="1555.4,372.5 1545.7,367.6 1545.2,367.4 1544.5,359.7 1553.9,364.4 1554.7,364.1 1554.8,364.8 "/>
<polygon class="st1" points="1556.8,389.2 1553.5,387.6 1546.6,384.1 1546.1,378 1545.9,376.4 1547.8,377.3 1556.1,381.5 
	1556.6,386.4 "/>
<polygon class="st1" points="1558.2,406.3 1548,401.1 1547.9,400.3 1547.3,393.4 1555.3,397.4 1557.6,398.5 "/>
<polygon class="st1" points="1559.6,423.3 1554.6,420.8 1554.6,420.8 1549.4,418.2 1549.4,418.2 1548.9,412.5 1548.8,410.4 
	1551.2,411.6 1559,415.6 1559.3,418.9 "/>
<polygon class="st1" points="1561,440.3 1550.8,435.2 1550.8,434.9 1550.2,427.5 1558.7,431.8 1560.4,432.6 "/>
<polygon class="st1" points="1616.9,1110.8 1607.2,1111.6 1597.2,991.5 1596.4,982.3 1595.5,971.3 1594.8,962.2 1593.8,951.2 
	1593.1,942.1 1592.2,931.1 1591.4,922 1590.5,911 1589.7,901.8 1588.8,891.2 1588.1,882.1 1552.3,452.2 1551.7,445 1551.6,444.5 
	1552.2,444.8 1561.8,449.6 1562.5,457.4 1598,883.7 1598.8,892.8 1599.6,903.4 1600.4,912.6 1601.3,923.6 1602.1,932.7 1603,943.7 
	1603.8,952.8 1604.7,963.8 1605.4,972.9 1606.3,983.9 1607.1,993.1 "/>
<polygon class="st1" points="1531,338.2 1521.6,341.9 1520.7,331.8 1490.5,-30.6 1500.2,-31.4 1530.2,328 "/>
<polygon class="st1" points="1532.9,361.2 1531.7,360.6 1522.7,356.1 1522.5,353.7 1522.1,348.4 1528.2,351.5 1532,350 
	1532.3,353.5 1532.3,353.5 1532.8,360.1 "/>
<polygon class="st1" points="1534.3,377.9 1527.9,374.7 1524.1,372.8 1523.5,365.1 1533.7,370.2 1533.9,372.3 "/>
<polygon class="st1" points="1535.8,395 1535.4,394.8 1525.5,389.8 1525.2,386.2 1524.9,382.1 1529.7,384.5 1535.1,387.2 
	1535.7,394.7 "/>
<polygon class="st1" points="1537.2,412 1528.9,407.9 1527,406.9 1526.3,399.1 1536.5,404.2 1536.5,404.3 1536.6,404.8 "/>
<polygon class="st1" points="1538.6,429 1536.5,428 1528.4,423.9 1528.1,420.8 1527.7,416.1 1533.1,418.8 1537.9,421.3 
	1538.4,427.2 "/>
<polygon class="st1" points="1595.5,1112.6 1585.8,1113.4 1575.4,988 1574.6,978.8 1573.7,967.8 1573.7,967.8 1572.9,958.7 
	1572,947.7 1571.3,938.6 1570.3,927.6 1569.6,918.5 1568.7,907.5 1567.9,898.3 1567,887.7 1566.3,878.6 1530.8,453.3 1530,443.1 
	1529.8,440.9 1529.2,433.2 1539.4,438.3 1539.4,439.4 1540,446 1540.3,449.5 1576.2,880.2 1576.9,889.3 1577.8,899.9 1578.6,909.1 
	1579.5,920.1 1580.3,929.2 1581.2,940.2 1581.9,949.3 1582.8,960.3 1583.6,969.4 1584.5,980.4 1585.3,989.5 "/>
<polygon class="st1" points="1510.5,349.9 1506.5,347.9 1500.3,344.8 1499.9,340 1499.6,337 1469.2,-28.9 1478.9,-29.7 
	1509.3,336.3 1509.8,342.2 1510.2,346.4 "/>
<polygon class="st1" points="1511.9,366.6 1502.2,361.8 1501.7,362 1501.7,361.5 1501,353.8 1510.5,358.5 1511.2,358.9 "/>
<polygon class="st1" points="1513.3,383.7 1509.8,381.9 1509.8,381.9 1503.1,378.5 1502.6,372.1 1502.4,370.8 1504,371.6 
	1512.7,375.9 1513,380.6 "/>
<polygon class="st1" points="1514.7,400.7 1504.5,395.5 1504.4,394.5 1503.9,387.8 1511.5,391.7 1514.1,393 "/>
<polygon class="st1" points="1516.1,417.7 1510.8,415 1505.9,412.6 1505.4,406.7 1505.3,404.8 1507.4,405.9 1515.5,410 
	1515.8,413.1 "/>
<polygon class="st1" points="1517.6,435.4 1508.2,439.2 1507.3,429.6 1507.3,429 1506.7,421.9 1514.9,426 1516.9,427 1517.6,434.8 
	"/>
<polygon class="st1" points="1574.2,1114.3 1564.5,1115.1 1553.6,984.5 1552.8,975.3 1551.9,964.3 1551.9,964.3 1551.1,955.2 
	1550.2,944.2 1549.5,935.1 1548.6,924.1 1547.8,915 1546.9,904 1546.1,894.8 1545.2,884.2 1544.5,875.1 1510,461.5 1509.2,451.4 
	1518.6,447.6 1519.5,457.8 1554.4,876.7 1555.1,885.8 1556,896.4 1556.8,905.6 1557.7,916.6 1558.5,925.7 1559.4,936.7 
	1560.1,945.8 1561.1,956.8 1561.8,965.9 1561.8,965.9 1562.7,976.9 1563.5,986 "/>
<polygon class="st1" points="1488,338.6 1477.8,333.5 1477.2,325.7 1447.8,-27.1 1457.5,-27.9 1487.4,330.9 "/>
<polygon class="st1" points="1489.4,355.3 1488.7,355 1479.2,350.2 1479.1,348.3 1478.6,342.4 1485.3,345.8 1488.8,347.6 
	1489.4,354.7 "/>
<polygon class="st1" points="1490.8,372.4 1484.1,369 1480.6,367.2 1480,359.5 1490.2,364.6 1490.3,366.5 "/>
<polygon class="st1" points="1492.3,389.4 1491.6,389.1 1482.1,384.2 1481.7,380.4 1481.4,376.5 1485.9,378.7 1485.9,378.7 
	1491.6,381.6 1492.2,388.8 1492.2,388.8 "/>
<polygon class="st1" points="1493.7,406.4 1485.2,402.1 1485.2,402.1 1483.5,401.3 1482.8,393.5 1493,398.7 1493.1,399 "/>
<polygon class="st1" points="1495.1,423.4 1492.7,422.2 1492.7,422.2 1485.5,425.1 1484.9,418.3 1484.6,414.9 1484.2,410.6 
	1489.3,413.1 1494.5,415.7 1494.9,421.3 "/>
<polygon class="st1" points="1496.8,443.7 1487.3,447.4 1486.5,437.3 1495.9,433.5 "/>
<polygon class="st1" points="1552.8,1116.1 1543.1,1116.9 1531.8,981 1531,971.8 1530.1,960.8 1529.3,951.7 1528.4,940.7 
	1527.7,931.6 1526.8,920.6 1526,911.5 1525.1,900.5 1524.3,891.3 1523.4,880.7 1522.7,871.6 1489.2,469.8 1488.3,459.6 
	1497.8,455.9 1498.7,466 1532.6,873.2 1533.3,882.3 1534.2,892.9 1535,902.1 1535.9,913 1536.7,922.2 1537.6,933.2 1538.3,942.3 
	1539.2,953.3 1540,962.4 1540.9,973.4 1541.7,982.5 "/>
<polygon class="st1" points="1465.6,327.3 1455.4,322.1 1454.7,314.4 1426.4,-25.3 1436.1,-26.1 1464.9,319.6 "/>
<polygon class="st1" points="1456.8,338.9 1456.8,338.9 1456.1,331.1 1466.3,336.3 1467,344 "/>
<polygon class="st1" points="1468.4,361 1458.9,356.3 1458.2,355.9 1457.5,348.2 1467.1,353 1467.7,353.3 "/>
<polygon class="st1" points="1469.8,378.1 1466,376.1 1466,376.1 1459.6,372.9 1459.1,366.7 1459,365.2 1460.7,366.1 1469.2,370.3 
	1469.5,374.7 "/>
<polygon class="st1" points="1471.2,395.1 1461,390 1460.9,388.6 1460.4,382.2 1467.7,385.9 1470.6,387.4 "/>
<polygon class="st1" points="1472.7,412.1 1467,409.3 1462.8,411 1462.4,407 1461.9,400.8 1461.8,399.2 1463.6,400.2 1463.6,400.2 
	1472,404.4 1472.2,407.2 "/>
<polygon class="st1" points="1474.1,429.6 1464.6,433.3 1463.8,423.2 1473.2,419.4 "/>
<polygon class="st1" points="1476,451.9 1466.5,455.7 1465.7,445.5 1475.1,441.8 "/>
<polygon class="st1" points="1531.4,1117.9 1521.7,1118.7 1510,977.5 1509.2,968.3 1508.3,957.3 1508.3,957.3 1507.5,948.2 
	1506.6,937.2 1505.9,928.1 1504.9,917.1 1504.2,908 1503.3,897 1502.5,887.8 1501.6,877.2 1500.9,868.1 1468.4,478 1467.5,467.9 
	1477,464.1 1477.8,474.3 1510.8,869.7 1511.5,878.8 1512.4,889.4 1513.2,898.6 1514.1,909.5 1514.8,918.7 1515.8,929.7 
	1516.5,938.8 1517.4,949.8 1518.2,958.9 1518.2,958.9 1519.1,969.9 1519.9,979 "/>
<polygon class="st1" points="1443.5,316.2 1433.3,311 1432.7,303.3 1405.4,-23.5 1415.2,-24.4 1442.9,308.5 "/>
<polygon class="st1" points="1434.7,327.8 1434.7,327.8 1434.1,320 1444.3,325.2 1444.9,332.9 "/>
<polygon class="st1" points="1446.3,349.9 1436.1,344.8 1435.5,337.1 1445.7,342.2 "/>
<polygon class="st1" points="1447.8,367 1440.8,363.5 1437.6,361.8 1436.9,354.1 1447.1,359.2 1447.3,360.9 "/>
<polygon class="st1" points="1449.2,384 1447.8,383.3 1439,378.9 1438.6,374.8 1438.3,371.1 1442.6,373.2 1448.5,376.3 
	1449.1,382.8 "/>
<polygon class="st1" points="1450.6,401 1441.4,396.4 1440.5,396.7 1440.4,395.9 1439.8,388.1 1449.6,393.1 1449.9,393 1450,393.3 
	"/>
<polygon class="st1" points="1451.8,415.3 1451.8,415.3 1442.3,419.1 1441.5,408.9 1450.9,405.2 "/>
<polygon class="st1" points="1453.7,437.7 1444.2,441.4 1443.3,431.3 1452.8,427.5 "/>
<polygon class="st1" points="1455.5,460 1446.1,463.8 1445.2,453.6 1454.7,449.9 "/>
<polygon class="st1" points="1510.5,1119.6 1500.8,1120.4 1488.6,974 1487.8,964.9 1486.9,953.9 1486.1,944.8 1485.2,933.8 
	1484.4,924.6 1483.5,913.7 1482.8,904.5 1481.9,893.5 1481.1,884.4 1480.2,873.8 1479.5,864.7 1447.9,486.1 1447.1,476 
	1456.5,472.2 1457.4,482.4 1489.4,866.2 1490.1,875.4 1491,886 1491.8,895.1 1492.7,906.1 1493.4,915.2 1494.4,926.2 1495.1,935.4 
	1496,946.3 1496.8,955.5 1497.7,966.5 1498.5,975.6 "/>
<polygon class="st1" points="599.8,822.2 594.8,824.2 589.5,826.3 583.6,828.6 583.2,828.8 577.9,830.9 576,827.4 573.9,827.1 
	567.8,826.1 571.8,833.3 566.5,835.4 -53.6,1081.1 -57.2,1072.1 561.8,826.8 564.8,825.6 567.1,824.7 573.2,822.3 578.4,820.2 
	581,819.2 585.1,819.8 586,820 592.7,821.1 593,821.1 "/>
<polygon class="st1" points="635.5,808.1 629.5,810.5 624.2,812.5 619.2,814.5 617.4,814.2 611.9,813.3 610.4,813.1 602.8,811.9 
	602,811.7 600.4,811.5 601.6,811 607.9,808.5 613.2,806.4 616.6,805.1 620.4,805.7 623.1,806.1 627.5,806.8 630.7,807.3 "/>
<polygon class="st1" points="671.1,794 654.9,800.4 636,797.4 652.2,790.9 652.2,790.9 "/>
<polygon class="st1" points="706.7,779.8 690.5,786.3 671.7,783.2 687.9,776.8 "/>
<polygon class="st1" points="723.5,762.7 742.4,765.7 726.2,772.1 726.2,772.1 707.3,769.1 "/>
<polygon class="st1" points="1552.2,444.8 1551.7,445 1544,448.1 1540.3,449.5 1530.8,453.3 1519.5,457.8 1510,461.5 1498.7,466 
	1489.2,469.8 1477.8,474.3 1468.4,478 1457.4,482.4 1447.9,486.1 777.4,751.8 761.2,758.3 761.2,758.3 742.3,755.2 758.5,748.8 
	758.5,748.8 1447.1,476 1456.5,472.2 1467.5,467.9 1477,464.1 1488.3,459.6 1497.8,455.9 1509.2,451.4 1518.6,447.6 1530,443.1 
	1532.3,442.2 1539.4,439.4 1540.6,438.9 1551.6,444.5 "/>
<polygon class="st1" points="1570.4,437.6 1562.1,440.9 1561,440.3 1550.8,435.2 1550.5,435 1550.8,434.9 1558.7,431.8 
	1560.4,432.6 "/>
<polygon class="st1" points="1588.5,430.4 1580.3,433.7 1568.6,427.8 1576.8,424.6 "/>
<polygon class="st1" points="1606.6,423.2 1598.4,426.5 1586.7,420.6 1595,417.4 "/>
<polygon class="st1" points="1624.8,416.1 1616.5,419.3 1604.9,413.5 1613.1,410.2 1613.1,410.2 "/>
<polygon class="st1" points="2028,256.3 1642.6,409 1634.3,412.3 1622.7,406.4 1630.9,403.1 1630.9,403.1 2024.4,247.2 "/>
<polygon class="st1" points="558.3,815.5 556.1,816.4 542.1,822 -61.5,1061.2 -65.1,1052.1 523.3,818.9 539.5,812.5 552.1,814.5 
	555.4,815.1 "/>
<polygon class="st1" points="594,801.4 590.6,802.8 584.3,805.3 579,807.3 577.8,807.8 577.8,807.8 571,806.8 569.5,806.5 
	569.5,806.5 564,805.6 562,805.3 561.9,805.3 558.9,804.8 562.7,803.3 568,801.2 574.3,798.7 575.1,798.4 575.2,798.4 580.7,799.3 
	580.7,799.3 581.1,799.3 589.5,800.7 589.8,800.8 "/>
<polygon class="st1" points="629.6,787.3 619,791.5 613.8,793.6 613.4,793.7 607.5,792.8 605.5,792.4 599.9,791.5 598.4,791.3 
	594.6,790.7 597.5,789.5 602.7,787.5 609,785 610.8,784.3 611.1,784.3 615.5,785 618.7,785.5 "/>
<polygon class="st1" points="665.3,773.2 649.1,779.6 649.1,779.6 630.2,776.6 646.4,770.2 "/>
<polygon class="st1" points="682.1,756 700.9,759 684.7,765.5 684.7,765.5 665.9,762.5 "/>
<polygon class="st1" points="1526.6,431.9 1518.3,435.1 1517.6,435.4 1508.2,439.2 1496.8,443.7 1487.3,447.4 1476,451.9 
	1466.5,455.7 1455.5,460 1446.1,463.8 735.9,745.2 719.7,751.6 719.7,751.6 700.9,748.6 717.1,742.2 717.1,742.2 1445.2,453.6 
	1454.7,449.9 1465.7,445.5 1475.1,441.8 1486.5,437.3 1495.9,433.5 1506.7,429.3 1507.3,429 1514.9,426 1516.9,427 "/>
<polygon class="st1" points="1544.7,424.7 1538.4,427.2 1536.5,428 1528.4,423.9 1524.8,422.1 1528.1,420.8 1533.1,418.8 
	1537.9,421.3 "/>
<polygon class="st1" points="1562.8,417.5 1559.3,418.9 1554.6,420.8 1554.6,420.8 1549.4,418.2 1549.4,418.2 1542.9,414.9 
	1548.9,412.5 1551.2,411.6 1559,415.6 "/>
<polygon class="st1" points="1581,410.3 1572.7,413.6 1561.1,407.7 1569.3,404.5 "/>
<polygon class="st1" points="1599.1,403.1 1590.9,406.4 1579.2,400.5 1587.4,397.3 "/>
<polygon class="st1" points="2020.1,236.3 1616.9,396.1 1608.7,399.4 1608.7,399.4 1597,393.5 1605.2,390.2 2016.5,227.3 "/>
<polygon class="st1" points="516.9,808.9 500.7,815.3 -69.4,1041.2 -73,1032.1 481.8,812.3 498,805.9 "/>
<polygon class="st1" points="552.5,794.8 550.9,795.4 545.7,797.5 536.3,801.2 536.3,801.2 517.5,798.2 533.7,791.7 533.7,791.7 
	540.1,792.8 540.2,792.8 543.4,793.3 547.7,794 550.4,794.4 "/>
<polygon class="st1" points="588.2,780.6 585.5,781.7 580.2,783.8 573.9,786.3 572,787.1 567.5,786.3 566.6,786.2 566.6,786.2 
	559,785 557.5,784.7 553.1,784 557.6,782.3 563.9,779.8 569.1,777.7 569.3,777.6 577.5,778.9 577.8,779 577.8,779 584.5,780 
	585.4,780.2 "/>
<polygon class="st1" points="623.8,766.5 608.6,772.5 607.6,772.9 607.6,772.9 604.6,772.5 601.9,772 595.5,771 595.5,771 
	593.5,770.7 593.5,770.7 588.8,769.9 592.3,768.5 598.6,766 603.9,763.9 605,763.5 606.7,763.8 "/>
<polygon class="st1" points="640.6,749.4 659.5,752.4 643.3,758.8 643.2,758.8 624.4,755.8 640.6,749.4 "/>
<polygon class="st1" points="1500.9,419 1494.9,421.3 1492.7,422.2 1492.7,422.2 1485.5,425.1 1474.1,429.6 1464.6,433.3 
	1453.7,437.7 1444.2,441.4 694.5,738.5 678.3,745 678.2,745 659.4,741.9 675.6,735.5 1443.3,431.3 1452.8,427.5 1463.8,423.2 
	1473.2,419.4 1481,416.4 1484.6,414.9 1489.3,413.1 1494.5,415.7 "/>
<polygon class="st1" points="1519.1,411.8 1515.8,413.1 1510.8,415 1505.9,412.6 1499.2,409.2 1505.4,406.7 1507.4,405.9 
	1515.5,410 "/>
<polygon class="st1" points="1537.2,404.6 1536.6,404.8 1528.9,407.9 1527,406.9 1517.3,402 1525.5,398.7 1526.3,399.1 
	1536.5,404.2 1536.5,404.3 "/>
<polygon class="st1" points="1555.3,397.4 1547.9,400.3 1547.1,400.7 1547.1,400.7 1535.8,395 1535.4,394.8 1535.7,394.7 
	1543.7,391.5 1543.7,391.5 1547.3,393.4 "/>
<polygon class="st1" points="1573.4,390.2 1565.2,393.5 1556.8,389.2 1553.5,387.6 1556.6,386.4 1561.8,384.4 "/>
<polygon class="st1" points="2012.2,216.4 1591.2,383.2 1583,386.4 1571.3,380.6 1579.6,377.3 2008.6,207.3 "/>
<polygon class="st1" points="475.4,802.2 459.2,808.7 459.2,808.7 -77.3,1021.3 -80.9,1012.2 440.4,805.6 456.6,799.2 456.6,799.2 
	"/>
<polygon class="st1" points="511.1,788.1 494.9,794.5 494.9,794.5 476,791.5 492.2,785.1 492.2,785.1 "/>
<polygon class="st1" points="546.7,774 546.6,774 540.5,776.4 535.2,778.5 530.5,780.4 511.7,777.4 527.9,771 528.2,771 
	531.4,771.5 535.7,772.2 538.4,772.7 544.5,773.6 546.6,774 "/>
<polygon class="st1" points="582.3,759.9 581.3,760.3 575,762.8 569.8,764.8 566.2,766.3 562.5,765.7 562.2,765.6 555.5,764.6 
	554.6,764.4 554.6,764.4 547.3,763.2 553.5,760.8 558.7,758.7 563.5,756.8 565.5,757.2 565.8,757.2 572.6,758.3 573.4,758.4 
	581,759.6 "/>
<polygon class="st1" points="618,745.7 601.8,752.2 601.8,752.2 600.2,751.9 600.2,751.9 597,751.4 592.6,750.7 589.9,750.2 
	583.5,749.2 583,749.1 588.2,747.1 593.4,745 599.1,742.7 599.2,742.7 "/>
<polygon class="st1" points="1475.3,406 1472.2,407.2 1467,409.3 1462.8,411 1451.8,415.3 1451.8,415.3 1442.3,419.1 653,731.9 
	636.8,738.3 636.8,738.3 618,735.3 634.1,728.8 1441.5,408.9 1450.9,405.2 1455.4,403.4 1461.9,400.8 1463.6,400.2 1463.6,400.2 
	1472,404.4 "/>
<polygon class="st1" points="1493.4,398.9 1493.1,399 1485.2,402.1 1485.2,402.1 1483.5,401.3 1473.5,396.2 1481.7,393 
	1482.8,393.5 1493,398.7 "/>
<polygon class="st1" points="1511.5,391.7 1504.4,394.5 1503.3,394.9 1492.3,389.4 1491.6,389.1 1492.2,388.8 1492.2,388.8 
	1499.9,385.8 1499.9,385.8 1503.9,387.8 "/>
<polygon class="st1" points="1529.7,384.5 1525.2,386.2 1521.4,387.8 1513.3,383.7 1509.8,381.9 1513,380.6 1518,378.6 
	1524.9,382.1 "/>
<polygon class="st1" points="1547.8,377.3 1546.1,378 1539.5,380.6 1534.3,377.9 1527.9,374.7 1533.9,372.3 1536.1,371.4 
	1536.1,371.4 1545.9,376.4 "/>
<polygon class="st1" points="2004.3,196.4 1565.6,370.2 1557.3,373.5 1555.4,372.5 1545.7,367.6 1553.9,364.4 1554.7,364.1 
	2000.7,187.4 "/>
<polygon class="st1" points="434,795.6 417.8,802 417.8,802 -85.2,1001.3 -88.8,992.2 398.9,799 415.1,792.5 415.1,792.5 "/>
<polygon class="st1" points="450.8,778.4 469.6,781.4 453.4,787.9 434.6,784.8 "/>
<polygon class="st1" points="505.2,767.3 489,773.7 470.2,770.7 486.4,764.3 "/>
<polygon class="st1" points="540.9,753.2 536.2,755.1 530.1,757.5 524.8,759.6 524.7,759.6 524.7,759.6 521.6,759.1 505.8,756.6 
	520.1,750.9 522,750.2 522,750.2 523.8,750.4 526.5,750.9 532.5,751.8 534.6,752.2 540.1,753.1 540.1,753.1 "/>
<polygon class="st1" points="576.5,739.1 576.2,739.2 570.9,741.3 564.6,743.8 560.3,745.5 559.3,745.3 559,745.3 550.6,743.9 
	550.2,743.9 543.5,742.8 542.7,742.7 541.5,742.5 543,741.8 548.3,739.8 554.6,737.3 557.7,736 557.7,736 560.6,736.5 561.4,736.6 
	569,737.9 570.5,738.1 576,739 "/>
<polygon class="st1" points="1449.6,393.1 1441.4,396.4 1440.5,396.7 611.5,725.2 611.5,725.2 595.3,731.6 588.4,730.5 585.2,730 
	580.9,729.3 578.2,728.9 576.5,728.6 577.7,728.1 583,726 592.7,722.2 1429.7,390.5 1437.9,387.2 1439.8,388.1 "/>
<polygon class="st1" points="1467.7,385.9 1460.9,388.6 1459.5,389.2 1459.5,389.2 1449.2,384 1447.8,383.3 1449.1,382.8 
	1456.1,380 1456.1,380 1460.4,382.2 "/>
<polygon class="st1" points="1485.9,378.7 1481.7,380.4 1477.6,382 1469.8,378.1 1466,376.1 1469.5,374.7 1474.2,372.9 
	1481.4,376.5 "/>
<polygon class="st1" points="1504,371.6 1502.6,372.1 1495.8,374.8 1490.8,372.4 1484.1,369 1490.3,366.5 1492.3,365.7 
	1502.4,370.8 "/>
<polygon class="st1" points="1522.1,364.4 1513.9,367.6 1511.9,366.6 1511.9,366.6 1502.2,361.8 1510.5,358.5 1511.2,358.9 "/>
<polygon class="st1" points="1996.4,176.5 1553.7,351.9 1544.2,355.6 1539.9,357.3 1532.8,360.1 1531.7,360.6 1522.7,356.1 
	1520,354.7 1522.5,353.7 1528.2,351.5 1532,350 1543.4,345.5 1552.8,341.7 1552.8,341.7 1992.8,167.4 "/>
<polygon class="st1" points="393.3,789 377.1,795.5 377,795.5 -93,981.7 -96.6,972.6 358.2,792.4 374.4,786 374.4,786 "/>
<polygon class="st1" points="410.1,771.9 428.9,774.9 412.7,781.3 393.9,778.3 410.1,771.9 "/>
<polygon class="st1" points="464.5,760.8 448.3,767.2 429.5,764.2 445.7,757.8 "/>
<polygon class="st1" points="500.2,746.7 484,753.1 465.1,750 481.4,743.6 "/>
<polygon class="st1" points="535.8,732.5 531.2,734.4 530.1,734.8 525.9,736.5 524.4,737.1 519.8,738.9 519.6,739 517.2,738.6 
	512.9,737.9 509.6,737.3 500.8,735.9 507.4,733.3 509.8,732.3 513.1,731 515.1,730.2 517,729.5 517,729.5 520.5,730.1 522.6,730.4 
	528.1,731.3 529.6,731.5 "/>
<polygon class="st1" points="1424.4,380.4 1416.2,383.7 579.9,715.1 577.5,716 574.3,717.3 572.2,718.1 570.8,718.7 567.5,720 
	565.9,720.6 561.8,722.2 560.7,722.7 555,724.9 554.6,725.1 554.6,725.1 554.3,725.2 554.3,725 547.5,724 547.2,723.9 538.8,722.5 
	538.8,722.5 538.5,722.5 535.8,722.1 537.8,721.3 538,721.2 544.3,718.7 544.6,718.6 549.6,716.6 550.2,716.3 552,715.6 
	555.9,714.1 557,713.6 561.2,712 562.7,711.4 567.5,709.5 569.5,708.7 572.8,707.4 575.2,706.4 1404.5,377.8 1412.8,374.5 
	1412.8,374.5 "/>
<polygon class="st1" points="1442.6,373.2 1438.6,374.8 1434.3,376.5 1422.7,370.6 1430.9,367.4 1438.3,371.1 "/>
<polygon class="st1" points="1460.7,366.1 1459.1,366.7 1452.4,369.3 1447.8,367 1440.8,363.5 1447.3,360.9 1449,360.2 1449,360.2 
	1459,365.2 "/>
<polygon class="st1" points="1478.8,358.9 1470.6,362.1 1468.4,361 1458.9,356.3 1467.1,353 1467.7,353.3 "/>
<polygon class="st1" points="1496.9,351.7 1489.4,354.7 1488.7,355 1479.2,350.2 1477,349.1 1479.1,348.3 1485.3,345.8 
	1488.8,347.6 "/>
<polygon class="st1" points="1988.6,156.9 1551.8,329.9 1542.4,333.7 1531,338.2 1521.6,341.9 1514.7,344.6 1510.2,346.4 
	1506.5,347.9 1500.3,344.8 1494.8,342 1499.9,340 1503.1,338.8 1509.3,336.3 1520.7,331.8 1530.2,328 1541.5,323.5 1551,319.8 
	1985,147.8 "/>
<polygon class="st1" points="452.5,488.9 449.7,490.9 447.9,492.2 444.2,485.4 159.2,-32.5 164.2,-35.2 448.8,482.2 "/>
<polygon class="st1" points="460.5,503.4 457.7,505.4 455.9,506.7 452.2,499.9 454,498.7 456.8,496.7 "/>
<polygon class="st1" points="468.6,518.2 465.8,520.2 464,521.4 460.3,514.7 462.1,513.5 465,511.5 "/>
<polygon class="st1" points="476.8,533 473.9,535 472.1,536.2 468.5,529.5 470.2,528.2 473.1,526.3 "/>
<polygon class="st1" points="484.9,547.7 482,549.7 480.3,551 476.6,544.3 478.4,543 481.2,541 "/>
<polygon class="st1" points="574.3,717.3 572.2,718.1 567.5,709.5 488.4,565.7 484.7,559 486.5,557.8 489.3,555.8 493,562.5 
	572.8,707.4 577.5,716 "/>
<polygon class="st1" points="585.2,730 580.9,729.3 578.2,728.9 577.7,728.1 572.7,719 575.4,719.4 579.8,720.1 583,726 "/>
<polygon class="st1" points="597,751.4 592.6,750.7 589.9,750.2 588.2,747.1 584.5,740.3 587.2,740.8 591.5,741.5 593.4,745 "/>
<polygon class="st1" points="608.9,773.2 607.6,772.9 607.6,772.9 604.6,772.5 601.9,772 598.6,766 596.5,762.1 599.2,762.6 
	603.5,763.2 603.9,763.9 608.6,772.5 "/>
<polygon class="st1" points="620.9,794.9 616.6,794.2 613.9,793.8 613.8,793.6 609,785 608.4,783.9 610.8,784.3 611.1,784.3 
	615.5,785 619,791.5 "/>
<polygon class="st1" points="632.9,816.7 628.6,816 625.9,815.6 624.2,812.5 620.4,805.7 623.1,806.1 627.5,806.8 629.5,810.5 "/>
<polygon class="st1" points="785.3,1093.6 780.3,1096.3 637.8,837.3 632.4,827.5 635.1,827.9 639.4,828.6 644.9,838.5 "/>
<polygon class="st1" points="442.4,496 438.7,498.6 437.7,499.3 434,492.5 148.4,-26.5 153.3,-29.2 438.7,489.3 "/>
<polygon class="st1" points="450.3,510.5 446.7,513.1 445.7,513.8 442,507 443,506.4 446.6,503.8 "/>
<polygon class="st1" points="458.5,525.3 454.8,527.8 453.8,528.5 450.1,521.8 451.1,521.1 454.8,518.6 "/>
<polygon class="st1" points="466.6,540.1 463,542.6 462,543.3 458.3,536.6 459.3,535.9 462.9,533.4 "/>
<polygon class="st1" points="474.7,554.8 471.1,557.4 470.1,558.1 466.4,551.4 467.4,550.7 471,548.1 "/>
<polygon class="st1" points="569.7,727.5 564.2,726.6 562.7,726.4 560.7,722.7 557.3,716.5 555.9,714.1 478.2,572.8 474.5,566.1 
	475.5,565.5 479.2,562.9 482.9,569.6 561.2,712 564.3,717.6 565.9,720.6 "/>
<polygon class="st1" points="581.5,748.9 576,748 576,748 574.5,747.8 570.9,741.3 569,737.9 570.5,738.1 576,739 576.2,739.2 "/>
<polygon class="st1" points="593.5,770.7 588.8,769.9 588,769.8 586.5,769.5 581.3,760.3 581,759.6 582.3,759.9 582.4,759.9 
	582.5,759.9 588,760.8 592.3,768.5 "/>
<polygon class="st1" points="605.5,792.4 599.9,791.5 598.4,791.3 597.5,789.5 593,781.4 594.5,781.7 600,782.5 602.7,787.5 "/>
<polygon class="st1" points="617.4,814.2 611.9,813.3 610.4,813.1 607.9,808.5 605,803.2 606.5,803.4 606.5,803.4 612,804.3 
	613.2,806.4 "/>
<polygon class="st1" points="774.5,1099.6 769.5,1102.3 622.4,834.9 616.9,825 618.5,825.2 624,826.1 629.4,836 "/>
<polygon class="st1" points="432.2,503.1 427.8,506.2 427.5,506.4 423.9,499.7 137.6,-20.5 142.5,-23.2 428.5,496.4 "/>
<polygon class="st1" points="440.1,517.7 435.7,520.7 435.5,520.9 431.8,514.2 432,514 436.5,510.9 "/>
<polygon class="st1" points="448.3,532.4 443.9,535.5 443.6,535.7 440,528.9 440.2,528.8 444.6,525.7 "/>
<polygon class="st1" points="456.4,547.2 452,550.3 451.8,550.4 448.1,543.7 448.3,543.6 452.7,540.5 "/>
<polygon class="st1" points="464.5,562 460.1,565.1 459.9,565.2 456.2,558.5 456.4,558.3 460.8,555.2 "/>
<polygon class="st1" points="554.3,725 547.5,724 547.2,723.9 544.3,718.7 541.8,714 468,580 464.4,573.3 464.5,573.1 469,570 
	472.7,576.7 548.8,715.1 549.6,716.6 "/>
<polygon class="st1" points="566,746.4 560.3,745.5 559.3,745.3 559,745.3 554.6,737.3 553.6,735.4 553.9,735.4 557.7,736 
	557.7,736 560.6,736.5 564.6,743.8 "/>
<polygon class="st1" points="578,768.2 571.3,767.1 571,767 569.8,764.8 565.5,757.2 565.8,757.2 572.6,758.3 575,762.8 "/>
<polygon class="st1" points="590,790 583.3,788.9 583,788.8 580.2,783.8 577.5,778.9 577.8,779 577.8,779 584.5,780 585.5,781.7 "/>
<polygon class="st1" points="602,811.7 600.4,811.5 595.2,810.7 594.9,810.6 590.6,802.8 589.5,800.7 589.8,800.8 594,801.4 
	596.5,801.8 601.6,811 "/>
<polygon class="st1" points="763.6,1105.5 758.7,1108.2 606.9,832.4 601.5,822.5 601.8,822.5 608.5,823.6 614,833.5 "/>
<polygon class="st1" points="421.8,510.4 417.4,513.5 413.7,506.8 126.8,-14.6 131.7,-17.3 418.3,503.5 422,510.3 "/>
<polygon class="st1" points="430,524.8 429.8,524.9 425.3,528 421.6,521.3 426,518.2 426.3,518 "/>
<polygon class="st1" points="438.1,539.5 437.9,539.7 433.5,542.8 429.8,536.1 434.2,533 434.4,532.8 "/>
<polygon class="st1" points="446.2,554.3 446,554.5 441.6,557.5 437.9,550.8 442.3,547.8 442.5,547.6 "/>
<polygon class="st1" points="454.4,569.1 454.1,569.2 449.7,572.3 446,565.6 450.4,562.5 450.7,562.4 "/>
<polygon class="st1" points="538.8,722.5 538.5,722.5 535.8,722.1 535.8,722.1 531.8,721.4 526.3,711.5 457.9,587.1 454.2,580.4 
	458.6,577.3 458.8,577.1 462.5,583.8 533.4,712.7 533.4,712.7 538,721.2 "/>
<polygon class="st1" points="550.6,743.9 550.2,743.9 543.5,742.8 543,741.8 538.1,732.9 544.8,734 545.1,734 545.1,734 
	548.3,739.8 "/>
<polygon class="st1" points="562.5,765.7 562.2,765.6 555.5,764.6 553.5,760.8 550.1,754.7 556.8,755.7 557.1,755.8 557.1,755.8 
	558.7,758.7 "/>
<polygon class="st1" points="574.5,787.5 574.2,787.4 572,787.1 567.5,786.3 563.9,779.8 562,776.4 568.7,777.5 568.8,777.5 
	569.1,777.6 569.1,777.7 573.9,786.3 "/>
<polygon class="st1" points="586.5,809.2 586.2,809.2 579.5,808.1 579,807.3 574.3,798.7 574,798.2 575.1,798.4 575.2,798.4 
	580.7,799.3 580.7,799.3 581.1,799.3 584.3,805.3 "/>
<polygon class="st1" points="752.8,1111.5 747.9,1114.2 591.5,829.9 589.5,826.3 586,820 592.7,821.1 593,821.1 594.8,824.2 
	598.5,831 "/>
<polygon class="st1" points="411.8,517.4 410.8,518.1 407.2,520.6 403.5,513.9 115.9,-8.6 120.9,-11.3 408.1,510.7 "/>
<polygon class="st1" points="419.8,531.9 418.8,532.6 415.1,535.1 411.5,528.4 415.1,525.9 416.1,525.2 "/>
<polygon class="st1" points="427.9,546.7 426.9,547.3 423.3,549.9 419.6,543.2 423.2,540.6 424.2,539.9 "/>
<polygon class="st1" points="436,561.4 435,562.1 435,562.1 431.4,564.7 427.7,557.9 431.3,555.4 432.3,554.7 "/>
<polygon class="st1" points="444.2,576.2 443.2,576.9 439.5,579.4 435.8,572.7 439.5,570.2 440.5,569.5 "/>
<polygon class="st1" points="523.3,720 521.8,719.8 516.3,718.9 510.9,709 447.7,594.2 444,587.5 447.6,585 448.6,584.3 452.3,591 
	517.9,710.2 "/>
<polygon class="st1" points="535.1,741.4 533.6,741.2 528.1,740.3 525.9,736.5 522.6,730.4 528.1,731.3 529.6,731.5 531.2,734.4 "/>
<polygon class="st1" points="547.1,763.2 545.5,763 540,762.1 536.2,755.1 534.6,752.2 540.1,753.1 540.1,753.1 540.9,753.2 
	540.9,753.2 541.6,753.3 "/>
<polygon class="st1" points="559,785 557.5,784.7 553.1,784 553.1,784 552,783.8 546.6,774 546.6,774 546.7,774 546.7,774 
	552.1,774.8 552.1,774.8 553.6,775.1 557.6,782.3 "/>
<polygon class="st1" points="571,806.8 569.5,806.5 569.5,806.5 564,805.6 562.7,803.3 558.6,795.7 564.1,796.6 565.6,796.9 
	568,801.2 "/>
<polygon class="st1" points="742,1117.4 737.1,1120.1 577.9,830.9 576,827.4 573.2,822.3 570.5,817.5 576,818.4 577.6,818.6 
	578.4,820.2 583,828.5 583.2,828.8 "/>
<polygon class="st1" points="401.8,524.4 400,525.6 397.2,527.6 393.5,520.9 105.3,-2.8 110.2,-5.5 398.1,517.6 "/>
<polygon class="st1" points="409.8,538.9 408,540.1 405.1,542.1 401.5,535.4 404.3,533.4 406.1,532.2 "/>
<polygon class="st1" points="417.9,553.6 416.1,554.9 413.3,556.9 409.6,550.2 412.5,548.2 414.2,546.9 "/>
<polygon class="st1" points="426,568.4 424.3,569.7 421.4,571.6 417.7,564.9 420.6,562.9 422.4,561.7 "/>
<polygon class="st1" points="434.2,583.2 432.4,584.4 429.5,586.4 425.9,579.7 428.7,577.7 430.5,576.5 "/>
<polygon class="st1" points="508.1,717.6 505.5,717.2 501.1,716.5 495.7,706.6 437.7,601.2 434,594.5 436.8,592.5 438.6,591.2 
	442.3,598 502.7,707.7 "/>
<polygon class="st1" points="519.9,739 519.6,739 517.2,738.6 512.9,737.9 509.8,732.3 507.4,728 511.8,728.7 514.5,729.1 
	515.1,730.2 519.8,738.9 "/>
<polygon class="st1" points="531.9,760.8 529.2,760.3 524.9,759.6 524.8,759.6 520.1,750.9 519.4,749.8 522,750.2 522,750.2 
	523.8,750.4 526.5,750.9 530.1,757.5 "/>
<polygon class="st1" points="543.9,782.5 541.2,782.1 536.8,781.4 535.2,778.5 531.4,771.5 535.7,772.2 538.4,772.7 540.5,776.4 "/>
<polygon class="st1" points="555.9,804.3 553.2,803.9 548.8,803.2 545.7,797.5 543.4,793.3 547.7,794 550.4,794.4 550.9,795.4 "/>
<polygon class="st1" points="731.4,1123.3 726.4,1126 566.5,835.4 561.8,826.8 560.8,825 556.1,816.4 555.4,815.1 558.3,815.5 
	559.7,815.8 562.4,816.2 567.1,824.7 567.8,826.1 571.8,833.3 "/>
<polygon class="st1" points="1971.1,655.8 1968.1,661.7 1562.5,457.4 1552.3,452.2 1544,448.1 1540,446 1532.3,442.2 1529.8,440.9 
	1518.3,435.1 1517.6,434.8 1507.3,429.6 1506.7,429.3 1495.1,423.4 1492.7,422.2 1492.7,422.2 1484.9,418.3 1481,416.4 
	1472.7,412.1 1467,409.3 1462.4,407 1455.4,403.4 1450.6,401 1441.4,396.4 1440.4,395.9 1429.7,390.5 1416.2,383.7 1404.5,377.8 
	1028.5,188.5 1020.8,184.6 1011.5,179.9 1003.8,176 994.5,171.3 986.8,167.4 977.5,162.8 969.8,158.9 960.5,154.2 952.8,150.3 
	943.8,145.8 936.1,141.9 610.8,-21.9 613.8,-27.9 942.2,137.6 950,141.5 958.9,146 966.7,149.9 975.9,154.6 983.7,158.4 993,163.1 
	1000.7,167 1010,171.7 1017.7,175.6 1027,180.3 1034.7,184.1 1412.8,374.5 1412.8,374.5 1424.4,380.4 1437.9,387.2 1439.8,388.1 
	1449.6,393.1 1450,393.3 1461.8,399.2 1463.6,400.2 1463.6,400.2 1472,404.4 1475.3,406 1484.2,410.6 1489.3,413.1 1494.5,415.7 
	1500.9,419 1506.7,421.9 1514.9,426 1516.9,427 1526.6,431.9 1529.2,433.2 1539.4,438.3 1540.6,438.9 1551.6,444.5 1552.2,444.8 
	1561.8,449.6 "/>
<polygon class="st1" points="1977.7,642.8 1974.7,648.7 1562.1,440.9 1561,440.3 1550.8,435.2 1550.5,435 1538.6,429 1536.5,428 
	1528.4,423.9 1524.8,422.1 1516.1,417.7 1510.8,415 1505.9,412.6 1499.2,409.2 1493.7,406.4 1485.2,402.1 1485.2,402.1 
	1483.5,401.3 1473.5,396.2 1471.2,395.1 1461,390 1459.5,389.2 1459.5,389.2 1449.2,384 1447.8,383.3 1439,378.9 1434.3,376.5 
	1422.7,370.6 1422.6,370.6 1042.1,179 1034.4,175.1 1025.1,170.4 1017.4,166.5 1008.1,161.8 1000.3,157.9 991.1,153.3 983.3,149.4 
	974.1,144.7 966.3,140.8 957.4,136.3 949.6,132.4 617.3,-35 620.3,-40.9 955.8,128.1 963.5,132 972.5,136.5 980.2,140.4 
	989.5,145.1 997.2,149 1006.5,153.6 1014.3,157.5 1023.5,162.2 1031.3,166.1 1040.6,170.8 1048.3,174.7 1430.9,367.4 1438.3,371.1 
	1442.6,373.2 1448.5,376.3 1456.1,380 1456.1,380 1460.4,382.2 1467.7,385.9 1470.6,387.4 1481.7,393 1482.8,393.5 1493,398.7 
	1493.4,398.9 1505.3,404.8 1507.4,405.9 1515.5,410 1519.1,411.8 1519.1,411.8 1527.7,416.1 1527.7,416.1 1533.1,418.8 
	1537.9,421.3 1544.7,424.7 1544.7,424.7 1550.2,427.5 1558.7,431.8 1560.4,432.6 1570.4,437.6 "/>
<polygon class="st1" points="1984.2,629.7 1981.2,635.7 1580.3,433.7 1568.6,427.8 1559.6,423.3 1554.6,420.8 1554.6,420.8 
	1549.4,418.2 1549.4,418.2 1542.9,414.9 1537.2,412 1537.2,412 1528.9,407.9 1527,406.9 1517.3,402 1514.7,400.7 1504.5,395.5 
	1503.3,394.9 1492.3,389.4 1491.6,389.1 1482.1,384.2 1477.6,382 1469.8,378.1 1466,376.1 1466,376.1 1459.6,372.9 1452.4,369.3 
	1447.8,367 1440.8,363.5 1437.6,361.8 1055.7,169.5 1047.9,165.6 1047.9,165.6 1038.7,160.9 1030.9,157 1021.7,152.4 1013.9,148.5 
	1004.7,143.8 996.9,139.9 987.6,135.2 979.9,131.3 970.9,126.8 963.2,122.9 623.9,-48 626.9,-53.9 969.4,118.6 977.1,122.5 
	986.1,127 993.8,130.9 1003.1,135.6 1010.8,139.5 1020.1,144.2 1027.8,148.1 1037.1,152.7 1044.8,156.6 1054.1,161.3 1054.1,161.3 
	1061.8,165.2 1436.9,354.1 1447.1,359.2 1449,360.2 1449,360.2 1459,365.2 1460.7,366.1 1469.2,370.3 1474.2,372.9 1481.4,376.5 
	1485.9,378.7 1485.9,378.7 1491.6,381.6 1499.9,385.8 1499.9,385.8 1503.9,387.8 1511.5,391.7 1514.1,393 1525.5,398.7 
	1526.3,399.1 1536.5,404.2 1536.5,404.3 1537.2,404.6 1548.8,410.4 1548.8,410.4 1551.2,411.6 1559,415.6 1562.8,417.5 
	1576.8,424.6 1588.5,430.4 "/>
<polygon class="st1" points="1990.8,616.7 1987.8,622.6 1598.4,426.5 1586.7,420.6 1586.7,420.6 1572.7,413.6 1561.1,407.7 
	1558.2,406.3 1548,401.1 1547.1,400.7 1547.1,400.7 1535.8,395 1535.4,394.8 1525.5,389.8 1521.4,387.8 1513.3,383.7 1509.8,381.9 
	1509.8,381.9 1503.1,378.5 1495.8,374.8 1490.8,372.4 1484.1,369 1480.6,367.2 1470.6,362.1 1468.4,361 1458.9,356.3 1458.2,355.9 
	1446.3,349.9 1436.1,344.8 1069.2,160 1061.5,156.1 1052.2,151.4 1044.5,147.6 1035.2,142.9 1027.5,139 1018.2,134.3 1010.5,130.4 
	1001.2,125.8 993.5,121.8 984.5,117.3 976.8,113.4 630.5,-61 633.4,-66.9 982.9,109.1 990.7,113 999.6,117.5 1007.4,121.4 
	1016.7,126.1 1024.4,130 1033.7,134.7 1041.4,138.6 1041.4,138.6 1050.7,143.2 1058.4,147.1 1067.7,151.8 1075.4,155.7 
	1435.5,337.1 1445.7,342.2 1457.5,348.2 1467.1,353 1467.7,353.3 1478.8,358.9 1480,359.5 1490.2,364.6 1492.3,365.7 1502.4,370.8 
	1504,371.6 1512.7,375.9 1518,378.6 1524.9,382.1 1529.7,384.5 1535.1,387.2 1543.7,391.5 1543.7,391.5 1547.3,393.4 1555.3,397.4 
	1557.6,398.5 1569.3,404.5 1581,410.3 1595,417.4 1606.6,423.2 "/>
<polygon class="st1" points="1997.3,603.7 1994.3,609.6 1616.5,419.3 1604.9,413.5 1590.9,406.4 1579.2,400.5 1565.2,393.5 
	1556.8,389.2 1553.5,387.6 1546.6,384.1 1539.5,380.6 1534.3,377.9 1527.9,374.7 1524.1,372.8 1513.9,367.6 1511.9,366.6 
	1511.9,366.6 1502.2,361.8 1501.7,361.5 1489.4,355.3 1489.4,355.3 1488.7,355 1479.2,350.2 1477,349.1 1467,344 1456.8,338.9 
	1456.8,338.9 1444.9,332.9 1434.7,327.8 1434.7,327.8 1082.8,150.5 1075.1,146.6 1065.8,142 1058.1,138.1 1048.8,133.4 
	1048.8,133.4 1041.1,129.5 1031.8,124.8 1024.1,120.9 1024.1,120.9 1014.8,116.3 1007,112.4 998.1,107.9 990.3,104 637,-74 
	640,-79.9 996.5,99.7 1004.2,103.6 1013.2,108.1 1021,112 1030.2,116.6 1038,120.5 1047.2,125.2 1055,129.1 1064.2,133.8 
	1072,137.7 1081.3,142.3 1089,146.2 1434.1,320 1444.3,325.2 1456.1,331.1 1466.3,336.3 1478.6,342.4 1485.3,345.8 1488.8,347.6 
	1496.9,351.7 1501,353.8 1510.5,358.5 1511.2,358.9 1522.1,364.4 1523.5,365.1 1533.7,370.2 1536.1,371.4 1536.1,371.4 
	1545.9,376.4 1547.8,377.3 1556.1,381.5 1561.8,384.4 1573.4,390.2 1573.4,390.2 1587.4,397.3 1599.1,403.1 1613.1,410.2 
	1613.1,410.2 1624.8,416.1 "/>
<polygon class="st1" points="2003.8,590.9 2000.8,596.8 1634.3,412.3 1622.7,406.4 1608.7,399.4 1608.7,399.4 1597,393.5 
	1583,386.4 1571.3,380.6 1557.3,373.5 1555.4,372.5 1545.7,367.6 1545.2,367.4 1532.9,361.2 1531.7,360.6 1522.7,356.1 1520,354.7 
	1510.5,349.9 1506.5,347.9 1500.3,344.8 1494.8,342 1488,338.6 1477.8,333.5 1465.6,327.3 1455.4,322.1 1443.5,316.2 1433.3,311 
	1096.2,141.2 1088.4,137.3 1079.1,132.7 1071.4,128.8 1062.1,124.1 1062.1,124.1 1054.4,120.2 1045.1,115.5 1037.4,111.6 
	1037.4,111.6 1028.1,107 1020.4,103.1 1011.4,98.6 1003.7,94.7 643.5,-86.8 646.4,-92.7 1009.8,90.3 1017.6,94.2 1026.5,98.8 
	1034.3,102.7 1043.6,107.3 1051.3,111.2 1060.6,115.9 1060.6,115.9 1068.3,119.8 1077.6,124.5 1085.3,128.4 1085.3,128.4 
	1094.6,133 1102.3,136.9 1432.7,303.3 1442.9,308.5 1454.7,314.4 1464.9,319.6 1477.2,325.7 1487.4,330.9 1499.6,337 1503.1,338.8 
	1509.8,342.2 1514.7,344.6 1522.1,348.4 1528.2,351.5 1532.3,353.5 1532.3,353.5 1539.9,357.3 1544.5,359.6 1544.5,359.7 
	1553.9,364.4 1554.8,364.8 1565.6,370.2 1579.6,377.3 1591.2,383.2 1605.2,390.2 1616.9,396.1 1630.9,403.1 1630.9,403.1 
	1642.6,409 "/>
<polygon class="st1" points="199.9,758 210.7,759.7 200.2,767 -39.5,934.5 -43.9,928.3 189.4,765.3 "/>
<polygon class="st1" points="1034.7,184.1 1028.5,188.5 495.2,561 493,562.5 490.2,564.5 488.4,565.7 484.2,568.7 482.9,569.6 
	479.2,572.2 478.2,572.8 473.2,576.3 472.7,576.7 468.2,579.8 468,580 462.5,583.8 462.3,584 457.9,587.1 457.3,587.5 452.3,591 
	451.3,591.7 447.7,594.2 446.3,595.2 442.3,598 440.5,599.2 437.7,601.2 435.5,602.7 325.8,679.3 315,677.6 431.8,596 434,594.5 
	436.8,592.5 438.6,591.2 442.6,588.4 444,587.5 447.6,585 448.6,584.3 453.6,580.8 454.2,580.4 458.6,577.3 458.8,577.1 
	464.4,573.3 464.5,573.1 469,570 469.5,569.6 474.5,566.1 475.5,565.5 479.2,562.9 480.5,562 484.7,559 486.5,557.8 489.3,555.8 
	491.5,554.3 1020.8,184.6 1027,180.3 "/>
<polygon class="st1" points="1040.6,170.8 1048.3,174.7 1042.1,179 1034.4,175.1 "/>
<polygon class="st1" points="1054.1,161.3 1061.8,165.2 1055.7,169.5 1047.9,165.6 1054.1,161.3 "/>
<polygon class="st1" points="1067.7,151.8 1075.4,155.7 1069.2,160 1061.5,156.1 "/>
<polygon class="st1" points="1081.3,142.3 1089,146.2 1082.8,150.5 1075.1,146.6 "/>
<polygon class="st1" points="1394,-66.8 1102.3,136.9 1096.2,141.2 1088.4,137.3 1094.6,133 1389.7,-73.1 "/>
<polygon class="st1" points="176.1,754.1 186.9,755.9 176.4,763.2 -49.1,920.8 -53.5,914.5 165.6,761.5 "/>
<polygon class="st1" points="1017.7,175.6 1011.5,179.9 487,546.2 484.9,547.7 482,549.7 480.3,551 476.1,553.9 474.7,554.8 
	471.1,557.4 470.1,558.1 465.1,561.6 464.5,562 460.1,565.1 459.9,565.2 454.4,569.1 454.1,569.2 449.7,572.3 449.1,572.7 
	444.2,576.2 443.2,576.9 439.5,579.4 438.2,580.4 434.2,583.2 432.4,584.4 429.5,586.4 427.4,587.9 302,675.5 302,675.5 
	291.2,673.8 423.7,581.2 425.9,579.7 428.7,577.7 430.5,576.5 434.5,573.7 435.8,572.7 439.5,570.2 440.5,569.5 445.5,566 
	446,565.6 450.4,562.5 450.7,562.4 456.2,558.5 456.4,558.3 460.8,555.2 461.4,554.9 466.4,551.4 467.4,550.7 471,548.1 
	472.4,547.2 476.6,544.3 478.4,543 481.2,541 483.3,539.5 1003.8,176 1010,171.7 "/>
<polygon class="st1" points="1023.5,162.2 1031.3,166.1 1025.1,170.4 1017.4,166.5 "/>
<polygon class="st1" points="1037.1,152.7 1044.8,156.6 1038.7,160.9 1030.9,157 "/>
<polygon class="st1" points="1050.7,143.2 1058.4,147.1 1052.2,151.4 1044.5,147.6 "/>
<polygon class="st1" points="1064.2,133.8 1072,137.7 1065.8,142 1058.1,138.1 "/>
<polygon class="st1" points="1384.4,-80.6 1085.3,128.4 1085.3,128.4 1079.1,132.7 1071.4,128.8 1077.6,124.5 1380.1,-86.8 "/>
<polygon class="st1" points="152.3,750.3 163.1,752 152.6,759.4 -58.7,907 -63.1,900.8 141.8,757.7 "/>
<polygon class="st1" points="1000.7,167 994.5,171.3 478.9,531.5 476.8,533 473.9,535 472.1,536.2 467.9,539.1 466.6,540.1 
	463,542.6 462,543.3 457,546.8 456.4,547.2 452,550.3 451.8,550.4 446.2,554.3 446,554.5 441.6,557.5 441,558 436,561.4 435,562.1 
	435,562.1 431.4,564.7 430,565.6 426,568.4 424.3,569.7 421.4,571.6 419.3,573.1 278.2,671.7 267.4,669.9 415.6,566.4 417.7,564.9 
	420.6,562.9 422.4,561.7 426.4,558.9 427.7,557.9 431.3,555.4 432.3,554.7 437.3,551.2 437.9,550.8 442.3,547.8 442.5,547.6 
	448.1,543.7 448.3,543.6 452.7,540.5 453.3,540.1 458.3,536.6 459.3,535.9 462.9,533.4 464.2,532.4 468.5,529.5 470.2,528.2 
	473.1,526.3 475.2,524.8 986.8,167.4 993,163.1 "/>
<polygon class="st1" points="1006.5,153.6 1014.3,157.5 1008.1,161.8 1000.3,157.9 "/>
<polygon class="st1" points="1020.1,144.2 1027.8,148.1 1021.7,152.4 1013.9,148.5 "/>
<polygon class="st1" points="1033.7,134.7 1041.4,138.6 1035.2,142.9 1027.5,139 "/>
<polygon class="st1" points="1047.2,125.2 1055,129.1 1048.8,133.4 1048.8,133.4 1041.1,129.5 "/>
<polygon class="st1" points="1374.8,-94.3 1068.3,119.8 1062.1,124.1 1062.1,124.1 1054.4,120.2 1060.6,115.9 1060.6,115.9 
	1370.4,-100.6 "/>
<polygon class="st1" points="128.5,746.5 139.3,748.2 128.8,755.6 -68.3,893.3 -72.7,887 118,753.8 "/>
<polygon class="st1" points="983.7,158.4 977.5,162.8 470.8,516.7 468.6,518.2 465.8,520.2 464,521.4 459.8,524.4 458.5,525.3 
	454.8,527.8 453.8,528.5 448.8,532 448.3,532.4 443.9,535.5 443.6,535.7 438.1,539.5 437.9,539.7 433.5,542.8 432.9,543.2 
	427.9,546.7 426.9,547.3 423.3,549.9 421.9,550.8 417.9,553.6 416.1,554.9 413.3,556.9 411.1,558.4 254.4,667.8 243.6,666.1 
	407.5,551.7 409.6,550.2 412.5,548.2 414.2,546.9 418.2,544.1 419.6,543.2 423.2,540.6 424.2,539.9 429.2,536.5 429.8,536.1 
	434.2,533 434.4,532.8 440,528.9 440.2,528.8 444.6,525.7 445.1,525.3 450.1,521.8 451.1,521.1 454.8,518.6 456.1,517.7 
	460.3,514.7 462.1,513.5 465,511.5 467.1,510 969.8,158.9 975.9,154.6 "/>
<polygon class="st1" points="989.5,145.1 997.2,149 991.1,153.3 983.3,149.4 "/>
<polygon class="st1" points="1003.1,135.6 1010.8,139.5 1004.7,143.8 996.9,139.9 "/>
<polygon class="st1" points="1016.7,126.1 1024.4,130 1018.2,134.3 1010.5,130.4 "/>
<polygon class="st1" points="1030.2,116.6 1038,120.5 1031.8,124.8 1024.1,120.9 "/>
<polygon class="st1" points="1365.2,-108.1 1051.3,111.2 1045.1,115.5 1037.4,111.6 1043.6,107.3 1360.8,-114.3 "/>
<polygon class="st1" points="104.7,742.7 115.5,744.4 105,751.7 -77.9,879.5 -82.3,873.3 94.2,750 "/>
<polygon class="st1" points="966.7,149.9 960.5,154.2 462.6,501.9 460.5,503.4 457.7,505.4 455.9,506.7 451.7,509.6 450.3,510.5 
	446.7,513.1 445.7,513.8 440.7,517.3 440.1,517.7 435.7,520.7 435.5,520.9 430,524.8 429.8,524.9 425.3,528 424.8,528.4 
	419.8,531.9 418.8,532.6 415.1,535.1 413.8,536.1 409.8,538.9 408,540.1 405.1,542.1 403,543.6 230.6,664 230.6,664 219.8,662.3 
	399.3,536.9 401.5,535.4 404.3,533.4 406.1,532.2 410.1,529.3 411.5,528.4 415.1,525.9 416.1,525.2 421.1,521.7 421.6,521.3 
	426,518.2 426.3,518 431.8,514.2 432,514 436.5,510.9 437,510.5 442,507 443,506.4 446.6,503.8 448,502.9 452.2,499.9 454,498.7 
	456.8,496.7 459,495.2 952.8,150.3 958.9,146 "/>
<polygon class="st1" points="972.5,136.5 980.2,140.4 974.1,144.7 966.3,140.8 "/>
<polygon class="st1" points="986.1,127 993.8,130.9 987.6,135.2 979.9,131.3 "/>
<polygon class="st1" points="999.6,117.5 1007.4,121.4 1001.2,125.8 993.5,121.8 "/>
<polygon class="st1" points="1013.2,108.1 1021,112 1014.8,116.3 1007,112.4 "/>
<polygon class="st1" points="1355.6,-121.8 1034.3,102.7 1028.1,107 1020.4,103.1 1026.5,98.8 1351.2,-128.1 "/>
<polygon class="st1" points="81.7,748 -87.3,866 -91.7,859.8 70.8,746.2 "/>
<polygon class="st1" points="950,141.5 943.8,145.8 454.7,487.4 452.5,488.9 449.7,490.9 447.9,492.2 443.7,495.1 442.4,496 
	438.7,498.6 437.7,499.3 432.7,502.8 432.2,503.1 427.8,506.2 427.5,506.4 422,510.3 421.8,510.4 417.4,513.5 416.8,513.9 
	411.8,517.4 410.8,518.1 407.2,520.6 405.8,521.6 401.8,524.4 400,525.6 397.2,527.6 395,529.1 207.3,660.3 196.4,658.5 
	391.4,522.4 393.5,520.9 396.3,518.9 398.1,517.6 402.1,514.8 403.5,513.9 407.1,511.4 408.1,510.7 413.1,507.2 413.7,506.8 
	418.1,503.7 418.3,503.5 423.9,499.7 424,499.5 428.5,496.4 429,496 434,492.5 435,491.9 438.7,489.3 440,488.4 444.2,485.4 
	446,484.2 448.8,482.2 451,480.7 936.1,141.9 942.2,137.6 "/>
<polygon class="st1" points="955.8,128.1 963.5,132 957.4,136.3 949.6,132.4 "/>
<polygon class="st1" points="969.4,118.6 977.1,122.5 970.9,126.8 963.2,122.9 "/>
<polygon class="st1" points="982.9,109.1 990.7,113 984.5,117.3 976.8,113.4 "/>
<polygon class="st1" points="996.5,99.7 1004.2,103.6 998.1,107.9 990.3,104 "/>
<polygon class="st1" points="1346.2,-135.3 1017.6,94.2 1011.4,98.6 1003.7,94.7 1009.8,90.3 1341.8,-141.6 "/>
<polygon class="st1" points="1498.5,975.6 1488.6,974 648.1,839 644.9,838.5 640.5,837.8 637.8,837.3 631.5,836.3 629.4,836 
	623.9,835.1 622.4,834.9 614.8,833.6 614,833.5 607.2,832.4 606.9,832.4 598.5,831 598.2,831 591.5,829.9 590.6,829.8 583.6,828.6 
	583,828.5 581.5,828.3 576,827.4 573.9,827.1 567.8,826.1 565.1,825.7 564.8,825.6 560.8,825 557.6,824.5 542.1,822 523.3,818.9 
	500.7,815.3 481.8,812.3 459.2,808.7 459.2,808.7 440.4,805.6 417.8,802 417.8,802 398.9,799 377.1,795.5 377,795.5 358.2,792.4 
	200.2,767 189.4,765.3 176.4,763.2 165.6,761.5 152.6,759.4 141.8,757.7 128.8,755.6 118,753.8 105,751.7 94.2,750 81.7,748 
	70.8,746.2 -72.4,723.2 -71,714.4 81.3,738.9 92.2,740.7 104.7,742.7 115.5,744.4 128.5,746.5 139.3,748.2 152.3,750.3 163.1,752 
	176.1,754.1 186.9,755.9 199.9,758 210.7,759.7 374.4,786 374.4,786 393.3,789 393.3,789 415.1,792.5 415.1,792.5 434,795.6 
	434,795.6 456.6,799.2 456.6,799.2 475.4,802.2 475.4,802.2 498,805.9 516.9,808.9 539.5,812.5 552.1,814.5 555.4,815.1 
	558.3,815.5 559.7,815.8 562.4,816.2 568.5,817.2 570.5,817.5 576,818.4 577.6,818.6 581,819.2 585.1,819.8 586,820 592.7,821.1 
	593,821.1 599.8,822.2 601.5,822.5 601.8,822.5 608.5,823.6 609.4,823.7 616.9,825 618.5,825.2 624,826.1 626,826.4 632.4,827.5 
	635.1,827.9 639.4,828.6 642.7,829.1 1487.8,964.9 1497.7,966.5 "/>
<polygon class="st1" points="1519.1,969.9 1519.9,979 1510,977.5 1509.2,968.3 "/>
<polygon class="st1" points="1540.9,973.4 1541.7,982.5 1531.8,981 1531,971.8 "/>
<polygon class="st1" points="1562.7,976.9 1563.5,986 1553.6,984.5 1552.8,975.3 "/>
<polygon class="st1" points="1584.5,980.4 1585.3,989.5 1575.4,988 1574.6,978.8 "/>
<polygon class="st1" points="1947.2,1038.7 1945.8,1047.5 1607.1,993.1 1597.2,991.5 1596.4,982.3 1606.3,983.9 "/>
<polygon class="st1" points="1496.8,955.5 1486.9,953.9 636.1,817.2 632.9,816.7 628.6,816 625.9,815.6 619.5,814.5 619.2,814.5 
	617.4,814.2 611.9,813.3 610.4,813.1 602.8,811.9 602,811.7 600.4,811.5 595.2,810.7 594.9,810.6 586.5,809.2 586.2,809.2 
	579.5,808.1 578.6,808 578.6,808 577.8,807.8 577.8,807.8 571,806.8 569.5,806.5 569.5,806.5 564,805.6 562,805.3 561.9,805.3 
	558.9,804.8 555.9,804.3 553.2,803.9 548.8,803.2 545.6,802.7 536.3,801.2 536.3,801.2 517.5,798.2 517.5,798.2 494.9,794.5 
	494.9,794.5 476,791.5 476,791.5 453.4,787.9 434.6,784.8 434.5,784.8 412.7,781.3 393.9,778.3 393.9,778.3 223.3,750.9 
	212.5,749.2 199.5,747.1 188.7,745.3 175.7,743.2 164.9,741.5 151.9,739.4 141.1,737.7 128.1,735.6 117.3,733.9 104.8,731.8 
	93.9,730.1 -69.3,703.9 -67.9,695.1 104.4,722.8 115.3,724.5 127.8,726.5 138.6,728.3 151.6,730.3 162.4,732.1 175.4,734.2 
	186.2,735.9 199.2,738 210,739.7 223,741.8 233.8,743.6 410.1,771.9 410.1,771.9 428.9,774.9 450.8,778.4 469.6,781.4 492.2,785.1 
	492.2,785.1 511.1,788.1 511.1,788.1 533.7,791.7 533.7,791.7 540.1,792.8 540.2,792.8 543.4,793.3 547.7,794 550.4,794.4 
	552.5,794.8 556.5,795.4 558.6,795.7 564.1,796.6 565.6,796.9 573.2,798.1 574,798.2 575.1,798.4 575.2,798.4 580.7,799.3 
	580.7,799.3 581.1,799.3 589.5,800.7 589.8,800.8 594,801.4 596.5,801.8 597.4,802 605,803.2 606.5,803.4 606.5,803.4 612,804.3 
	614,804.6 616.6,805.1 620.4,805.7 623.1,806.1 627.5,806.8 630.7,807.3 635.5,808.1 635.5,808.1 1486.1,944.8 1496,946.3 "/>
<polygon class="st1" points="1517.4,949.8 1518.2,958.9 1508.3,957.3 1508.3,957.3 1507.5,948.2 "/>
<polygon class="st1" points="1539.2,953.3 1540,962.4 1530.1,960.8 1529.3,951.7 "/>
<polygon class="st1" points="1561.1,956.8 1561.8,965.9 1551.9,964.3 1551.9,964.3 1551.1,955.2 "/>
<polygon class="st1" points="1582.8,960.3 1583.6,969.4 1573.7,967.8 1573.7,967.8 1572.9,958.7 "/>
<polygon class="st1" points="1950.3,1019.3 1948.9,1028.1 1605.4,972.9 1595.5,971.3 1594.8,962.2 1604.7,963.8 "/>
<polygon class="st1" points="445.7,757.8 429.5,764.2 246.4,734.8 235.6,733 222.6,730.9 211.8,729.2 198.8,727.1 198.8,727.1 
	188,725.4 175,723.3 164.2,721.5 151.2,719.5 140.4,717.7 127.9,715.7 117,714 -66.2,684.5 -64.8,675.7 127.6,706.6 138.4,708.4 
	138.4,708.4 150.9,710.4 161.7,712.1 174.7,714.2 174.7,714.2 185.5,716 198.5,718 209.3,719.8 222.3,721.9 233.1,723.6 
	246.1,725.7 256.9,727.4 "/>
<polygon class="st1" points="1495.1,935.4 1485.2,933.8 654.9,800.4 636,797.4 636,797.4 624.2,795.4 624.2,795.4 620.9,794.9 
	616.6,794.2 613.9,793.8 613.4,793.7 607.5,792.8 605.5,792.4 599.9,791.5 598.4,791.3 594.6,790.7 590.8,790.1 590,790 
	583.3,788.9 583,788.8 574.5,787.5 574.5,787.5 574.2,787.4 572,787.1 567.5,786.3 566.6,786.2 566.6,786.2 559,785 557.5,784.7 
	553.1,784 553.1,784 552,783.8 550,783.5 543.9,782.5 541.2,782.1 536.8,781.4 533.6,780.9 530.5,780.4 511.7,777.4 489,773.7 
	470.2,770.7 448.3,767.2 429.5,764.2 445.7,757.8 464.5,760.8 486.4,764.3 505.2,767.3 505.2,767.3 527.9,771 528.2,771 
	531.4,771.5 535.7,772.2 538.4,772.7 544.5,773.6 546.6,774 546.7,774 546.7,774 552.1,774.8 552.1,774.8 553.6,775.1 561.2,776.3 
	562,776.4 568.7,777.5 568.8,777.5 569.1,777.6 569.3,777.6 577.5,778.9 577.8,779 577.8,779 584.5,780 585.4,780.2 588.2,780.6 
	593,781.4 594.5,781.7 600,782.5 602,782.9 608.4,783.9 610.8,784.3 611.1,784.3 615.5,785 618.7,785.5 629.6,787.3 652.2,790.9 
	652.2,790.9 671.1,794 1484.4,924.6 1494.4,926.2 "/>
<polygon class="st1" points="1515.8,929.7 1516.5,938.8 1506.6,937.2 1505.9,928.1 "/>
<polygon class="st1" points="1537.6,933.2 1538.3,942.3 1528.4,940.7 1527.7,931.6 "/>
<polygon class="st1" points="1559.4,936.7 1560.1,945.8 1550.2,944.2 1549.5,935.1 "/>
<polygon class="st1" points="1581.2,940.2 1581.9,949.3 1572,947.7 1571.3,938.6 "/>
<polygon class="st1" points="1953.4,1000 1952,1008.8 1603.8,952.8 1593.8,951.2 1593.1,942.1 1603,943.7 "/>
<polygon class="st1" points="481.4,743.6 465.1,750 269.5,718.6 258.7,716.9 245.7,714.8 234.9,713.1 221.9,711 211.1,709.2 
	198.1,707.2 187.3,705.4 187.3,705.4 174.3,703.3 163.5,701.6 151,699.6 151,699.6 140.1,697.8 -63.1,665.2 -61.7,656.4 
	150.6,690.5 161.5,692.2 174,694.2 184.8,696 197.8,698.1 208.6,699.8 208.6,699.8 221.6,701.9 232.4,703.6 245.4,705.7 
	256.2,707.5 269.2,709.5 280,711.3 "/>
<polygon class="st1" points="1493.4,915.2 1483.5,913.7 690.5,786.3 671.7,783.2 671.7,783.2 649.1,779.6 649.1,779.6 630.2,776.6 
	612.2,773.7 608.9,773.2 607.6,772.9 607.6,772.9 604.6,772.5 601.9,772 595.5,771 595.5,771 593.5,770.7 593.5,770.7 588.8,769.9 
	588,769.8 586.5,769.5 578.9,768.3 578,768.2 571.3,767.1 571,767 566.2,766.3 562.5,765.7 562.2,765.6 555.5,764.6 554.6,764.4 
	554.6,764.4 547.3,763.2 547.1,763.2 545.5,763 540,762.1 538,761.8 531.9,760.8 529.2,760.3 524.9,759.6 524.7,759.6 524.7,759.6 
	521.6,759.1 505.8,756.6 505.8,756.6 484,753.1 465.1,750 481.4,743.6 500.2,746.7 516.2,749.2 519.4,749.8 522,750.2 522,750.2 
	523.8,750.4 526.5,750.9 532.5,751.8 534.6,752.2 540.1,753.1 540.1,753.1 540.9,753.2 540.9,753.2 541.6,753.3 549.2,754.5 
	550.1,754.7 556.8,755.7 557.1,755.8 557.1,755.8 563.5,756.8 565.5,757.2 565.8,757.2 572.6,758.3 573.4,758.4 581,759.6 
	582.3,759.9 582.4,759.9 582.5,759.9 588,760.8 590.1,761.1 596.5,762.1 599.2,762.6 603.5,763.2 605,763.5 606.7,763.8 
	623.8,766.5 646.4,770.2 665.3,773.2 687.9,776.8 706.7,779.8 1482.8,904.5 1492.7,906.1 "/>
<polygon class="st1" points="1514.1,909.5 1514.8,918.7 1504.9,917.1 1504.2,908 "/>
<polygon class="st1" points="1535.9,913 1536.7,922.2 1526.8,920.6 1526,911.5 "/>
<polygon class="st1" points="1557.7,916.6 1558.5,925.7 1548.6,924.1 1547.8,915 "/>
<polygon class="st1" points="1579.5,920.1 1580.3,929.2 1570.3,927.6 1569.6,918.5 "/>
<polygon class="st1" points="1956.5,980.6 1955.1,989.4 1602.1,932.7 1592.2,931.1 1591.4,922 1601.3,923.6 "/>
<polygon class="st1" points="509.8,732.3 507.4,733.3 500.8,735.9 500.8,735.9 292.6,702.5 281.8,700.8 268.8,698.7 258,696.9 
	258,696.9 245,694.8 234.2,693.1 221.2,691 210.4,689.3 197.4,687.2 186.6,685.5 174.1,683.4 163.2,681.7 -60,645.8 -58.6,637 
	173.8,674.4 184.6,676.1 197.1,678.1 207.9,679.8 220.9,681.9 231.7,683.7 244.7,685.8 255.6,687.5 268.5,689.6 279.3,691.3 
	292.3,693.4 303.1,695.2 504.2,727.5 507.4,728 "/>
<polygon class="st1" points="1491.8,895.1 1481.9,893.5 726.2,772.1 726.2,772.1 707.3,769.1 684.7,765.5 684.7,765.5 665.9,762.5 
	665.9,762.5 643.3,758.8 643.2,758.8 624.4,755.8 624.4,755.8 601.8,752.2 601.8,752.2 600.2,751.9 600.2,751.9 597,751.4 
	592.6,750.7 589.9,750.2 583.5,749.2 583,749.1 582.9,749.1 581.5,748.9 576,748 576,748 574.5,747.8 566.9,746.5 566,746.4 
	560.3,745.5 559.3,745.3 559,745.3 550.6,743.9 550.2,743.9 543.5,742.8 542.7,742.7 541.5,742.5 541.5,742.5 535.1,741.4 
	533.6,741.2 528.1,740.3 526,740 519.9,739 519.6,739 517.2,738.6 512.9,737.9 509.6,737.3 500.8,735.9 507.4,733.3 509.8,732.3 
	507.4,728 511.8,728.7 514.5,729.1 517,729.5 517,729.5 520.5,730.1 522.6,730.4 528.1,731.3 529.6,731.5 535.8,732.5 537.2,732.8 
	538.1,732.9 544.8,734 545.1,734 545.1,734 553.6,735.4 553.9,735.4 557.7,736 557.7,736 560.6,736.5 561.4,736.6 569,737.9 
	570.5,738.1 576,739 576.5,739.1 578.1,739.3 584.5,740.3 587.2,740.8 591.5,741.5 594.8,742 599.1,742.7 599.2,742.7 618,745.7 
	640.6,749.4 640.6,749.4 659.5,752.4 659.5,752.4 682.1,756 700.9,759 700.9,759 723.5,762.7 742.4,765.7 742.4,765.7 1481.1,884.4 
	1491,886 "/>
<polygon class="st1" points="1512.4,889.4 1513.2,898.6 1503.3,897 1502.5,887.8 "/>
<polygon class="st1" points="1534.2,892.9 1535,902.1 1525.1,900.5 1524.3,891.3 "/>
<polygon class="st1" points="1556,896.4 1556.8,905.6 1546.9,904 1546.1,894.8 "/>
<polygon class="st1" points="1577.8,899.9 1578.6,909.1 1568.7,907.5 1567.9,898.3 "/>
<polygon class="st1" points="1959.6,961.3 1958.2,970.1 1600.4,912.6 1590.5,911 1589.7,901.8 1599.6,903.4 "/>
<polygon class="st1" points="501.1,716.5 497.9,716 315.3,686.6 304.5,684.9 291.5,682.8 291.5,682.8 280.7,681.1 267.7,679 
	256.9,677.2 256.9,677.2 243.9,675.2 233.1,673.4 220.1,671.3 220.1,671.3 209.3,669.6 196.8,667.6 185.9,665.8 -57,626.8 
	-55.5,618 196.4,658.5 207.3,660.3 219.8,662.3 230.6,664 230.6,664 243.6,666.1 254.4,667.8 267.4,669.9 278.2,671.7 291.2,673.8 
	302,675.5 302,675.5 315,677.6 325.8,679.3 492.4,706.1 495.7,706.6 "/>
<polygon class="st1" points="1490.1,875.4 1480.2,873.8 761.2,758.3 761.2,758.3 742.3,755.2 719.7,751.6 719.7,751.6 700.9,748.6 
	678.3,745 678.2,745 659.4,741.9 636.8,738.3 636.8,738.3 618,735.3 617.9,735.3 595.3,731.6 588.4,730.5 585.2,730 580.9,729.3 
	578.2,728.9 576.5,728.6 576.5,728.6 571.8,727.8 569.7,727.5 564.2,726.6 562.7,726.4 555.1,725.2 554.6,725.1 554.6,725.1 
	554.3,725 547.5,724 547.2,723.9 538.8,722.5 538.8,722.5 538.5,722.5 535.8,722.1 535.8,722.1 531.8,721.4 530.9,721.3 523.3,720 
	521.8,719.8 516.3,718.9 514.2,718.6 508.1,717.6 505.5,717.2 501.1,716.5 495.7,706.6 500,707.3 502.7,707.7 508.8,708.7 
	510.9,709 516.4,709.9 517.9,710.2 525.4,711.4 526.3,711.5 533,712.6 533.4,712.7 533.4,712.7 541.8,714 542.1,714.1 548.8,715.1 
	549.7,715.3 552,715.6 557.3,716.5 558.8,716.7 564.3,717.6 566.3,718 570.8,718.7 572.7,719 575.4,719.4 579.8,720.1 583,720.6 
	592.7,722.2 611.5,725.2 611.5,725.2 634.1,728.8 653,731.9 675.6,735.5 694.5,738.5 717.1,742.2 717.1,742.2 735.9,745.2 
	758.5,748.8 758.5,748.8 777.4,751.8 1479.5,864.7 1489.4,866.2 "/>
<polygon class="st1" points="1510.8,869.7 1511.5,878.8 1501.6,877.2 1500.9,868.1 "/>
<polygon class="st1" points="1532.6,873.2 1533.3,882.3 1523.4,880.7 1522.7,871.6 "/>
<polygon class="st1" points="1554.4,876.7 1555.1,885.8 1545.2,884.2 1544.5,875.1 "/>
<polygon class="st1" points="1576.2,880.2 1576.9,889.3 1567,887.7 1566.3,878.6 "/>
<polygon class="st1" points="1962.7,942.3 1961.3,951.1 1598.8,892.8 1588.8,891.2 1588.1,882.1 1598,883.7 "/>
</svg>
