<svg xmlns="http://www.w3.org/2000/svg" viewBox="0 0 1920 1080"><defs><style>.cls-1{fill:#fff;}.cls-2{fill:#e0e0dd;}.cls-3{fill:#fbc56e;}</style></defs><g id="Layer_2" data-name="Layer 2"><rect class="cls-1" y="0.61" width="1920" height="1079.39"/></g><g id="Layer_1" data-name="Layer 1"><polygon class="cls-2" points="1551.84 329.93 1542.38 333.68 1541.53 323.53 1511.87 -32.41 1521.58 -33.22 1551 319.78 1551.84 329.93"/><polygon class="cls-2" points="1553.67 351.88 1544.21 355.63 1543.36 345.47 1552.82 341.72 1552.83 341.72 1553.67 351.88"/><polygon class="cls-2" points="1555.39 372.53 1545.69 367.64 1545.19 367.39 1544.54 359.66 1553.92 364.38 1554.69 364.07 1554.75 364.8 1555.39 372.53"/><polygon class="cls-2" points="1556.79 389.25 1553.54 387.62 1546.58 384.11 1546.07 377.98 1545.94 376.37 1547.79 377.3 1556.14 381.51 1556.55 386.43 1556.79 389.25"/><polygon class="cls-2" points="1558.21 406.28 1548 401.14 1547.93 400.34 1547.35 393.4 1555.32 397.41 1557.56 398.54 1558.21 406.28"/><polygon class="cls-2" points="1559.62 423.3 1554.61 420.78 1554.6 420.78 1549.42 418.17 1549.42 418.16 1548.95 412.53 1548.77 410.43 1551.18 411.64 1558.98 415.57 1559.26 418.93 1559.62 423.3"/><polygon class="cls-2" points="1561.04 440.34 1550.84 435.2 1550.81 434.88 1550.19 427.45 1558.72 431.75 1560.4 432.59 1561.04 440.34"/><polygon class="cls-2" points="1616.91 1110.77 1607.2 1111.58 1597.19 991.47 1596.43 982.33 1595.51 971.35 1594.75 962.21 1593.84 951.23 1593.08 942.09 1592.16 931.11 1591.4 921.97 1590.48 910.99 1589.72 901.85 1588.84 891.24 1588.08 882.1 1552.26 452.22 1551.66 445.04 1551.61 444.49 1552.24 444.81 1561.82 449.63 1562.46 457.36 1597.99 883.69 1598.75 892.83 1599.63 903.44 1600.39 912.58 1601.31 923.56 1602.07 932.7 1602.99 943.68 1603.75 952.82 1604.66 963.8 1605.42 972.94 1606.34 983.92 1607.1 993.06 1616.91 1110.77"/><polygon class="cls-2" points="1531.02 338.18 1521.55 341.93 1520.71 331.78 1490.51 -30.63 1500.22 -31.44 1530.17 328.03 1531.02 338.18"/><polygon class="cls-2" points="1532.94 361.22 1531.69 360.59 1522.73 356.08 1522.54 353.72 1522.09 348.35 1528.25 351.45 1532 349.97 1532.29 353.48 1532.29 353.49 1532.85 360.13 1532.94 361.22"/><polygon class="cls-2" points="1534.33 377.94 1527.88 374.69 1524.13 372.8 1523.48 365.06 1533.69 370.2 1533.86 372.32 1534.33 377.94"/><polygon class="cls-2" points="1535.75 394.97 1535.42 394.8 1525.54 389.83 1525.24 386.23 1524.9 382.09 1529.65 384.48 1535.1 387.23 1535.73 394.68 1535.75 394.97"/><polygon class="cls-2" points="1537.17 411.99 1528.95 407.86 1526.96 406.85 1526.32 399.12 1536.52 404.25 1536.52 404.26 1536.57 404.84 1537.17 411.99"/><polygon class="cls-2" points="1538.59 429.03 1536.47 427.96 1528.38 423.89 1528.12 420.78 1527.74 416.15 1533.05 418.82 1537.94 421.28 1538.43 427.18 1538.59 429.03"/><polygon class="cls-2" points="1595.54 1112.55 1585.83 1113.36 1575.38 987.96 1574.62 978.82 1573.71 967.84 1573.7 967.84 1572.94 958.7 1572.03 947.73 1571.27 938.58 1570.35 927.61 1569.59 918.47 1568.68 907.49 1567.91 898.35 1567.03 887.73 1566.27 878.59 1530.83 453.29 1529.99 443.13 1529.8 440.92 1529.16 433.18 1539.36 438.32 1539.45 439.38 1540.01 446.05 1540.3 449.54 1576.18 880.19 1576.94 889.33 1577.82 899.94 1578.59 909.08 1579.5 920.06 1580.26 929.2 1581.18 940.18 1581.94 949.32 1582.85 960.29 1583.62 969.44 1584.53 980.41 1585.29 989.55 1595.54 1112.55"/><polygon class="cls-2" points="1510.49 349.91 1506.5 347.9 1500.28 344.77 1499.89 340.03 1499.64 337.04 1469.15 -28.85 1478.86 -29.66 1509.35 336.28 1509.84 342.18 1510.2 346.43 1510.49 349.91"/><polygon class="cls-2" points="1511.88 366.63 1502.22 361.77 1501.71 361.97 1501.68 361.5 1501.03 353.75 1510.46 358.5 1511.24 358.89 1511.88 366.63"/><polygon class="cls-2" points="1513.3 383.66 1509.76 381.88 1509.75 381.88 1503.09 378.52 1502.56 372.13 1502.45 370.78 1504 371.56 1512.65 375.92 1513.04 380.57 1513.3 383.66"/><polygon class="cls-2" points="1514.72 400.69 1504.51 395.55 1504.42 394.48 1503.87 387.81 1511.53 391.67 1514.07 392.95 1514.72 400.69"/><polygon class="cls-2" points="1516.14 417.72 1510.82 415.04 1505.93 412.58 1505.44 406.68 1505.29 404.84 1507.4 405.9 1515.49 409.98 1515.75 413.09 1516.14 417.72"/><polygon class="cls-2" points="1517.61 435.43 1508.15 439.18 1507.35 429.61 1507.3 429.03 1506.71 421.87 1514.92 426.01 1516.91 427.01 1517.56 434.75 1517.61 435.43"/><polygon class="cls-2" points="1574.18 1114.33 1564.47 1115.14 1553.58 984.46 1552.82 975.32 1551.91 964.34 1551.9 964.34 1551.14 955.2 1550.23 944.22 1549.47 935.08 1548.55 924.1 1547.79 914.96 1546.88 903.99 1546.11 894.84 1545.23 884.23 1544.47 875.09 1510.01 461.54 1509.16 451.38 1518.63 447.63 1519.48 457.79 1554.38 876.68 1555.14 885.82 1556.02 896.44 1556.79 905.58 1557.7 916.56 1558.46 925.7 1559.38 936.67 1560.14 945.82 1561.05 956.79 1561.81 965.93 1561.82 965.93 1562.73 976.91 1563.49 986.05 1574.18 1114.33"/><polygon class="cls-2" points="1488.03 338.6 1477.82 333.46 1477.18 325.73 1447.78 -27.07 1457.49 -27.88 1487.39 330.87 1488.03 338.6"/><polygon class="cls-2" points="1489.42 355.32 1488.69 354.96 1479.22 350.19 1479.06 348.28 1478.57 342.44 1485.28 345.82 1488.78 347.58 1489.37 354.69 1489.42 355.32"/><polygon class="cls-2" points="1490.84 372.35 1484.09 368.95 1480.64 367.21 1479.99 359.47 1490.2 364.61 1490.35 366.47 1490.84 372.35"/><polygon class="cls-2" points="1492.26 389.38 1491.63 389.06 1482.06 384.24 1481.74 380.38 1481.41 376.5 1485.86 378.74 1485.87 378.74 1491.62 381.64 1492.22 388.82 1492.22 388.83 1492.26 389.38"/><polygon class="cls-2" points="1493.68 406.41 1485.16 402.12 1485.15 402.12 1483.48 401.27 1482.83 393.53 1493.04 398.67 1493.06 398.98 1493.68 406.41"/><polygon class="cls-2" points="1495.1 423.44 1492.7 422.22 1492.69 422.22 1485.46 425.09 1484.89 418.3 1484.61 414.93 1484.25 410.56 1489.26 413.09 1494.46 415.7 1494.93 421.34 1495.1 423.44"/><polygon class="cls-2" points="1496.79 443.69 1487.32 447.44 1486.48 437.28 1495.94 433.53 1496.79 443.69"/><polygon class="cls-2" points="1552.82 1116.11 1543.11 1116.92 1531.78 980.96 1531.02 971.82 1530.1 960.84 1529.34 951.7 1528.43 940.72 1527.67 931.58 1526.75 920.6 1525.99 911.46 1525.07 900.48 1524.31 891.34 1523.43 880.73 1522.67 871.59 1489.19 469.79 1488.34 459.63 1497.8 455.88 1498.65 466.04 1532.58 873.18 1533.34 882.32 1534.22 892.93 1534.98 902.08 1535.9 913.05 1536.66 922.19 1537.58 933.17 1538.34 942.31 1539.25 953.29 1540.01 962.43 1540.93 973.41 1541.69 982.55 1552.82 1116.11"/><polygon class="cls-2" points="1465.58 327.29 1455.37 322.15 1454.73 314.42 1426.42 -25.29 1436.13 -26.1 1464.93 319.56 1465.58 327.29"/><polygon class="cls-2" points="1456.76 338.88 1456.76 338.87 1456.12 331.13 1466.32 336.27 1466.97 344.02 1456.76 338.88"/><polygon class="cls-2" points="1468.39 361.04 1458.91 356.27 1458.18 355.9 1457.54 348.16 1467.14 353 1467.74 353.3 1468.39 361.04"/><polygon class="cls-2" points="1469.81 378.07 1465.97 376.13 1465.96 376.13 1459.6 372.93 1459.08 366.69 1458.96 365.19 1460.68 366.06 1469.16 370.33 1469.53 374.72 1469.81 378.07"/><polygon class="cls-2" points="1471.23 395.1 1461.02 389.96 1460.91 388.63 1460.38 382.22 1467.74 385.93 1470.58 387.36 1471.23 395.1"/><polygon class="cls-2" points="1472.65 412.13 1467.03 409.3 1462.77 410.99 1462.44 406.99 1461.93 400.83 1461.79 399.25 1463.6 400.16 1463.61 400.16 1472 404.39 1472.24 407.24 1472.65 412.13"/><polygon class="cls-2" points="1474.1 429.59 1464.64 433.34 1463.79 423.18 1473.25 419.43 1474.1 429.59"/><polygon class="cls-2" points="1475.96 451.94 1466.5 455.69 1465.65 445.53 1475.12 441.78 1475.96 451.94"/><polygon class="cls-2" points="1531.45 1117.89 1521.74 1118.7 1509.97 977.45 1509.21 968.31 1508.3 957.34 1508.29 957.34 1507.53 948.19 1506.62 937.22 1505.86 928.07 1504.94 917.1 1504.18 907.96 1503.27 896.98 1502.5 887.84 1501.62 877.22 1500.86 868.09 1468.36 478.04 1467.51 467.89 1476.98 464.14 1477.82 474.29 1510.77 869.68 1511.53 878.82 1512.41 889.43 1513.18 898.57 1514.09 909.55 1514.85 918.69 1515.77 929.67 1516.53 938.81 1517.44 949.79 1518.2 958.93 1518.21 958.93 1519.12 969.9 1519.88 979.05 1531.45 1117.89"/><polygon class="cls-2" points="1443.54 316.19 1433.33 311.05 1432.69 303.32 1405.45 -23.54 1415.16 -24.35 1442.89 308.46 1443.54 316.19"/><polygon class="cls-2" points="1434.72 327.78 1434.72 327.77 1434.08 320.03 1444.28 325.17 1444.93 332.92 1434.72 327.78"/><polygon class="cls-2" points="1446.35 349.94 1436.14 344.8 1435.5 337.06 1445.7 342.2 1446.35 349.94"/><polygon class="cls-2" points="1447.77 366.97 1440.78 363.45 1437.56 361.83 1436.92 354.09 1447.12 359.23 1447.26 360.88 1447.77 366.97"/><polygon class="cls-2" points="1449.19 384 1447.83 383.32 1438.98 378.86 1438.64 374.79 1438.34 371.12 1442.55 373.24 1448.54 376.26 1449.09 382.82 1449.19 384"/><polygon class="cls-2" points="1450.61 401.03 1441.37 396.38 1440.47 396.73 1440.4 395.89 1439.76 388.15 1449.61 393.11 1449.94 392.98 1449.96 393.29 1450.61 401.03"/><polygon class="cls-2" points="1451.8 415.33 1451.8 415.34 1442.33 419.09 1441.49 408.93 1450.95 405.18 1451.8 415.33"/><polygon class="cls-2" points="1453.66 437.69 1444.2 441.44 1443.35 431.28 1452.81 427.53 1453.66 437.69"/><polygon class="cls-2" points="1455.52 460.04 1446.06 463.79 1445.21 453.63 1454.68 449.88 1455.52 460.04"/><polygon class="cls-2" points="1510.48 1119.64 1500.77 1120.45 1488.57 974.02 1487.81 964.87 1486.89 953.9 1486.13 944.76 1485.22 933.78 1484.45 924.64 1483.54 913.66 1482.78 904.52 1481.86 893.54 1481.1 884.4 1480.22 873.79 1479.46 864.65 1447.92 486.14 1447.07 475.99 1456.54 472.24 1457.39 482.39 1489.37 866.24 1490.13 875.38 1491.01 885.99 1491.77 895.13 1492.69 906.11 1493.45 915.25 1494.36 926.23 1495.13 935.37 1496.04 946.35 1496.8 955.49 1497.72 966.47 1498.48 975.61 1510.48 1119.64"/><polygon class="cls-2" points="599.81 822.21 594.75 824.22 589.49 826.3 583.61 828.63 583.16 828.81 577.9 830.89 575.98 827.4 573.93 827.07 567.84 826.09 571.81 833.31 566.55 835.39 -53.61 1081.13 -57.2 1072.06 561.81 826.78 564.77 825.6 567.07 824.69 573.16 822.28 578.42 820.19 580.97 819.18 585.13 819.85 586.01 819.99 592.71 821.07 593.05 821.12 599.81 822.21"/><polygon class="cls-2" points="635.45 808.09 629.47 810.46 624.21 812.54 619.25 814.51 617.44 814.22 611.91 813.33 610.41 813.09 602.82 811.87 601.97 811.73 600.41 811.48 601.58 811.02 607.89 808.51 613.16 806.43 616.61 805.06 620.42 805.67 623.12 806.1 627.45 806.8 630.69 807.32 635.45 808.09"/><polygon class="cls-2" points="671.1 793.96 654.9 800.38 636.05 797.36 652.24 790.94 652.25 790.94 671.1 793.96"/><polygon class="cls-2" points="706.74 779.84 690.54 786.26 671.7 783.23 687.9 776.81 706.74 779.84"/><polygon class="cls-2" points="723.54 762.69 742.37 765.72 726.18 772.14 726.17 772.14 707.34 769.11 723.54 762.69"/><polygon class="cls-2" points="1552.24 444.81 1551.66 445.04 1544.01 448.07 1540.3 449.54 1530.83 453.29 1519.48 457.79 1510.01 461.54 1498.65 466.04 1489.19 469.79 1477.82 474.29 1468.36 478.04 1457.39 482.39 1447.92 486.14 777.37 751.85 761.18 758.27 761.17 758.27 742.33 755.24 758.51 748.83 758.52 748.83 1447.07 475.99 1456.54 472.24 1467.51 467.89 1476.98 464.14 1488.34 459.63 1497.8 455.88 1509.16 451.38 1518.63 447.63 1529.99 443.13 1532.35 442.2 1539.45 439.38 1540.58 438.93 1551.61 444.49 1552.24 444.81"/><polygon class="cls-2" points="1570.38 437.62 1562.13 440.89 1561.04 440.34 1550.84 435.2 1550.47 435.01 1550.81 434.88 1558.72 431.75 1560.4 432.59 1570.38 437.62"/><polygon class="cls-2" points="1588.51 430.44 1580.27 433.7 1568.61 427.83 1576.84 424.56 1588.51 430.44"/><polygon class="cls-2" points="1606.63 423.25 1598.39 426.52 1586.74 420.65 1594.97 417.38 1606.63 423.25"/><polygon class="cls-2" points="1624.76 416.07 1616.52 419.34 1604.86 413.46 1613.1 410.2 1613.11 410.2 1624.76 416.07"/><polygon class="cls-2" points="2027.99 256.29 1642.56 409.02 1634.32 412.28 1622.66 406.41 1630.89 403.15 1630.9 403.15 2024.39 247.22 2027.99 256.29"/><polygon class="cls-2" points="558.34 815.55 556.11 816.43 542.14 821.97 -61.52 1061.17 -65.11 1052.1 523.3 818.94 539.5 812.52 552.13 814.55 555.37 815.07 558.34 815.55"/><polygon class="cls-2" points="593.99 801.42 590.63 802.75 584.31 805.26 579.05 807.34 577.79 807.84 577.78 807.84 571.03 806.76 569.52 806.52 569.51 806.52 564 805.63 561.95 805.3 561.94 805.3 558.94 804.82 562.73 803.32 567.99 801.23 574.31 798.73 575.14 798.4 575.15 798.4 580.72 799.29 580.73 799.29 581.06 799.34 589.5 800.7 589.81 800.75 593.99 801.42"/><polygon class="cls-2" points="629.63 787.3 619.03 791.5 613.77 793.58 613.43 793.72 607.5 792.77 605.46 792.44 599.93 791.55 598.43 791.31 594.59 790.69 597.46 789.55 602.72 787.47 609.03 784.97 610.79 784.27 611.14 784.33 615.47 785.03 618.71 785.55 629.63 787.3"/><polygon class="cls-2" points="665.27 773.18 649.07 779.6 649.06 779.6 630.23 776.57 646.43 770.15 665.27 773.18"/><polygon class="cls-2" points="682.07 756.03 700.91 759.05 684.72 765.47 684.71 765.47 665.87 762.45 682.07 756.03"/><polygon class="cls-2" points="1526.58 431.88 1518.34 435.14 1517.61 435.43 1508.15 439.18 1496.79 443.69 1487.32 447.44 1475.96 451.94 1466.5 455.69 1455.52 460.04 1446.06 463.79 735.9 745.19 719.71 751.61 719.7 751.61 700.87 748.58 717.06 742.16 717.07 742.16 1445.21 453.63 1454.68 449.88 1465.65 445.53 1475.12 441.78 1486.48 437.28 1495.94 433.53 1506.68 429.27 1507.3 429.03 1514.92 426.01 1516.91 427.01 1526.58 431.88"/><polygon class="cls-2" points="1544.71 424.7 1538.43 427.18 1536.47 427.96 1528.38 423.89 1524.81 422.09 1528.12 420.78 1533.05 418.82 1537.94 421.28 1544.71 424.7"/><polygon class="cls-2" points="1562.84 417.51 1559.26 418.93 1554.61 420.78 1554.6 420.78 1549.42 418.17 1549.42 418.16 1542.94 414.9 1548.95 412.53 1551.18 411.64 1558.98 415.57 1562.84 417.51"/><polygon class="cls-2" points="1580.97 410.33 1572.73 413.59 1561.07 407.72 1569.31 404.46 1580.97 410.33"/><polygon class="cls-2" points="1599.1 403.14 1590.86 406.41 1579.2 400.54 1587.44 397.27 1599.1 403.14"/><polygon class="cls-2" points="2020.08 236.33 1616.89 396.09 1608.67 399.36 1608.66 399.36 1597 393.48 1605.23 390.22 2016.49 227.26 2020.08 236.33"/><polygon class="cls-2" points="516.89 808.89 500.69 815.31 -69.43 1041.22 -73.02 1032.14 481.84 812.28 498.04 805.86 516.89 808.89"/><polygon class="cls-2" points="552.54 794.76 550.94 795.39 545.69 797.48 536.34 801.18 536.33 801.18 517.48 798.16 533.67 791.74 533.68 791.74 540.14 792.77 540.15 792.77 543.38 793.29 547.71 793.99 550.41 794.42 552.54 794.76"/><polygon class="cls-2" points="588.18 780.64 585.46 781.72 580.2 783.8 573.89 786.3 571.98 787.06 567.5 786.34 566.62 786.2 566.61 786.2 559.05 784.98 557.53 784.74 553.13 784.03 557.56 782.27 563.88 779.77 569.14 777.68 569.33 777.61 577.52 778.93 577.82 778.98 577.83 778.98 584.54 780.05 585.39 780.19 588.18 780.64"/><polygon class="cls-2" points="623.82 766.52 608.61 772.55 607.62 772.94 607.61 772.94 604.6 772.45 601.91 772.02 595.52 770.99 595.51 770.99 593.48 770.67 593.48 770.66 588.76 769.91 592.29 768.51 598.6 766.01 603.86 763.93 604.97 763.49 606.73 763.77 623.82 766.52"/><polygon class="cls-2" points="640.61 749.37 659.46 752.39 643.26 758.82 643.25 758.82 624.41 755.79 640.6 749.37 640.61 749.37"/><polygon class="cls-2" points="1500.93 418.96 1494.93 421.34 1492.7 422.22 1492.69 422.22 1485.46 425.09 1474.1 429.59 1464.64 433.34 1453.66 437.69 1444.2 441.44 694.45 738.53 678.26 744.95 678.25 744.95 659.4 741.92 675.6 735.5 1443.35 431.28 1452.81 427.53 1463.79 423.18 1473.25 419.43 1481.03 416.35 1484.61 414.93 1489.26 413.09 1494.46 415.7 1500.93 418.96"/><polygon class="cls-2" points="1519.06 411.78 1515.75 413.09 1510.82 415.04 1505.93 412.58 1499.15 409.17 1505.44 406.68 1507.4 405.9 1515.49 409.98 1519.06 411.78"/><polygon class="cls-2" points="1537.19 404.59 1536.57 404.84 1528.95 407.86 1526.96 406.85 1517.29 401.98 1525.53 398.72 1526.32 399.12 1536.52 404.25 1536.52 404.26 1537.19 404.59"/><polygon class="cls-2" points="1555.32 397.41 1547.93 400.34 1547.08 400.67 1547.07 400.67 1535.75 394.97 1535.42 394.8 1535.73 394.68 1543.65 391.54 1543.66 391.54 1547.35 393.4 1555.32 397.41"/><polygon class="cls-2" points="1573.44 390.22 1565.2 393.49 1556.79 389.25 1553.54 387.62 1556.55 386.43 1561.79 384.35 1573.44 390.22"/><polygon class="cls-2" points="2012.17 216.38 1591.24 383.17 1583.01 386.44 1571.35 380.56 1579.58 377.3 2008.58 207.31 2012.17 216.38"/><polygon class="cls-2" points="475.42 802.23 459.23 808.65 459.22 808.65 -77.33 1021.26 -80.93 1012.19 440.38 805.62 456.58 799.2 456.59 799.2 475.42 802.23"/><polygon class="cls-2" points="511.07 788.1 494.88 794.52 494.87 794.52 476.02 791.5 492.23 785.07 492.24 785.07 511.07 788.1"/><polygon class="cls-2" points="546.71 773.98 546.61 774.02 540.51 776.44 535.25 778.52 530.51 780.4 511.67 777.37 527.87 770.95 528.16 771 531.4 771.52 535.73 772.21 538.43 772.65 544.52 773.63 546.57 773.96 546.71 773.98"/><polygon class="cls-2" points="582.35 759.86 581.34 760.26 575.03 762.76 569.77 764.84 566.15 766.28 562.54 765.69 562.21 765.64 555.52 764.57 554.64 764.43 554.63 764.43 547.31 763.25 553.45 760.81 558.71 758.73 563.51 756.83 565.53 757.15 565.84 757.2 572.56 758.28 573.41 758.42 581 759.64 582.35 759.86"/><polygon class="cls-2" points="618 745.73 601.8 752.15 601.79 752.15 600.2 751.9 600.19 751.9 596.96 751.38 592.62 750.68 589.93 750.25 583.53 749.22 582.95 749.13 588.17 747.06 593.43 744.97 599.14 742.71 599.15 742.71 618 745.73"/><polygon class="cls-2" points="1475.26 406.04 1472.24 407.24 1467.03 409.3 1462.77 410.99 1451.8 415.33 1451.8 415.34 1442.33 419.09 652.98 731.87 636.79 738.29 636.78 738.29 617.95 735.26 634.14 728.84 1441.49 408.93 1450.95 405.18 1455.37 403.43 1461.93 400.83 1463.6 400.16 1463.61 400.16 1472 404.39 1475.26 406.04"/><polygon class="cls-2" points="1493.4 398.85 1493.06 398.98 1485.16 402.12 1485.15 402.12 1483.48 401.27 1473.49 396.24 1481.74 392.98 1482.83 393.53 1493.04 398.67 1493.4 398.85"/><polygon class="cls-2" points="1511.53 391.67 1504.42 394.48 1503.29 394.93 1492.26 389.38 1491.63 389.06 1492.22 388.83 1492.22 388.82 1499.86 385.79 1499.87 385.79 1503.87 387.81 1511.53 391.67"/><polygon class="cls-2" points="1529.65 384.48 1525.24 386.23 1521.42 387.75 1513.3 383.66 1509.76 381.88 1513.04 380.57 1517.99 378.61 1524.9 382.09 1529.65 384.48"/><polygon class="cls-2" points="1547.79 377.3 1546.07 377.98 1539.54 380.57 1534.33 377.94 1527.88 374.69 1533.86 372.32 1536.12 371.43 1536.13 371.43 1545.94 376.37 1547.79 377.3"/><polygon class="cls-2" points="2004.26 196.42 1565.58 370.25 1557.35 373.51 1555.39 372.53 1545.69 367.64 1553.92 364.38 1554.69 364.07 2000.67 187.35 2004.26 196.42"/><polygon class="cls-2" points="433.96 795.56 417.77 801.98 417.76 801.98 -85.24 1001.3 -88.84 992.23 398.91 798.96 415.11 792.54 415.12 792.54 433.96 795.56"/><polygon class="cls-2" points="450.76 778.41 469.61 781.44 453.4 787.86 434.56 784.83 450.76 778.41"/><polygon class="cls-2" points="505.24 767.32 489.04 773.74 470.2 770.71 486.4 764.29 505.24 767.32"/><polygon class="cls-2" points="540.89 753.19 536.18 755.06 530.08 757.48 524.82 759.56 524.7 759.61 524.69 759.61 521.63 759.12 505.84 756.59 520.08 750.94 522.03 750.17 522.04 750.17 523.75 750.44 526.45 750.87 532.53 751.85 534.59 752.18 540.1 753.07 540.11 753.07 540.89 753.19"/><polygon class="cls-2" points="576.53 739.07 576.17 739.21 570.91 741.3 564.59 743.8 560.33 745.49 559.31 745.33 559 745.28 550.56 743.92 550.23 743.87 543.53 742.79 542.65 742.65 541.49 742.46 543.02 741.85 548.28 739.77 554.59 737.27 557.68 736.04 557.69 736.04 560.58 736.5 561.43 736.64 569.02 737.86 570.52 738.1 576.05 738.99 576.53 739.07"/><polygon class="cls-2" points="1449.61 393.11 1441.37 396.38 1440.47 396.73 611.52 725.21 611.51 725.21 595.33 731.62 588.43 730.52 585.19 730 580.86 729.3 578.16 728.87 576.48 728.6 577.74 728.1 583 726.01 592.67 722.18 1429.7 390.5 1437.94 387.24 1439.76 388.15 1449.61 393.11"/><polygon class="cls-2" points="1467.74 385.93 1460.91 388.63 1459.5 389.19 1459.49 389.19 1449.19 384 1447.83 383.32 1449.09 382.82 1456.07 380.05 1456.08 380.05 1460.38 382.22 1467.74 385.93"/><polygon class="cls-2" points="1485.86 378.74 1481.74 380.38 1477.63 382.01 1469.81 378.07 1465.97 376.13 1469.53 374.72 1474.2 372.87 1481.41 376.5 1485.86 378.74"/><polygon class="cls-2" points="1504 371.56 1502.56 372.13 1495.76 374.83 1490.84 372.35 1484.09 368.95 1490.35 366.47 1492.33 365.69 1502.45 370.78 1504 371.56"/><polygon class="cls-2" points="1522.13 364.38 1513.88 367.64 1511.88 366.64 1511.88 366.63 1502.22 361.77 1510.46 358.5 1511.24 358.89 1522.13 364.38"/><polygon class="cls-2" points="1996.36 176.46 1553.67 351.88 1544.21 355.63 1539.92 357.33 1532.85 360.13 1531.69 360.59 1522.73 356.08 1520.02 354.71 1522.54 353.72 1528.25 351.45 1532 349.97 1543.36 345.47 1552.82 341.72 1552.83 341.72 1992.76 167.39 1996.36 176.46"/><polygon class="cls-2" points="393.26 789.02 377.06 795.45 377.05 795.45 -93.01 981.71 -96.6 972.64 358.21 792.42 374.41 786 374.42 786 393.26 789.02"/><polygon class="cls-2" points="410.07 771.87 428.9 774.9 412.7 781.32 393.86 778.3 410.06 771.87 410.07 771.87"/><polygon class="cls-2" points="464.54 760.78 448.34 767.2 429.5 764.17 445.7 757.75 464.54 760.78"/><polygon class="cls-2" points="500.19 746.65 483.98 753.08 465.14 750.05 481.35 743.63 500.19 746.65"/><polygon class="cls-2" points="535.83 732.53 531.2 734.37 530.06 734.82 525.94 736.45 524.4 737.06 519.84 738.86 519.62 738.95 517.22 738.57 512.89 737.87 509.65 737.35 500.79 735.93 507.42 733.3 509.84 732.34 513.08 731.05 515.1 730.25 516.98 729.5 516.99 729.5 520.55 730.08 522.61 730.41 528.12 731.29 529.64 731.53 535.83 732.53"/><polygon class="cls-2" points="1424.42 380.43 1416.18 383.69 579.92 715.06 577.5 716.02 574.26 717.3 572.24 718.1 570.81 718.67 567.45 720 565.93 720.6 561.79 722.24 560.67 722.69 554.99 724.94 554.62 725.08 554.61 725.08 554.35 725.19 554.26 725.02 547.54 723.95 547.24 723.9 538.8 722.55 538.8 722.54 538.46 722.49 535.79 722.06 537.79 721.26 538.04 721.16 544.35 718.66 544.58 718.57 549.61 716.57 550.25 716.32 551.97 715.64 555.93 714.07 557.05 713.63 561.19 711.99 562.71 711.38 567.5 709.49 569.52 708.69 572.76 707.4 575.18 706.44 1404.52 377.82 1412.75 374.55 1412.76 374.55 1424.42 380.43"/><polygon class="cls-2" points="1442.55 373.24 1438.64 374.79 1434.31 376.51 1422.65 370.63 1430.89 367.37 1438.34 371.12 1442.55 373.24"/><polygon class="cls-2" points="1460.68 366.06 1459.08 366.69 1452.44 369.32 1447.77 366.97 1440.78 363.45 1447.26 360.88 1449.01 360.18 1449.02 360.18 1458.96 365.19 1460.68 366.06"/><polygon class="cls-2" points="1478.8 358.87 1470.57 362.14 1468.39 361.04 1458.91 356.27 1467.14 353 1467.74 353.3 1478.8 358.87"/><polygon class="cls-2" points="1496.94 351.69 1489.37 354.69 1488.69 354.96 1479.22 350.19 1477.03 349.08 1479.06 348.28 1485.28 345.82 1488.78 347.58 1496.94 351.69"/><polygon class="cls-2" points="1988.59 156.87 1551.84 329.93 1542.38 333.68 1531.02 338.18 1521.55 341.93 1514.73 344.64 1510.2 346.43 1506.5 347.9 1500.28 344.77 1494.84 342.03 1499.89 340.03 1503.07 338.77 1509.35 336.28 1520.71 331.78 1530.17 328.03 1541.53 323.53 1551 319.78 1985 147.8 1988.59 156.87"/><polygon class="cls-2" points="452.54 488.93 449.69 490.92 447.91 492.16 444.21 485.44 159.24 -32.45 164.16 -35.15 448.84 482.21 452.54 488.93"/><polygon class="cls-2" points="460.52 503.43 457.66 505.42 455.89 506.66 452.19 499.94 453.97 498.7 456.82 496.71 460.52 503.43"/><polygon class="cls-2" points="468.65 518.2 465.79 520.19 464.02 521.43 460.32 514.72 462.1 513.48 464.96 511.49 468.65 518.2"/><polygon class="cls-2" points="476.78 532.97 473.92 534.96 472.15 536.2 468.45 529.49 470.23 528.25 473.08 526.26 476.78 532.97"/><polygon class="cls-2" points="484.9 547.74 482.05 549.73 480.27 550.97 476.58 544.26 478.35 543.02 481.21 541.03 484.9 547.74"/><polygon class="cls-2" points="574.26 717.3 572.24 718.1 567.5 709.49 488.4 565.74 484.71 559.03 486.48 557.79 489.34 555.8 493.03 562.51 572.76 707.4 577.5 716.02 574.26 717.3"/><polygon class="cls-2" points="585.19 730 580.86 729.3 578.16 728.87 577.74 728.1 572.72 718.98 575.42 719.41 579.75 720.1 583 726.01 585.19 730"/><polygon class="cls-2" points="596.96 751.38 592.62 750.68 589.93 750.25 588.17 747.06 584.48 740.35 587.18 740.78 591.51 741.48 593.43 744.97 596.96 751.38"/><polygon class="cls-2" points="608.94 773.15 607.62 772.94 607.61 772.94 604.6 772.45 601.91 772.02 598.6 766.01 596.46 762.13 599.16 762.56 603.49 763.25 603.86 763.93 608.61 772.55 608.94 773.15"/><polygon class="cls-2" points="620.92 794.92 616.59 794.23 613.89 793.79 613.77 793.58 609.03 784.97 608.44 783.89 610.79 784.27 611.14 784.33 615.47 785.03 619.03 791.5 620.92 794.92"/><polygon class="cls-2" points="632.9 816.7 628.57 816 625.87 815.57 624.21 812.54 620.42 805.67 623.12 806.1 627.45 806.8 629.47 810.46 632.9 816.7"/><polygon class="cls-2" points="785.27 1093.6 780.35 1096.31 637.85 837.35 632.41 827.45 635.1 827.88 639.43 828.57 644.88 838.47 785.27 1093.6"/><polygon class="cls-2" points="442.36 496.04 438.72 498.58 437.73 499.27 434.03 492.55 148.42 -26.49 153.34 -29.2 438.66 489.32 442.36 496.04"/><polygon class="cls-2" points="450.34 510.54 446.7 513.08 445.71 513.77 442.01 507.05 443 506.36 446.64 503.82 450.34 510.54"/><polygon class="cls-2" points="458.47 525.31 454.83 527.85 453.84 528.54 450.14 521.83 451.13 521.14 454.77 518.6 458.47 525.31"/><polygon class="cls-2" points="466.59 540.08 462.95 542.62 461.96 543.31 458.27 536.6 459.26 535.91 462.9 533.37 466.59 540.08"/><polygon class="cls-2" points="474.72 554.85 471.08 557.39 470.09 558.08 466.4 551.37 467.39 550.68 471.03 548.14 474.72 554.85"/><polygon class="cls-2" points="569.73 727.51 564.2 726.62 562.7 726.38 560.67 722.69 557.26 716.49 555.93 714.07 478.22 572.85 474.53 566.14 475.52 565.45 479.16 562.91 482.85 569.62 561.19 711.99 564.29 717.62 565.93 720.6 569.73 727.51"/><polygon class="cls-2" points="581.5 748.9 575.97 748 575.96 748 574.46 747.76 570.91 741.3 569.02 737.86 570.52 738.1 576.05 738.99 576.17 739.21 581.5 748.9"/><polygon class="cls-2" points="593.48 770.66 588.76 769.91 587.95 769.78 586.45 769.54 581.34 760.26 581 759.64 582.35 759.86 582.36 759.86 582.5 759.88 588.03 760.77 592.29 768.51 593.48 770.66"/><polygon class="cls-2" points="605.46 792.44 599.93 791.55 598.43 791.31 597.46 789.55 592.98 781.41 594.48 781.65 600.01 782.54 602.72 787.47 605.46 792.44"/><polygon class="cls-2" points="617.44 814.22 611.91 813.33 610.41 813.09 607.89 808.51 604.97 803.19 606.46 803.43 606.47 803.43 611.99 804.31 613.16 806.43 617.44 814.22"/><polygon class="cls-2" points="774.45 1099.55 769.53 1102.26 622.39 834.86 616.94 824.96 618.45 825.2 623.98 826.09 629.42 835.99 774.45 1099.55"/><polygon class="cls-2" points="432.17 503.15 427.75 506.24 427.54 506.38 423.85 499.66 137.6 -20.54 142.52 -23.24 428.48 496.43 432.17 503.15"/><polygon class="cls-2" points="440.15 517.65 435.73 520.74 435.52 520.88 431.83 514.17 432.03 514.03 436.46 510.93 440.15 517.65"/><polygon class="cls-2" points="448.28 532.42 443.85 535.51 443.65 535.65 439.96 528.94 440.16 528.8 444.59 525.71 448.28 532.42"/><polygon class="cls-2" points="456.41 547.19 451.98 550.29 451.78 550.43 448.09 543.71 448.29 543.57 452.71 540.48 456.41 547.19"/><polygon class="cls-2" points="464.54 561.96 460.11 565.06 459.91 565.2 456.21 558.48 456.42 558.34 460.84 555.25 464.54 561.96"/><polygon class="cls-2" points="554.26 725.02 547.54 723.95 547.24 723.9 544.35 718.66 541.8 714.01 468.04 579.97 464.35 573.26 464.55 573.12 468.97 570.02 472.66 576.73 548.82 715.13 549.61 716.57 554.26 725.02"/><polygon class="cls-2" points="566.03 746.4 560.33 745.49 559.31 745.33 559 745.28 554.59 737.27 553.56 735.38 553.86 735.43 557.68 736.04 557.69 736.04 560.58 736.5 564.59 743.8 566.03 746.4"/><polygon class="cls-2" points="578.01 768.18 571.29 767.1 570.98 767.05 569.77 764.84 565.53 757.15 565.84 757.2 572.56 758.28 575.03 762.76 578.01 768.18"/><polygon class="cls-2" points="589.99 789.95 583.27 788.88 582.97 788.83 580.2 783.8 577.52 778.93 577.82 778.98 577.83 778.98 584.54 780.05 585.46 781.72 589.99 789.95"/><polygon class="cls-2" points="601.97 811.73 600.41 811.48 595.25 810.65 594.94 810.6 590.63 802.75 589.5 800.7 589.81 800.75 593.99 801.42 596.53 801.83 601.58 811.02 601.97 811.73"/><polygon class="cls-2" points="763.63 1105.51 758.71 1108.22 606.92 832.37 601.48 822.48 601.79 822.53 608.51 823.6 613.95 833.5 763.63 1105.51"/><polygon class="cls-2" points="421.77 510.42 417.36 513.5 413.66 506.78 126.77 -14.58 131.69 -17.29 418.29 503.55 421.99 510.27 421.77 510.42"/><polygon class="cls-2" points="429.97 524.77 429.75 524.92 425.34 528 421.64 521.28 426.05 518.2 426.27 518.05 429.97 524.77"/><polygon class="cls-2" points="438.1 539.54 437.88 539.69 433.46 542.77 429.77 536.06 434.18 532.98 434.4 532.82 438.1 539.54"/><polygon class="cls-2" points="446.23 554.31 446.01 554.46 441.6 557.55 437.9 550.83 442.31 547.75 442.53 547.6 446.23 554.31"/><polygon class="cls-2" points="454.35 569.08 454.13 569.23 449.72 572.31 446.03 565.6 450.44 562.52 450.66 562.37 454.35 569.08"/><polygon class="cls-2" points="538.8 722.54 538.46 722.49 535.79 722.06 535.78 722.06 531.77 721.41 526.33 711.52 457.85 587.08 454.16 580.38 458.57 577.29 458.79 577.14 462.48 583.85 533.36 712.65 533.36 712.66 538.04 721.16 538.8 722.54"/><polygon class="cls-2" points="550.56 743.92 550.23 743.87 543.53 742.79 543.02 741.85 538.09 732.89 544.78 733.97 545.12 734.02 545.12 734.03 548.28 739.77 550.56 743.92"/><polygon class="cls-2" points="562.54 765.69 562.21 765.64 555.52 764.57 553.45 760.81 550.07 754.67 556.76 755.74 557.1 755.79 557.1 755.8 558.71 758.73 562.54 765.69"/><polygon class="cls-2" points="574.53 787.47 574.19 787.42 571.98 787.06 567.5 786.34 563.88 779.77 562.05 776.44 568.74 777.52 568.75 777.52 569.08 777.57 569.14 777.68 573.89 786.3 574.53 787.47"/><polygon class="cls-2" points="586.51 809.24 586.17 809.19 579.48 808.11 579.05 807.34 574.31 798.73 574.03 798.22 575.14 798.4 575.15 798.4 580.72 799.29 580.73 799.29 581.06 799.34 584.31 805.26 586.51 809.24"/><polygon class="cls-2" points="752.81 1111.46 747.89 1114.17 591.46 829.89 589.49 826.3 586.01 819.99 592.71 821.07 593.05 821.12 594.75 824.22 598.49 831.02 752.81 1111.46"/><polygon class="cls-2" points="411.8 517.38 410.8 518.08 407.17 520.61 403.48 513.9 115.95 -8.63 120.87 -11.33 408.1 510.66 411.8 517.38"/><polygon class="cls-2" points="419.78 531.88 418.78 532.58 415.15 535.11 411.46 528.4 415.08 525.87 416.09 525.17 419.78 531.88"/><polygon class="cls-2" points="427.91 546.65 426.91 547.35 423.28 549.88 419.58 543.17 423.21 540.64 424.21 539.94 427.91 546.65"/><polygon class="cls-2" points="436.04 561.43 435.04 562.13 435.03 562.13 431.41 564.66 427.71 557.94 431.34 555.41 432.34 554.71 436.04 561.43"/><polygon class="cls-2" points="444.16 576.19 443.16 576.89 439.54 579.43 435.84 572.71 439.47 570.18 440.47 569.48 444.16 576.19"/><polygon class="cls-2" points="523.32 720.05 521.8 719.81 516.29 718.93 510.85 709.03 447.66 594.2 443.97 587.49 447.6 584.96 448.6 584.26 452.29 590.97 517.88 710.16 523.32 720.05"/><polygon class="cls-2" points="535.09 741.43 533.57 741.19 528.06 740.31 525.94 736.45 522.61 730.41 528.12 731.29 529.64 731.53 531.2 734.37 535.09 741.43"/><polygon class="cls-2" points="547.07 763.21 545.55 762.97 540.04 762.08 536.18 755.06 534.59 752.18 540.1 753.07 540.11 753.07 540.89 753.19 540.9 753.19 541.62 753.31 547.07 763.21"/><polygon class="cls-2" points="559.05 784.98 557.53 784.74 553.13 784.03 553.12 784.03 552.02 783.85 546.61 774.02 546.57 773.96 546.71 773.98 546.72 773.98 552.08 774.84 552.09 774.84 553.6 775.08 557.56 782.27 559.05 784.98"/><polygon class="cls-2" points="571.03 806.76 569.52 806.52 569.51 806.52 564 805.63 562.73 803.32 558.56 795.73 564.07 796.62 565.59 796.86 567.99 801.23 571.03 806.76"/><polygon class="cls-2" points="741.98 1117.42 737.06 1120.13 577.9 830.89 575.98 827.4 573.16 822.28 570.54 817.51 576.05 818.39 577.57 818.63 578.42 820.19 583.01 828.53 583.16 828.81 741.98 1117.42"/><polygon class="cls-2" points="401.8 524.36 400.03 525.6 397.18 527.6 393.48 520.88 105.33 -2.78 110.25 -5.49 398.11 517.64 401.8 524.36"/><polygon class="cls-2" points="409.78 538.86 408.01 540.1 405.15 542.09 401.46 535.38 404.32 533.39 406.09 532.15 409.78 538.86"/><polygon class="cls-2" points="417.91 553.63 416.14 554.87 413.28 556.87 409.59 550.16 412.45 548.16 414.22 546.92 417.91 553.63"/><polygon class="cls-2" points="426.04 568.41 424.27 569.65 421.41 571.64 417.72 564.92 420.57 562.93 422.35 561.69 426.04 568.41"/><polygon class="cls-2" points="434.17 583.18 432.39 584.42 429.54 586.41 425.85 579.7 428.7 577.7 430.47 576.46 434.17 583.18"/><polygon class="cls-2" points="508.15 717.62 505.45 717.18 501.12 716.49 495.68 706.6 437.67 601.18 433.98 594.47 436.83 592.48 438.61 591.24 442.3 597.95 502.7 707.72 508.15 717.62"/><polygon class="cls-2" points="519.91 739 519.62 738.95 517.22 738.57 512.89 737.87 509.84 732.34 507.44 727.97 511.77 728.67 514.47 729.1 515.1 730.25 519.84 738.86 519.91 739"/><polygon class="cls-2" points="531.89 760.77 529.2 760.34 524.86 759.64 524.82 759.56 520.08 750.94 519.42 749.75 522.03 750.17 522.04 750.17 523.75 750.44 526.45 750.87 530.08 757.48 531.89 760.77"/><polygon class="cls-2" points="543.87 782.54 541.18 782.11 536.85 781.42 535.25 778.52 531.4 771.52 535.73 772.21 538.43 772.65 540.51 776.44 543.87 782.54"/><polygon class="cls-2" points="555.86 804.32 553.16 803.89 548.83 803.19 545.69 797.48 543.38 793.29 547.71 793.99 550.41 794.42 550.94 795.39 555.86 804.32"/><polygon class="cls-2" points="731.36 1123.27 726.44 1125.97 566.55 835.39 561.81 826.78 560.81 824.97 556.11 816.43 555.37 815.07 558.34 815.55 559.7 815.76 562.39 816.2 567.07 824.69 567.84 826.09 571.81 833.31 731.36 1123.27"/><polygon class="cls-2" points="1971.12 655.77 1968.14 661.68 1562.46 457.36 1552.26 452.22 1544.01 448.07 1540.01 446.05 1532.35 442.2 1529.8 440.92 1518.34 435.14 1517.56 434.75 1507.35 429.61 1506.68 429.27 1495.1 423.44 1492.7 422.22 1492.69 422.22 1484.89 418.3 1481.03 416.35 1472.65 412.13 1467.03 409.3 1462.44 406.99 1455.37 403.43 1450.61 401.03 1441.37 396.38 1440.4 395.89 1429.7 390.5 1416.18 383.69 1404.52 377.82 1028.54 188.46 1020.81 184.56 1011.52 179.89 1003.8 176 994.52 171.32 986.78 167.43 977.51 162.75 969.78 158.86 960.49 154.19 952.76 150.29 943.8 145.78 936.06 141.88 610.79 -21.94 613.77 -27.85 942.22 137.57 949.96 141.47 958.92 145.98 966.66 149.88 975.94 154.55 983.67 158.45 992.95 163.12 1000.68 167.01 1009.96 171.69 1017.69 175.58 1026.97 180.26 1034.7 184.15 1412.75 374.55 1412.76 374.55 1424.42 380.43 1437.94 387.24 1439.76 388.15 1449.61 393.11 1449.96 393.29 1461.79 399.25 1463.6 400.16 1463.61 400.16 1472 404.39 1475.26 406.04 1484.25 410.56 1489.26 413.09 1494.46 415.7 1500.93 418.96 1506.71 421.87 1514.92 426.01 1516.91 427.01 1526.58 431.88 1529.16 433.18 1539.36 438.32 1540.58 438.93 1551.61 444.49 1552.24 444.81 1561.82 449.63 1971.12 655.77"/><polygon class="cls-2" points="1977.67 642.75 1974.69 648.67 1562.13 440.89 1561.04 440.34 1550.84 435.2 1550.47 435.01 1538.59 429.03 1536.47 427.96 1528.38 423.89 1524.81 422.09 1516.14 417.72 1510.82 415.04 1505.93 412.58 1499.15 409.17 1493.68 406.41 1485.16 402.12 1485.15 402.12 1483.48 401.27 1473.49 396.24 1471.23 395.1 1461.02 389.96 1459.5 389.19 1459.49 389.19 1449.19 384 1447.83 383.32 1438.98 378.86 1434.31 376.51 1422.65 370.63 1422.64 370.63 1042.11 178.98 1034.38 175.08 1025.09 170.41 1017.37 166.52 1008.08 161.84 1000.35 157.95 991.08 153.28 983.35 149.38 974.06 144.71 966.33 140.81 957.37 136.3 949.63 132.4 617.35 -34.95 620.33 -40.87 955.8 128.09 963.54 131.99 972.5 136.5 980.23 140.39 989.52 145.07 997.25 148.96 1006.53 153.64 1014.26 157.53 1023.54 162.21 1031.27 166.1 1040.55 170.77 1048.28 174.67 1430.89 367.37 1438.34 371.12 1442.55 373.24 1448.54 376.26 1456.07 380.05 1456.08 380.05 1460.38 382.22 1467.74 385.93 1470.58 387.36 1481.74 392.98 1482.83 393.53 1493.04 398.67 1493.4 398.85 1505.29 404.84 1507.4 405.9 1515.49 409.98 1519.06 411.78 1519.07 411.78 1527.74 416.14 1527.74 416.15 1533.05 418.82 1537.94 421.28 1544.71 424.7 1544.72 424.7 1550.19 427.45 1558.72 431.75 1560.4 432.59 1570.38 437.62 1977.67 642.75"/><polygon class="cls-2" points="1984.23 629.74 1981.25 635.65 1580.27 433.7 1568.61 427.83 1559.62 423.3 1554.61 420.78 1554.6 420.78 1549.42 418.17 1549.42 418.16 1542.94 414.9 1537.17 412 1537.17 411.99 1528.95 407.86 1526.96 406.85 1517.29 401.98 1514.72 400.69 1504.51 395.55 1503.29 394.93 1492.26 389.38 1491.63 389.06 1482.06 384.24 1477.63 382.01 1469.81 378.07 1465.97 376.13 1465.96 376.13 1459.6 372.93 1452.44 369.32 1447.77 366.97 1440.78 363.45 1437.56 361.83 1055.68 169.5 1047.95 165.6 1047.94 165.6 1038.66 160.93 1030.94 157.04 1021.65 152.36 1013.92 148.47 1004.65 143.8 996.91 139.9 987.63 135.23 979.9 131.33 970.94 126.82 963.2 122.92 623.9 -47.96 626.88 -53.88 969.37 118.61 977.11 122.51 986.07 127.02 993.8 130.92 1003.09 135.59 1010.82 139.49 1020.09 144.16 1027.83 148.05 1037.11 152.73 1044.83 156.62 1054.11 161.29 1054.12 161.29 1061.85 165.19 1436.92 354.09 1447.12 359.23 1449.01 360.18 1449.02 360.18 1458.96 365.19 1460.68 366.06 1469.16 370.33 1474.2 372.87 1481.41 376.5 1485.86 378.74 1485.87 378.74 1491.62 381.64 1499.86 385.79 1499.87 385.79 1503.87 387.81 1511.53 391.67 1514.07 392.95 1525.53 398.72 1526.32 399.12 1536.52 404.25 1536.52 404.26 1537.19 404.59 1548.77 410.42 1548.77 410.43 1551.18 411.64 1558.98 415.57 1562.84 417.51 1576.84 424.56 1588.51 430.44 1984.23 629.74"/><polygon class="cls-2" points="1990.78 616.73 1987.8 622.64 1598.39 426.52 1586.74 420.65 1586.73 420.65 1572.73 413.59 1561.07 407.72 1558.21 406.28 1548 401.14 1547.08 400.67 1547.07 400.67 1535.75 394.97 1535.42 394.8 1525.54 389.83 1521.42 387.75 1513.3 383.66 1509.76 381.88 1509.75 381.88 1503.09 378.52 1495.76 374.83 1490.84 372.35 1484.09 368.95 1480.64 367.21 1470.57 362.14 1468.39 361.04 1458.91 356.27 1458.18 355.9 1446.35 349.94 1436.14 344.8 1069.25 160.02 1061.52 156.12 1052.24 151.45 1044.51 147.56 1035.23 142.88 1027.5 138.99 1018.22 134.31 1010.49 130.42 1001.21 125.75 993.47 121.85 984.51 117.34 976.77 113.44 630.46 -60.98 633.44 -66.89 982.94 109.13 990.68 113.03 999.64 117.54 1007.37 121.44 1016.65 126.11 1024.39 130.01 1033.66 134.68 1041.39 138.58 1041.4 138.58 1050.68 143.25 1058.4 147.14 1067.69 151.82 1075.42 155.71 1435.5 337.06 1445.7 342.2 1457.54 348.16 1467.14 353 1467.74 353.3 1478.8 358.87 1479.99 359.47 1490.2 364.61 1492.33 365.69 1502.45 370.78 1504 371.56 1512.65 375.92 1517.99 378.61 1524.9 382.09 1529.65 384.48 1535.1 387.23 1543.65 391.54 1543.66 391.54 1547.35 393.4 1555.32 397.41 1557.56 398.54 1569.31 404.46 1580.97 410.33 1594.97 417.38 1606.63 423.25 1990.78 616.73"/><polygon class="cls-2" points="1997.33 603.71 1994.35 609.63 1616.52 419.34 1604.86 413.46 1590.86 406.41 1579.2 400.54 1565.2 393.49 1556.79 389.25 1553.54 387.62 1546.58 384.11 1539.54 380.57 1534.33 377.94 1527.88 374.69 1524.13 372.8 1513.88 367.64 1511.88 366.64 1511.88 366.63 1502.22 361.77 1501.68 361.5 1489.42 355.33 1489.42 355.32 1488.69 354.96 1479.22 350.19 1477.03 349.08 1466.97 344.02 1456.76 338.88 1456.76 338.87 1444.93 332.92 1434.72 327.78 1434.72 327.77 1082.82 150.54 1075.09 146.65 1065.8 141.97 1058.08 138.08 1048.8 133.4 1048.79 133.4 1041.06 129.51 1031.79 124.84 1024.06 120.94 1024.05 120.94 1014.77 116.27 1007.04 112.37 998.08 107.86 990.34 103.96 637.01 -73.99 639.99 -79.91 996.51 99.65 1004.25 103.55 1013.21 108.06 1020.95 111.96 1030.23 116.63 1037.96 120.53 1047.24 125.2 1054.97 129.09 1064.25 133.77 1071.98 137.66 1081.26 142.33 1088.99 146.23 1434.08 320.03 1444.28 325.17 1456.12 331.13 1466.32 336.27 1478.57 342.44 1485.28 345.82 1488.78 347.58 1496.94 351.69 1501.03 353.75 1510.46 358.5 1511.24 358.89 1522.13 364.38 1523.48 365.06 1533.69 370.2 1536.12 371.43 1536.13 371.43 1545.94 376.37 1547.79 377.3 1556.14 381.51 1561.79 384.35 1573.44 390.22 1573.45 390.22 1587.44 397.27 1599.1 403.14 1613.1 410.2 1613.11 410.2 1624.76 416.07 1997.33 603.71"/><polygon class="cls-2" points="2003.77 590.94 2000.79 596.85 1634.32 412.28 1622.66 406.41 1608.67 399.36 1608.66 399.36 1597 393.48 1583.01 386.44 1571.35 380.56 1557.35 373.51 1555.39 372.53 1545.69 367.64 1545.19 367.39 1532.94 361.22 1531.69 360.59 1522.73 356.08 1520.02 354.71 1510.49 349.91 1506.5 347.9 1500.28 344.77 1494.84 342.03 1488.03 338.6 1477.82 333.46 1465.58 327.29 1455.37 322.15 1443.54 316.19 1433.33 311.05 1096.15 141.23 1088.42 137.34 1079.13 132.66 1071.41 128.77 1062.13 124.09 1062.12 124.09 1054.39 120.2 1045.12 115.53 1037.39 111.63 1037.38 111.63 1028.1 106.96 1020.37 103.06 1011.41 98.55 1003.67 94.65 643.45 -86.77 646.42 -92.68 1009.83 90.35 1017.57 94.25 1026.53 98.76 1034.26 102.65 1043.55 107.33 1051.28 111.22 1060.55 115.9 1060.56 115.9 1068.29 119.79 1077.57 124.47 1085.29 128.36 1085.3 128.36 1094.58 133.03 1102.31 136.93 1432.69 303.32 1442.89 308.46 1454.73 314.42 1464.93 319.56 1477.18 325.73 1487.39 330.87 1499.64 337.04 1503.07 338.77 1509.84 342.18 1514.73 344.64 1522.09 348.35 1528.25 351.45 1532.29 353.48 1532.29 353.49 1539.92 357.33 1544.54 359.65 1544.54 359.66 1553.92 364.38 1554.75 364.8 1565.58 370.25 1579.58 377.3 1591.24 383.17 1605.23 390.22 1616.89 396.09 1630.89 403.15 1630.9 403.15 1642.56 409.02 2003.77 590.94"/><polygon class="cls-2" points="199.92 757.96 210.73 759.7 200.23 767.04 -39.52 934.5 -43.88 928.26 189.42 765.3 199.92 757.96"/><polygon class="cls-2" points="1034.7 184.15 1028.54 188.46 495.16 561.02 493.03 562.51 490.18 564.5 488.4 565.74 484.19 568.68 482.85 569.62 479.21 572.16 478.22 572.85 473.22 576.34 472.66 576.73 468.24 579.83 468.04 579.97 462.48 583.85 462.26 584 457.85 587.08 457.27 587.49 452.29 590.97 451.29 591.67 447.66 594.2 446.3 595.15 442.3 597.95 440.52 599.19 437.67 601.18 435.54 602.67 325.82 679.31 315.01 677.57 431.84 595.96 433.98 594.47 436.83 592.48 438.61 591.24 442.61 588.44 443.97 587.49 447.6 584.96 448.6 584.26 453.58 580.78 454.16 580.38 458.57 577.29 458.79 577.14 464.35 573.26 464.55 573.12 468.97 570.02 469.53 569.63 474.53 566.14 475.52 565.45 479.16 562.91 480.5 561.97 484.71 559.03 486.48 557.79 489.34 555.8 491.47 554.31 1020.81 184.56 1026.97 180.26 1034.7 184.15"/><polygon class="cls-2" points="1040.55 170.77 1048.28 174.67 1042.11 178.98 1034.38 175.08 1040.55 170.77"/><polygon class="cls-2" points="1054.12 161.29 1061.85 165.19 1055.68 169.5 1047.95 165.6 1054.11 161.29 1054.12 161.29"/><polygon class="cls-2" points="1067.69 151.82 1075.42 155.71 1069.25 160.02 1061.52 156.12 1067.69 151.82"/><polygon class="cls-2" points="1081.26 142.33 1088.99 146.23 1082.82 150.54 1075.09 146.65 1081.26 142.33"/><polygon class="cls-2" points="1394.01 -66.83 1102.31 136.93 1096.15 141.23 1088.42 137.34 1094.58 133.03 1389.65 -73.08 1394.01 -66.83"/><polygon class="cls-2" points="176.11 754.14 186.93 755.88 176.43 763.21 -49.12 920.76 -53.48 914.51 165.61 761.48 176.11 754.14"/><polygon class="cls-2" points="1017.69 175.58 1011.52 179.89 487.03 546.25 484.9 547.74 482.05 549.73 480.27 550.97 476.06 553.91 474.72 554.85 471.08 557.39 470.09 558.08 465.1 561.57 464.54 561.96 460.11 565.06 459.91 565.2 454.35 569.08 454.13 569.23 449.72 572.31 449.14 572.72 444.16 576.19 443.16 576.89 439.54 579.43 438.18 580.38 434.17 583.18 432.39 584.42 429.54 586.41 427.41 587.9 302.03 675.49 302.02 675.49 291.2 673.75 423.72 581.19 425.85 579.7 428.7 577.7 430.47 576.46 434.48 573.66 435.84 572.71 439.47 570.18 440.47 569.48 445.45 566 446.03 565.6 450.44 562.52 450.66 562.37 456.21 558.48 456.42 558.34 460.84 555.25 461.4 554.86 466.4 551.37 467.39 550.68 471.03 548.14 472.37 547.2 476.58 544.26 478.35 543.02 481.21 541.03 483.34 539.54 1003.8 176 1009.96 171.69 1017.69 175.58"/><polygon class="cls-2" points="1023.54 162.21 1031.27 166.1 1025.09 170.41 1017.37 166.52 1023.54 162.21"/><polygon class="cls-2" points="1037.11 152.73 1044.83 156.62 1038.66 160.93 1030.94 157.04 1037.11 152.73"/><polygon class="cls-2" points="1050.68 143.25 1058.4 147.14 1052.24 151.45 1044.51 147.56 1050.68 143.25"/><polygon class="cls-2" points="1064.25 133.77 1071.98 137.66 1065.8 141.97 1058.08 138.08 1064.25 133.77"/><polygon class="cls-2" points="1384.41 -80.58 1085.3 128.36 1085.29 128.36 1079.13 132.66 1071.41 128.77 1077.57 124.47 1380.05 -86.82 1384.41 -80.58"/><polygon class="cls-2" points="152.31 750.31 163.13 752.05 152.63 759.39 -58.72 907.02 -63.08 900.77 141.81 757.65 152.31 750.31"/><polygon class="cls-2" points="1000.68 167.01 994.52 171.32 478.91 531.48 476.78 532.97 473.92 534.96 472.15 536.2 467.94 539.14 466.59 540.08 462.95 542.62 461.96 543.31 456.97 546.8 456.41 547.19 451.98 550.29 451.78 550.43 446.23 554.31 446.01 554.46 441.6 557.55 441.02 557.95 436.04 561.43 435.04 562.13 435.03 562.13 431.41 564.66 430.05 565.61 426.04 568.41 424.27 569.65 421.41 571.64 419.28 573.13 278.22 671.66 267.4 669.92 415.59 566.41 417.72 564.92 420.57 562.93 422.35 561.69 426.35 558.89 427.71 557.94 431.34 555.41 432.34 554.71 437.32 551.23 437.9 550.83 442.31 547.75 442.53 547.6 448.09 543.71 448.29 543.57 452.71 540.48 453.27 540.09 458.27 536.6 459.26 535.91 462.9 533.37 464.24 532.43 468.45 529.49 470.23 528.25 473.08 526.26 475.21 524.77 986.78 167.43 992.95 163.12 1000.68 167.01"/><polygon class="cls-2" points="1006.53 153.64 1014.26 157.53 1008.08 161.84 1000.35 157.95 1006.53 153.64"/><polygon class="cls-2" points="1020.09 144.16 1027.83 148.05 1021.65 152.36 1013.92 148.47 1020.09 144.16"/><polygon class="cls-2" points="1033.66 134.68 1041.39 138.58 1035.23 142.88 1027.5 138.99 1033.66 134.68"/><polygon class="cls-2" points="1047.24 125.2 1054.97 129.09 1048.8 133.4 1048.79 133.4 1041.06 129.51 1047.24 125.2"/><polygon class="cls-2" points="1374.81 -94.32 1068.29 119.79 1062.13 124.09 1062.12 124.09 1054.39 120.2 1060.55 115.9 1060.56 115.9 1370.45 -100.57 1374.81 -94.32"/><polygon class="cls-2" points="128.52 746.49 139.33 748.23 128.82 755.57 -68.32 893.27 -72.68 887.03 118.01 753.83 128.52 746.49"/><polygon class="cls-2" points="983.67 158.45 977.51 162.75 470.78 516.71 468.65 518.2 465.79 520.19 464.02 521.43 459.81 524.37 458.47 525.31 454.83 527.85 453.84 528.54 448.84 532.03 448.28 532.42 443.85 535.51 443.65 535.65 438.1 539.54 437.88 539.69 433.46 542.77 432.89 543.17 427.91 546.65 426.91 547.35 423.28 549.88 421.92 550.83 417.91 553.63 416.14 554.87 413.28 556.87 411.15 558.36 254.41 667.84 243.6 666.1 407.46 551.65 409.59 550.16 412.45 548.16 414.22 546.92 418.23 544.12 419.58 543.17 423.21 540.64 424.21 539.94 429.2 536.46 429.77 536.06 434.18 532.98 434.4 532.82 439.96 528.94 440.16 528.8 444.59 525.71 445.15 525.32 450.14 521.83 451.13 521.14 454.77 518.6 456.11 517.66 460.32 514.72 462.1 513.48 464.96 511.49 467.09 510 969.78 158.86 975.94 154.55 983.67 158.45"/><polygon class="cls-2" points="989.52 145.07 997.25 148.96 991.08 153.28 983.35 149.38 989.52 145.07"/><polygon class="cls-2" points="1003.09 135.59 1010.82 139.49 1004.65 143.8 996.91 139.9 1003.09 135.59"/><polygon class="cls-2" points="1016.65 126.11 1024.39 130.01 1018.22 134.31 1010.49 130.42 1016.65 126.11"/><polygon class="cls-2" points="1030.23 116.63 1037.96 120.53 1031.79 124.84 1024.06 120.94 1030.23 116.63"/><polygon class="cls-2" points="1365.21 -108.06 1051.28 111.22 1045.12 115.53 1037.39 111.63 1043.55 107.33 1360.85 -114.31 1365.21 -108.06"/><polygon class="cls-2" points="104.71 742.67 115.53 744.4 105.02 751.74 -77.92 879.53 -82.28 873.28 94.2 750 104.71 742.67"/><polygon class="cls-2" points="966.66 149.88 960.49 154.19 462.65 501.94 460.52 503.43 457.66 505.42 455.89 506.66 451.68 509.6 450.34 510.54 446.7 513.08 445.71 513.77 440.71 517.26 440.15 517.65 435.73 520.74 435.52 520.88 429.97 524.77 429.75 524.92 425.34 528 424.76 528.4 419.78 531.88 418.78 532.58 415.15 535.11 413.79 536.06 409.78 538.86 408.01 540.1 405.15 542.09 403.02 543.58 230.62 664.01 230.61 664.01 219.8 662.28 399.33 536.87 401.46 535.38 404.32 533.39 406.09 532.15 410.1 529.35 411.46 528.4 415.08 525.87 416.09 525.17 421.06 521.69 421.64 521.28 426.05 518.2 426.27 518.05 431.83 514.17 432.03 514.03 436.46 510.93 437.02 510.54 442.01 507.05 443 506.36 446.64 503.82 447.98 502.88 452.19 499.94 453.97 498.7 456.82 496.71 458.95 495.22 952.76 150.29 958.92 145.98 966.66 149.88"/><polygon class="cls-2" points="972.5 136.5 980.23 140.39 974.06 144.71 966.33 140.81 972.5 136.5"/><polygon class="cls-2" points="986.07 127.02 993.8 130.92 987.63 135.23 979.9 131.33 986.07 127.02"/><polygon class="cls-2" points="999.64 117.54 1007.37 121.44 1001.21 125.75 993.47 121.85 999.64 117.54"/><polygon class="cls-2" points="1013.21 108.06 1020.95 111.96 1014.77 116.27 1007.04 112.37 1013.21 108.06"/><polygon class="cls-2" points="1355.61 -121.81 1034.26 102.65 1028.1 106.96 1020.37 103.06 1026.53 98.76 1351.25 -128.06 1355.61 -121.81"/><polygon class="cls-2" points="81.66 747.99 -87.34 866.04 -91.71 859.79 70.84 746.25 81.66 747.99"/><polygon class="cls-2" points="949.96 141.47 943.8 145.78 454.67 487.44 452.54 488.93 449.69 490.92 447.91 492.16 443.7 495.1 442.36 496.04 438.72 498.58 437.73 499.27 432.73 502.76 432.17 503.15 427.75 506.24 427.54 506.38 421.99 510.27 421.77 510.42 417.36 513.5 416.78 513.9 411.8 517.38 410.8 518.08 407.17 520.61 405.81 521.56 401.8 524.36 400.03 525.6 397.18 527.6 395.05 529.09 207.26 660.26 196.43 658.52 391.35 522.37 393.48 520.88 396.33 518.88 398.11 517.64 402.12 514.85 403.48 513.9 407.1 511.36 408.1 510.66 413.08 507.18 413.66 506.78 418.07 503.7 418.29 503.55 423.85 499.66 424.05 499.52 428.48 496.43 429.04 496.04 434.03 492.55 435.02 491.86 438.66 489.32 440 488.38 444.21 485.44 445.99 484.2 448.84 482.21 450.97 480.72 936.06 141.88 942.22 137.57 949.96 141.47"/><polygon class="cls-2" points="955.8 128.09 963.54 131.99 957.37 136.3 949.63 132.4 955.8 128.09"/><polygon class="cls-2" points="969.37 118.61 977.11 122.51 970.94 126.82 963.2 122.92 969.37 118.61"/><polygon class="cls-2" points="982.94 109.13 990.68 113.03 984.51 117.34 976.77 113.44 982.94 109.13"/><polygon class="cls-2" points="996.51 99.65 1004.25 103.55 998.08 107.86 990.34 103.96 996.51 99.65"/><polygon class="cls-2" points="1346.19 -135.3 1017.57 94.25 1011.41 98.55 1003.67 94.65 1009.83 90.35 1341.82 -141.55 1346.19 -135.3"/><polygon class="cls-2" points="1498.48 975.61 1488.57 974.02 648.12 838.99 644.88 838.47 640.55 837.78 637.85 837.35 631.46 836.32 629.42 835.99 623.89 835.1 622.39 834.86 614.8 833.64 613.95 833.5 607.24 832.42 606.92 832.37 598.49 831.02 598.15 830.97 591.46 829.89 590.58 829.75 583.61 828.63 583.01 828.53 581.5 828.29 575.98 827.4 573.93 827.07 567.84 826.09 565.14 825.66 564.77 825.6 560.81 824.97 557.57 824.45 542.14 821.97 523.3 818.94 500.69 815.31 481.84 812.28 459.23 808.65 459.22 808.65 440.38 805.62 417.77 801.98 417.76 801.98 398.91 798.96 377.06 795.45 377.05 795.45 358.21 792.42 200.23 767.04 189.42 765.3 176.43 763.21 165.61 761.48 152.63 759.39 141.81 757.65 128.82 755.57 118.01 753.83 105.02 751.74 94.2 750 81.66 747.99 70.84 746.25 -72.45 723.23 -71.04 714.43 81.34 738.91 92.17 740.65 104.71 742.67 115.53 744.4 128.52 746.49 139.33 748.23 152.31 750.31 163.13 752.05 176.11 754.14 186.93 755.88 199.92 757.96 210.73 759.7 374.41 786 374.42 786 393.26 789.02 393.27 789.02 415.11 792.54 415.12 792.54 433.96 795.56 433.97 795.56 456.58 799.2 456.59 799.2 475.42 802.23 475.43 802.23 498.04 805.86 516.89 808.89 539.5 812.52 552.13 814.55 555.37 815.07 558.34 815.55 559.7 815.76 562.39 816.2 568.48 817.18 570.54 817.51 576.05 818.39 577.57 818.63 580.97 819.18 585.13 819.85 586.01 819.99 592.71 821.07 593.05 821.12 599.81 822.21 601.48 822.48 601.79 822.53 608.51 823.6 609.36 823.74 616.94 824.96 618.45 825.2 623.98 826.09 626.01 826.42 632.41 827.45 635.1 827.88 639.43 828.57 642.67 829.09 1487.81 964.87 1497.72 966.47 1498.48 975.61"/><polygon class="cls-2" points="1519.12 969.9 1519.88 979.05 1509.97 977.45 1509.21 968.31 1519.12 969.9"/><polygon class="cls-2" points="1540.93 973.41 1541.69 982.55 1531.78 980.96 1531.02 971.82 1540.93 973.41"/><polygon class="cls-2" points="1562.73 976.91 1563.49 986.05 1553.58 984.46 1552.82 975.32 1562.73 976.91"/><polygon class="cls-2" points="1584.53 980.41 1585.29 989.55 1575.38 987.96 1574.62 978.82 1584.53 980.41"/><polygon class="cls-2" points="1947.2 1038.68 1945.79 1047.47 1607.1 993.06 1597.19 991.47 1596.43 982.33 1606.34 983.92 1947.2 1038.68"/><polygon class="cls-2" points="1496.8 955.49 1486.89 953.9 636.14 817.22 632.9 816.7 628.57 816 625.87 815.57 619.48 814.54 619.25 814.51 617.44 814.22 611.91 813.33 610.41 813.09 602.82 811.87 601.97 811.73 600.41 811.48 595.25 810.65 594.94 810.6 586.51 809.24 586.17 809.19 579.48 808.11 578.6 807.97 578.59 807.97 577.79 807.84 577.78 807.84 571.03 806.76 569.52 806.52 569.51 806.52 564 805.63 561.95 805.3 561.94 805.3 558.94 804.82 555.86 804.32 553.16 803.89 548.83 803.19 545.59 802.67 536.34 801.18 536.33 801.18 517.48 798.16 517.47 798.16 494.88 794.52 494.87 794.52 476.02 791.5 476.01 791.5 453.4 787.86 434.56 784.83 434.55 784.83 412.7 781.32 393.86 778.3 393.85 778.3 223.33 750.9 212.52 749.16 199.53 747.08 188.71 745.34 175.73 743.25 164.91 741.51 151.92 739.43 141.12 737.69 128.13 735.6 117.31 733.87 104.77 731.85 93.94 730.11 -69.34 703.88 -67.93 695.08 104.44 722.77 115.27 724.51 127.81 726.53 138.63 728.27 151.62 730.35 162.43 732.09 175.42 734.18 186.24 735.91 199.22 738 210.03 739.74 223.02 741.82 233.83 743.56 410.06 771.87 410.07 771.87 428.9 774.9 450.76 778.41 469.61 781.44 492.23 785.07 492.24 785.07 511.07 788.1 511.08 788.1 533.67 791.74 533.68 791.74 540.14 792.77 540.15 792.77 543.38 793.29 547.71 793.99 550.41 794.42 552.54 794.76 556.5 795.4 558.56 795.73 564.07 796.62 565.59 796.86 573.15 798.08 574.03 798.22 575.14 798.4 575.15 798.4 580.72 799.29 580.73 799.29 581.06 799.34 589.5 800.7 589.81 800.75 593.99 801.42 596.53 801.83 597.38 801.97 604.97 803.19 606.46 803.43 606.47 803.43 611.99 804.31 614.03 804.64 616.61 805.06 620.42 805.67 623.12 806.1 627.45 806.8 630.69 807.32 635.45 808.09 635.46 808.09 1486.13 944.76 1496.04 946.35 1496.8 955.49"/><polygon class="cls-2" points="1517.44 949.79 1518.2 958.93 1508.3 957.34 1508.29 957.34 1507.53 948.19 1517.44 949.79"/><polygon class="cls-2" points="1539.25 953.29 1540.01 962.43 1530.1 960.84 1529.34 951.7 1539.25 953.29"/><polygon class="cls-2" points="1561.05 956.79 1561.81 965.93 1551.91 964.34 1551.9 964.34 1551.14 955.2 1561.05 956.79"/><polygon class="cls-2" points="1582.85 960.29 1583.62 969.44 1573.71 967.84 1573.7 967.84 1572.94 958.7 1582.85 960.29"/><polygon class="cls-2" points="1950.31 1019.33 1948.89 1028.12 1605.42 972.94 1595.51 971.35 1594.75 962.21 1604.66 963.8 1950.31 1019.33"/><polygon class="cls-2" points="445.7 757.75 429.5 764.17 246.43 734.76 235.62 733.02 222.63 730.94 211.82 729.2 198.84 727.11 198.83 727.11 188.02 725.38 175.03 723.29 164.22 721.55 151.23 719.47 140.41 717.73 127.87 715.71 117.04 713.97 -66.23 684.53 -64.82 675.73 127.55 706.64 138.37 708.38 138.38 708.38 150.92 710.39 161.73 712.13 174.72 714.22 174.73 714.22 185.53 715.95 198.52 718.04 209.34 719.78 222.32 721.86 233.14 723.6 246.13 725.69 256.94 727.42 445.7 757.75"/><polygon class="cls-2" points="1495.13 935.37 1485.22 933.78 654.9 800.38 636.05 797.36 636.04 797.36 624.16 795.44 624.15 795.44 620.92 794.92 616.59 794.23 613.89 793.79 613.43 793.72 607.5 792.77 605.46 792.44 599.93 791.55 598.43 791.31 594.59 790.69 590.84 790.09 589.99 789.95 583.27 788.88 582.97 788.83 574.53 787.48 574.53 787.47 574.19 787.42 571.98 787.06 567.5 786.34 566.62 786.2 566.61 786.2 559.05 784.98 557.53 784.74 553.13 784.03 553.12 784.03 552.02 783.85 549.96 783.52 543.87 782.54 541.18 782.11 536.85 781.42 533.61 780.9 530.51 780.4 511.67 777.37 489.04 773.74 470.2 770.71 448.34 767.2 429.5 764.17 445.7 757.75 464.54 760.78 486.4 764.29 505.24 767.32 505.25 767.32 527.87 770.95 528.16 771 531.4 771.52 535.73 772.21 538.43 772.65 544.52 773.63 546.57 773.96 546.71 773.98 546.72 773.98 552.08 774.84 552.09 774.84 553.6 775.08 561.17 776.3 562.05 776.44 568.74 777.52 568.75 777.52 569.08 777.57 569.33 777.61 577.52 778.93 577.82 778.98 577.83 778.98 584.54 780.05 585.39 780.19 588.18 780.64 592.98 781.41 594.48 781.65 600.01 782.54 602.05 782.87 608.44 783.89 610.79 784.27 611.14 784.33 615.47 785.03 618.71 785.55 629.63 787.3 652.24 790.94 652.25 790.94 671.1 793.96 1484.45 924.64 1494.36 926.23 1495.13 935.37"/><polygon class="cls-2" points="1515.77 929.67 1516.53 938.81 1506.62 937.22 1505.86 928.07 1515.77 929.67"/><polygon class="cls-2" points="1537.58 933.17 1538.34 942.31 1528.43 940.72 1527.67 931.58 1537.58 933.17"/><polygon class="cls-2" points="1559.38 936.67 1560.14 945.82 1550.23 944.22 1549.47 935.08 1559.38 936.67"/><polygon class="cls-2" points="1581.18 940.18 1581.94 949.32 1572.03 947.73 1571.27 938.58 1581.18 940.18"/><polygon class="cls-2" points="1953.42 999.98 1952 1008.77 1603.75 952.82 1593.84 951.23 1593.08 942.09 1602.99 943.68 1953.42 999.98"/><polygon class="cls-2" points="481.35 743.63 465.14 750.05 269.54 718.62 258.73 716.89 245.74 714.8 234.92 713.06 221.94 710.98 211.12 709.24 198.13 707.15 187.32 705.41 187.31 705.41 174.33 703.33 163.51 701.59 150.98 699.58 150.97 699.58 140.15 697.84 -63.12 665.18 -61.71 656.38 150.65 690.5 161.48 692.24 174.02 694.25 184.84 695.99 197.83 698.08 208.63 699.81 208.64 699.81 221.62 701.9 232.44 703.64 245.42 705.72 256.24 707.46 269.23 709.55 280.04 711.29 481.35 743.63"/><polygon class="cls-2" points="1493.45 915.25 1483.54 913.66 690.54 786.26 671.7 783.23 671.69 783.23 649.07 779.6 649.06 779.6 630.23 776.57 612.17 773.67 608.94 773.15 607.62 772.94 607.61 772.94 604.6 772.45 601.91 772.02 595.52 770.99 595.51 770.99 593.48 770.67 593.48 770.66 588.76 769.91 587.95 769.78 586.45 769.54 578.86 768.32 578.01 768.18 571.29 767.1 570.98 767.05 566.15 766.28 562.54 765.69 562.21 765.64 555.52 764.57 554.64 764.43 554.63 764.43 547.31 763.25 547.07 763.21 545.55 762.97 540.04 762.08 537.98 761.75 531.89 760.77 529.2 760.34 524.86 759.64 524.7 759.61 524.69 759.61 521.63 759.12 505.84 756.59 505.83 756.59 483.98 753.08 465.14 750.05 481.35 743.63 500.19 746.65 516.18 749.22 519.42 749.75 522.03 750.17 522.04 750.17 523.75 750.44 526.45 750.87 532.53 751.85 534.59 752.18 540.1 753.07 540.11 753.07 540.89 753.19 540.9 753.19 541.62 753.31 549.19 754.53 550.07 754.67 556.76 755.74 557.1 755.79 557.1 755.8 563.51 756.83 565.53 757.15 565.84 757.2 572.56 758.28 573.41 758.42 581 759.64 582.35 759.86 582.36 759.86 582.5 759.88 588.03 760.77 590.07 761.1 596.46 762.13 599.16 762.56 603.49 763.25 604.97 763.49 606.73 763.77 623.82 766.52 646.43 770.15 665.27 773.18 687.9 776.81 706.74 779.84 1482.78 904.52 1492.69 906.11 1493.45 915.25"/><polygon class="cls-2" points="1514.09 909.55 1514.85 918.69 1504.94 917.1 1504.18 907.96 1514.09 909.55"/><polygon class="cls-2" points="1535.9 913.05 1536.66 922.19 1526.75 920.6 1525.99 911.46 1535.9 913.05"/><polygon class="cls-2" points="1557.7 916.56 1558.46 925.7 1548.55 924.1 1547.79 914.96 1557.7 916.56"/><polygon class="cls-2" points="1579.5 920.06 1580.26 929.2 1570.35 927.61 1569.59 918.47 1579.5 920.06"/><polygon class="cls-2" points="1956.52 980.63 1955.11 989.42 1602.07 932.7 1592.16 931.11 1591.4 921.97 1601.31 923.56 1956.52 980.63"/><polygon class="cls-2" points="509.84 732.34 507.42 733.3 500.79 735.93 500.78 735.93 292.64 702.49 281.83 700.75 268.84 698.66 258.02 696.92 258.01 696.92 245.04 694.84 234.22 693.1 221.23 691.01 210.42 689.28 197.43 687.19 186.62 685.45 174.07 683.44 163.25 681.7 -60.02 645.83 -58.6 637.03 173.75 674.36 184.58 676.1 197.12 678.11 207.94 679.85 220.93 681.94 231.74 683.68 244.73 685.76 255.55 687.5 268.53 689.59 279.34 691.32 292.33 693.41 303.14 695.15 504.2 727.45 507.44 727.97 509.84 732.34"/><polygon class="cls-2" points="1491.77 895.13 1481.86 893.54 726.18 772.14 726.17 772.14 707.34 769.11 684.72 765.47 684.71 765.47 665.87 762.45 665.86 762.45 643.26 758.82 643.25 758.82 624.41 755.79 624.4 755.79 601.8 752.15 601.79 752.15 600.2 751.9 600.19 751.9 596.96 751.38 592.62 750.68 589.93 750.25 583.53 749.22 582.95 749.13 582.94 749.13 581.5 748.9 575.97 748 575.96 748 574.46 747.76 566.88 746.54 566.03 746.4 560.33 745.49 559.31 745.33 559 745.28 550.56 743.92 550.23 743.87 543.53 742.79 542.65 742.65 541.49 742.46 541.48 742.46 535.09 741.43 533.57 741.19 528.06 740.31 526 739.98 519.91 739 519.62 738.95 517.22 738.57 512.89 737.87 509.65 737.35 500.79 735.93 507.42 733.3 509.84 732.34 507.44 727.97 511.77 728.67 514.47 729.1 516.98 729.5 516.99 729.5 520.55 730.08 522.61 730.41 528.12 731.29 529.64 731.53 535.83 732.53 537.2 732.75 538.09 732.89 544.78 733.97 545.12 734.02 545.12 734.03 553.56 735.38 553.86 735.43 557.68 736.04 557.69 736.04 560.58 736.5 561.43 736.64 569.02 737.86 570.52 738.1 576.05 738.99 576.53 739.07 578.09 739.32 584.48 740.35 587.18 740.78 591.51 741.48 594.75 742 599.14 742.71 599.15 742.71 618 745.73 640.6 749.37 640.61 749.37 659.46 752.39 659.47 752.39 682.07 756.03 700.91 759.05 700.92 759.05 723.54 762.69 742.37 765.72 742.38 765.72 1481.1 884.4 1491.01 885.99 1491.77 895.13"/><polygon class="cls-2" points="1512.41 889.43 1513.18 898.57 1503.27 896.98 1502.5 887.84 1512.41 889.43"/><polygon class="cls-2" points="1534.22 892.93 1534.98 902.08 1525.07 900.48 1524.31 891.34 1534.22 892.93"/><polygon class="cls-2" points="1556.02 896.44 1556.79 905.58 1546.88 903.99 1546.11 894.84 1556.02 896.44"/><polygon class="cls-2" points="1577.82 899.94 1578.59 909.08 1568.68 907.49 1567.91 898.35 1577.82 899.94"/><polygon class="cls-2" points="1959.63 961.28 1958.22 970.07 1600.39 912.58 1590.48 910.99 1589.72 901.85 1599.63 903.44 1959.63 961.28"/><polygon class="cls-2" points="501.12 716.49 497.88 715.97 315.32 686.64 304.51 684.9 291.53 682.82 291.52 682.82 280.71 681.08 267.73 678.99 256.91 677.25 256.9 677.25 243.92 675.17 233.11 673.43 220.12 671.34 220.11 671.34 209.3 669.61 196.76 667.59 185.93 665.85 -56.96 626.83 -55.55 618.04 196.43 658.52 207.26 660.26 219.8 662.28 230.61 664.01 230.62 664.01 243.6 666.1 254.41 667.84 267.4 669.92 278.22 671.66 291.2 673.75 302.02 675.49 302.03 675.49 315.01 677.57 325.82 679.31 492.44 706.08 495.68 706.6 501.12 716.49"/><polygon class="cls-2" points="1490.13 875.38 1480.22 873.79 761.18 758.27 761.17 758.27 742.33 755.24 719.71 751.61 719.7 751.61 700.87 748.58 678.26 744.95 678.25 744.95 659.4 741.92 636.79 738.29 636.78 738.29 617.95 735.26 617.94 735.26 595.33 731.62 588.43 730.52 585.19 730 580.86 729.3 578.16 728.87 576.48 728.6 576.47 728.6 571.77 727.84 569.73 727.51 564.2 726.62 562.7 726.38 555.11 725.16 554.62 725.08 554.61 725.08 554.26 725.02 547.54 723.95 547.24 723.9 538.8 722.55 538.8 722.54 538.46 722.49 535.79 722.06 535.78 722.06 531.77 721.41 530.89 721.27 523.32 720.05 521.8 719.81 516.29 718.93 514.23 718.6 508.15 717.62 505.45 717.18 501.12 716.49 495.68 706.6 500.01 707.29 502.7 707.72 508.79 708.7 510.85 709.03 516.36 709.92 517.88 710.16 525.44 711.38 526.33 711.52 533.02 712.6 533.36 712.65 533.36 712.66 541.8 714.01 542.1 714.06 548.82 715.13 549.67 715.27 551.97 715.64 557.26 716.49 558.76 716.73 564.29 717.62 566.33 717.95 570.81 718.67 572.72 718.98 575.42 719.41 579.75 720.1 582.99 720.62 592.67 722.18 611.51 725.21 611.52 725.21 634.14 728.84 652.98 731.87 675.6 735.5 694.45 738.53 717.06 742.16 717.07 742.16 735.9 745.19 758.51 748.83 758.52 748.83 777.37 751.85 1479.46 864.65 1489.37 866.24 1490.13 875.38"/><polygon class="cls-2" points="1510.77 869.68 1511.53 878.82 1501.62 877.22 1500.86 868.09 1510.77 869.68"/><polygon class="cls-2" points="1532.58 873.18 1533.34 882.32 1523.43 880.73 1522.67 871.59 1532.58 873.18"/><polygon class="cls-2" points="1554.38 876.68 1555.14 885.82 1545.23 884.23 1544.47 875.09 1554.38 876.68"/><polygon class="cls-2" points="1576.18 880.19 1576.94 889.33 1567.03 887.73 1566.27 878.59 1576.18 880.19"/><polygon class="cls-2" points="1962.68 942.28 1961.27 951.07 1598.75 892.83 1588.84 891.24 1588.08 882.1 1597.99 883.69 1962.68 942.28"/><path class="cls-1" d="M1807.82,64.41v-.08c0-.22,0-.43,0-.65l.06-.67c0-.22.06-.44.08-.66a16.37,16.37,0,0,1,.61-2.6l.23-.63.24-.62c.1-.2.19-.4.28-.6s.21-.4.31-.6a15.38,15.38,0,0,1,7.81-7,14,14,0,0,1,2.54-.77,16.84,16.84,0,0,1,2.65-.33,15.87,15.87,0,0,1,5.28.72,15.4,15.4,0,0,1,4.7,2.49,15.82,15.82,0,0,1,4.83,6.31,16.38,16.38,0,0,1,.8,2.55,15.5,15.5,0,0,1,.35,2.65,16.1,16.1,0,0,1-.11,2.69,15.32,15.32,0,0,1-1.57,5.08,15.59,15.59,0,0,1-1.42,2.26,16.17,16.17,0,0,1-1.8,2,16,16,0,0,1-2.11,1.65c-.19.12-.37.25-.57.36l-.58.33a6.54,6.54,0,0,0-.59.3l-.61.27a15.24,15.24,0,0,1-2.53.82,13.78,13.78,0,0,1-2.64.38h-16.27V64.41Z"/><path class="cls-3" d="M1823.2,56.13a8.51,8.51,0,1,0,8.51,8.51,8.51,8.51,0,0,0-8.51-8.51Z"/><path class="cls-1" d="M1807.76,69.52V64.33c0-.22,0-.43,0-.65l.06-.67c0-.22.06-.44.08-.66a16.37,16.37,0,0,1,.61-2.6c.08-.21.14-.42.22-.63s.17-.41.25-.62.19-.4.28-.6.21-.4.31-.6a15.57,15.57,0,0,1,3.29-4.2,15.74,15.74,0,0,1,4.52-2.82,14,14,0,0,1,2.54-.77,16.84,16.84,0,0,1,2.65-.33,15.5,15.5,0,0,1,14.81,9.52,15.34,15.34,0,0,1,.79,2.55,15.51,15.51,0,0,1,.36,2.65,17.25,17.25,0,0,1-.12,2.69,15.09,15.09,0,0,1-1.57,5.08,15.52,15.52,0,0,1-1.41,2.26,16.25,16.25,0,0,1-1.81,2,15.88,15.88,0,0,1-2.1,1.65c-.19.12-.38.25-.57.36s-.39.22-.58.33-.4.19-.6.3l-.61.27a14.84,14.84,0,0,1-2.52.82A13.89,13.89,0,0,1,1824,80h-16.27Zm-17.7,28.18v11.73h17.7V97.81h15.82l.7,0h.35l.36,0a31.35,31.35,0,0,0,5.68-.81,32.86,32.86,0,0,0,5.46-1.78l1.31-.59,1.29-.65,1.25-.71c.41-.24.81-.5,1.22-.76a33.92,33.92,0,0,0,8.36-7.79A33.29,33.29,0,0,0,1856,68.83a34.35,34.35,0,0,0,.24-5.73,32.39,32.39,0,0,0-.76-5.7,33.08,33.08,0,0,0-1.72-5.5,33.84,33.84,0,0,0-2.66-5.1A33.2,33.2,0,0,0,1833.29,33,33.8,33.8,0,0,0,1822,31.44a33.12,33.12,0,0,0-31.55,28.34c-.07.47-.14.95-.18,1.43l-.12,1.43c0,.48,0,1,0,1.46V80H1721.2V97.7Z"/><path class="cls-2" d="M1790.06,81.46V83.2H1721.2v1.51h68.86v1.74H1721.2V88h68.86V89.7H1721.2v1.51h68.86V93H1721.2v1.5h68.86v1.74H1721.2V97.7h68.86v11.73h1.5V64.12c0-.47,0-.93,0-1.39l.11-1.37c0-.46.12-.91.17-1.36a31.55,31.55,0,0,1,3.44-10.4,32.16,32.16,0,0,1,6.74-8.59,31.83,31.83,0,0,1,9.26-5.78A31.48,31.48,0,0,1,1822,33a32,32,0,0,1,10.81,1.49,31.83,31.83,0,0,1,19.54,18,31.68,31.68,0,0,1,2.14,16.16,31.27,31.27,0,0,1-3.23,10.46,32.41,32.41,0,0,1-2.92,4.65,33.64,33.64,0,0,1-3.67,4.06,31.91,31.91,0,0,1-4.31,3.38c-.39.24-.77.49-1.17.72l-1.19.68-1.23.62-1.25.56a30.8,30.8,0,0,1-5.21,1.7,30.36,30.36,0,0,1-5.43.77l-.34,0h-.33l-.67,0h-15.8V94.56h16.73l.32,0a29.8,29.8,0,0,0,10-2.34l1.18-.53,1.16-.59,1.13-.64c.37-.21.73-.45,1.1-.68a30.07,30.07,0,0,0,7.55-7,30.29,30.29,0,0,0,2.75-4.4,29.59,29.59,0,0,0,3.06-9.88,30.86,30.86,0,0,0,.22-5.17,29.92,29.92,0,0,0-.69-5.15,29.59,29.59,0,0,0-1.55-5,30.45,30.45,0,0,0-2.4-4.6,29.89,29.89,0,0,0-6.94-7.63,29.6,29.6,0,0,0-19.34-6.23,29.73,29.73,0,0,0-18.85,7.62,30.28,30.28,0,0,0-6.38,8.11,29.94,29.94,0,0,0-3.24,9.83c0,.43-.12.86-.16,1.29l-.11,1.29,0,1.31v45.29h1.5v-45a.71.71,0,0,1,0-.14v-.16l0-1.24.11-1.23c0-.41.1-.82.15-1.22a28.17,28.17,0,0,1,3.08-9.33,28.88,28.88,0,0,1,6-7.71,28.53,28.53,0,0,1,8.32-5.19,28,28,0,0,1,9.58-2,28.52,28.52,0,0,1,27.24,17.52,28.87,28.87,0,0,1,1.47,4.71,27.78,27.78,0,0,1,.65,4.88,30,30,0,0,1-.2,4.92,28.47,28.47,0,0,1-12.69,20.23c-.35.22-.69.45-1,.65l-1.08.61-1.1.56-1.12.5a28.45,28.45,0,0,1-4.68,1.53,27.49,27.49,0,0,1-4.86.69l-.31,0h-16.66V91.31h16.59l.28,0a24.32,24.32,0,0,0,4.57-.65,27.12,27.12,0,0,0,4.39-1.43l1.06-.47,1-.52,1-.57,1-.61a28.45,28.45,0,0,0,3.63-2.85A26.66,26.66,0,0,0,1849.58,68a28.53,28.53,0,0,0,.19-4.62,27.21,27.21,0,0,0-2-9,27.53,27.53,0,0,0-2.14-4.1,26.54,26.54,0,0,0-23.44-12.35,26.45,26.45,0,0,0-9,1.91A26.58,26.58,0,0,0,1799.72,52a26.43,26.43,0,0,0-2.89,8.76c0,.38-.12.76-.15,1.15l-.09,1.15,0,1.16c0,.1,0,.2,0,.29v45h1.5V64.74c0-.18,0-.35,0-.54l0-1.09.09-1.09c0-.36.09-.72.13-1.08a25.12,25.12,0,0,1,2.73-8.26,25.6,25.6,0,0,1,5.37-6.83,25,25,0,0,1,15.85-6.41,24.89,24.89,0,0,1,16.26,5.24,25,25,0,0,1,5.85,6.42,24.51,24.51,0,0,1,3.32,8,25.06,25.06,0,0,1,.4,8.69,25,25,0,0,1-2.58,8.31,24.59,24.59,0,0,1-5.24,6.92,26.12,26.12,0,0,1-3.42,2.69l-.93.58-1,.54-1,.49-1,.44a25.07,25.07,0,0,1-4.14,1.36,24.06,24.06,0,0,1-4.31.61l-.27,0h-16.52V88.06h16.45l.25,0a21.77,21.77,0,0,0,4-.57,23.42,23.42,0,0,0,3.85-1.26l.93-.41.9-.46.89-.5c.29-.17.57-.36.86-.54a24.05,24.05,0,0,0,3.19-2.5,23.63,23.63,0,0,0,2.73-3,24.45,24.45,0,0,0,2.15-3.44,22.87,22.87,0,0,0,2.39-7.73,24,24,0,0,0,.17-4.06,23.37,23.37,0,0,0-44-10,23.17,23.17,0,0,0-2.54,7.68c0,.33-.1.67-.13,1l-.08,1,0,1c0,.16,0,.34,0,.51v44.69h1.5V64.49c0-.09,0-.16,0-.25l0-.94.08-.95c0-.32.08-.63.12-.94a21.74,21.74,0,0,1,2.37-7.19,22,22,0,0,1,11.09-10,21.82,21.82,0,0,1,7.39-1.57,22.07,22.07,0,0,1,7.49,1,22,22,0,0,1,11.78,9.13,21.44,21.44,0,0,1,1.75,3.36,22.14,22.14,0,0,1,1.14,3.63,21.89,21.89,0,0,1,.34,7.57,22.14,22.14,0,0,1-4.25,10.45,22.71,22.71,0,0,1-2.55,2.82,23.35,23.35,0,0,1-3,2.34c-.27.16-.53.34-.81.5l-.82.47-.85.43c-.29.13-.58.25-.87.39a22.59,22.59,0,0,1-3.6,1.17,20.67,20.67,0,0,1-3.75.54h-16.62V84.81h16.52a20,20,0,0,0,3.46-.49,21.33,21.33,0,0,0,3.31-1.08l.8-.36.78-.4.76-.43c.25-.14.5-.31.74-.46a20.63,20.63,0,0,0,5.11-4.75,20.74,20.74,0,0,0,1.85-3,19.88,19.88,0,0,0,2.06-6.65,21.61,21.61,0,0,0,.15-3.51,20.25,20.25,0,0,0-.47-3.47,20.71,20.71,0,0,0-1-3.33,20.51,20.51,0,0,0-6.31-8.26,20.64,20.64,0,0,0-6.15-3.25,20.38,20.38,0,0,0-6.9-.94,20.08,20.08,0,0,0-6.8,1.44,20.22,20.22,0,0,0-10.21,9.18,19.79,19.79,0,0,0-2.18,6.61c0,.29-.09.58-.11.87l-.08.87,0,.87v45.16h1.5V64.29l0-.8.07-.81c0-.27.07-.53.11-.8a18.6,18.6,0,0,1,2-6.12,18.88,18.88,0,0,1,4-5.07,18.56,18.56,0,0,1,11.76-4.76,19.09,19.09,0,0,1,6.38.88,18.72,18.72,0,0,1,10,7.78,18.21,18.21,0,0,1,1.5,2.87,19.65,19.65,0,0,1,1,3.08,19.19,19.19,0,0,1,.42,3.21,19.55,19.55,0,0,1-.13,3.25,18.2,18.2,0,0,1-1.91,6.15A19.09,19.09,0,0,1,1838,75.9a19.28,19.28,0,0,1-4.73,4.4c-.23.14-.45.29-.68.42l-.71.4-.72.37-.74.33a19.2,19.2,0,0,1-3.06,1,18.13,18.13,0,0,1-3.2.45l-.2,0h-16.24V81.57h-.09V80.06h.09V64.33c0-.22,0-.43,0-.65l.06-.67c0-.22.06-.44.08-.66a16.37,16.37,0,0,1,.61-2.6c.08-.21.14-.42.22-.63s.17-.41.25-.62.19-.4.28-.6.21-.4.31-.6a15.57,15.57,0,0,1,3.29-4.2,15.74,15.74,0,0,1,4.52-2.82,14,14,0,0,1,2.54-.77,15.32,15.32,0,0,1,12.63,2.87,15.41,15.41,0,0,1,3.59,4,15.17,15.17,0,0,1,1.24,2.36,15.34,15.34,0,0,1,.79,2.55,15.51,15.51,0,0,1,.36,2.65,17.25,17.25,0,0,1-.12,2.69,15.09,15.09,0,0,1-1.57,5.08,15.52,15.52,0,0,1-1.41,2.26,17,17,0,0,1-1.8,2,16.66,16.66,0,0,1-2.11,1.65c-.19.12-.38.25-.57.36l-.58.33q-.3.13-.6.3l-.61.27a14.84,14.84,0,0,1-2.52.82A13.89,13.89,0,0,1,1824,80h-16.27v1.51h16.35a15.72,15.72,0,0,0,2.9-.42,16.6,16.6,0,0,0,2.77-.9l.67-.3.66-.33.63-.36.63-.39a17.61,17.61,0,0,0,2.31-1.82,16.3,16.3,0,0,0,2-2.18,15.64,15.64,0,0,0,1.56-2.48,16.86,16.86,0,0,0,1.73-5.58,18.11,18.11,0,0,0,.12-3,16.69,16.69,0,0,0-.39-2.91,17.13,17.13,0,0,0-.87-2.8,17.39,17.39,0,0,0-1.36-2.6,16.93,16.93,0,0,0-3.94-4.33,17.17,17.17,0,0,0-5.16-2.73,17.4,17.4,0,0,0-5.79-.79,17.67,17.67,0,0,0-2.91.36,15.35,15.35,0,0,0-2.8.86,17,17,0,0,0-4.95,3.09,17.22,17.22,0,0,0-3.62,4.61,16.66,16.66,0,0,0-1.83,5.54c0,.24-.07.48-.09.73l-.06.73,0,.72v45.12h1.5V97.8h15.82l.7,0h.35l.36,0a31.35,31.35,0,0,0,5.68-.81,32.86,32.86,0,0,0,5.46-1.78l1.31-.59,1.29-.65,1.25-.71c.41-.24.81-.5,1.22-.76a33.92,33.92,0,0,0,8.36-7.79A33.29,33.29,0,0,0,1856,68.83a34.31,34.31,0,0,0,.24-5.73,32.39,32.39,0,0,0-.76-5.7,33.08,33.08,0,0,0-1.72-5.5,33.84,33.84,0,0,0-2.66-5.1A33.2,33.2,0,0,0,1833.29,33,33.8,33.8,0,0,0,1822,31.44a33.12,33.12,0,0,0-31.55,28.34c-.07.47-.14.95-.18,1.43l-.12,1.43c0,.48,0,1,0,1.46V80H1721.2v1.51Z"/><path d="M1807.76,64.51v-.18c0-.22,0-.43,0-.65l.06-.67c0-.22.06-.44.08-.66a16.37,16.37,0,0,1,.61-2.6c.08-.21.14-.42.22-.63s.17-.41.25-.62.19-.4.28-.6.21-.4.31-.6a15.57,15.57,0,0,1,3.29-4.2,15.74,15.74,0,0,1,4.52-2.82,14,14,0,0,1,2.54-.77,16.84,16.84,0,0,1,2.65-.33,15.87,15.87,0,0,1,5.28.72,15.71,15.71,0,0,1,4.7,2.48,15.41,15.41,0,0,1,3.59,4,15.17,15.17,0,0,1,1.24,2.36,15.34,15.34,0,0,1,.79,2.55,15.51,15.51,0,0,1,.36,2.65,17.25,17.25,0,0,1-.12,2.69,15.09,15.09,0,0,1-1.57,5.08,15.52,15.52,0,0,1-1.41,2.26,16.25,16.25,0,0,1-1.81,2,15.88,15.88,0,0,1-2.1,1.65c-.19.12-.38.25-.57.36l-.58.33q-.3.13-.6.3l-.61.27a14.84,14.84,0,0,1-2.52.82A13.89,13.89,0,0,1,1824,80h-16.27V64.51Zm-1.5,17.06h17.85a15.72,15.72,0,0,0,2.9-.42,16.6,16.6,0,0,0,2.77-.9l.67-.3.66-.33.63-.36.63-.39a17.61,17.61,0,0,0,2.31-1.82,16.95,16.95,0,0,0,3.53-4.66,16.86,16.86,0,0,0,1.73-5.58,18.11,18.11,0,0,0,.12-3,16.69,16.69,0,0,0-.39-2.91,17.13,17.13,0,0,0-.87-2.8,17.39,17.39,0,0,0-1.36-2.6,16.93,16.93,0,0,0-3.94-4.33,17.17,17.17,0,0,0-5.16-2.73,17.4,17.4,0,0,0-5.79-.79,17.67,17.67,0,0,0-2.91.36,15.35,15.35,0,0,0-2.8.86,17,17,0,0,0-4.95,3.09,17.22,17.22,0,0,0-3.62,4.61,16.66,16.66,0,0,0-1.83,5.54c0,.24-.07.48-.09.73l-.06.73,0,.72V81.57Z"/></g></svg>