<svg xmlns="http://www.w3.org/2000/svg" viewBox="0 0 1069.41 575.49"><defs><style>.cls-1,.cls-3{font-size:30px;}.cls-1,.cls-19,.cls-5,.cls-6,.cls-7{font-family:Cocogoose-Light, Cocogoose;font-weight:300;}.cls-2{letter-spacing:-0.06em;}.cls-27,.cls-3{fill:#fbc56e;font-family:CocogoosePro-Thin, Cocogoose Pro;font-weight:200;}.cls-4{letter-spacing:-0.03em;}.cls-5{font-size:40px;}.cls-27,.cls-6{font-size:36px;}.cls-7{font-size:52px;}.cls-8{letter-spacing:-0.03em;}.cls-9{letter-spacing:0em;}.cls-10{letter-spacing:-0.08em;}.cls-11{letter-spacing:0em;}.cls-12{letter-spacing:-0.03em;}.cls-13{letter-spacing:-0.06em;}.cls-14{letter-spacing:0.01em;}.cls-15{letter-spacing:-0.15em;}.cls-16{letter-spacing:-0.07em;}.cls-17{letter-spacing:-0.01em;}.cls-18{letter-spacing:-0.01em;}.cls-20{letter-spacing:0em;}.cls-21{letter-spacing:0.01em;}.cls-22{letter-spacing:-0.01em;}.cls-23{letter-spacing:0em;}.cls-24{letter-spacing:-0.06em;}.cls-25{letter-spacing:0em;}.cls-26{letter-spacing:-0.03em;}.cls-28{letter-spacing:-0.14em;}.cls-29{letter-spacing:-0.03em;}</style></defs><g id="Layer_2" data-name="Layer 2"><g id="Layer_1-2" data-name="Layer 1"><text class="cls-1" transform="translate(0.01 26.15)">Posue<tspan class="cls-2" x="100.06" y="0">r</tspan><tspan x="113.89" y="0">e sollicitudin </tspan></text><text class="cls-3" transform="translate(319.73 26.15)"></text><text class="cls-1" transform="translate(338.06 26.15)"><tspan xml:space="preserve"> Aliquam </tspan></text><text class="cls-1" transform="translate(490.22 26.15)">U</text><text class="cls-1" transform="translate(512.75 26.15)">ltri<tspan class="cls-4" x="40.75" y="0">c</tspan><tspan x="58.72" y="0">es Sagittis </tspan></text><text class="cls-3" transform="translate(741.56 26.15)"></text><text class="cls-1" transform="translate(759.89 26.15)"><tspan xml:space="preserve"> Donec massa </tspan></text><text class="cls-3" transform="translate(0.01 86.15)"></text><text class="cls-1" transform="translate(18.34 86.15)"> </text><text class="cls-5" transform="translate(27.73 86.15)">SAPIE</text><text class="cls-5" transform="translate(141.53 86.15)">N</text><text class="cls-6" transform="translate(172.64 86.15)"> </text><text class="cls-3" transform="translate(183.91 86.15)"></text><text class="cls-6" transform="translate(202.24 86.15)"> </text><text class="cls-7" transform="translate(213.51 86.15)">N</text><text class="cls-7" transform="translate(253.96 86.15)"><tspan class="cls-8">y</tspan><tspan x="29.59" y="0">a</tspan><tspan class="cls-4" x="69.21" y="0">k</tspan><tspan class="cls-9" x="100.05" y="0">as</tspan></text><text class="cls-1" transform="translate(423.38 86.15)"> </text><text class="cls-3" transform="translate(432.77 86.15)"></text><text class="cls-1" transform="translate(451.1 86.15)"> <tspan class="cls-10" x="9.4" y="0">F</tspan><tspan x="25.72" y="0">aucibus </tspan><tspan class="cls-11" x="163.09" y="0">e</tspan><tspan x="185.97" y="0">t Molestie ac </tspan><tspan class="cls-10" x="402.51" y="0">F</tspan><tspan x="418.83" y="0">eugiat </tspan></text><text class="cls-3" transform="translate(0.02 146.15)"></text><text class="cls-1" transform="translate(18.35 146.15)"><tspan xml:space="preserve"> Delerisque </tspan></text><text class="cls-3" transform="translate(217.28 146.15)"></text><text class="cls-1" transform="translate(235.61 146.15)"><tspan xml:space="preserve"> Elei</tspan><tspan class="cls-12" x="66.91" y="0">f</tspan><tspan x="75.9" y="0">end </tspan></text><text class="cls-3" transform="translate(386.33 146.15)"></text><text class="cls-1" transform="translate(404.66 146.15)"><tspan xml:space="preserve"> donec p</tspan><tspan class="cls-13" x="149.17" y="0">r</tspan><tspan class="cls-14" x="162.97" y="0">e</tspan><tspan x="185.85" y="0">tium </tspan></text><text class="cls-3" transform="translate(669.57 146.15)"></text><text class="cls-1" transform="translate(687.9 146.15)"> </text><text class="cls-5" transform="translate(697.28 146.15)">Sollicitudin</text><text class="cls-1" transform="translate(921.05 146.15)"> </text><text class="cls-3" transform="translate(930.44 146.15)"></text><text class="cls-1" transform="translate(948.77 146.15)"> </text><text class="cls-1" transform="translate(0.02 206.15)">Commodo </text><text class="cls-3" transform="translate(185.15 206.15)"></text><text class="cls-1" transform="translate(203.48 206.15)"> </text><text class="cls-1" transform="translate(212.87 206.15)">NULL</text><text class="cls-1" transform="translate(293 206.15)">A</text><text class="cls-1" transform="translate(314.51 206.15)"> </text><text class="cls-1" transform="translate(323.9 206.15)"><tspan class="cls-15">F</tspan><tspan class="cls-16" x="14.46" y="0">A</tspan><tspan x="34.51" y="0">CI</tspan></text><text class="cls-1" transform="translate(386.09 206.15)">L</text><text class="cls-1" transform="translate(403.46 206.15)">ISI</text><text class="cls-1" transform="translate(436.52 206.15)"> </text><text class="cls-3" transform="translate(445.91 206.15)"></text><text class="cls-1" transform="translate(464.24 206.15)"><tspan xml:space="preserve"> Vi</tspan><tspan class="cls-17" x="38.77" y="0">t</tspan><tspan x="48.21" y="0">ae Jus</tspan><tspan class="cls-18" x="146.43" y="0">t</tspan><tspan x="155.86" y="0">o </tspan></text><text class="cls-3" transform="translate(649.45 206.15)"><tspan class="cls-19" x="18.33" y="0"> </tspan></text><text class="cls-1" transform="translate(677.17 206.15)">Eg<tspan class="cls-11" x="42.96" y="0">e</tspan><tspan x="65.83" y="0">t </tspan></text><text class="cls-3" transform="translate(761.46 206.15)"><tspan class="cls-19" x="18.33" y="0"> </tspan></text><text class="cls-1" transform="translate(789.18 206.15)"> <tspan class="cls-10" x="9.4" y="0">F</tspan><tspan class="cls-20" x="25.72" y="0">ermentum </tspan></text><text class="cls-3" transform="translate(0.02 266.15)"><tspan class="cls-19" x="18.33" y="0"> </tspan></text><text class="cls-7" transform="translate(27.73 266.15)">Danubius H<tspan class="cls-21" x="319.9" y="0">o</tspan><tspan class="cls-22" x="359.63" y="0">t</tspan><tspan x="375.98" y="0">els</tspan></text><text class="cls-1" transform="translate(483.1 266.15)"> </text><text class="cls-3" transform="translate(492.49 266.15)"></text><text class="cls-1" transform="translate(510.82 266.15)"> </text><text class="cls-1" transform="translate(520.21 266.15)">N</text><text class="cls-1" transform="translate(543.55 266.15)">am </text><text class="cls-3" transform="translate(607.9 266.15)"></text><text class="cls-1" transform="translate(626.23 266.15)"><tspan xml:space="preserve"> Aliquam Sem </tspan></text><text class="cls-3" transform="translate(861.55 266.15)"></text><text class="cls-1" transform="translate(879.88 266.15)"> </text><text class="cls-1" transform="translate(0.01 326.15)">Consequat id por<tspan class="cls-17" x="289.02" y="0">t</tspan><tspan x="298.45" y="0">a nibh </tspan></text><text class="cls-3" transform="translate(413.41 326.15)"></text><text class="cls-1" transform="translate(431.74 326.15)"><tspan xml:space="preserve"> Diam </tspan></text><text class="cls-3" transform="translate(535.36 326.15)"></text><text class="cls-1" transform="translate(553.69 326.15)"><tspan xml:space="preserve"> Quam nulla </tspan></text><text class="cls-3" transform="translate(760.3 326.15)"><tspan class="cls-19" x="18.33" y="0"> </tspan></text><text class="cls-1" transform="translate(788.02 326.15)">Portti<tspan class="cls-18" x="84.69" y="0">t</tspan><tspan x="94.12" y="0">or massa </tspan></text><text class="cls-3" transform="translate(0.01 386.15)"></text><text class="cls-1" transform="translate(18.34 386.15)"> <tspan class="cls-10" x="9.4" y="0">F</tspan><tspan class="cls-20" x="25.72" y="0" xml:space="preserve">elis  </tspan><tspan class="cls-12" x="98.34" y="0">v</tspan><tspan x="115.45" y="0">elit </tspan></text><text class="cls-3" transform="translate(185.69 386.15)"></text><text class="cls-1" transform="translate(204.02 386.15)"> </text><text class="cls-1" transform="translate(213.41 386.15)">L</text><text class="cls-1" transform="translate(230.78 386.15)">iqu<tspan class="cls-14" x="50.95" y="0">e</tspan><tspan class="cls-23" x="73.83" y="0">t sagittis id </tspan><tspan class="cls-4" x="255.06" y="0">c</tspan><tspan x="273.03" y="0">onsec</tspan><tspan class="cls-17" x="372.72" y="0">t</tspan><tspan class="cls-14" x="382.15" y="0">e</tspan><tspan x="405.02" y="0">tur </tspan></text><text class="cls-3" transform="translate(687.98 386.15)"></text><text class="cls-1" transform="translate(706.3 386.15)"> </text><text class="cls-7" transform="translate(715.7 386.15)">N</text><text class="cls-7" transform="translate(756.16 386.15)">em<tspan class="cls-24" x="95.5" y="0">z</tspan><tspan class="cls-25" x="125.14" y="0">e</tspan><tspan class="cls-9" x="164.79" y="0">ti </tspan></text><text class="cls-7" transform="translate(0.03 446.16)">Filharmonikus Zene<tspan class="cls-26" x="561.91" y="0">k</tspan><tspan x="592.85" y="0">ar</tspan></text><text class="cls-1" transform="translate(660.05 446.15)"> </text><text class="cls-3" transform="translate(669.44 446.15)"></text><text class="cls-1" transform="translate(687.77 446.15)"> <tspan class="cls-15" x="9.4" y="0">T</tspan><tspan x="23.65" y="0">or</tspan><tspan class="cls-18" x="61.93" y="0">t</tspan><tspan x="71.37" y="0">or </tspan></text><text class="cls-3" transform="translate(807.44 446.15)"></text><text class="cls-1" transform="translate(825.77 446.15)"> </text><text class="cls-5" transform="translate(835.16 446.15)">IDQ</text><text class="cls-1" transform="translate(909.51 446.15)"> </text><text class="cls-3" transform="translate(918.9 446.15)"><tspan class="cls-19" x="18.33" y="0"> </tspan></text><text class="cls-1" transform="translate(946.62 446.15)">Aliqu<tspan class="cls-11" x="80.77" y="0">e</tspan><tspan x="103.65" y="0">t </tspan></text><text class="cls-3" transform="translate(0 506.15)"><tspan class="cls-19" x="18.33" y="0"> </tspan></text><text class="cls-5" transform="translate(27.73 506.15)">PIC</text><text class="cls-5" transform="translate(90.61 506.15)">K</text><text class="cls-6" transform="translate(118.87 506.15)"> </text><text class="cls-27" transform="translate(130.14 506.15)"></text><text class="cls-6" transform="translate(152.14 506.15)"> </text><text class="cls-5" transform="translate(163.4 506.15)">L</text><text class="cls-5" transform="translate(186.56 506.15)">ectus</text><text class="cls-1" transform="translate(302.61 506.15)"> </text><text class="cls-3" transform="translate(312 506.15)"></text><text class="cls-1" transform="translate(330.33 506.15)"><tspan xml:space="preserve"> p</tspan><tspan class="cls-13" x="32.79" y="0">r</tspan><tspan class="cls-20" x="46.59" y="0">oin-nibh-nisl </tspan></text><text class="cls-3" transform="translate(588.08 506.15)"></text><text class="cls-1" transform="translate(606.41 506.15)"><tspan xml:space="preserve"> Condimentum </tspan></text><text class="cls-3" transform="translate(855.83 506.15)"></text><text class="cls-1" transform="translate(874.16 506.15)"> <tspan class="cls-28" x="9.4" y="0">T</tspan><tspan x="23.65" y="0">or</tspan><tspan class="cls-18" x="61.93" y="0">t</tspan><tspan x="71.37" y="0">or </tspan></text><text class="cls-3" transform="translate(993.83 506.15)"></text><text class="cls-1" transform="translate(1012.16 506.15)"> </text><text class="cls-1" transform="translate(0 566.15)">Vi<tspan class="cls-29" x="29.37" y="0">v</tspan><tspan x="46.45" y="0">er</tspan><tspan class="cls-2" x="84.69" y="0">r</tspan><tspan x="98.52" y="0">a</tspan></text></g></g></svg>