<svg xmlns="http://www.w3.org/2000/svg" viewBox="0 0 137.15 16"><g id="Layer_2" data-name="Layer 2"><g id="Layer_1-2" data-name="Layer 1"><path d="M59,3.58H57.94a.45.45,0,0,0-.31.1.6.6,0,0,0-.19.25c-.12.32-.27.73-.46,1.22s-.39,1-.61,1.58L55.7,8.49c-.24.6-.46,1.18-.67,1.73s-.41,1-.59,1.49L54,12.78c-.11-.26-.25-.62-.43-1.07L53,10.22c-.22-.54-.44-1.12-.68-1.72s-.47-1.19-.69-1.76L51,5.15,50.55,4a.51.51,0,0,0-.19-.26.5.5,0,0,0-.31-.1h-1c-.29,0-.44.11-.44.34a1,1,0,0,0,0,.19.14.14,0,0,0,0,.06l4.55,11.16.06.11a.26.26,0,0,0,.07.11.34.34,0,0,0,.14.09.52.52,0,0,0,.24,0h.62a.55.55,0,0,0,.24,0,.42.42,0,0,0,.14-.09.41.41,0,0,0,.07-.11,1.17,1.17,0,0,1,.05-.11l4.5-11.17,0-.1,0-.09s0,0,0-.06c0-.23-.14-.34-.42-.34"/><path d="M10.2,11.32a4.6,4.6,0,0,1-.92,1.44,4.69,4.69,0,0,1-1.38,1,4,4,0,0,1-1.68.37,4,4,0,0,1-1.67-.37,4.36,4.36,0,0,1-1.36-1,4.6,4.6,0,0,1-.92-1.44,4.47,4.47,0,0,1,0-3.42,4.51,4.51,0,0,1,.92-1.42,4.27,4.27,0,0,1,1.36-1,4,4,0,0,1,1.67-.36,4,4,0,0,1,1.68.36,4.6,4.6,0,0,1,1.38,1A4.51,4.51,0,0,1,10.2,7.9a4.47,4.47,0,0,1,0,3.42m1.64-7.74h-1a.37.37,0,0,0-.42.42V5.16a6.29,6.29,0,0,0-1.9-1.32,5.7,5.7,0,0,0-2.34-.48,5.89,5.89,0,0,0-1.63.23,6.28,6.28,0,0,0-1.48.63,6.66,6.66,0,0,0-1.26,1,6.33,6.33,0,0,0-1,1.27A6,6,0,0,0,0,9.61,6.29,6.29,0,0,0,1.84,14,6.71,6.71,0,0,0,3.1,15a6,6,0,0,0,3.11.86,5.7,5.7,0,0,0,2.34-.48,6.12,6.12,0,0,0,1.9-1.32v1.19a.41.41,0,0,0,.44.42h1a.44.44,0,0,0,.29-.11.39.39,0,0,0,.13-.31V4q0-.42-.45-.42"/><path d="M25.36,11.37a4.74,4.74,0,0,1-.92,1.43,4.6,4.6,0,0,1-1.37,1,4,4,0,0,1-1.67.36,4,4,0,0,1-1.69-.36,4.6,4.6,0,0,1-1.37-1,4.77,4.77,0,0,1-.93-1.43,4.45,4.45,0,0,1,0-3.41,4.87,4.87,0,0,1,.93-1.45,4.49,4.49,0,0,1,1.37-1,3.9,3.9,0,0,1,1.69-.37,3.81,3.81,0,0,1,1.67.37,4.49,4.49,0,0,1,1.37,1A4.84,4.84,0,0,1,25.36,8a4.57,4.57,0,0,1,0,3.41m1.41-4.86a6.77,6.77,0,0,0-1-1.27,6,6,0,0,0-1.26-1,6.1,6.1,0,0,0-3.12-.87,5.7,5.7,0,0,0-2.34.48,6.13,6.13,0,0,0-1.89,1.32V.42a.44.44,0,0,0-.12-.3A.44.44,0,0,0,16.73,0h-1a.44.44,0,0,0-.3.11.41.41,0,0,0-.12.31V15.27c0,.28.15.42.44.42h1a.37.37,0,0,0,.42-.42V14.12a5.94,5.94,0,0,0,1.89,1.31,5.7,5.7,0,0,0,2.34.48A6,6,0,0,0,23,15.68a5.55,5.55,0,0,0,1.48-.63,6,6,0,0,0,1.26-1,6.21,6.21,0,0,0,1.62-2.75,6.15,6.15,0,0,0,.22-1.66A6,6,0,0,0,27.4,8a6.62,6.62,0,0,0-.63-1.5"/><path d="M45.61,11.37a4.94,4.94,0,0,1-.92,1.43,4.6,4.6,0,0,1-1.37,1,3.92,3.92,0,0,1-1.67.36A4,4,0,0,1,40,13.77a4.6,4.6,0,0,1-1.37-1,4.77,4.77,0,0,1-.93-1.43,4.45,4.45,0,0,1,0-3.41,4.87,4.87,0,0,1,.93-1.45,4.49,4.49,0,0,1,1.37-1,3.9,3.9,0,0,1,1.69-.37,3.78,3.78,0,0,1,1.67.37,4.49,4.49,0,0,1,1.37,1A5,5,0,0,1,45.61,8a4.57,4.57,0,0,1,0,3.41M47,6.51a6.72,6.72,0,0,0-1-1.27,6.06,6.06,0,0,0-1.27-1,6,6,0,0,0-5.51-.37,6.44,6.44,0,0,0-2,1.35,6.59,6.59,0,0,0-1.35,2,6,6,0,0,0-.49,2.42,5.79,5.79,0,0,0,.23,1.66,6.47,6.47,0,0,0,.63,1.48,6.06,6.06,0,0,0,1,1.27,6.27,6.27,0,0,0,1.26,1,5.55,5.55,0,0,0,1.48.63,6,6,0,0,0,1.64.23,5.94,5.94,0,0,0,1.63-.23,5.55,5.55,0,0,0,1.48-.63,6.06,6.06,0,0,0,1.27-1,6.32,6.32,0,0,0,1.61-2.75,6.16,6.16,0,0,0,.23-1.66A6,6,0,0,0,47.65,8,6.62,6.62,0,0,0,47,6.51"/><path d="M70.4,11.37a4.56,4.56,0,0,1-.92,1.43,4.44,4.44,0,0,1-1.36,1,4,4,0,0,1-1.67.36,4,4,0,0,1-1.69-.36,4.6,4.6,0,0,1-1.37-1,4.77,4.77,0,0,1-.93-1.43,4.45,4.45,0,0,1,0-3.41,4.87,4.87,0,0,1,.93-1.45,4.49,4.49,0,0,1,1.37-1,3.9,3.9,0,0,1,1.69-.37,3.81,3.81,0,0,1,1.67.37,4.33,4.33,0,0,1,1.36,1A4.65,4.65,0,0,1,70.4,8a4.45,4.45,0,0,1,0,3.41m1.41-4.86a6.35,6.35,0,0,0-2.24-2.25,6,6,0,0,0-5.52-.37,6.42,6.42,0,0,0-3.32,3.35,6,6,0,0,0-.5,2.42,6.16,6.16,0,0,0,.23,1.66,6.08,6.08,0,0,0,.64,1.48,6,6,0,0,0,1,1.27,6.27,6.27,0,0,0,1.26,1,5.76,5.76,0,0,0,1.49.63,5.93,5.93,0,0,0,3.27,0,5.55,5.55,0,0,0,1.48-.63,6.27,6.27,0,0,0,1.26-1,6.47,6.47,0,0,0,1.62-2.75,6.15,6.15,0,0,0,.22-1.66A6,6,0,0,0,72.45,8a6.22,6.22,0,0,0-.64-1.5"/><path d="M100.41,4.26h0a.23.23,0,0,0,.2-.09.36.36,0,0,0,.06-.22V1.09a.41.41,0,0,0-.06-.23.23.23,0,0,0-.2-.09h0a.22.22,0,0,0-.19.09.41.41,0,0,0-.06.23V4a.36.36,0,0,0,.06.22.22.22,0,0,0,.19.09"/><path d="M136.33,7a6.08,6.08,0,0,0-2.2-2.16,6.2,6.2,0,0,0-1.41-.59h0c-.08,0-.16.07-.2.21s0,.24,0,.27h0a5.19,5.19,0,0,1,1.29.54,5.66,5.66,0,0,1,2,2,5.29,5.29,0,0,1,.74,2.72,5.46,5.46,0,0,1-2.7,4.73,5.28,5.28,0,0,1-2.77.75,5,5,0,0,1-2.68-.75,5.45,5.45,0,0,1-1.95-2,5.39,5.39,0,0,1-.71-2.72,5.37,5.37,0,0,1,.71-2.73,5.44,5.44,0,0,1,1.93-2,5.21,5.21,0,0,1,1.44-.57v0a.23.23,0,0,0,0-.25c0-.12-.1-.19-.17-.19v0a5.62,5.62,0,0,0-1.55.63A5.81,5.81,0,0,0,126.08,7a6,6,0,0,0,0,6,5.94,5.94,0,0,0,2.14,2.2,5.58,5.58,0,0,0,2.93.81,5.78,5.78,0,0,0,3-.81,6.16,6.16,0,0,0,2.19-2.2,5.82,5.82,0,0,0,0-6"/><path d="M118.1,12.71a5.6,5.6,0,0,1-1.95,2,5,5,0,0,1-2.6.74,5.53,5.53,0,0,1-2.79-.73,5.43,5.43,0,0,1-2-2A5.25,5.25,0,0,1,108,10a5.34,5.34,0,0,1,.74-2.74,5.61,5.61,0,0,1,2-2,5.28,5.28,0,0,1,5.39,0A5.52,5.52,0,0,1,118.84,10a5.28,5.28,0,0,1-.74,2.7m1-11.94h0q-.24,0-.24.3V7.61a6.13,6.13,0,0,0-1.27-1.87,5.92,5.92,0,0,0-1.86-1.27,5.85,5.85,0,0,0-5.22.36A6,6,0,0,0,108.31,7a5.87,5.87,0,0,0-.8,3,5.8,5.8,0,0,0,.8,3,5.87,5.87,0,0,0,2.18,2.16,5.94,5.94,0,0,0,3.07.8,5.38,5.38,0,0,0,2.15-.45,6.18,6.18,0,0,0,3.13-3.13v3q0,.3.24.3h0a.24.24,0,0,0,.19-.08.31.31,0,0,0,.07-.22V1.07a.31.31,0,0,0-.07-.22.21.21,0,0,0-.19-.08"/><path d="M84.06,9.44A6,6,0,0,1,82,8.62a1.87,1.87,0,0,1-.88-1.68,2.22,2.22,0,0,1,.37-1.25,2.5,2.5,0,0,1,1-.86A3.57,3.57,0,0,1,84,4.53a3.19,3.19,0,0,1,1.38.31,3.11,3.11,0,0,1,1.12.87A2.43,2.43,0,0,1,87,6.94a.22.22,0,0,0,.1.17.27.27,0,0,0,.17.06.2.2,0,0,0,.11,0c.07,0,.09-.1.09-.23V6.84a2.67,2.67,0,0,0-.57-1.4A3.75,3.75,0,0,0,84,4a4,4,0,0,0-1.85.4A2.81,2.81,0,0,0,81,5.48a2.85,2.85,0,0,0-.39,1.46A2.46,2.46,0,0,0,81,8.43a3.14,3.14,0,0,0,1.19.94A9.58,9.58,0,0,0,84,10a6.5,6.5,0,0,1,2.35,1,2.18,2.18,0,0,1,.88,1.87,2.28,2.28,0,0,1-.51,1.55,2.73,2.73,0,0,1-1.24.82,4.65,4.65,0,0,1-1.45.25,4.32,4.32,0,0,1-1.61-.29,2.75,2.75,0,0,1-1.14-.82,2.23,2.23,0,0,1-.48-1.28.45.45,0,0,0-.08-.26.24.24,0,0,0-.19-.1l-.09,0h0c-.1,0-.15.13-.15.28a2.61,2.61,0,0,0,.42,1.38A3.17,3.17,0,0,0,82,15.54,4.49,4.49,0,0,0,84,16a4.72,4.72,0,0,0,1.72-.32,3.31,3.31,0,0,0,1.43-1,2.76,2.76,0,0,0,.57-1.79c0-1.73-1.24-2.86-3.7-3.41"/><path d="M122.5,4.13h0c-.17,0-.26.1-.26.3v11a.36.36,0,0,0,.06.22.28.28,0,0,0,.2.08h0c.17,0,.26-.1.26-.3v-11c0-.2-.09-.3-.26-.3"/><path d="M93.47,5.16H91.28V2.11c0-.19-.08-.29-.26-.29h0c-.16,0-.24.1-.24.29V5.16H89.24c-.17,0-.26.08-.26.23s.09.24.26.24h1.53v8.14A2.06,2.06,0,0,0,91.14,15a1.6,1.6,0,0,0,1.09.63,4.66,4.66,0,0,0,.77,0,.25.25,0,0,0,.24-.1.45.45,0,0,0,.05-.17h0c0-.15-.12-.22-.35-.22h-.36a1.12,1.12,0,0,1-1-.44,1.75,1.75,0,0,1-.31-1V5.63h2.19a.22.22,0,0,0,.23-.22v0a.21.21,0,0,0-.23-.23"/><path d="M105.06,4.13h0q-.27,0-.27.3v7a3.65,3.65,0,0,1-.65,2.13A4.38,4.38,0,0,1,102.49,15a4.33,4.33,0,0,1-2,.51,4.43,4.43,0,0,1-2.22-.58,4.35,4.35,0,0,1-1.63-1.64,4.68,4.68,0,0,1-.61-2.4V4.43c0-.2-.09-.3-.26-.3h0c-.17,0-.25.1-.25.3v6.43a5.29,5.29,0,0,0,.63,2.52,5,5,0,0,0,1.77,1.9,4.81,4.81,0,0,0,2.61.72,4.66,4.66,0,0,0,1.6-.3,5.3,5.3,0,0,0,1.53-.87,4.48,4.48,0,0,0,1.13-1.33l0,1.89c0,.2.08.3.25.3h0c.17,0,.25-.1.25-.3v-11c0-.2-.08-.3-.25-.3"/><path d="M131.24,4.26h0a.21.21,0,0,0,.19-.09A.36.36,0,0,0,131.5,4V1.09a.41.41,0,0,0-.06-.23.21.21,0,0,0-.19-.09h0a.24.24,0,0,0-.2.09.52.52,0,0,0,0,.23V4a.45.45,0,0,0,0,.22.24.24,0,0,0,.2.09"/></g></g></svg>