<svg xmlns="http://www.w3.org/2000/svg" viewBox="0 0 511.64 295.47"><defs><style>.cls-1{fill:#fff;}.cls-2{fill:#fbc56e;}.cls-3{fill:#e0e0dd;}</style></defs><g id="Layer_2" data-name="Layer 2"><g id="Layer_1-2" data-name="Layer 1"><path class="cls-1" d="M328.1,125l0-.3c0-.82.06-1.63.08-2.46s.15-1.69.21-2.53.23-1.68.32-2.52a59.9,59.9,0,0,1,2.32-9.84c.29-.79.53-1.59.84-2.38s.63-1.56.94-2.34.71-1.53,1.05-2.3.79-1.49,1.16-2.25a58.61,58.61,0,0,1,29.59-26.59,54.9,54.9,0,0,1,9.63-2.94,61.23,61.23,0,0,1,10-1.24A57.74,57.74,0,0,1,422.09,79.4,58,58,0,0,1,443.4,113,60.27,60.27,0,0,1,444.75,123a64.25,64.25,0,0,1-.44,10.2A58.73,58.73,0,0,1,433,161a59.91,59.91,0,0,1-14.8,13.79c-.72.43-1.42.92-2.15,1.34s-1.47.83-2.2,1.25-1.51.75-2.26,1.14-1.54.67-2.3,1a58.58,58.58,0,0,1-9.58,3.12,54.9,54.9,0,0,1-10,1.43l-.64,0h-.66l-1.33,0-1.4,0H328.09V125.34"/><path class="cls-2" d="M386.38,93.58a32.25,32.25,0,1,0,32.24,32.24,32.24,32.24,0,0,0-32.24-32.24"/><path class="cls-1" d="M327.89,144.31V125l0-.3c0-.82.06-1.64.08-2.46s.15-1.69.21-2.54.23-1.67.32-2.51a59.9,59.9,0,0,1,2.32-9.84c.29-.79.53-1.59.84-2.38s.63-1.56.94-2.35.71-1.52,1.05-2.29.79-1.5,1.16-2.25a58.5,58.5,0,0,1,29.59-26.59,54.9,54.9,0,0,1,9.63-2.94,61.23,61.23,0,0,1,10-1.24,59.77,59.77,0,0,1,20,2.73,58.25,58.25,0,0,1,39.1,43A60.27,60.27,0,0,1,444.55,123a63.09,63.09,0,0,1-.44,10.2,57.18,57.18,0,0,1-5.95,19.22,58.47,58.47,0,0,1-5.37,8.59,59.37,59.37,0,0,1-6.82,7.53,60.25,60.25,0,0,1-8,6.26c-.72.43-1.42.92-2.15,1.34s-1.47.83-2.2,1.25l-2.26,1.13c-.76.37-1.54.68-2.3,1a59.55,59.55,0,0,1-9.58,3.12,54.9,54.9,0,0,1-10,1.43l-.64,0h-.66l-1.33,0-1.4,0H327.89ZM260.84,251.05v44.42h67.05v-44h57.32l2.59,0,2.65,0,1.33,0,1.35-.08a121.55,121.55,0,0,0,21.52-3.06,126.77,126.77,0,0,0,20.7-6.76c1.66-.74,3.33-1.46,5-2.25l4.86-2.45,4.74-2.68c1.56-.92,3.08-1.91,4.62-2.88a126.39,126.39,0,0,0,17.1-13.39,128,128,0,0,0,14.57-16.12,126,126,0,0,0,24.42-60,131.23,131.23,0,0,0,.9-21.7,124.78,124.78,0,0,0-19.47-61.74A125.18,125.18,0,0,0,302.58,32.06a126.8,126.8,0,0,0-26.76,34.08,124.88,124.88,0,0,0-13.63,41.26c-.23,1.81-.52,3.6-.68,5.41l-.45,5.43c-.08,1.84-.14,3.68-.19,5.53l0,.69v59.37H0v67.22Z"/><path class="cls-3" d="M260.84,189.54v6.59H0v5.71H260.84v6.59H0v5.71H260.84v6.59H0v5.72H260.84V233H0v5.71H260.84v6.59H0v5.71H260.84v44.42h5.7v-171l0-.66c.05-1.75.11-3.51.18-5.27l.43-5.18c.15-1.72.43-3.44.65-5.16a119.39,119.39,0,0,1,13-39.38,119.9,119.9,0,0,1,60.63-54.44,119.44,119.44,0,0,1,40.46-8.62A119.67,119.67,0,0,1,487.26,61.32a120.27,120.27,0,0,1,18.58,58.93A126,126,0,0,1,505,141a119,119,0,0,1-12.27,39.62,120.41,120.41,0,0,1-41.28,45.78c-1.46.93-2.91,1.88-4.41,2.75l-4.52,2.56L437.86,234c-1.56.75-3.16,1.43-4.74,2.14a120.08,120.08,0,0,1-19.76,6.45,115.13,115.13,0,0,1-20.54,2.92l-1.29.09-1.27,0-2.54,0-2.49,0H327.89v-6.59h57.37l2.37,0,2.41-.05,1.2,0,1.23-.07a109.91,109.91,0,0,0,19.41-2.77,114.29,114.29,0,0,0,18.66-6.09c1.5-.67,3-1.31,4.48-2l4.39-2.22,4.27-2.41c1.42-.83,2.78-1.73,4.17-2.6a114.89,114.89,0,0,0,28.59-26.64,113.71,113.71,0,0,0,22-54.07,118.94,118.94,0,0,0,.81-19.6,115,115,0,0,0-8.47-38.25A112.91,112.91,0,0,0,382.15,12.38a112.79,112.79,0,0,0-38.23,8.14A113.27,113.27,0,0,0,286.62,72a112.55,112.55,0,0,0-12.29,37.22c-.21,1.62-.47,3.24-.61,4.87l-.41,4.9-.17,5,0,.62c0,.21,0,.43,0,.58V295.47h5.7V125.15c0-.16,0-.36,0-.56l0-.59.16-4.7.39-4.65c.13-1.55.38-3.09.58-4.64a106.93,106.93,0,0,1,11.66-35.33,107.68,107.68,0,0,1,54.43-48.87,107.12,107.12,0,0,1,36.29-7.72A107.39,107.39,0,0,1,491.12,102.3a110.07,110.07,0,0,1,2.46,18.5,112.55,112.55,0,0,1-.78,18.62,107.46,107.46,0,0,1-33.4,65.16,108.56,108.56,0,0,1-14.66,11.48c-1.31.82-2.61,1.68-3.95,2.47l-4.06,2.29-4.17,2.1c-1.4.68-2.83,1.28-4.25,1.92a108.26,108.26,0,0,1-17.72,5.79,103.34,103.34,0,0,1-18.43,2.62l-1.16.08-1.15,0-2.3.05-2.27,0H327.89v-6.59h57.42l2.15,0,2.17,0,1.08,0,1.09-.07a96.52,96.52,0,0,0,17.31-2.46,102.16,102.16,0,0,0,16.62-5.43c1.33-.6,2.68-1.17,4-1.8l3.91-2,3.81-2.16c1.26-.73,2.47-1.54,3.71-2.31a102.57,102.57,0,0,0,13.77-10.79,100.88,100.88,0,0,0,31.35-61.16A105.49,105.49,0,0,0,487,121.1,100.82,100.82,0,0,0,297.42,77.81,100.41,100.41,0,0,0,286.47,111c-.18,1.45-.42,2.89-.55,4.35l-.36,4.37-.15,4.4c0,.36,0,.76,0,1.08v170.3h5.7V126.19c0-.66,0-1.32,0-2l.14-4.15.34-4.12c.12-1.38.35-2.74.52-4.11a94.5,94.5,0,0,1,10.33-31.27,95.31,95.31,0,0,1,48.21-43.3,94.87,94.87,0,0,1,32.14-6.84,95.37,95.37,0,0,1,98.53,91,100.22,100.22,0,0,1-.69,16.52,94.18,94.18,0,0,1-9.74,31.46,95.75,95.75,0,0,1-8.77,14,96.72,96.72,0,0,1-24.06,22.42c-1.17.72-2.32,1.49-3.51,2.18L431,210l-3.69,1.86c-1.24.6-2.51,1.13-3.77,1.69a95.14,95.14,0,0,1-15.68,5.12A90.9,90.9,0,0,1,391.49,221l-1,.07-1,0-2.06,0-2.05,0H327.89v-6.59h57.46l1.94,0,1.93,0,1,0,1-.06a84.51,84.51,0,0,0,15.19-2.17,88.31,88.31,0,0,0,14.6-4.76c1.16-.53,2.35-1,3.5-1.58l3.43-1.73,3.35-1.89c1.11-.65,2.17-1.36,3.26-2a88.33,88.33,0,0,0,30.58-33.91A87.52,87.52,0,0,0,474.11,137a94,94,0,0,0,.65-15.38A87.84,87.84,0,0,0,461,78.08a88.88,88.88,0,0,0-47.67-37A90,90,0,0,0,383,37a88.29,88.29,0,0,0-29.92,6.37,88.83,88.83,0,0,0-44.89,40.32,88,88,0,0,0-9.61,29.1c-.15,1.27-.37,2.54-.48,3.82l-.32,3.84-.13,3.84c0,.63,0,1.3,0,2V295.47h5.69V125.24c0-.34,0-.61,0-.91l.12-3.58.3-3.6c.1-1.2.31-2.38.45-3.58a82.37,82.37,0,0,1,9-27.21,83,83,0,0,1,42-37.73,82.69,82.69,0,0,1,28-6,82.22,82.22,0,0,1,53.68,17.27,83.9,83.9,0,0,1,25.95,34,84.18,84.18,0,0,1,6.2,28,87.64,87.64,0,0,1-.6,14.4A81.91,81.91,0,0,1,460,163.7a83.53,83.53,0,0,1-7.63,12.19,84.54,84.54,0,0,1-21,19.54c-1,.63-2,1.3-3.06,1.91l-3.13,1.77L422,200.73c-1.08.52-2.19,1-3.28,1.47a83,83,0,0,1-13.64,4.46,79.35,79.35,0,0,1-14.22,2l-.9.07H389l-1.81,0-1.84,0H327.89v-6.58H385.4l1.72,0,1.68,0,.85,0,.82-.06a72.06,72.06,0,0,0,13.09-1.86,75.87,75.87,0,0,0,12.56-4.1c1-.46,2-.87,3-1.35l2.95-1.49,2.88-1.64c1-.55,1.87-1.17,2.81-1.75a77.82,77.82,0,0,0,19.33-18,76.81,76.81,0,0,0,7-11.23,75.41,75.41,0,0,0,7.8-25.2,81.76,81.76,0,0,0,.56-13.28,78.32,78.32,0,0,0-1.76-13.14,76.32,76.32,0,0,0-103-54.32A76.47,76.47,0,0,0,319,89.48a75.72,75.72,0,0,0-8.26,25c-.14,1.1-.33,2.19-.42,3.29l-.28,3.31-.11,3.28v.41a3.22,3.22,0,0,0,0,.45v170.2h5.69V125.29c0-.18,0-.3,0-.43l0-.37.1-3,.26-3.07c.08-1,.27-2,.38-3A70,70,0,0,1,324,92.19,70.72,70.72,0,0,1,359.84,60,70.38,70.38,0,0,1,383.67,55a70,70,0,0,1,45.73,14.7,70.21,70.21,0,0,1,25.78,40.63,71.81,71.81,0,0,1,1.62,12.16,75.36,75.36,0,0,1-.51,12.3,69.31,69.31,0,0,1-7.22,23.3,70.41,70.41,0,0,1-6.5,10.4,72.08,72.08,0,0,1-17.89,16.66c-.87.53-1.72,1.11-2.6,1.63l-2.67,1.51-2.73,1.37c-.92.45-1.87.83-2.79,1.26a71.22,71.22,0,0,1-11.61,3.78,66.67,66.67,0,0,1-12.12,1.73l-.76.06h-.79l-1.57,0-1.62,0H327.89v-6.59h-.34v-5.71h.34V125l0-.3c0-.82.06-1.64.08-2.46s.15-1.69.21-2.53.23-1.68.32-2.52a59.9,59.9,0,0,1,2.32-9.84c.29-.79.53-1.59.84-2.38s.63-1.56.94-2.34.71-1.53,1.06-2.3.78-1.5,1.15-2.25a58.5,58.5,0,0,1,29.59-26.59,54.9,54.9,0,0,1,9.63-2.94,61.21,61.21,0,0,1,10.05-1.24A57.74,57.74,0,0,1,421.89,79.4a58.66,58.66,0,0,1,13.62,15A56.85,56.85,0,0,1,443.2,113,60.27,60.27,0,0,1,444.55,123a63.09,63.09,0,0,1-.44,10.2,57.32,57.32,0,0,1-5.94,19.22A57.59,57.59,0,0,1,426,168.55a60.25,60.25,0,0,1-8,6.26c-.72.43-1.42.92-2.15,1.34s-1.47.83-2.2,1.25-1.51.75-2.26,1.14-1.54.67-2.3,1a59.77,59.77,0,0,1-9.57,3.12,55.14,55.14,0,0,1-10,1.43l-.64,0h-.66l-1.33,0-1.4,0H327.89v5.71h57.56l1.5,0,1.44,0h.72l.7-.05a60.27,60.27,0,0,0,11-1.56,65.63,65.63,0,0,0,10.52-3.43c.84-.39,1.7-.74,2.53-1.14l2.48-1.25,2.42-1.37c.8-.47,1.56-1,2.35-1.47a66.08,66.08,0,0,0,8.76-6.87,65.1,65.1,0,0,0,7.48-8.26,64.34,64.34,0,0,0,5.9-9.42,63.16,63.16,0,0,0,6.54-21.12,69.37,69.37,0,0,0,.47-11.17,65.94,65.94,0,0,0-4.78-21.62,64.45,64.45,0,0,0-39.62-36.59,65.13,65.13,0,0,0-21.94-3,66.65,66.65,0,0,0-11,1.36,60.4,60.4,0,0,0-10.58,3.24,64.06,64.06,0,0,0-32.47,29.17,63.07,63.07,0,0,0-6.93,21c-.11.92-.28,1.84-.36,2.76s-.14,1.86-.23,2.79l-.09,2.71v.34a2.42,2.42,0,0,0,0,.4V295.47h5.69v-44h57.32l2.59,0,2.65,0,1.33,0,1.35-.08a121.42,121.42,0,0,0,21.52-3.06,126.45,126.45,0,0,0,20.7-6.76c1.66-.74,3.33-1.46,5-2.25l4.86-2.45,4.74-2.68c1.57-.92,3.08-1.91,4.62-2.88a125.32,125.32,0,0,0,43.24-48,124.7,124.7,0,0,0,12.85-41.51,130.15,130.15,0,0,0,.9-21.7,127.07,127.07,0,0,0-9.4-42.41A125.39,125.39,0,0,0,262.19,107.4c-.23,1.81-.52,3.6-.68,5.41l-.45,5.43c-.08,1.84-.14,3.69-.19,5.53l0,.69v59.37H0v5.71Z"/><path d="M327.89,125.34V125l0-.3c0-.82.06-1.64.08-2.46s.15-1.69.21-2.53.23-1.68.32-2.52a59.9,59.9,0,0,1,2.32-9.84c.29-.79.53-1.59.84-2.38s.63-1.56.94-2.34.71-1.53,1.05-2.3.79-1.5,1.16-2.25a58.5,58.5,0,0,1,29.59-26.59,54.9,54.9,0,0,1,9.63-2.94,61.23,61.23,0,0,1,10-1.24A57.74,57.74,0,0,1,421.89,79.4a58.66,58.66,0,0,1,13.62,15A56.85,56.85,0,0,1,443.2,113,60.27,60.27,0,0,1,444.55,123a64.25,64.25,0,0,1-.44,10.2,57.32,57.32,0,0,1-5.94,19.22A57.59,57.59,0,0,1,426,168.55a60.25,60.25,0,0,1-8,6.26c-.72.43-1.42.92-2.15,1.34s-1.47.83-2.2,1.25-1.51.75-2.26,1.14-1.54.67-2.3,1a59.55,59.55,0,0,1-9.58,3.12,54.9,54.9,0,0,1-10,1.43l-.64,0h-.66l-1.33,0-1.4,0H327.89V125.34Zm-5.69,64.59h63.25l1.5,0,1.44,0h.72l.7-.05a60.27,60.27,0,0,0,11-1.56,65.63,65.63,0,0,0,10.52-3.43c.84-.39,1.7-.74,2.53-1.14l2.48-1.25,2.42-1.37c.8-.47,1.56-1,2.35-1.47a66.08,66.08,0,0,0,8.76-6.87,65.1,65.1,0,0,0,7.48-8.26,64.34,64.34,0,0,0,5.9-9.42,63.16,63.16,0,0,0,6.54-21.12,69.37,69.37,0,0,0,.47-11.17,65.94,65.94,0,0,0-4.78-21.62,64.45,64.45,0,0,0-39.62-36.59,65.17,65.17,0,0,0-21.94-3,66.65,66.65,0,0,0-11,1.36,60.14,60.14,0,0,0-10.58,3.24,64.14,64.14,0,0,0-32.48,29.17,63.28,63.28,0,0,0-6.92,21c-.11.92-.28,1.84-.36,2.76s-.14,1.86-.23,2.79l-.09,2.71v.34a2.42,2.42,0,0,0,0,.4v64.62Z"/></g></g></svg>