<?xml version="1.0" encoding="utf-8"?>
<!-- Generator: Adobe Illustrator 26.1.0, SVG Export Plug-In . SVG Version: 6.00 Build 0)  -->
<svg version="1.1" id="Layer_1" xmlns="http://www.w3.org/2000/svg" xmlns:xlink="http://www.w3.org/1999/xlink" x="0px" y="0px"
	 viewBox="0 0 1920 1080" style="enable-background:new 0 0 1920 1080;" xml:space="preserve">
<style type="text/css">
	.st0{fill:#E0E0DD;}
	.st1{fill:#FFFFFF;}
	.st2{fill:none;}
</style>
<rect width="1920" height="1080"/>
<path d="M274.4,120c-1-3.3-1.4-6.7-1.4-10.1c0-17,11.1-28.6,27.1-28.6c15.8,0,26.9,11.7,26.9,28.6c0,3.4-0.5,6.8-1.4,10.1H274.4z"/>
<rect x="1800" y="240" width="120" height="120"/>
<path class="st0" d="M1799.7,340.5c0,12.9-4.6,19-13.3,21.5c-2.1,0.6-3.8,0.6-3.8,1.9c0,0.4,1,0.8,5.6,0.8c3.3,0,5.6-0.4,9.8-0.4
	h27.5c18.3,0,32.9,0.8,37.5,0.8c7.4,0,14.9-0.4,22.3-1.2c19.4-2.1,46-10.4,46-35c0-27.9-34.8-36.4-57.3-36.9v-0.4
	c18.3-1.7,44.8-7.3,44.8-30.8c0-24.4-34.8-29.8-54.6-29.8h-71.6c-2.1,0-4.6,0.2-4.6,1c0,1,1.5,1.2,3.3,2.1c7.9,2.9,8.3,8.8,8.3,20.2
	L1799.7,340.5z M1823.8,236.2h34.2c22.5,0,34.6,10.6,34.6,25.4c0,17.1-13.5,28.1-42.9,28.1h-25.8V236.2z M1823.8,294.9h35.6
	c16,0,43.9,6.7,43.9,31.6c0,22.9-14,32.5-35.6,32.5h-29.2c-13.3,0-14.8-4.6-14.8-25.2L1823.8,294.9z"/>
<rect x="1560" y="360" width="120" height="120"/>
<path class="st0" d="M1620.5,489.4c-27.3,0-47.1-20.4-47.1-48.5s19.8-48.8,47.1-48.8s47.1,20.6,47.1,48.8S1647.9,489.4,1620.5,489.4
	z M1620.5,388c-22,0-39.6,12.2-47.1,31v-76.9h-4.1v151.4h4.1v-31c7.6,18.8,25.1,31,47.1,31c29.6,0,51.2-22.2,51.2-52.6
	C1671.7,410.2,1650.1,388,1620.5,388z"/>
<rect x="1440" y="360" width="120" height="120"/>
<path class="st0" d="M1524.7,448c1.2-0.5,1.9-0.7,1.9-1.1c0-0.2-0.1-0.3-0.3-0.4c0,0,0,0,0,0c-0.2,0-0.5,0-0.7,0.1
	c-0.8,0.2-1.7,0.3-2.6,0.4c-3.1,0-14.3-7.6-22.2-7.9v-0.1c13.8-0.3,26.4-9.9,26.4-24.4c0-14.8-13.1-24.5-27.2-24.5
	s-27.2,9.6-27.2,24.5c0,14,11.6,23.3,24.8,24.3v0.1c-3.9,0.1-7.6,2.4-10.9,4.2l0.2,2.3c2.4-2,4.2-3.6,6.6-3.6
	c2.7,0,6.3,1.9,10.7,4.3l11,6L1524.7,448z M1517.5,414.5c0,10.7-4.5,22.7-17.6,22.7s-17.6-12-17.6-22.7s4.5-22.7,17.6-22.7
	S1517.5,403.7,1517.5,414.5L1517.5,414.5z"/>
<rect x="1680" y="480" width="240" height="240"/>
<path class="st0" d="M1753.8,676.8l44.5-126.5h1l43.5,126.5H1753.8z M1669.8,798.8h90.5v-9h-14c-10,0-24-2-24-18.5
	c0-5.5,2-11,3.5-15l24-70.5h97l36.5,104h-40v9h149v-9h-24.5l-134-351h-7.5l-116,321c-6,16.5-15,28.5-34,30h-6.5V798.8z"/>
<rect x="1680" y="840" width="240" height="240"/>
<path class="st0" d="M1800.8,1051.8c-3.2,7.7-4.4,13.5-12,17.6c-16.1,8.1-37.2,5.5-52.9-1.2c-42.6-18.1-49.6-67.7-33.3-106.1
	s55.9-62.3,99.3-48.4c13.2,4.2,28.8,16.3,34.3,29c6.1,13.4-0.9,27.7-5.9,39.6L1800.8,1051.8z M1917.9,849.3c1.3-3.1,3-6-0.8-7.6
	c-2.7-1.1-7.3,0.1-9.8,0.8c-11.8,2.2-28-0.1-39.6-2.8c-2.5-0.6-6-0.8-7.2,1.9c-2.1,5,4.9,6.6,8.3,8.1c18.4,7.8,7.8,23.2,1.8,37.4
	l-15.5,36.5c-1,2.3-4.5,14.8-9.1,12.9c-1.9-0.8-4.7-3.8-6.3-5.4c-10.5-10.4-23.8-18.7-37.6-25.5c-24.1-11.6-53.1-9.4-77.3-0.2
	s-42.8,26.2-53.1,50.4c-19.6,46-3.5,103.1,45.2,123.8c31.1,13.2,64.2-3.1,70-0.6c3.8,1.6-0.7,12.4-1.4,13.9
	c-0.6,2.5-4.6,10.7-0.3,12.5c2.3,1,7.1,0.3,9.5,0l36.1,1.3c5.3,0.4,6.8,1.1,9.3-3.8l2.5-4.8c1-1.4,2.7-4.3,0-5.4
	c-3.5-1.5-15.7,9.2-23.7,5.8c-7.3-3.1,0.8-17.8,2.6-22L1917.9,849.3z"/>
<rect x="1560" y="480" width="120" height="120"/>
<path class="st0" d="M1593.3,605.8l22.9-35.4c1.4-2.2,2.7-4.4,3.9-6.7h0.5l3.6,6.7l23.2,35.4h36.7l-43.5-64.2l22.1-31.6
	c1.9-2.8,5.3-4.2,10.2-4.2h9.4v-26.9h-22.9c-5.7,0-10,0.8-12.9,2.4c-2.9,1.6-5.8,4.8-8.7,9.6l-13,20.9c-1.2,2.2-2.6,4.9-4.2,8.2
	h-0.5l-4.2-8.2l-13-20.9c-3-4.8-5.9-8-8.8-9.6c-2.9-1.6-7.2-2.4-12.8-2.4h-23.2v26.9h9.6c4.9,0,8.2,1.4,10.1,4.2l21.9,31.6
	l-43.2,64.2H1593.3z"/>
<rect x="1200" y="480" width="120" height="120"/>
<path class="st1" d="M1237.2,535.9L1237.2,535.9c0-0.7,0-1.2,0-1.7c0-3.3,0.2-3.6,3.8-3.6h21h1.7c1.4,0,2.7,0.2,3.4,1.5
	c0.6,1.6,0.9,3.3,0.8,4.9c0,0.5,0,0.9,0,1.2v31c0,1.3,0.1,2.6,0.1,3.8c0,3.5-0.7,6.1-6,6.5c-1.5,0.1-3.7-0.1-3.7,1.8
	c0,1,0.9,1.3,1.8,1.3c4.1,0,8.3-0.5,12.6-0.5c4,0,8.2,0.5,12.4,0.5c0.9,0,1.6-0.4,1.6-1.4c0-1.7-2.4-1.5-3.7-1.7c-5.3-0.5-6-3-6-6.5
	c0-1.2,0.1-2.5,0.1-3.8v-45.6c0-0.2-0.8-0.4-1.2-0.4c-1,0.2-2,0.4-3,0.6l-3.6,0.9c-7,1.5-11.5,1.6-18.8,1.6H1240
	c-2.7,0-2.8-1.5-2.8-3.4v-6.6c0-4,0.1-8.2,2-11.7c2-4,5.8-7.2,10.6-7.2c4.4,0,8.2,3.2,11,6.1l2.4,2.6c1.1,1.1,2.1,2.5,3.8,2.5
	s2.8-1.9,3.7-3.2c0.7-0.9,1.7-2.3,1.7-3.5c0-1.8-2.8-3.2-4.2-4c-4.8-3-10.3-4.6-16-4.7c-7.2-0.1-14,3.1-18.5,8.7
	c-4.5,5.7-5.3,10.2-5.8,17.1c-0.4,5.8,0,7-5.8,8.7c-0.8,0.2-1.6,0.6-1.6,1.6c0,0.8,0.9,1,1.8,1c0.6,0,1.3-0.1,1.5-0.1
	c4,0,4.4,0.4,4.4,3.5c0,0.7,0,1.5,0,2.4v32.8c0,1.3,0.1,2.6,0.1,3.8c0,3.5-0.7,6.1-6,6.5c-1.5,0.1-3.7-0.1-3.7,1.8
	c0,1,0.9,1.3,1.8,1.3c4.1,0,8.3-0.5,12.6-0.5c4,0,8.2,0.5,12.4,0.5c0.9,0,1.6-0.4,1.6-1.4c0-1.7-2.4-1.5-3.7-1.7c-5.3-0.5-6-3-6-6.5
	c0-1.2,0.1-2.5,0.1-3.8l0,0c0,1.3-0.1,2.6-0.1,3.8c0,3.5,0.7,6.1,6,6.5c1.3,0.1,3.7,0,3.7,1.7c0,1-0.7,1.4-1.6,1.4
	c-4.2,0-8.5-0.5-12.4-0.5c-4.2,0-8.5,0.5-12.6,0.5c-0.9,0-1.8-0.3-1.8-1.3c0-1.9,2.2-1.6,3.7-1.8c5.3-0.5,6-3,6-6.5
	c0-1.2-0.1-2.5-0.1-3.8v-32.8c0-0.9,0-1.7,0-2.4c0-3.1-0.4-3.5-4.4-3.5c-0.3,0-0.9,0.1-1.5,0.1c-0.9,0-1.8-0.2-1.8-1
	c0-1,0.8-1.4,1.6-1.6c5.8-1.8,5.4-2.9,5.8-8.7c0.5-6.8,1.3-11.4,5.8-17.1c4.5-5.6,11.3-8.8,18.5-8.7c5.7,0.1,11.2,1.7,16,4.7
	c1.5,0.9,4.2,2.3,4.2,4c0,1.3-1.1,2.7-1.7,3.5c-0.9,1.3-1.8,3.2-3.7,3.2s-2.8-1.4-3.8-2.5l-2.4-2.6c-2.8-2.9-6.6-6.1-11-6.1
	c-4.8,0-8.6,3.2-10.6,7.2c-1.9,3.5-2,7.7-2,11.7v6.6c0,1.9,0.1,3.4,2.8,3.4h10.6c7.3,0,11.8-0.1,18.8-1.6l3.6-0.9c1-0.3,2-0.5,3-0.6
	c0.4,0,1.2,0.1,1.2,0.4v45.5c0,1.3-0.1,2.6-0.1,3.8c0,3.5,0.7,6.1,6,6.5c1.3,0.1,3.7,0,3.7,1.7c0,1-0.7,1.4-1.6,1.4
	c-4.2,0-8.5-0.5-12.4-0.5c-4.2,0-8.5,0.5-12.6,0.5c-0.9,0-1.8-0.3-1.8-1.3c0-1.9,2.2-1.6,3.7-1.8c5.3-0.5,6-3,6-6.5
	c0-1.2-0.1-2.5-0.1-3.8v-31c0-0.4,0-0.8,0-1.2c0.1-1.7-0.2-3.4-0.8-4.9c-0.8-1.4-2-1.5-3.4-1.5h-1.7h-21c-3.6,0-3.8,0.2-3.8,3.6
	C1237.2,534.7,1237.2,535.2,1237.2,535.9z"/>
<path class="st1" d="M1237.2,535.9c0-5.7-0.4-5.3,5.7-5.3h19.1c2,0,4.1-0.4,5.2,1.5c0.9,1.6,0.8,4.5,0.8,6.2v31
	c0,5.4,1.2,9.7-5.9,10.4c-1.5,0.1-3.7-0.1-3.7,1.8c0,1,0.9,1.3,1.8,1.3c4.1,0,8.3-0.5,12.6-0.5c4,0,8.2,0.5,12.4,0.5
	c0.9,0,1.6-0.4,1.6-1.4c0-1.7-2.4-1.5-3.7-1.7c-7.1-0.6-5.9-4.9-5.9-10.4v-45.5c0-0.3-0.8-0.4-1.2-0.4c-1,0.1-2,0.4-3,0.6l-3.6,0.9
	c-7,1.5-11.5,1.7-18.8,1.7H1240c-2.9,0-2.8-1.8-2.8-3.9v-4.5c0-4.4-0.1-9.2,2-13.1s5.8-7.2,10.6-7.2c4.4,0,8.2,3.2,11,6.1l2.4,2.7
	c1.1,1.1,2.1,2.5,3.8,2.5s2.8-1.9,3.7-3.2c0.7-0.9,1.7-2.3,1.7-3.5c0-1.8-2.8-3.2-4.2-4c-4.8-3-10.3-4.6-16-4.7
	c-7.2-0.1-14,3.1-18.5,8.7c-4.5,5.7-5.3,10.2-5.8,17.1c-0.4,5.8,0,7-5.8,8.7c-0.8,0.3-1.6,0.6-1.6,1.7c0,1.4,2.6,0.9,3.3,0.9
	c4.9,0,4.4,0.6,4.4,5.9v32.8c0,5.4,1.2,9.7-5.9,10.4c-1.5,0.1-3.7-0.1-3.7,1.8c0,1,0.9,1.3,1.8,1.3c4.1,0,8.3-0.5,12.6-0.5
	c4,0,8.2,0.5,12.4,0.5c0.9,0,1.6-0.4,1.6-1.4c0-1.7-2.4-1.5-3.7-1.7c-7.1-0.6-5.9-4.9-5.9-10.4L1237.2,535.9z"/>
<rect x="1320" y="480" width="120" height="120"/>
<path class="st0" d="M1353.3,605.8l22.9-35.4c1.4-2.2,2.7-4.4,3.9-6.7h0.5l3.6,6.7l23.2,35.4h36.7l-43.5-64.2l22.1-31.6
	c1.9-2.8,5.3-4.2,10.2-4.2h9.4v-26.9h-22.9c-5.7,0-10,0.8-12.9,2.4c-2.9,1.6-5.8,4.8-8.7,9.6l-13,20.9c-1.2,2.2-2.6,4.9-4.2,8.2
	h-0.5l-4.2-8.2l-13-20.9c-3-4.8-5.9-8-8.8-9.6c-2.9-1.6-7.2-2.4-12.8-2.4h-23.2v26.9h9.6c4.9,0,8.2,1.4,10.1,4.2l21.9,31.6
	l-43.2,64.2H1353.3z"/>
<rect x="1800" width="120" height="120"/>
<path class="st0" d="M1877.6,93.2h23.6v-2c-6-2-7.9-6-7.9-18.1c0-16.4,0.1-32.9,0.4-49.2c-9,1.8-18.1,3-27.3,3.7v2
	c4.9,0.8,7.5,3.3,7.5,8.5v21.7c0,13.3-4,27-15.6,27c-10.7,0-12.9-11.3-12.9-20V53.8c0-12.8,0.7-23.7,1.1-29.8
	c-9.1,1.9-18.3,3.1-27.6,3.9V30c4.1,0.9,6.8,2,6.8,6.7c0.1,10.5,0.3,20.9,0.3,31.3c0,15.8,8.3,27.3,24.9,27.3
	c11.3,0,18.2-4.9,23.4-15.1L1877.6,93.2z"/>
<rect x="1800" y="120" width="120" height="120"/>
<path class="st0" d="M1895.3,198.6c-4.6-0.2-8.5,3.5-8.7,8.1c-0.2,4.6,3.5,8.5,8.1,8.7c4.6,0.2,8.5-3.5,8.7-8.1c0-0.1,0-0.2,0-0.3
	C1903.5,202.4,1899.9,198.6,1895.3,198.6z M1862,198.6c-4.6-0.2-8.5,3.5-8.7,8.1c-0.2,4.6,3.5,8.5,8.1,8.7c4.6,0.2,8.5-3.5,8.7-8.1
	c0-0.1,0-0.2,0-0.3C1870.2,202.4,1866.6,198.6,1862,198.6L1862,198.6z M1828.7,198.6c-4.6-0.2-8.5,3.5-8.7,8.1
	c-0.2,4.6,3.5,8.5,8.1,8.7c4.6,0.2,8.5-3.5,8.7-8.1c0-0.1,0-0.2,0-0.3C1836.9,202.4,1833.3,198.6,1828.7,198.6L1828.7,198.6z"/>
<rect x="1680" width="120" height="120"/>
<polygon class="st0" points="1753.3,16.5 1718.5,107.1 1726.7,107.1 1761.4,16.5 "/>
<rect x="1440" width="120" height="120"/>
<path class="st0" d="M1513.9,12.1h-17.2V-5.7h-12v17.7h-13.8v10.4h13.8v32.9c0,2.6,0.1,5.1,0.3,7.7c0.2,2.4,0.9,4.8,2.1,6.9
	c1.3,2.2,3.3,3.9,5.6,5c2.5,1.3,6.1,1.9,10.7,1.9c1.8,0,3.5-0.2,5.3-0.5c1.9-0.2,3.8-0.8,5.5-1.7V63.8c-1.3,0.7-2.7,1.2-4.1,1.5
	c-1.5,0.3-2.9,0.4-4.4,0.4c-1.8,0.1-3.7-0.3-5.3-1.3c-1.2-0.8-2.1-2-2.7-3.3c-0.6-1.5-0.9-3.1-1-4.7c-0.1-1.7-0.1-3.5-0.1-5.3V22.5
	h17.2L1513.9,12.1z"/>
<rect x="1440" y="120" width="120" height="120"/>
<path class="st1" d="M1476.8,199.1l14.9-47.9c0.6-1.8,1.1-2.8,1.6-3.2c0.9-0.6,2-0.8,3.1-0.7c11,0,18.1,2.4,21.4,7.2s5,10.7,5,17.7
	c-0.2,5.1-1.4,10.2-3.5,14.9c-2.6,5.7-6.7,10.6-11.9,14.1c-5.6,4.1-12.7,6.1-21.5,6.1c-3.5-0.1-5.9-0.4-7.4-1.1
	c-1.5-0.7-2.4-2.2-2.3-3.8C1476.3,201.2,1476.5,200.1,1476.8,199.1z M1482.8,155.6l-12.5,40.5c-1.6,5-2.9,8.1-3.9,9.5
	c-1.2,1.5-3,2.3-4.9,2.4l-2.6,0.3c-0.3,0.3-0.5,0.7-0.5,1.2c0,0.5,0.2,1,0.6,1.3l11-0.3c2,0.2,4,0.2,6,0.2c2.2,0.1,4.3,0.1,6.5,0.1
	c5.8-0.1,11.5-0.7,17.2-1.9c5.7-1.3,11.2-3.7,16-7c4.9-3.3,9-7.8,11.8-13c2.8-5.4,4.3-11.3,4.2-17.4c0.1-7.3-2.9-14.3-8.2-19.3
	c-5.6-5.4-14.8-8-27.8-8c-2.4,0.1-5.6,0.2-9.8,0.4s-7.2,0.4-8.8,0.6c-0.4,0.2-0.5,0.6-0.5,1.2s0.2,1,0.5,1.2l4,0.5
	c1.8,0.3,2.7,1.1,2.7,2.5C1483.6,152.3,1483.3,153.9,1482.8,155.6L1482.8,155.6z"/>
<rect x="1440" y="240" width="120" height="120"/>
<path class="st0" d="M1497.7,276.1c12.2,0,21,9.1,21,21.3s-8.7,21.4-21,21.4s-20.9-9.1-20.9-21.4S1485.5,276.1,1497.7,276.1z
	 M1500.4,252.6c-26.3,0-45.8,19.2-45.8,45.3c0,25.1,18.9,43.5,44.5,43.5c6.9-0.2,13.6-2,19.7-5.3l-1.5-3.2c-5.6,3-11.8,4.7-18.2,4.8
	c-23.6,0-41-16.8-41-39.8c0-24,18-41.7,42.3-41.7s41.4,17.7,41.4,41.8c0,14.2-5,23.4-12.1,23.4c-3.8,0-6.9-3-6.9-8.2v-40.8h-4v12.9
	c-3.1-7.4-11.2-13.3-21.6-13.3c-14.3,0-24.6,10.9-24.6,25.5c0,14.8,10.8,25.4,24.9,25.4c9.9,0,18.1-5.3,21.9-13.7v5.2
	c0.3,6.5,4.5,10.4,9.9,10.4c9.6,0,15.9-10.5,15.9-26.8C1545.2,271.7,1526.3,252.6,1500.4,252.6L1500.4,252.6z"/>
<rect x="1680" y="720" width="120" height="120"/>
<path class="st0" d="M1759,751.7h12.5c3.4,0,2.8,0.5,3.7-2.9c0.3-0.6,0.5-1.3,0.6-2c0-0.8-2.6-0.3-2.8-0.3h-12.7
	c1.8-6.3,8.6-30,16.1-30c1.1,0.1,2.1,1,2.1,2.1c0,1.8-0.6,3.5-0.6,5.3c0,5.4,3.7,9.2,8.9,9.2c5.8,0.1,10.6-4.4,10.7-10.2
	c0-0.2,0-0.3,0-0.5c0-9.2-9.8-12.2-17.3-12.2c-21,0-35.8,17.4-41.1,36.2h-8.9c-3.5,0-2.8-0.5-3.8,2.9c-0.2,0.6-0.4,1.3-0.5,2
	c0,0.6,2.6,0.3,2.8,0.3h8.7l-7.5,24.3l-7.7,25.5l-8,26.3c-1.7,4.6-4.6,14.7-10.9,14.7c-2.4,0-3.7-1.4-3.7-4c0-0.9,0.1-1.7,0.3-2.6
	l0.3-2.9c0-6-3.8-9.6-9.8-9.6c-5.7,0.1-10.3,4.7-10.2,10.4c0,9.9,10.4,14.2,18.8,14.2c13-0.1,25.2-6.2,32.9-16.7
	c6.3-8.4,10.7-24.9,13.8-35.2L1759,751.7z"/>
<rect x="1800" y="360" width="120" height="120"/>
<path class="st0" d="M1770.8,401h5.6v4.6h-5.6V400h21.1l51.2,128.8l-5.2,2.1v-5.6h1.7v5.6l-5.2-2.1l47.2-115.1l0,0
	c0.9-2.2,2-4.3,3.3-6.3c1.1-1.8,2.5-3.3,4.2-4.5l3.1,4.7l-3.3-4.6c1.6-1.1,3.5-2,5.4-2.4c1.9-0.4,3.9-0.6,5.9-0.6h8.9v5.6h-5.6V401
	h5.6v5.6h-41.4V401h5.6v4.6h-5.6V400h8.6c1.4,0,2.7,0.1,4.1,0.3c1,0.2,1.9,0.4,2.8,0.7c0.7,0.3,1.5,0.6,2.1,1.1
	c2.4,1.5,3.8,4.2,3.8,7v0.3v0.3c-0.2,1.3-0.3,2.6-0.6,4c-0.3,1.4-0.7,2.9-1.3,4.2l-5.2-2.2l5.2,2.1l-37.8,92.7L1806.6,400h26.3v5.6
	h-5.6V401h5.6v5.6h-62.1L1770.8,401L1770.8,401l0-5.6h67.7v15.8h-15.5l26.7,68.9l27.2-66.6l0,0c0.3-0.6,0.5-1.3,0.6-2
	c0.2-0.8,0.3-1.8,0.4-3l5.6,0.6h-2.9l-2.6,0.7c-0.1-0.2-0.1-0.5-0.1-0.7h2.7l-2.6,0.7l3-0.9l-2.7,1.7c-0.2-0.2-0.3-0.5-0.3-0.8
	l3-0.9l-2.7,1.7l2.3-1.4l-1.5,2.3c-0.3-0.2-0.6-0.5-0.8-0.8l2.3-1.4l-1.5,2.3l0.7-1.1l-0.6,1.2l-0.2-0.1l0.7-1.1l-0.6,1.2l0.2-0.3
	l-0.2,0.4l0,0l0.2-0.3l-0.2,0.4l-0.2-0.1c-0.9-0.2-1.9-0.3-2.8-0.2H1862v-16h52.6v15.8h-14.5c-1.1,0-2.2,0.1-3.2,0.3
	c-0.6,0.1-1.1,0.3-1.6,0.7l-0.1,0.1h-0.1l0,0l0,0l0,0l0,0l0,0c-0.4,0.4-0.8,0.9-1.1,1.4c-0.9,1.5-1.7,3-2.3,4.5l-5.1-2.2l5.2,2.1
	l-48.6,118.5h-9.3l-49.8-125.4h-19v-15.8h5.6L1770.8,401z"/>
<path class="st0" d="M1770.8,401v4.6h17.2l49.8,125.4h1.7l47.2-115c2-4.6,3.7-7.2,5.5-8.3c2-1.4,4.6-2,8.1-2h8.9V401h-41.4v4.6h8.6
	c4.9,0,7.2,1.1,7.2,3.5c-0.1,2.3-0.6,4.5-1.4,6.6l-32.5,79.6l-34.8-89.7h18.1V401H1770.8z"/>
<rect x="1684.1" y="360" width="115.9" height="118.8"/>
<path class="st1" d="M1712.6,455.1L1712.6,455.1c0.4,2.1,1.3,4.1,2.6,5.8c1.2,1.6,2.7,3,4.3,4.1c1.7,1.1,3.6,1.9,5.6,2.4
	c2.1,0.5,4.3,0.8,6.5,0.8c2.6,0,5.2-0.4,7.7-1.2c2.5-0.8,4.9-2,7-3.5c2.1-1.6,3.9-3.5,5.3-5.7c1.5-2.3,2.4-5,2.8-7.7
	c0.1-0.7,0.1-1.3,0.1-2c0-2-0.5-4-1.4-5.8c-1.2-2.3-2.9-4.2-5-5.6c2.9-1.4,5.6-3.4,7.8-5.8c2.2-2.4,3.6-5.3,4-8.5
	c0.1-0.8,0.1-1.6,0.1-2.3c0-2-0.4-3.9-1.4-5.6c-1.3-2.2-3-4.1-5-5.6c-2.2-1.6-4.5-3-7-4.2c-2.6-1.2-4.9-2.4-7.1-3.7
	c-2-1.1-3.7-2.5-5.2-4.2c-1-1.2-1.6-2.8-1.6-4.4c0-0.5,0-1,0.1-1.4c0.3-1.6,0.9-3.2,1.8-4.6c0.9-1.3,2-2.4,3.3-3.3
	c1.3-0.9,2.8-1.5,4.3-2c1.6-0.4,3.2-0.7,4.8-0.7c2.3-0.1,4.7,0.6,6.6,1.9c1.9,1.3,3.2,3.3,3.8,5.5l6.7-3.7c-0.7-3.3-2.8-6.2-5.8-7.8
	c-1.5-0.8-3.1-1.4-4.7-1.8c-1.7-0.4-3.5-0.6-5.3-0.6c-2.6,0-5.1,0.4-7.6,1.1c-2.5,0.7-4.9,1.8-7,3.2c-2.1,1.4-3.9,3.2-5.4,5.3
	c-1.5,2.2-2.5,4.7-2.8,7.4c-0.1,0.7-0.2,1.5-0.2,2.2c-0.1,2.1,0.5,4.1,1.6,5.9c1.5,2.3,3.4,4.2,5.7,5.6c-1.6,0.6-3.2,1.4-4.7,2.2
	c-1.5,0.8-2.8,1.8-4.1,3c-1.2,1.1-2.3,2.5-3.1,3.9c-0.9,1.5-1.4,3.2-1.7,4.9c-0.1,0.9-0.2,1.8-0.2,2.7c-0.1,2,0.4,4,1.4,5.7
	c1.3,2.3,3.1,4.2,5.2,5.8c2.2,1.7,4.7,3.1,7.2,4.2c2.7,1.2,5.1,2.4,7.3,3.7c2,1.1,3.8,2.6,5.4,4.3c1.1,1.3,1.7,3,1.6,4.7
	c0,0.5,0,1-0.1,1.5c-0.2,1.6-0.8,3.2-1.7,4.6c-0.9,1.3-2.1,2.4-3.5,3.3c-1.4,0.9-2.9,1.6-4.5,2c-1.6,0.4-3.2,0.7-4.8,0.7
	c-3,0.1-5.9-0.7-8.3-2.5c-2.3-1.8-3.9-4.4-4.4-7.3L1712.6,455.1l7.1-3.2c0.6,2.9,2.1,5.5,4.4,7.3c2.4,1.7,5.4,2.6,8.3,2.5
	c1.6,0,3.3-0.2,4.8-0.7c1.6-0.4,3.1-1.1,4.5-2c1.3-0.9,2.5-2,3.5-3.3c1-1.3,1.6-2.9,1.7-4.6c0.1-0.5,0.1-1,0.1-1.5
	c0-1.7-0.5-3.4-1.6-4.7c-1.5-1.7-3.3-3.2-5.4-4.3c-2.2-1.3-4.6-2.5-7.3-3.7c-2.6-1.1-5-2.6-7.2-4.2c-2.1-1.6-3.9-3.5-5.2-5.8
	c-1-1.7-1.5-3.7-1.4-5.7c0-0.9,0.1-1.8,0.2-2.7c0.3-1.7,0.8-3.4,1.7-4.9c0.8-1.4,1.9-2.8,3.1-3.9c1.2-1.2,2.6-2.2,4.1-3
	c1.5-0.8,3.1-1.6,4.7-2.2c-2.3-1.5-4.2-3.4-5.7-5.6c-1.1-1.8-1.6-3.8-1.6-5.9c0-0.7,0.1-1.5,0.2-2.2c0.4-2.6,1.3-5.2,2.8-7.4
	c1.5-2.1,3.3-3.9,5.4-5.3c2.1-1.4,4.5-2.5,7-3.2c2.5-0.7,5-1.1,7.6-1.1c1.8,0,3.6,0.2,5.3,0.6c1.7,0.4,3.2,1,4.7,1.8
	c3,1.7,5.1,4.5,5.8,7.8l-6.7,3.7c-0.6-2.2-1.9-4.2-3.8-5.5c-2-1.3-4.3-1.9-6.6-1.9c-1.6,0-3.3,0.2-4.8,0.7c-1.5,0.4-3,1.1-4.3,2
	c-1.3,0.9-2.4,2-3.3,3.3c-0.9,1.4-1.5,3-1.8,4.6c-0.1,0.5-0.1,1-0.1,1.4c0,1.6,0.5,3.2,1.6,4.4c1.5,1.7,3.3,3.1,5.2,4.2
	c2.1,1.3,4.5,2.5,7.1,3.7c2.5,1.1,4.8,2.5,7,4.2c2,1.5,3.7,3.4,5,5.6c0.9,1.7,1.4,3.7,1.4,5.6c0,0.8-0.1,1.6-0.2,2.4
	c-0.4,3.2-1.8,6.1-4,8.5c-2.2,2.4-4.8,4.4-7.8,5.8c2.1,1.4,3.8,3.3,5,5.6c0.9,1.8,1.4,3.8,1.4,5.8c0,0.7,0,1.3-0.1,2
	c-0.4,2.7-1.3,5.4-2.8,7.7c-1.4,2.2-3.2,4.1-5.3,5.7c-2.1,1.6-4.5,2.7-7,3.5c-2.5,0.8-5.1,1.2-7.7,1.2c-2.2,0-4.3-0.2-6.5-0.8
	c-2-0.5-3.9-1.3-5.6-2.4c-1.7-1.1-3.2-2.5-4.3-4.1C1713.8,459.3,1713,457.3,1712.6,455.1z M1732.3,427.9L1732.3,427.9
	c-1.7-0.9-3.3-2.1-4.7-3.5c-1-1.2-1.5-2.7-1.4-4.3c0-0.6,0-1.2,0.1-1.8c0.2-1.4,0.7-2.7,1.5-3.9c0.8-1.1,1.8-2.1,2.9-2.9
	c1.1-0.8,2.4-1.6,3.7-2.1c1.3-0.5,2.5-1,3.9-1.4l7.5,4.5c0.9,0.5,1.7,1.1,2.5,1.7c0.9,0.7,1.6,1.5,2.3,2.4c0.7,0.9,1.2,1.9,1.5,3
	c0.3,0.8,0.4,1.6,0.4,2.5c0,0.4,0,0.7-0.1,1.1c-0.2,1.2-0.6,2.3-1.2,3.3c-0.7,1-1.5,2-2.4,2.9c-0.9,0.9-1.9,1.7-3,2.4
	c-1,0.7-2.1,1.3-3.2,1.8L1732.3,427.9l10.3,5.7c1.1-0.5,2.1-1.2,3.2-1.8c1.1-0.7,2.1-1.5,3-2.4c0.9-0.9,1.7-1.8,2.4-2.9
	c0.7-1,1.1-2.1,1.2-3.3c0-0.4,0.1-0.7,0.1-1.1c0-0.8-0.1-1.7-0.4-2.5c-0.4-1.1-0.9-2.1-1.5-3c-0.6-0.9-1.4-1.7-2.3-2.4
	c-0.8-0.6-1.6-1.2-2.5-1.7l-7.5-4.5c-1.3,0.4-2.6,0.9-3.9,1.4c-1.3,0.6-2.5,1.3-3.7,2.1c-1.1,0.8-2.1,1.8-2.9,2.9
	c-0.8,1.1-1.3,2.5-1.5,3.9c-0.1,0.6-0.1,1.2-0.1,1.8c-0.1,1.6,0.4,3.1,1.4,4.3C1729,425.8,1730.6,427,1732.3,427.9z"/>
<path class="st0" d="M1712.6,455.1c0.4,2.1,1.3,4.1,2.6,5.8c1.2,1.6,2.7,3,4.3,4.1c1.7,1.1,3.6,1.9,5.6,2.4c2.1,0.5,4.3,0.8,6.5,0.8
	c2.6,0,5.2-0.4,7.7-1.2c2.5-0.8,4.9-2,7-3.5c2.1-1.6,3.9-3.5,5.3-5.7c1.5-2.3,2.4-5,2.8-7.7c0.4-2.7,0-5.4-1.2-7.8
	c-1.2-2.3-2.9-4.2-5-5.6c2.9-1.4,5.6-3.4,7.8-5.8c2.2-2.4,3.6-5.3,4-8.5c0.5-2.7,0.1-5.5-1.2-8c-1.3-2.2-3-4.1-5-5.6
	c-2.2-1.6-4.5-3-7-4.2c-2.6-1.2-4.9-2.4-7.1-3.7c-2-1.1-3.7-2.5-5.2-4.2c-1.4-1.6-1.9-3.8-1.5-5.8c0.3-1.6,0.9-3.2,1.8-4.6
	c0.9-1.3,2-2.4,3.3-3.3c1.3-0.9,2.8-1.5,4.3-2c1.6-0.4,3.2-0.7,4.8-0.6c2.3-0.1,4.7,0.6,6.6,1.8c1.9,1.3,3.2,3.3,3.8,5.5l6.7-3.7
	c-0.7-3.3-2.8-6.2-5.8-7.8c-1.5-0.8-3.1-1.4-4.7-1.8c-1.7-0.4-3.5-0.6-5.3-0.6c-2.6,0-5.1,0.4-7.6,1.1c-2.5,0.7-4.9,1.8-7,3.2
	c-2.1,1.4-3.9,3.2-5.4,5.3c-1.5,2.2-2.5,4.7-2.8,7.4c-0.5,2.8,0,5.7,1.4,8.1c1.5,2.3,3.4,4.2,5.7,5.6c-1.6,0.6-3.2,1.4-4.7,2.2
	c-1.5,0.8-2.8,1.8-4.1,3c-1.2,1.1-2.3,2.5-3.1,3.9c-0.9,1.5-1.4,3.2-1.7,4.9c-0.5,3.4-0.1,6.2,1.2,8.4c1.3,2.2,3.1,4.2,5.2,5.8
	c2.2,1.7,4.7,3.1,7.2,4.2c2.7,1.2,5.1,2.4,7.3,3.7c2,1.1,3.8,2.6,5.4,4.3c1.4,1.7,2,4,1.5,6.1c-0.2,1.6-0.8,3.2-1.7,4.6
	c-0.9,1.3-2.1,2.4-3.5,3.3c-1.4,0.9-2.9,1.6-4.5,2c-1.6,0.4-3.2,0.6-4.8,0.6c-3,0.1-5.9-0.7-8.3-2.5c-2.3-1.8-3.9-4.4-4.4-7.3
	L1712.6,455.1z M1732.3,427.9c-1.7-0.9-3.3-2.1-4.7-3.5c-1.2-1.3-1.7-3.3-1.3-6.1c0.2-1.4,0.7-2.7,1.5-3.9c0.8-1.1,1.8-2.1,2.9-2.9
	c1.1-0.8,2.4-1.6,3.7-2.1c1.3-0.5,2.5-1,3.9-1.4l7.5,4.5c0.9,0.5,1.7,1.1,2.5,1.7c0.9,0.7,1.6,1.5,2.3,2.4c0.7,0.9,1.2,1.9,1.5,3
	c0.4,1.2,0.5,2.4,0.3,3.6c-0.2,1.2-0.6,2.3-1.2,3.3c-0.7,1-1.5,2-2.4,2.9c-0.9,0.9-1.9,1.7-3,2.4c-1,0.7-2.1,1.3-3.2,1.8
	L1732.3,427.9z"/>
<rect x="1800" y="720" width="120" height="120"/>
<path class="st0" d="M1855.1,782.2c2.4,2.4,5.7,3.6,9.8,3.6c2.8,0,4.1-1.1,4.1-3.4c0-0.9-0.3-1.8-1-2.4c-0.7-0.7-1.6-1-2.5-1
	c-2.8,0-4.8-0.5-5.7-1.7c-1-1.3-1.5-2.9-1.4-4.5c-0.1-2.2,0.7-4.4,2.1-6.1c1.4-1.7,3.5-2.6,5.7-2.5c3,0,5.7,1.6,7.2,4.2
	c1.8,3.1,2.7,6.6,2.6,10.2c0.1,6.7-1.7,13.4-5.2,19.1c-3.5,5.6-7.8,8.4-12.8,8.4c-3.4,0-6-1.7-8-5c-2.1-3.7-3.1-8-3-12.3
	c-0.1-3.3,0.3-6.6,1.4-9.8c0.2-0.5,0.3-1,0.3-1.5c0-0.9-0.4-1.7-1-2.3c-0.6-0.6-1.4-1-2.2-1c-2,0-3.4,1.8-4.2,5.4
	c-0.7,3.1-1.1,6.2-1.2,9.4c0,7.1,1.6,12.8,4.9,17.1c2.9,4.1,7.7,6.6,12.7,6.5c7.2,0,13.2-3.4,18-10.2c4.9-6.9,7.4-15.2,7.2-23.7
	c0-6.2-1.5-11.2-4.5-15.1c-2.8-3.7-7.2-5.9-11.9-5.7c-4.1-0.2-8.1,1.5-10.9,4.4c-2.7,2.8-4.2,6.6-4.1,10.5
	C1851.4,776.5,1852.7,779.8,1855.1,782.2z"/>
<rect x="1320" y="600" width="360" height="360"/>
<polygon class="st0" points="1282,1087.6 1402.1,1087.6 1402.1,828.8 1624,1087.6 1792,1087.6 1528.5,795.7 1771.2,542.2 
	1614,542.2 1402.1,768.7 1402.1,542.2 1282,542.2 "/>
<rect x="1560" y="120" class="st0" width="240" height="240"/>
<path d="M1736.4,169.3l-1.1,1.2c-6.6-5.9-14.4-10.4-22.9-12.9c-8.6-2.6-17.6-3.9-26.6-3.9c-7.8,0-15.6,1.1-23.1,3.3
	c-7.1,2-13.8,5.4-19.6,9.9c-5.6,4.4-10.3,9.9-13.5,16.2c-3.3,6.4-5,13.9-5.1,22.6c0,8.9,1.9,16,5.4,21.2c3.6,5.3,8.3,9.7,13.8,13
	c5.7,3.4,11.9,6.1,18.3,8c6.7,2,12.9,4,18.7,6.1c5.3,1.8,10.3,4.3,14.8,7.6l0,0c2,1.5,3.7,3.5,4.8,5.7c1.1,2.3,1.6,4.8,1.6,7.4
	c0.1,3.1-0.8,6.1-2.5,8.6c-1.7,2.4-3.8,4.4-6.4,5.9c-2.7,1.5-5.6,2.7-8.6,3.3c-3.1,0.7-6.2,1.1-9.3,1.1c-6.4,0-12.6-1.5-18.3-4.2
	c-5.8-2.7-10.9-6.9-14.8-12l1.3-1l1.2,1.1l-25.9,28.5l-1.2-1.1l1.1-1.2c7.2,6.8,15.8,12.1,25.1,15.5c9.4,3.3,19.3,4.9,29.3,4.8
	c8.1,0,16.1-1,23.9-3.2c7.1-1.9,13.8-5.3,19.7-9.8c5.7-4.4,10.2-10,13.4-16.5c3.3-6.6,5-14.3,5-23.3c0-9.4-1.8-16.8-5.3-22.2
	c-3.5-5.4-8.1-9.9-13.6-13.2c-5.6-3.4-11.6-6-17.9-7.8c-6.5-1.9-12.7-3.7-18.4-5.6c-5.2-1.6-10.1-4-14.6-7c-2-1.4-3.6-3.3-4.7-5.5
	c-1.1-2.3-1.6-4.8-1.6-7.3c-0.1-3.2,0.8-6.3,2.6-8.9c1.7-2.4,4-4.4,6.6-5.8c2.6-1.4,5.4-2.4,8.3-3.1c2.8-0.6,5.7-1,8.5-1
	c5.1,0.1,10.1,1,14.9,2.8c5,1.7,9.4,4.7,12.8,8.8l-1.3,1l-1.2-1.1l25-27.3L1736.4,169.3l-1.1,1.2L1736.4,169.3l1.3,1l-25,27.3
	c-0.3,0.4-0.8,0.6-1.3,0.5c-0.5,0-0.9-0.2-1.2-0.6c-2.9-3.6-6.8-6.3-11.3-7.7c-4.4-1.6-9.1-2.5-13.8-2.6c-2.6,0-5.2,0.3-7.8,0.9
	c-2.6,0.6-5.1,1.5-7.5,2.8c-2.2,1.1-4.1,2.7-5.5,4.7c-1.4,2.1-2.1,4.5-2,7c0,2,0.4,4,1.2,5.9c0.8,1.7,2.1,3.1,3.7,4.2
	c4.2,2.9,8.8,5.1,13.7,6.5c5.7,1.9,11.7,3.7,18.2,5.6c6.6,1.9,12.9,4.6,18.7,8.1c5.9,3.6,10.9,8.5,14.7,14.3c4,6.1,5.9,14.2,5.9,24
	c0,9.4-1.8,17.7-5.3,24.8c-3.4,6.9-8.3,12.9-14.3,17.6c-6.2,4.8-13.3,8.3-20.9,10.3c-18.2,4.9-37.4,4.4-55.2-1.7
	c-9.8-3.6-18.7-9.1-26.2-16.2c-0.7-0.6-0.7-1.7-0.1-2.3l25.9-28.5c0.3-0.4,0.8-0.6,1.3-0.5c0.5,0,1,0.3,1.3,0.7
	c3.5,4.7,8.2,8.5,13.5,11c7.9,3.9,16.9,4.9,25.5,2.9c2.7-0.6,5.3-1.6,7.7-3c2.1-1.2,3.9-2.9,5.3-4.9c1.3-2,2-4.4,1.9-6.8
	c0-2.1-0.4-4.1-1.3-6c-0.9-1.8-2.2-3.3-3.8-4.5l0,0c-4.2-3.1-8.9-5.5-13.9-7.1c-5.7-2-11.9-4-18.6-6c-6.7-2-13-4.8-19-8.3
	c-5.9-3.5-11-8.3-14.9-14c-4.1-6-6-13.7-6-23.1c0-9.1,1.8-17.1,5.4-24.1c3.5-6.8,8.4-12.7,14.4-17.3c6.2-4.7,13.2-8.3,20.7-10.4
	c7.8-2.3,15.9-3.5,24-3.4c9.3,0,18.6,1.3,27.5,4c9,2.7,17.2,7.4,24.2,13.6c0.3,0.3,0.5,0.7,0.6,1.2c0,0.4-0.1,0.9-0.4,1.2
	L1736.4,169.3z"/>
<rect x="600" class="st0" width="240" height="240"/>
<path d="M574.5,261.1c3.3,3.7,8.7,8.2,16.2,13.7c8.2,5.9,16.7,11.3,25.5,16.2c9.5,5.3,21.4,9.8,35.7,13.4
	c14.5,3.7,29.4,5.5,44.4,5.5c43.9,0,78.9-12.9,105-38.7c26.1-25.8,39.2-56.6,39.2-92.4c0-36.6-12.9-67-38.7-91.3
	s-60.4-36.5-103.9-36.5c-15.3,0-29,2.4-41.1,7.1h-1.1l2.7-18.1l4.9-53.7c0.7-8,4.8-12.1,12.1-12.1h64.2c8,0,12,4,12.1,12.1V9.9h65.3
	v-59.2c0-24.9-12.4-37.3-37.3-37.3H636c-12.4,0-21.4,2.9-26.9,8.8s-8.8,15.4-9.9,28.5L585,116.3l25.2,12.6l8.8-4.4
	c5.8-2.9,14.9-5.9,27.2-8.8c12.3-2.9,24.9-4.4,37.6-4.4c23.4,0,43.2,5.8,59.5,17.5c16.3,11.7,24.4,28,24.4,48.8
	c0,18.3-6.6,33.6-19.7,46.1c-13.2,12.4-30.3,18.6-51.5,18.6c-10.6,0-21.1-1.5-31.3-4.4c-10.2-2.9-18.6-6.2-25.2-9.9
	c-6.6-3.6-12.8-7.9-18.6-12.6c-5.8-4.7-9.7-8-11.5-9.9c-1.4-1.3-2.7-2.8-3.8-4.4l-36.2,54.3L574.5,261.1z"/>
<rect x="840" width="120" height="120"/>
<path class="st0" d="M900.8,66.1l-15.6-0.3c-0.8,0-2.1,0-3.8,0.1c1.2-2,4.9-7.7,11.3-17.2c5.5-8.3,9.9-14.5,13-18.6v19.1v7.4V66
	C903.6,66.1,902,66.1,900.8,66.1z M905.3,25.4c-1.8,2.8-3.7,5.3-5.5,7.7c-1.9,2.4-4.2,5.6-6.9,9.7l-11.1,16.1
	c-2.9,4.3-4.8,7.1-5.9,8.5c-0.1,0.8-0.1,1.4-0.1,1.9s0,1,0.1,1.9l0.5,0.4l2.7-0.6l2.2,0.3l3.2-0.2l5.8,0.3c1.9-0.3,3.2-0.4,3.7-0.4
	s2.7,0.1,6.5,0.3c0.6,0,1.1,0,1.5,0c1.2,0,2.5-0.1,3.7-0.3c-0.1,1.4-0.2,2.5-0.2,3.2c0,0.4,0.1,1.9,0.2,4.4c0.1,1.4,0.1,3,0.1,4.7
	c0,1.9,0,5.1-0.1,9.6c1.6,0.1,2.7,0.1,3.5,0.1l3.5-0.1c0.3-0.1,0.5-0.2,0.8-0.4c-0.1-8.9-0.1-16.1,0-21.5c1.6,0.1,2.7,0.1,3.3,0.1
	h2.3l2.8,0.1l3.8-0.2c0.1-1.2,0.1-2.1,0.1-2.6s0-1.4-0.1-2.6l-3.2,0.1h-3.8h-4l-1.2-0.1c0-2.8,0.1-5,0.1-6.4l-0.1-9V44l-0.2-8.4
	l0.3-7.5l-0.1-8.4c0-0.2,0-0.9,0-2.1h-2.7C909,20,907.1,22.6,905.3,25.4z"/>
<rect x="960" class="st0" width="120" height="120"/>
<path d="M1074.3,138.9l17.1-53.2h-4.2c-9.7,18.3-24.7,23.5-44.3,23.5H985c2.5-20.8,26.7-26,44-29.9c24.7-5.7,55.9-19.3,55.9-49.2
	c0-34.6-41.3-47-69-47c-20,0-40.3,3.7-58.6,11.9l10.9,44l3.2-1.7c5.9-23,20.8-46.3,39.8-46.3c20.3,0,29.7,14.9,29.7,33.4
	c0,16.6-6.2,32.4-21,41.6c-27.7,16.8-64.3,36.4-64.3,73L1074.3,138.9z"/>
<rect x="1080" width="120" height="120"/>
<path class="st0" d="M1125.4,61.5c0-19.2,4.9-28.8,14.6-28.8s14.6,9.6,14.6,28.8c0,19.4-4.9,29.2-14.6,29.2S1125.4,81,1125.4,61.5z
	 M1163.5,91.9c2.3-4.2,3.9-8.8,4.9-13.5c1.1-5.5,1.7-11.2,1.6-16.8c0-28.5-10-42.7-30-42.7s-30,14.2-30,42.7
	c-0.1,5.6,0.5,11.3,1.6,16.8c1,4.7,2.6,9.3,4.9,13.5c2.1,4,5.4,7.2,9.3,9.3c8.9,4.4,19.4,4.4,28.3,0
	C1158.1,99.1,1161.4,95.8,1163.5,91.9z"/>
<rect x="1200" width="120" height="120"/>
<polygon class="st0" points="1243.2,121.6 1338.4,121.6 1338.4,107.2 1259.1,107.2 1259.1,-48.6 1243.2,-48.6 "/>
<rect x="1200" y="120" width="120" height="120"/>
<path class="st0" d="M1252.5,184.4c-1.6-2.2-2.4-4.8-2.3-7.5c-0.2-2.7,0.7-5.4,2.4-7.5c1.4-1.8,3.6-2.8,5.9-2.8c2.4-0.1,4.7,1,6.1,3
	c1.5,2.1,2.2,4.6,2.2,7.2c0,3.5-0.8,6.1-2.4,7.8c-1.5,1.7-3.6,2.7-5.9,2.6C1256.2,187.3,1254,186.3,1252.5,184.4z M1245.9,189.4
	c3.6,4.1,9.2,5.7,14.5,4.3c1-0.3,1.9-0.7,2.8-1.1c0.7-0.4,1.3-0.9,1.9-1.4c0.4-0.3,0.8-0.7,1.1-1.1l0.4-0.5h0.1l-0.1,2.9v14h8.2
	v-37.7c-0.1-0.7,0.4-1.3,1.1-1.4c0.1,0,0.2,0,0.3,0h2.6v-7h-7.3c-2.8,0-4.2,1-4.2,2.9v1.2h-0.1l-0.3-0.5c-0.3-0.5-0.7-0.9-1.1-1.2
	c-0.6-0.5-1.2-1-1.9-1.5c-0.9-0.6-1.9-1-3-1.2c-1.3-0.3-2.6-0.5-3.9-0.5c-4.1-0.1-8.1,1.6-10.8,4.8c-2.8,3.2-4.2,7.4-4.2,12.6
	S1243.2,186.3,1245.9,189.4z"/>
<rect x="1320" y="120" width="120" height="120"/>
<path class="st0" d="M1368.6,153.8c-6.7-7.4-15.1-17.5-15.1-28.1c0-14.9,11.8-21.9,25.2-21.9c14.4,0,25.7,10.6,25.7,25
	c0,13.9-5.5,20.4-17.6,26.4c-1.7,1-8.7,4.8-10.8,4.8L1368.6,153.8z M1404.6,220.1c0.5,3.1-3.8,6.7-4.8,7.9
	c-10.3,10.3-21.6,17.1-36.8,17.1c-19.4-0.1-35.1-15.9-35.1-35.3c0,0,0,0,0,0c0-13.5,7.9-23.8,19.2-30c1.7-1.2,11.3-6.2,13.4-6.2
	c2.4,0,5.3,4.1,6.5,5.5l36.3,39.9L1404.6,220.1z M1426.3,217.7c-1.4-1.9-4.3-4.1-4.3-6.5s7.9-11.8,9.1-13.7
	c5.5-7.4,13.5-18.7,21.1-24.3c4.3-3.4,8.4-4.1,13.7-4.1c1.9,0,4.8-0.2,4.8-2.9s-2.4-2.4-4.3-2.4c-8.7,0-16.8,1.2-25.5,1.2
	c-6,0-11.8-1.2-17.5-1.2c-2.2,0-5.3-0.2-5.3,2.6c0,3.4,5.8,2.6,7.9,2.6c4.6,0,10.6,0.7,10.6,6.7c0,5.3-9.9,19.2-13.5,23.8l-2.4,3.6
	c-1,1.2-1.9,2.4-3.8,2.4s-4.8-3.6-5.8-4.8l-27.6-30c-0.7-0.7-3.8-3.9-3.8-5.1c0-1.7,2.4-2.4,3.6-3.1l6.5-2.9
	c7.4-3.4,16.1-7.4,22.6-12.2c5.3-3.9,7.4-9.4,7.4-16.1c0-22.1-20.2-31.5-40.1-31.5c-18.5,0-40.6,11.8-40.6,32.7
	c0,19.2,17.8,32.9,17.8,36.1c0,2.2-18.3,10.1-18.5,10.3c-8.2,3.6-15.6,7.7-20.9,15.1c-4.7,6.4-7.2,14.2-7,22.1
	c0,24.3,20.9,40.6,44,40.6c20.7,0,34.8-12,49-25.7c0.2-0.2,4.6-5,5.8-5c1.7,0,5.5,5,6.2,5.8c2.4,2.9,6.7,7.4,6.7,11.3
	c0,5.8-8.9,6.2-12.7,6.2c-1.7,0-4.1,0.2-4.1,2.4c0,1.9,1.4,2.6,3.4,2.6c9.6,0,19.2-1,28.8-1s19.2,1,28.8,1c1.7,0,5.5,0,5.5-2.4
	c0-2.9-3.6-2.9-5.8-3.1c-13.2-0.2-18-5.8-26.7-15.9L1426.3,217.7z"/>
<rect x="1320" class="st0" width="120" height="120"/>
<polygon points="1372.1,121.6 1387.9,121.6 1387.9,48.3 1450.4,-48.6 1432.6,-48.6 1380,32.2 1328.6,-48.6 1309.6,-48.6 
	1372.1,48.3 "/>
<rect x="1080" y="120" class="st0" width="120" height="120"/>
<path d="M1162.5,221.9v-81.5h-22v4.8h17.1v76.7L1162.5,221.9z M1130.2,188.8v-4h-26v4H1130.2z"/>
<rect x="480" y="960" width="120" height="120"/>
<path class="st0" d="M533,1018.7c0.9-4.6,3.3-7.8,7.2-7.8s6.7,3.3,6.4,7.8H533z M540,995.9c-17.6,0-29.2,11.1-29.2,28.4
	c0,16.9,11.1,27.9,29.8,27.9c10.6,0,19-3.6,24.8-10l-11.7-11.5c-3.4,3.2-7.3,4.9-11.1,4.9c-4.2,0.2-7.9-2.5-9.1-6.5h35.6
	C570.3,1008.9,559.1,995.9,540,995.9z"/>
<rect x="360" y="960" class="st0" width="120" height="120"/>
<path d="M411.4,1019.2c1-5.5,4.2-9.2,8.9-9.2c4.9,0,8.3,3.8,8.2,9.2H411.4z M420.1,996.3c-17.2,0-28.7,11.1-28.7,28.1
	c0,16.7,11.1,27.7,29.3,27.7c10.3,0,18.5-3.5,24.2-9.8l-10.5-10.3c-3.6,3.3-7.7,5.2-12,5.2c-5.2,0-9-2.9-10.6-8.1h36.6
	C449.6,1009.1,439.2,996.3,420.1,996.3L420.1,996.3z"/>
<rect x="240" y="960" width="120" height="120"/>
<path class="st0" d="M289.4,1019.8c1.1-6.5,5.2-10.9,11.2-10.9c6.2,0,10.4,4.3,10.4,10.9H289.4z M300.4,996.9
	c-16.7,0-28.1,11-28.1,27.7c0,16.4,11,27.4,28.6,27.4c9.9,0,18-3.5,23.5-9.5l-9.1-8.9c-3.4,3.5-8,5.5-12.9,5.5
	c-6.4,0-11-3.6-12.7-10h37.9C328.8,1009.4,319.4,996.9,300.4,996.9z"/>
<rect x="240" y="840" width="120" height="120"/>
<path class="st0" d="M288.1,900.1c1.2-7.1,5.8-11.7,12.6-11.7c7.1,0,11.7,4.6,11.9,11.7H288.1z M300.6,877.1
	c-16.4,0-27.7,11-27.7,27.6c0,16.3,10.9,27.3,28.1,27.3c9.7,0,17.6-3.5,23-9.5l-8.1-8.2c-3.6,3.6-8.5,5.7-13.6,5.7
	c-6.9,0-12.1-4-13.9-10.8H327C328.3,889.6,319.5,877.1,300.6,877.1L300.6,877.1z"/>
<rect x="240" y="720" width="120" height="120"/>
<path class="st1" d="M285.5,780.8c1.3-8.5,7.2-13.8,15.6-13.8c8.7,0,14.4,5.2,14.8,13.8H285.5z M301,757.8
	c-15.8,0.1-26.9,11-26.9,27.1s10.8,26.9,27.2,26.9c9.2,0,16.8-3.3,22-9l-6.1-6.5c-3.9,4-9.4,6.3-15,6.2c-8.4,0-14.7-5.1-16.5-13.3
	h40.2C327.3,770,319.7,757.8,301,757.8L301,757.8z"/>
<rect x="120" y="720" class="st1" width="120" height="120"/>
<path d="M162.5,781.7c1.2-10,8.4-16.5,18.4-16.5c10.3,0,17.1,6.4,17.6,16.5H162.5z M180.9,758.5c-15.3,0-26.1,10.9-26.1,26.6
	s10.7,26.6,26.2,26.6c8.8,0,16.2-3.2,21.2-8.8l-4.3-4.6c-4.3,4.4-10.2,6.8-16.3,6.6c-10.2,0-17.7-6.5-19.1-16.8h43
	C206.3,770.2,197.9,758.4,180.9,758.5L180.9,758.5z"/>
<rect y="720" width="120" height="120"/>
<path class="st1" d="M39.5,783.5c1-11.8,9.5-19.8,21.2-19.8c11.9,0,19.6,8,20.4,19.8H39.5z M60.7,759.9c-14.7,0-25.4,10.9-25.4,26.2
	s10.7,26.1,25.4,26.1c8.3,0,15.4-3.1,20.2-8.3l-2.4-2.7c-4.2,4.6-10.5,7.2-17.6,7.2c-12.1,0-20.9-8.5-21.5-21.2h45.5
	C85.2,771.1,76,759.9,60.7,759.9z"/>
<rect y="840" width="240" height="240"/>
<path class="st0" d="M121.3,924.8c25.6,0,42.2,17.8,44,43.6H75.7C77.5,942.6,96.1,924.8,121.3,924.8z M121.3,1020.2
	c-26.6,0-45.8-19.6-45.8-47.8h93.8c0-30-19.2-51.6-48-51.6c-28.6,0-49.8,21.6-49.8,51.6c0,30.2,21.2,51.8,49.8,51.8
	c16,0,30-6,39.4-16.2l-2.8-2.8C149.3,1014.8,136.3,1020.2,121.3,1020.2z"/>
<rect y="600" width="120" height="120"/>
<path class="st1" d="M39.5,663.5c1-11.8,9.5-19.8,21.2-19.8c11.9,0,19.6,8,20.4,19.8H39.5z M60.7,639.9c-14.7,0-25.4,10.9-25.4,26.2
	s10.7,26.1,25.4,26.1c8.3,0,15.4-3.1,20.2-8.3l-2.4-2.7c-4.2,4.6-10.5,7.2-17.6,7.2c-12.1,0-20.9-8.5-21.5-21.2h45.5
	C85.2,651.1,76,639.9,60.7,639.9z"/>
<rect x="840" y="120" class="st0" width="120" height="120"/>
<path d="M902.4,186.9c-1.9,0.6-3.8,1-5.8,1c-1.2,0.1-2.4-0.2-3.5-0.8c-0.9-0.5-1.3-1.1-1.3-1.7c0-1,0.6-1.8,1.9-2.4
	c1.5-0.6,3.1-0.9,4.7-0.9c3.2,0,6.3,0.7,9.2,2C906,185.4,904.3,186.4,902.4,186.9z M895.6,165.1c-0.7,1-1.8,1.7-3,1.7
	c-2.1,0-3.2-1.2-3.2-3.7c0.1-1.6,0.6-3.1,1.5-4.4c1.1-1.6,2.5-2.8,4.2-3.7c1.2,1.7,1.8,3.7,1.8,5.7
	C896.9,162.3,896.4,163.8,895.6,165.1L895.6,165.1z M919.6,176.3c1.1-2.7,1.7-5.5,1.8-8.4c0.2-5-1.6-9.9-5-13.6
	c-3.3-3.6-7.9-5.4-13.7-5.4c-2.2,0-4.3,0.3-6.4,0.8c-3.4-2.6-7.5-3.9-11.7-3.9c-2.5,0-4,0.2-4.8,0.7c-0.7,0.5-1.1,1.3-1.1,2.1
	c0,1.2,0.9,1.8,2.7,1.8l2.9-0.1h0.2c2.4,0,4.6,0.7,6.7,1.9c-4.5,3.1-6.8,6.7-6.8,10.9c-0.1,2.2,0.7,4.4,2.3,6
	c1.5,1.5,3.6,2.4,5.8,2.3c2.6,0,5-1.2,6.7-3.1c1.9-2.1,3-4.8,2.9-7.6c0-2.5-0.8-4.9-2.2-7c0.8-0.1,1.7-0.1,2.5-0.1
	c4.4,0,7.7,1.4,10.1,4.1c2.4,2.8,3.7,6.5,3.5,10.2c0,2.4-0.5,4.8-1.3,7.1c-0.7,2.1-1.9,4-3.5,5.4c-3.9-2-8.3-3.1-12.8-3.1
	c-4,0-7,0.8-8.9,2.3c-1.9,1.3-3,3.5-3,5.8c0,2.2,1.1,4.1,2.9,5.3c2.1,1.5,4.6,2.3,7.2,2.2c5.7,0,11.1-2.2,15.2-6.2
	c4.6,3.1,7.3,8.4,7.2,13.9c0.1,5.1-2.1,10.1-6,13.4c-4,3.5-9.4,5.2-16.2,5.2c-3.6,0.1-7.2-0.7-10.4-2.4c-2.7-1.5-5-3.7-6.5-6.4
	c-1.3-2.3-2.1-4.8-2.2-7.4c0-1.5,0.3-3,0.8-4.4c0.2-0.4,0.3-0.8,0.2-1.2c0-0.7-0.3-1.4-0.8-1.9c-0.4-0.5-1.1-0.8-1.8-0.8
	c-2.6,0-3.9,2.9-3.9,8.8c0,5.5,2.4,10.7,6.5,14.3c4.3,4.1,10.2,6.1,17.7,6.1c8.7,0,15.5-2.2,20.4-6.5c4.8-4.1,7.5-10.1,7.3-16.4
	c0-7.4-3.1-13.4-9.3-18C917.1,181.2,918.6,178.9,919.6,176.3L919.6,176.3z"/>
<rect x="960" y="120" width="120" height="120"/>
<polygon class="st0" points="990.7,222.8 1049.3,222.8 1049.3,219.6 1032.4,219.6 1032.4,142.2 1049.3,142.2 1049.3,138.9 
	990.7,138.9 990.7,142.2 1007.6,142.2 1007.6,219.6 990.7,219.6 "/>
<rect x="600" y="240" width="120" height="120"/>
<path class="st0" d="M637.8,266.2c-22.6,0-37.8,15.2-37.8,37.8c0,22.3,15.2,37.4,37.5,37.4c15.1,0,26.6-6,32.7-16.3l-14.5-9.9
	c-3.7,5.8-9.6,8.6-17.1,8.6c-10.3,0-17.5-8.1-17.5-20s7.2-19.7,17.5-19.7c6.5-0.3,12.8,2.6,16.8,7.8l14.2-10.3
	C663.1,271.8,651.9,266.2,637.8,266.2z"/>
<rect x="600" y="840" width="120" height="120"/>
<path class="st0" d="M660.2,896.4c-17.2,0-27.1-9.4-27.1-25.1c0-16.9,10.9-26.3,28-26.3c19.6,0,28.8,12.6,28.5,25.6
	C690,885.1,679.1,896.4,660.2,896.4z M654.7,985.6c46.6,0,76.6-35,76.6-88.9c0-52-27.3-83.6-71.8-83.6c-37.5,0-61.9,22.2-61.9,58
	c0,32.9,20.8,54.6,54.4,54.6c19.6,0,34.1-7.5,42.3-19.8c0.7,30-13,49-42,49c-13,0-26.1-0.5-36.2-7.5L601.5,972
	C615.5,980.3,636.5,985.6,654.7,985.6L654.7,985.6z"/>
<rect x="600" y="960" width="120" height="120"/>
<path class="st0" d="M659.6,1024.3c18.1,0,28.5,9.9,28.5,26.5c0,17.8-11.5,27.7-29.5,27.7c-20.6,0-30.3-13.2-30-27
	C628.3,1036.2,639.8,1024.3,659.6,1024.3z M665.5,930.4c-49.1,0-80.7,36.9-80.7,93.6c0,54.7,28.8,88,75.6,88
	c39.4,0,65.1-23.4,65.1-61.1c0-34.6-21.9-57.5-57.2-57.5c-20.6,0-35.9,7.9-44.5,20.9c-0.8-31.5,13.7-51.6,44.2-51.6
	c13.7,0,27.5,4.1,38.2,11.5l15.3-29.5C706.7,936,684.6,930.4,665.5,930.4z"/>
<rect x="960" y="960" width="120" height="120"/>
<path class="st0" d="M1023.1,977.9c8.4,12.7,10.7,29.3,10.7,43.9c0,11.8-2.3,28.4-10.9,41.1h4.6c10-12.2,19.6-28.3,19.6-44.2
	c0-15.4-10.4-29.4-19.6-40.8H1023.1z M1001.4,996.9c-4.6-0.2-8.5,3.5-8.7,8.1c-0.2,4.6,3.5,8.5,8.1,8.7c4.6,0.2,8.5-3.5,8.7-8.1
	c0-0.1,0-0.2,0-0.3C1009.6,1000.7,1006,997,1001.4,996.9z M1001.4,1028.6c-4.6-0.2-8.5,3.5-8.7,8.1c-0.2,4.6,3.5,8.5,8.1,8.7
	c4.6,0.2,8.5-3.5,8.7-8.1c0-0.1,0-0.2,0-0.3C1009.6,1032.4,1006,1028.7,1001.4,1028.6z"/>
<rect x="600" y="480" class="st0" width="120" height="120"/>
<path d="M629.5,577.1h11.8v-41c0-11.9,7.1-18.9,18.5-18.9s18.8,7.1,18.8,18.9v41h11.8v-41c0-18.3-11.6-29.5-30.5-29.5
	s-30.4,11.2-30.4,29.5V577.1z"/>
<path class="st0" d="M360,0v120h-34.4c1-3.3,1.5-6.7,1.4-10.1c0-17-11.1-28.6-27-28.6c-16,0-27.1,11.6-27.1,28.6
	c0,3.4,0.5,6.8,1.5,10.1H240V0H360z"/>
<path d="M325.6,120c-3.5,11.5-13,18.7-25.5,18.7s-22.2-7.2-25.7-18.7L325.6,120z"/>
<path d="M300.1,64.8c-27.4,0-46.2,18.1-46.2,44.9c0,3.4,0.3,6.9,1,10.2c4.2,21,21.5,34.7,45.2,34.7s40.9-13.7,45.1-34.7
	c0.7-3.4,1-6.8,1-10.2C346.1,83,327.3,64.8,300.1,64.8z M325.6,120h-51.2c-1-3.3-1.4-6.7-1.4-10.1c0-17,11.1-28.6,27.1-28.6
	c15.8,0,26.9,11.7,26.9,28.6C327,113.3,326.5,116.7,325.6,120z"/>
<path class="st0" d="M327,109.9c0,3.4-0.5,6.8-1.4,10.1h-51.2c-1-3.3-1.4-6.7-1.4-10.1c0-17,11.1-28.6,27.1-28.6
	C315.9,81.3,327,93,327,109.9z"/>
<polygon points="333.3,34.9 317,27.6 303.2,53.2 318,53.2 "/>
<polygon points="305.9,34.9 289.6,27.6 275.8,53.2 290.6,53.2 "/>
<path class="st0" d="M455.6,85.1V71.9h-71.2v13.1H455.6z M455.6,50.1V37h-71.2v13.1H455.6z"/>
<path class="st0" d="M566.6,94.3V94c3.4-1.6,6.5-3.7,9.1-6.4c2.7-2.6,4.9-5.7,6.7-9c1.8-3.4,3.2-7.1,4.1-10.8
	c0.9-3.9,1.4-7.8,1.4-11.8c0.1-6.4-1.2-12.8-3.8-18.7c-4.8-11.2-13.9-20.1-25.2-24.8c-5.9-2.4-12.1-3.6-18.5-3.6
	c-6.5-0.1-13,1.2-19,3.6c-11.6,4.8-20.7,13.9-25.4,25.5c-2.5,6.1-3.7,12.6-3.7,19.2c-0.1,6.6,1.2,13.2,3.8,19.3
	c2.4,5.7,5.9,10.9,10.4,15.2c4.4,4.3,9.7,7.7,15.4,10c5.9,2.4,12.3,3.6,18.7,3.6h53.7V94.3H566.6z M540.1,79.4
	c-12.3,0-22.2-9.9-22.2-22.2S527.8,35,540.1,35s22.2,9.9,22.2,22.2c0,0,0,0,0,0C562.3,69.5,552.4,79.4,540.1,79.4z"/>
<rect x="480" class="st2" width="120" height="120"/>
<rect x="600" y="600" width="120" height="120"/>
<path class="st0" d="M690.5,626.8h-11.8v41c0,11.9-7.1,18.9-18.5,18.9s-18.8-7.1-18.8-18.9v-41h-11.8v41c0,18.3,11.6,29.5,30.5,29.5
	s30.4-11.2,30.4-29.5L690.5,626.8z"/>
<rect x="1560" y="960" width="120" height="120"/>
<polygon class="st0" points="1660.6,1034.3 1660.6,1009.6 1632.3,1009.6 1632.3,981.4 1607.6,981.4 1607.6,1009.6 1579.4,1009.6 
	1579.4,1034.3 1607.6,1034.3 1607.6,1062.5 1632.3,1062.5 1632.3,1034.3 "/>
<rect x="1440" y="960" width="120" height="120"/>
<path class="st1" d="M1517.2,986.8v1.5h-34.6v7.6h24.2v38.9c0,1.8-0.2,3.5-0.8,5.2c-0.7,2.2-2.1,4.2-4,5.5c-2,1.3-4.4,1.9-6.8,1.9
	c-5.4,0-11.2-3-16-8.2l1.1-1l1.3,0.8l-5.6,9l-1.3-0.8l1.2-1c2.3,2.9,5.3,5.4,8.6,7.1c3.4,1.7,7.1,2.5,10.8,2.5
	c2.9,0,5.8-0.4,8.6-1.4c3.6-1.2,6.6-3.6,8.6-6.8c2.2-3.8,3.3-8,3.1-12.4v-48.4H1517.2L1517.2,986.8h1.5v48.4c0,3.4-0.5,6.7-1.6,9.9
	c-1.5,4.2-4.3,7.8-8.1,10.2c-4.1,2.4-8.8,3.6-13.6,3.5c-4.2,0-8.4-0.9-12.2-2.8c-3.7-1.9-7-4.6-9.6-7.8l-0.7-0.8l7.2-11.6l1.3,1.4
	c4.4,4.8,9.6,7.2,13.8,7.2c1.3,0,2.5-0.2,3.7-0.6c1.5-0.6,2.7-1.6,3.5-3c0.9-1.8,1.4-3.9,1.3-5.9v-35.9h-24.2v-13.6h39.1v1.5H1517.2
	z"/>
<rect x="1320" y="960" width="120" height="120"/>
<path class="st0" d="M1331.9,1077.4c1.8,1.8,4.7,2.7,8.8,2.7h54.6c3.9,0,6.9-0.9,8.7-2.7s2.8-4.7,2.8-8.8v-18.3h-20.2v7.3
	c0,2.5-1.2,3.7-3.7,3.7h-27.8c-2.5,0-3.7-1.2-3.7-3.7v-28.6h39v-18.8h-39v-31.5h27.1c2.5,0,3.7,1.2,3.7,3.7v7.3h20.2v-18.3
	c0-7.7-3.8-11.5-11.5-11.5h-72.7v18.8h11v90C1329.2,1072.6,1330.1,1075.6,1331.9,1077.4z"/>
<rect x="600" y="360" width="120" height="120"/>
<path class="st0" d="M595.4,459.6H583v3.2h46.6v-3.2h-9.4v-49.3c0-8.1,7.6-22.3,18.9-22.3c6.7,0,8.5,5.4,8.5,16v55.6h-10.1v3.2h44.8
	v-3.2h-9.9v-49.3c0-8.1,7.6-22.3,18.9-22.3c6.7,0,8.5,5.4,8.5,16v55.6h-9.5v3.2H737v-3.2h-12.4v-50.2c0-19.4-8.3-27.9-23.4-27.9
	c-12.1,0-22.9,5.9-28.8,16.7c-3.4-11.3-12.6-16.7-23-16.7c-12,0-23.9,6.3-28.8,16.7h-0.4v-19.3c-3.8,4.7-17.1,4.7-24.5,4.7H583v3.2
	h12.4L595.4,459.6z"/>
<rect x="1080" y="480" class="st0" width="120" height="120"/>
<path d="M1140,573.3c18.2,0,33-14.8,33-33s-14.8-33-33-33s-33,14.8-33,33l0,0C1107,558.5,1121.8,573.3,1140,573.3"/>
<rect x="720" y="600" class="st0" width="120" height="120"/>
<path d="M780,726v-2.4c35.1,0,63.6-28.6,63.5-63.7s-28.6-63.6-63.7-63.5c-35.1,0-63.6,28.6-63.5,63.7c0,16.9,6.7,33,18.7,44.9
	c11.9,12,28.1,18.7,45,18.6v4.8c-37.8,0-68.4-30.6-68.5-68.4c0-37.8,30.6-68.4,68.4-68.5c37.8,0,68.4,30.6,68.5,68.4
	c0,37.8-30.6,68.4-68.4,68.4V726z"/>
<polyline points="844.8,671.9 799.2,671.9 799.2,667 844.8,667 "/>
<path d="M780,733.8v-0.6c40.4,0,73.2-32.8,73.2-73.2c0-40.4-32.8-73.2-73.2-73.2c-40.4,0-73.2,32.8-73.2,73.2
	c0,19.4,7.7,38,21.4,51.7c13.7,13.8,32.4,21.5,51.8,21.4v1.2c-41.1,0-74.4-33.3-74.4-74.4c0-41.1,33.3-74.4,74.4-74.4
	c41.1,0,74.4,33.3,74.4,74.4c0,0,0,0,0,0c0,41.1-33.3,74.4-74.4,74.4V733.8z"/>
<polyline points="844.2,662.2 799.2,662.2 799.2,661 844.2,661 "/>
<rect x="1077.6" y="360" width="120" height="120"/>
<path class="st0" d="M1086.8,476.5c0,18.7-1.2,23.1-9,25c-1.7,0.4-2.3,0.4-2.3,1.2v0.2c0,0.4,1,0.6,5.4,0.6c8.7,0,12.3-0.4,16.7-0.4
	c10.6,0,17.9,0.4,20.4,0.4s3.8-0.2,3.8-0.4v-0.4c0-0.8-2.7-1.5-4.8-2.1c-7.7-2.3-8.7-18.9-8.7-32.3v-21.9c10.6,10.4,19.4,19,41.8,19
	c28.7,0,53.9-27.7,53.9-57.3c0-36.2-28.5-57.3-53.9-57.3c-20.8,0-35.4,8.1-43.7,29.4h-0.3v-27.1c-8.4,3.4-17.2,5.6-26.2,6.7
	c-1.5,0.2-3.1,0.4-3.1,1.7c0,0.6,1.9,1,3.3,1.5c5.4,1.7,7.3,6.5,6.9,15.4L1086.8,476.5z M1107.2,408.2c0-43.7,22.7-52.1,36.4-52.1
	c13.5,0,36.2,8.3,36.2,52.1s-22.7,52.1-36.2,52.1C1129.9,460.2,1107.2,451.9,1107.2,408.2L1107.2,408.2z"/>
<rect x="960" y="600" width="240" height="240"/>
<path class="st0" d="M1209.8,813.2c-0.4-2-2.3-3.7-4.3-3.3c-4.5,0.9-7.6,14.4-20,16.8c-18,3.5-23.1-25.5-25.2-36.5l-22.9-117.8
	c-2.6-13.5-3.1-26.8-17.1-34.5c-13.5-8.2-32.5-7.2-47.9-4.2c-31.9,6.2-63.2,26.3-82.6,51.8c-7.9,9.8-16.6,26.5-14.1,39.5
	c1,5,3.7,5.5,7.6,4.7c6-1.2,15.7-7.2,20.2-10.7c7.3-5,8.4-12.5,10.5-20.7c6.5-27.7,18.8-47.2,49.2-53.1c30.9-6,35.9,14.2,40.7,38.7
	l4.3,22c3.7,19,3.3,19.6-13,31.5l-35.1,25.4c-24.8,18.8-67.2,48.8-60.3,84.2c4.9,25,31.1,34.9,54.6,30.3c43.4-8.4,68.5-52.7,73-53.5
	c7-1.3,16.3,33.1,40.7,28.3c13-2.5,24-12.4,32.6-21.4C1203.7,827.4,1210.8,818.7,1209.8,813.2z M1117.5,820.8
	c-9.6,14.3-25.1,25.6-42.5,29c-18.5,3.6-36.4-3.3-40.1-22.8c-4.7-24,12.3-40.7,29.8-54.5l40.9-31.8c1.4-0.8,3.6-2.8,5.1-3.1
	c5-1,5.8,11.3,6.2,13.3l5.8,29.9C1125.9,797.4,1127,806,1117.5,820.8z"/>
<path class="st0" d="M1082.4,560.4l-2.4,1.8l-49.3,37.7l-13.6,10.4c-2.8,1.6-9.9,7.6-13.4,8.3c-2,0.4-3.9-1.3-4.3-3.3
	c-0.8-4,6.4-9.5,8.1-11.4l3.6-4l53.1-58.2c4.2-4.8,9.6-11.2,15.7-15.1c2.6-1.7,5.3-2.9,8.1-3.5c6.8-1.2,13.4,3.2,14.9,10
	C1105.4,545.6,1090.9,553.6,1082.4,560.4z"/>
<rect x="960" y="840" class="st1" width="120" height="120"/>
<path d="M1012.1,957.5c1.8,1.8,4.7,2.7,8.6,2.7h20.5v-18.1h-6.8c-2.5,0-3.7-1.2-3.7-3.7v-53c0-4-0.9-6.9-2.7-8.7
	c-1.8-1.9-4.7-2.8-8.6-2.8h-20.5v18.3h6.8c2.5,0,3.7,1.2,3.7,3.7v52.8C1009.4,952.8,1010.3,955.8,1012.1,957.5z M1029,859.9v-19.8
	h-18.6v19.8H1029z"/>
<rect x="1080" y="240" width="120" height="119.7"/>
<path class="st0" d="M1141.9,274.6c6.4,0,12-4.1,12-10.9c0-6.5-5.7-10.1-11.7-10.1s-11.9,3.9-11.9,10.3
	C1130.3,270.5,1135.5,274.6,1141.9,274.6z M1152.1,283.4c0-1.3,0.3-4.8-1.9-4.8c-1.9,0-3.7,0.9-4.8,2.4c-4.1,4.4-11.5,7.6-17.2,9.1
	c-1.5,0.4-5.7,0.8-5.7,3.2s2.1,2.1,4,2.3c6.3,0.8,5.9,3.9,5.9,9.5v19.6c0,3.1,0,7.9-0.9,10.7c-0.7,1.9-4.8,2-6.7,2.3
	c-1.6,0.3-3.2,1.1-3.2,2.8c0,2.3,2.3,2.5,4,2.5c5.6,0,10.9-0.3,16.5-0.3s11.2,0.3,16.8,0.3c1.7,0,4.1-0.3,4.1-2.5
	c0-1.7-1.7-2.5-3.2-2.8c-2.4-0.4-6.5-0.3-7.2-2.3c-0.9-2.8-0.5-7.6-0.5-10.7L1152.1,283.4z"/>
<rect x="840" y="600" width="120" height="120"/>
<polyline class="st1" points="889,660.8 889,713.7 874.1,713.7 874.1,660.8 "/>
<path class="st1" d="M919.6,630.1c-16.9,0-30.6,13.7-30.6,30.6c0.2,4.1-3.1,7.5-7.2,7.7s-7.5-3.1-7.7-7.2c0-0.2,0-0.4,0-0.5
	c0-25.1,20.4-45.5,45.5-45.5c4.1-0.2,7.5,3.1,7.7,7.2s-3.1,7.5-7.2,7.7C920,630.1,919.8,630.1,919.6,630.1L919.6,630.1z"/>
<path d="M881.5,722.3c4.7,0,8.6-3.8,8.6-8.6s-3.8-8.6-8.6-8.6s-8.6,3.8-8.6,8.6c0,0,0,0,0,0C873,718.4,876.8,722.3,881.5,722.3
	C881.5,722.3,881.5,722.3,881.5,722.3"/>
<path d="M1080,240v286.6c-6.2,4-11.6,10.3-15.7,15.1l-53.1,58.2H720V240H1080z"/>
<polygon points="1030.7,600 1080,562.3 1080,600 "/>
<polygon class="st0" points="839.9,798.9 960.1,798.9 960.1,359.7 1115.7,359.7 1115.7,253.4 684.3,253.4 684.3,359.7 839.9,359.7 
	"/>
<rect x="720" y="719.6" width="240.4" height="240.4"/>
<g>
	<path class="st0" d="M916.1,747.4H759.6c-2.2,0-4,1.8-4,4v5c0,2.2,1.8,4,4,4h18.2v175.5h-18.3c-2.2,0-4,1.8-4,4v6.9h0.6
		c0.7,1.2,2,2,3.5,2h92.5c2.2,0,4-1.8,4-4v-4.9c0-2.2-1.8-4-4-4h-23.5v-86.5h8.7c7,0,13,0.9,17.7,2.7c4.1,1.4,7.7,4,10.3,7.5
		c1.8,2.4,3.1,5.1,4,8c1.4,5,2,10.3,1.9,15.5v5c0,1.1,0.5,2,1.2,2.8c0.8,0.7,1.8,1.1,2.8,1.1h5.1c1.1,0,2-0.5,2.8-1.2
		c0.7-0.8,1.1-1.8,1.1-2.8v-86.8c0-2.2-1.8-4-4-4h-4.9c-2.2,0-4,1.8-4,4v5c0.2,5.4-0.8,10.6-2.7,15.6c-1.5,3.7-4,7-7.2,9.3
		c-2.3,1.6-4.8,2.8-7.4,3.6c-4.4,1.3-9,1.9-13.6,1.8h-11.7v-76.1h23.7c17.2,0,31.5,4.4,41.4,12.8c8.6,7.1,13.5,17.5,13.4,28.6v4.4
		c0,2.2,1.8,4,4,4h4.9c2.2,0,4-1.8,4-4v-54.7C920.1,749.2,918.3,747.4,916.1,747.4z M911.2,806.1L911.2,806.1l4.9,0L911.2,806.1z"/>
</g>
<rect x="1080" y="840" width="120" height="120"/>
<path class="st0" d="M1179.6,926.8c0,5.2-1,9.5-3,12.9s-4.6,5.1-7.8,5.1c-5,0-7.6-6.3-7.6-18.8c0-4.6,0.8-14.1,2.3-28.5
	C1174.2,905,1179.6,914.8,1179.6,926.8z M1105.3,917.5c-6.7-1.9-10-5.5-10-10.8c0-6.3,4.8-11.3,14.3-15
	C1107.3,900.1,1105.9,908.7,1105.3,917.5L1105.3,917.5z M1130.8,881.7c-3.7,0-7.4,0.3-11,0.8c7.1-20.2,15.4-30.3,25-30.3
	c4.4,0,7.6,2,9.7,6.1c2,4.1,3.1,10.4,3.1,18.8c0,3.1-0.2,6.3-0.5,9.5C1148.7,883.3,1139.8,881.6,1130.8,881.7L1130.8,881.7z
	 M1164.6,877.4c0-11.2-1.7-19.3-5.1-24.3c-3.4-5-8.3-7.5-14.7-7.5c-6.8,0-13.1,3.3-18.7,9.9c-5.7,6.6-10.5,16.1-14.4,28.6
	c-7.6,2.1-13.4,5.1-17.4,9c-4.1,3.9-6.1,8.4-6.1,13.5c-0.1,4.1,1.5,8.1,4.3,11c2.9,3.1,7.1,5.2,12.7,6.4v1.1c0,7.5,0.8,13.5,2.2,18
	s3.4,6.7,5.6,6.7c1,0,1.9-0.3,2.6-1c0.7-0.6,1.1-1.6,1.1-2.5c-0.2-0.8-0.5-1.6-1-2.2c-2.4-3.3-3.6-9.7-3.6-19.2h1
	c7.8,0,14.3-1.9,19.5-5.6s7.9-8.5,7.8-14.2c0-0.9-0.3-1.9-1-2.5c-0.7-0.7-1.6-1-2.5-1c-2.3,0-3.4,1.2-3.4,3.5c0,3.8-2,7-5.9,9.5
	c-4.3,2.6-9.3,3.9-14.4,3.8h-1c0.6-9.7,2.2-19.3,4.8-28.7c4.5-0.7,9-1.1,13.5-1.1c9.7,0,18.3,1.8,25.8,5.3
	c-1.6,17.1-2.4,27.9-2.4,32.2c0,16.9,4.8,25.3,14.3,25.3c4.8,0,9.1-2.1,12.7-6.2c3.7-4.2,5.5-10.2,5.5-18.2c0-7.3-2-14.5-5.8-20.7
	c-4.2-6.7-10-12.2-16.9-16C1164.4,885.9,1164.6,881.6,1164.6,877.4L1164.6,877.4z"/>
<path class="st0" d="M196.5,11.1c2.3,0,3.4,1.6,3.4,4.7c0,3.3-2,7.2-6,11.6s-9.9,8.1-17.8,10.7C183.6,20.1,190.4,11.1,196.5,11.1z
	 M198.6,32.4c5.7-6,8.5-11.6,8.5-16.9c0-3.5-0.9-6.2-2.7-8.1c-1.8-1.9-4.3-2.9-7.6-2.9c-5.3,0-10.4,3.1-15.3,9.3
	c-4.9,6.2-9.4,15-13.4,26.4c-3.4,0.8-6.8,1.3-10.3,1.3c-2.6,0-3.9,1-3.9,3.1c0,2.5,1.3,3.7,3.9,3.7c2.6,0,5.2-0.1,7.7-0.5
	c-4.2,14-6.3,26.5-6.3,37.5c0,16.7,6,25,17.9,25c6.3,0,12.1-3.8,17.4-11.4c5.2-7.3,7.9-16,7.9-25c0-6.2-1.4-11.2-4.1-14.9
	c-2.5-3.6-6.7-5.7-11.1-5.5c-4.2,0-7.6,0.9-10.2,2.7c-2.6,1.8-3.8,3.5-3.8,5c0,1.9,1.6,3.5,3.5,3.5c1,0,2-0.4,2.7-1.1
	c1.9-2,4.6-3.1,7.4-3c2.6,0,4.9,1.3,6.2,3.6c1.5,2.4,2.2,5.6,2.2,9.8c0,7.4-2,14.7-6,21c-4,6.4-8,9.6-12,9.6c-7.3,0-11-6.4-11-19.2
	c0-12.3,2.5-25.5,7.4-39.6C184.6,42.8,192.9,38.4,198.6,32.4L198.6,32.4z"/>
<path class="st0" d="M45.8,2.3C44.9,1.5,44,0.7,43.1,0H6.9C5.9,0.7,5.1,1.5,4.2,2.3C2.6,3.8,1.2,5.5,0,7.4v30.2
	c1.2,1.8,2.6,3.5,4.2,5C9.7,48,17.2,51,25,50.8c7.8,0.1,15.3-2.8,20.9-8.3c5.6-5.2,8.7-12.5,8.6-20.2C54.6,14.7,51.4,7.4,45.8,2.3z
	 M33.5,30.8c-2.3,2.2-5.3,3.5-8.5,3.4c-6.5,0.1-11.8-5-11.9-11.5c0-0.1,0-0.3,0-0.4c-0.1-3.1,1.2-6.2,3.4-8.4
	c2.2-2.3,5.3-3.6,8.5-3.5c3.2,0,6.3,1.2,8.5,3.5c2.3,2.2,3.5,5.2,3.5,8.4C37.1,25.6,35.8,28.6,33.5,30.8z M95.3,0L3.2,120l-3.1,4
	h21.1l3.1-4L116.3,0H95.3z M115.6,77.8c-5.5-5.5-13-8.5-20.7-8.4c-7.8-0.2-15.3,2.9-20.8,8.4c-5.5,5.2-8.6,12.5-8.6,20.1
	c-0.1,7.6,3,14.8,8.6,20c0.8,0.8,1.6,1.5,2.5,2.1c5.2,4.1,11.7,6.3,18.3,6.2c6.6,0.1,13.1-2,18.3-6.2c0.9-0.7,1.7-1.4,2.5-2.1
	c11-10.5,11.5-28,0.9-39.1C116.3,78.4,115.9,78.1,115.6,77.8z M86.4,89.3c2.2-2.3,5.3-3.6,8.5-3.5c3.2-0.1,6.3,1.2,8.6,3.5
	c4.7,4.6,4.7,12.1,0.1,16.8c0,0,0,0-0.1,0.1c-2.3,2.3-5.4,3.5-8.6,3.4c-6.6,0-11.9-5.4-11.9-12C83,94.5,84.2,91.5,86.4,89.3z"/>
<rect x="1560" width="120" height="120"/>
<path class="st0" d="M1626.9,88.2c-2.6,7.8-5.3,11.6-8.2,11.6c-1.9,0-2.9-2.8-2.9-8.4c0-5.3,1.3-11.7,3.8-19.3
	c2.7-7.9,6.2-15.5,10.5-22.7c0.6,3.8,0.9,7.7,0.8,11.6v1.2C1630.9,71,1629.6,79.8,1626.9,88.2z M1587.7,87.3
	c-3.3,8.6-7,12.9-11.2,12.9c-2.1,0-3.7-1.1-4.8-3.3c-1.2-2.7-1.8-5.6-1.6-8.6c0-7.2,2-15.6,5.9-25.3c3.7-9.4,8.9-18.1,15.4-25.8
	c0.8,6.4,1.2,12.9,1.2,19.4C1592.6,68.5,1590.9,78.7,1587.7,87.3z M1574.2,9.6c-0.6,0.5-0.9,1.3-0.9,2.1c0,1.5,0.8,2.4,2.5,2.8
	c6.8,1.3,11.5,6.9,14.1,16.8c-7.5,6.9-13.7,16-18.5,27.4c-4.8,11.4-7.2,21.3-7.2,29.7c0,5.4,1.1,9.6,3.3,12.7c2,2.9,5.3,4.7,8.8,4.6
	c6.4,0,11.6-4.8,15.9-14.3c4.2-9.5,6.3-21.1,6.4-34.7c0-9.6-0.7-17.4-2.1-23.5c5-4.7,10.1-7,15.2-7c3.9,0,7.7,1.5,10.5,4.2
	c2.9,2.8,5,6.8,6.2,12c-5.6,7.6-10,15.9-13.2,24.7c-3.5,9.4-5.2,17.5-5.2,24.4c0,9.1,2.9,13.7,8.7,13.7c5.3,0,9.7-4.3,13.1-13
	s5.1-19.1,5.1-31.3c0.1-5.8-0.6-11.7-2.1-17.3c7.3-10.1,14.1-15.2,20.4-15.2c4.8,0,8.5,2.5,11.1,7.4s3.8,11.5,3.8,19.8
	c0,8.4-1.1,16.8-3.2,25c-2.1,8.4-4.8,14.9-8,19.4c-0.3,0.5-0.5,1.1-0.4,1.7c0,2,0.9,2.9,2.8,2.9c0.9-0.1,1.7-0.4,2.4-0.9
	c0.9-0.6,2.4-3.5,4.7-8.8c2.5-6,4.4-12.2,5.6-18.5c1.4-6.8,2.1-13.8,2.1-20.8c0-10.2-1.8-18.2-5.4-24s-8.7-8.6-15.2-8.6
	c-7.6,0-15.2,4.6-22.8,13.8c-1.2-4.6-3.9-8.7-7.5-11.8c-3.6-3-8.3-4.6-13-4.5c-5.7,0-11.4,2.1-17.2,6.4
	c-3.6-10.7-9.5-16.7-17.8-18.1h-0.7C1575.5,8.8,1574.8,9.1,1574.2,9.6z"/>
<rect x="1200" y="240" width="240" height="235.6"/>
<path class="st0" d="M1307.5,462.2c0,2,0.8,3.9,2.3,5.2c1.6,1.5,3.8,2.3,6,2.2c1.8,0,3.5-0.6,4.8-1.8c1.4-1.2,2.4-3,2.7-4.8
	l1.8-10.1v-0.6c0-1.9-0.7-3.7-1.9-5.1c-1.2-1.5-2.9-2.4-4.8-2.3h-1.6c-1.2,0-2.4,0.2-3.5,0.7c-1,0.4-1.9,1.1-2.7,2
	c-0.7,0.9-1.2,1.9-1.5,3.1c-0.8,3.4-1.3,6.8-1.6,10.3L1307.5,462.2z M1312.9,313.3c-2.2,2.8-4.8,4.3-7.7,4.3
	c-3.5,0.1-6.9-1.4-9.3-4.1c-2.4-2.7-3.6-6.6-3.6-11.7c0-9.5,3.4-17.2,10.3-23.2c9,5,13.5,12.8,13.5,23.2
	C1316.2,306.6,1315.1,310.4,1312.9,313.3z M1289.5,264.4c-10,0-18.6,2.4-25.8,7.2c-7.2,4.8-10.9,9.5-10.9,14.1
	c0,4.5,2.5,6.8,7.4,6.8c2.3,0,4.4-1.7,6.4-5.2c1.5-2.5,4.2-4.8,8-6.8c3.7-2.1,7.8-3.1,12-3.1h1.6c-6.7,6.5-10,14.7-10,24.5
	c0,8.8,2.6,15.8,7.8,21.1c4.8,5.1,11.6,8,18.6,7.9c6.9,0,12.9-2.7,18-8.1c5.1-5.4,7.7-12.4,7.7-20.9c0-13.3-5.2-23.1-15.5-29.3
	c3.8-0.9,7.7-1.3,11.6-1.3c12.3,0,22.1,3.1,29.2,9.4c7,5.9,10.9,14.6,10.7,23.8c0.1,9.2-2.2,18.4-6.6,26.5
	c-4.4,8.1-12.8,16.7-25.3,25.7c-13.1,9.5-21.8,17.6-26.1,24.4c-4.2,6.3-6.4,13.8-6.4,21.3c0,6.8,1.8,13.5,5.2,19.3c3.5,6,7,9,10.5,9
	c3.9,0,7.1-3.2,7.1-7.1c-0.1-2-0.9-3.9-2.2-5.5c-1.4-1.1-2.8-3.1-4.3-6.1c-1.5-3-2.2-6.3-2.2-9.7c0.1-5.5,1.8-10.9,5-15.5
	c3.3-4.9,9.6-10.7,18.8-17.4c16.4-11.8,27.3-22.7,32.8-32.7c5.4-9.8,8.2-20.8,8.1-32c0-13.9-4.8-25-14.3-33.6
	c-9.6-8.5-22.4-12.8-38.5-12.8c-9.9,0-19.7,2.5-28.3,7.4C1296.4,264.7,1292.9,264.3,1289.5,264.4L1289.5,264.4z"/>
<rect x="360" y="720" width="240" height="240"/>
<path class="st0" d="M498.9,784.9c18,0,32.9-13.4,32.9-31.4c0-14.5-11.5-25.6-26-25.6c-16.4,0-32.5,13-32.5,30.6
	C473.3,773,484,784.9,498.9,784.9z M417.8,962.4c8.4,0,30.2-14.5,36.3-19.5c19.1-14.9,37.5-36,37.5-61.6c0-17.6-13-31-31-31
	c-15.3,0-29.5,13.4-29.5,29.1c0,13.8,8,20.7,20.7,20.7c5,0,9.6,1.5,9.6,7.3c0,14.2-24.1,33.3-34.4,38.2c-3.8,1.9-14.9,5.7-14.9,11.5
	C412.2,960.1,414.7,962.5,417.8,962.4C417.8,962.4,417.8,962.4,417.8,962.4z"/>
<rect x="-1" y="238.1" width="601.9" height="601.9"/>
<rect x="720" y="960" width="120" height="120"/>
<path class="st1" d="M738.2,972.8c5.1,0.9,10,7.2,13.7,14.6l17.3,35c3.1,6.2,5.2,12.3,5.2,16.5c0,5.6-3.6,10.7-9.6,10.7
	c-3.9,0-9-2.7-9-7.2l-2-1.1l-8.3,22.5c21.2-1.1,25.7-5,37.2-27.3l23.6-45.5c3.3-6.6,8.2-14.9,15.7-18.1v-2c-4.7,0-10,0.5-14.2,0.5
	s-9.1-0.5-13.8-0.5v2c4.4,1.3,8.3,4.4,8.3,9.2c-0.1,2.4-0.7,4.7-1.7,6.8l-12.1,26.4l-15.7-28.7c-1.6-2.9-2.4-5.4-2.4-6.4
	c0-4.7,4.4-6.7,8.4-7.4v-2c-6.7,0-14.5,0.5-20.6,0.5s-13.1-0.5-20-0.5L738.2,972.8z"/>
<rect x="840" y="960" width="120" height="120"/>
<path class="st1" d="M930.8,1007.2c-3.2-7.9-9.5-14.2-17.4-17.3c-8.6-3.3-18.2-3.3-26.8,0c-7.9,3.1-14.2,9.4-17.4,17.3
	c-3.3,8.4-3.3,17.8,0,26.2c3.2,7.9,9.5,14.2,17.4,17.3c8.6,3.3,18.2,3.3,26.8,0c7.9-3.1,14.2-9.4,17.4-17.3
	C934.1,1025,934.1,1015.6,930.8,1007.2L930.8,1007.2z M921.9,1030.1c-1,2.9-2.7,5.6-4.8,7.9c-2.1,2.3-4.6,4.1-7.4,5.3
	c-6.3,2.6-13.4,2.6-19.7,0c-2.8-1.2-5.3-3-7.4-5.3c-2.1-2.3-3.6-5-4.7-7.9c-2.2-6.3-2.2-13.2,0-19.6c1-2.9,2.6-5.6,4.7-7.9
	c2.1-2.3,4.6-4.1,7.4-5.3c6.3-2.6,13.4-2.6,19.7,0c2.8,1.2,5.3,3,7.4,5.3c2.1,2.3,3.7,5,4.8,7.9
	C924.2,1016.9,924.2,1023.8,921.9,1030.1z"/>
<rect x="600" y="720" width="120" height="120"/>
<path class="st0" d="M610.1,827.1c-1.4-1.7-2.1-3.9-2-6.1c0-6.4,2.9-12.2,8.7-17.4c5.8-5.2,15.1-10,27.8-14.6
	c-3.2,12.6-7.4,22.5-12.7,29.7c-5.3,7.2-10.8,10.7-16.6,10.7C613.3,829.5,611.4,828.6,610.1,827.1z M711.1,736.3
	c2.9,0,4.3,1.7,4.3,5.2c0,6.7-7.2,13.9-21.6,21.6c1.7-8.7,4.1-15.3,7.2-19.9c3.1-4.6,6.3-6.9,9.6-6.8H711.1z M614.4,753
	c-1-1.1-1.6-2.5-1.5-4c0-3.4,1.8-6.7,5.4-10s8.5-5,14.5-5c0.9,0,1.8,0.1,2.7,0.3c-0.9,6.1-2.9,11-6,14.7c-2.7,3.5-7,5.5-11.4,5.5
	C616.8,754.5,615.4,754,614.4,753z M655.6,755.7c0-13.8-4.4-22.7-13.2-26.4c-0.5-5.5-2-9.8-4.3-12.9c-2.3-3.1-4.3-4.7-6-4.7
	c-1,0-1.9,0.3-2.6,1c-0.7,0.6-1.1,1.6-1.1,2.5c0,1.2,0.6,2.3,1.4,3.1c2.6,1.7,4.4,4.7,5.3,9l-2.6-0.2c-7.7,0-14.1,2.3-19.2,6.9
	c-5.1,4.6-7.6,9.6-7.7,15c-0.1,3.3,1.1,6.6,3.4,9c2.3,2.3,5.5,3.5,8.8,3.4c5.6,0,10.7-2.3,15.4-6.8c4.8-4.8,7.9-10.9,8.9-17.6
	c4.1,3.3,6.1,9.5,6.1,18.7c0,8.6-0.7,17.3-2.1,25.8c-16.4,5.8-28.1,11.8-35,18c-6.9,6.2-10.4,13.4-10.4,21.5
	c-0.2,4,1.4,7.9,4.2,10.7c2.8,2.7,6.5,4.1,10.3,4c8.3,0,15.8-4.3,22.4-13s11.5-20.8,14.8-36.2l32.7-12.1c-0.3,3.4-0.5,7.1-0.5,11.1
	c0,15.9,3.7,29,11.1,39.1c7.4,10.1,15.9,15.2,25.4,15.2c0.9,0,1.9-0.4,2.5-1.1c0.7-0.7,1-1.6,1-2.6c0-1.4-1.2-2.4-3.5-2.7
	c-9.6-1.4-16.9-6.9-21.9-16.4c-5.1-9.6-7.6-20.4-7.5-31.2c0-4.7,0.3-9.5,1-14.2c19.9-9.7,29.8-19.7,29.8-30c0.1-3.2-1-6.3-3.1-8.7
	c-2-2.2-4.9-3.3-8.5-3.3c-5.7,0-10.9,3.4-15.5,10.2s-7.8,15.9-9.5,27.4c-6.7,3-17.4,6.9-32,11.8C655,771,655.5,763.4,655.6,755.7z"
	/>
<rect x="1080" y="960" width="120" height="120"/>
<path class="st0" d="M1136.5,1002.1v-8.9h-6.8v8.9H1136.5z M1150.3,1002.1v-8.9h-6.8v8.9H1150.3z M1131.7,1019.3
	c2.1-2.3,5.1-3.5,8.2-3.5c3.1,0,6.1,1.2,8.3,3.5c4.6,5,4.6,12.6,0,17.6c-4.6,4.6-12,4.6-16.5,0c0,0,0,0,0,0
	C1127.2,1031.9,1127.2,1024.3,1131.7,1019.3L1131.7,1019.3z M1139.9,1048.6c5.7,0.2,11.2-1.9,15.3-5.8c8.1-7.9,8.3-20.9,0.4-29.1
	c-0.1-0.1-0.2-0.2-0.4-0.4c-8.7-7.7-21.8-7.7-30.6,0c-8.1,8-8.3,21-0.3,29.1c0.1,0.1,0.2,0.2,0.3,0.3
	C1128.8,1046.6,1134.3,1048.7,1139.9,1048.6L1139.9,1048.6z"/>
<rect x="1200" y="960" width="120" height="120"/>
<path class="st0" d="M1296.1,1006.5c0-20.2-19.2-26.7-37.4-26.7c-14.2,0-24.6,1.1-37.8,8l4.2,14.4c0.3,1,0.5,1.8,0.8,1.8
	s0.6-1.3,1.3-2.7c5.8-14.1,14.4-18.4,29.1-18.4c16.2,0,23.4,10.9,23.4,26.2v5.3h-9.1c-16.8,0-53.9,2.4-53.9,26.7
	c0,19,17.1,26.7,33.8,26.7c14.1,0,23.4-5.8,29.6-18.7h0.3c0.3,5.6,1.6,11.1,3.8,16.3h17.3c1.1,0,2.1-0.2,2.1-0.6s-0.6-0.5-1.6-1
	c-5-2.2-5.8-7-5.8-12.3L1296.1,1006.5z M1279.6,1028.6c0,15.4-5.8,35.2-24.6,35.2c-11.4,0-19.8-8.5-19.8-20.2
	c0-21.1,17.8-26.2,35-26.2h9.4L1279.6,1028.6z"/>
<rect x="1200" y="840" width="120" height="120"/>
<path class="st0" d="M1251.2,906.6c0-2.3,0.1-2.2,1.9-3.6c0.3-0.2,0.9-0.9,1.4-0.9s1.5,1.3,1.8,1.7l5.7,7.5c0.4,0.6,1.5,1.8,1.5,2.6
	c0,1.3-1.5,1.2-2.4,1.2c-0.6,0-1,0.4-1,1c0,0.5,0.6,0.5,1,0.5c1.9,0,3.9-0.2,5.7-0.2s4.1,0.2,6,0.2c0.4,0,1,0.1,1-0.6
	s-0.7-0.9-1.3-0.9c-2.3,0-3.1-1.5-4.5-3.1l-9.3-11.8c-0.3-0.2-0.4-0.5-0.4-0.8c0-0.5,1.2-1.3,1.5-1.7l4.7-3.7
	c2.4-1.8,3.9-3.3,7.1-3.5c0.6,0,1.2-0.1,1.2-0.7s-0.6-0.5-1-0.5H1261c-0.5,0-1.4-0.1-1.4,0.5c0,1,1.7,0.8,2.3,0.9s2,0,2,1
	s-1.8,2.3-2.5,2.9l-9.1,7.2c-0.1,0.1-0.5,0.4-0.7,0.4c-0.4,0-0.4-1-0.4-1.3v-26.8c0-0.5,0.1-1-0.6-1c-0.5,0.1-0.9,0.3-1.3,0.7
	c-1.7,1-3.6,1.6-5.5,1.9c-0.4,0.1-0.9,0.2-0.9,0.7c0,0.8,1,0.6,1.6,0.6c3,0,2.4,2.7,2.4,5v28c0,2.7,0.6,4.7-2.8,5
	c-0.7,0.1-1.7-0.1-1.7,0.9c0,0.5,0.4,0.6,0.9,0.6c1.9,0,3.9-0.2,5.8-0.2s3.8,0.2,5.8,0.2c0.4,0,0.7-0.2,0.7-0.7
	c0-0.8-1.1-0.7-1.7-0.8c-3.3-0.3-2.8-2.4-2.8-5L1251.2,906.6z"/>
<rect x="1200" y="600" width="120" height="120"/>
<path class="st1" d="M1234.3,695.6h13.2v-71.2h-13.2V695.6z M1269.2,695.6h13.1v-71.2h-13.1V695.6z"/>
<rect x="1237.6" y="653.5" class="st1" width="42" height="13"/>
<rect x="1440" y="480" width="120" height="120"/>
<path class="st0" d="M1519.6,605.8l38-95.6c1.2-3,3.6-4.5,7.3-4.5h3.2v-26.9h-17.7c-5.4,0-9.5,0.9-12.5,2.7c-2.9,1.8-5.3,4.9-7,9.2
	l-25,66.7c-2,5.9-3.6,12-4.7,18.2h-0.5l-4.9-18.2l-25-66.7c-1.7-4.3-4.1-7.4-7-9.2c-3-1.9-7.1-2.7-12.5-2.7h-19v26.9h2.9
	c3.6,0,6.1,1.5,7.3,4.5l38,95.6H1519.6z"/>
<rect x="1200" y="720" width="120" height="120"/>
<path class="st0" d="M1255.8,768.7h4.8c1.4-0.1,2.8,0.4,3.8,1.4c1,1.1,1.5,2.5,1.4,4c0.1,1.5-0.4,2.9-1.4,4c-1,1-2.5,1.5-3.9,1.5
	h-4.7L1255.8,768.7z M1255.8,799.1v-13.5h2.8c1.3-0.1,2.6,0.5,3.3,1.6l4.9,9.2c0.4,0.9,1.1,1.6,2,2.2c1,0.4,2.1,0.6,3.2,0.5h4.8V793
	h-1.1c-0.9,0.1-1.8-0.4-2.2-1.2l-3.2-6c-0.5-1-1.3-1.7-2.3-2v-0.2c1.8-0.5,3.3-1.6,4.4-3.1c1.4-1.8,2.1-4.1,2-6.4
	c0.1-3.1-1.1-6.2-3.3-8.4c-2.4-2.2-5.5-3.3-8.7-3.2h-18.4v6.2h3.2v30.4L1255.8,799.1z M1259.8,752.5c7.3-0.1,14.4,2.9,19.3,8.2
	c10.5,11.5,10.5,29.1,0,40.5c-5,5.4-12,8.4-19.3,8.3c-7.2,0.1-14.2-2.9-19-8.3c-10.3-11.5-10.3-29,0-40.5
	C1245.7,755.4,1252.6,752.4,1259.8,752.5L1259.8,752.5z M1259.8,817.7c9.6,0.2,18.9-3.7,25.5-10.8c14-14.4,14-37.4,0-51.8
	c-6.6-7-15.9-10.9-25.5-10.7c-9.5-0.1-18.7,3.7-25.2,10.7c-13.9,14.5-13.9,37.4,0,51.8C1241.1,814,1250.3,817.9,1259.8,817.7
	L1259.8,817.7z"/>
<path class="st2" d="M0,0v1080h1920V0H0z M274.4,120c-1-3.3-1.4-6.7-1.4-10.1c0-17,11.1-28.6,27.1-28.6c15.8,0,26.9,11.7,26.9,28.6
	c0,3.4-0.5,6.8-1.4,10.1H274.4z"/>
<path class="st0" d="M525.7,119.7v15.8h28.7c16.8,1,27.7,3,33.6,7.9c6.9,5.9,9.9,11.9,9.9,19.8c0,6-1,12.1-2.9,17.8
	c-2,6.9-5,15.8-8.9,26.7l-171.2,476L305,351.2l58.4-161.3c7.9-22.8,16.8-36.6,27.7-43.5c11.9-7.9,28.7-10.9,50.5-10.9h26.7v-15.8
	H65.6v15.8H125l117.7,340.4l-76.2,207.8L0.1,198.4v305.8l79.1,227L117.1,840h12.9l39.8-108.8l83.9-229.6l75.9,229.6L365.4,840h12.9
	l39-108.8l189.6-529.4c1.5-4.1,3-7.9,4.5-11.6c7.7-18.5,16.3-31.6,26.2-39.9c12.8-9.9,30.7-14.8,55.4-14.8h8.9v-15.8H525.7z
	 M227.9,135.5H310c17.8,1,27.7,3,31.7,6.9c5.9,3.9,7.9,9.9,7.9,17.8c-1,5-1,10.9-2,17.8c-1.9,7.7-4.2,15.3-6.9,22.8l-47.5,127.6
	L227.9,135.5z M31,119.7H0.1v15.8H31V119.7z"/>
</svg>
