<svg xmlns="http://www.w3.org/2000/svg" viewBox="0 0 60 26.47"><g id="Layer_2" data-name="Layer 2"><g id="Layer_1-2" data-name="Layer 1"><path d="M59.26,13.27v0c0-.9-.51-1.35-1.51-1.35H1.55a1.78,1.78,0,0,0-1.14.33,1.28,1.28,0,0,0-.41,1v0c0,.87.52,1.3,1.55,1.3h56.2c1,0,1.51-.43,1.51-1.3"/><path d="M59.51,14.16l0,0a1.27,1.27,0,0,0-.11-2L47.89.57a1.79,1.79,0,0,0-1-.57,1.31,1.31,0,0,0-1,.43l0,0c-.62.62-.56,1.29.17,2L57.52,14c.71.71,1.38.76,2,.15"/><path d="M59.57,12.36l0,0c-.63-.64-1.31-.6-2,.11L46,24a1.79,1.79,0,0,0-.57,1,1.27,1.27,0,0,0,.43,1l0,0c.62.62,1.29.56,2-.17L59.43,14.35c.7-.71.76-1.38.14-2"/></g></g></svg>