<?xml version="1.0" encoding="utf-8"?>
<!-- Generator: Adobe Illustrator 26.1.0, SVG Export Plug-In . SVG Version: 6.00 Build 0)  -->
<svg version="1.1" id="Layer_2_00000139253918418474231250000016859014656631316608_"
	 xmlns="http://www.w3.org/2000/svg" xmlns:xlink="http://www.w3.org/1999/xlink" x="0px" y="0px" viewBox="0 0 1420 900"
	 style="enable-background:new 0 0 1420 900;" xml:space="preserve">
<style type="text/css">
	.st0{fill:#E0E0DD;}
	.st1{fill:#F4F4F4;}
</style>
<path class="st0" d="M1420,0v900H109.1c0-42.8,15.7-63.8,32.3-86c17.2-23,35-46.8,35-94s-17.8-71-35-94
	c-16.6-22.2-32.3-43.2-32.3-86s15.7-63.8,32.3-86c17.2-23,35-46.8,35-94s-17.8-71-35-94c-16.6-22.2-32.3-43.2-32.3-86
	s15.7-63.8,32.3-86c17.2-23,35-46.8,35-94H1420z"/>
<path class="st1" d="M141.9,900h-13.5c0-47.2,17.8-71,35-94c16.6-22.2,32.3-43.2,32.3-86s-15.7-63.8-32.3-86c-17.2-23-35-46.8-35-94
	s17.8-71,35-94c16.6-22.2,32.3-43.2,32.3-86s-15.7-63.8-32.3-86c-17.2-23-35-46.8-35-94s17.8-71,35-94c16.6-22.2,32.3-43.2,32.3-86
	h13.5c0,47.2-17.8,71-35,94c-16.6,22.2-32.3,43.2-32.3,86s15.7,63.8,32.3,86c17.2,23,35,46.8,35,94s-17.8,71-35,94
	c-16.6,22.2-32.3,43.2-32.3,86s15.7,63.8,32.3,86c17.2,23,35,46.8,35,94s-17.8,71-35,94C157.5,836.2,141.9,857.2,141.9,900z"/>
<path class="st1" d="M141.4,454c-16.6,22.2-32.3,43.2-32.3,86s15.7,63.8,32.3,86c17.2,23,35,46.8,35,94s-17.8,71-35,94
	c-16.6,22.2-32.3,43.2-32.3,86H-1.8V0h178.2c0,47.2-17.8,71-35,94c-16.6,22.2-32.3,43.2-32.3,86s15.7,63.8,32.3,86
	c17.2,23,35,46.8,35,94S158.6,431,141.4,454z"/>
<path class="st1" d="M207.4,900H194c0-47.2,17.8-71,35-94c16.6-22.2,32.3-43.2,32.3-86s-15.7-63.8-32.3-86c-17.2-23-35-46.8-35-94
	s17.8-71,35-94c16.6-22.2,32.3-43.2,32.3-86s-15.7-63.8-32.3-86c-17.2-23-35-46.8-35-94s17.8-71,35-94c16.6-22.2,32.3-43.2,32.3-86
	h13.5c0,47.2-17.8,71-35,94c-16.6,22.2-32.3,43.2-32.3,86s15.7,63.8,32.3,86c17.2,23,35,46.8,35,94s-17.8,71-35,94
	c-16.6,22.2-32.3,43.2-32.3,86s15.7,63.8,32.3,86c17.2,23,35,46.8,35,94s-17.8,71-35,94C223.1,836.2,207.4,857.2,207.4,900z"/>
<path class="st1" d="M240.1,900h-13.5c0-47.2,17.8-71,35-94c16.6-22.2,32.3-43.2,32.3-86s-15.7-63.8-32.3-86c-17.2-23-35-46.8-35-94
	s17.8-71,35-94c16.6-22.2,32.3-43.2,32.3-86s-15.7-63.8-32.3-86c-17.2-23-35-46.8-35-94s17.8-71,35-94C278.3,63.8,294,42.8,294,0
	h13.5c0,47.2-17.8,71-35,94c-16.6,22.2-32.3,43.2-32.3,86s15.7,63.8,32.3,86c17.2,23,35,46.8,35,94s-17.8,71-35,94
	c-16.6,22.2-32.3,43.2-32.3,86s15.7,63.8,32.3,86c17.2,23,35,46.8,35,94s-17.8,71-35,94C255.8,836.2,240.1,857.2,240.1,900z"/>
<path class="st1" d="M272.9,900h-13.4c0-47.2,17.8-71,35-94c16.6-22.2,32.3-43.2,32.3-86s-15.7-63.8-32.3-86c-17.2-23-35-46.8-35-94
	s17.8-71,35-94c16.6-22.2,32.3-43.2,32.3-86s-15.7-63.8-32.3-86c-17.2-23-35-46.8-35-94s17.8-71,35-94c16.6-22.2,32.3-43.2,32.3-86
	h13.5c0,47.2-17.8,71-35,94c-16.6,22.2-32.3,43.2-32.3,86s15.7,63.8,32.3,86c17.2,23,35,46.8,35,94s-17.8,71-35,94
	c-16.6,22.2-32.3,43.2-32.3,86s15.7,63.8,32.3,86c17.2,23,35,46.8,35,94s-17.8,71-35,94C288.6,836.2,272.9,857.2,272.9,900z"/>
<path class="st1" d="M174.6,900h-13.5c0-47.2,17.8-71,35-94c16.6-22.2,32.3-43.2,32.3-86s-15.7-63.8-32.3-86c-17.2-23-35-46.8-35-94
	s17.8-71,35-94c16.6-22.2,32.3-43.2,32.3-86s-15.7-63.8-32.3-86c-17.2-23-35-46.8-35-94s17.8-71,35-94c16.6-22.2,32.3-43.2,32.3-86
	h13.4c0,47.2-17.8,71-35,94c-16.6,22.2-32.3,43.2-32.3,86s15.7,63.8,32.3,86c17.2,23,35,46.8,35,94s-17.8,71-35,94
	c-16.6,22.2-32.3,43.2-32.3,86s15.7,63.8,32.3,86c17.2,23,35,46.8,35,94s-17.8,71-35,94C190.3,836.2,174.6,857.2,174.6,900z"/>
<g>
	<path class="st1" d="M1184,772.1c-0.2-0.4-0.4-0.9-0.5-1.3c-0.9,0.2-1.7,0.5-2.6,0.8c0.2,0.5,0.4,1.1,0.6,1.6
		c0.1,0.3,0.2,0.6,0.4,0.9c0.9-0.3,1.7-0.5,2.6-0.8C1184.3,772.9,1184.2,772.5,1184,772.1z"/>
	<path class="st1" d="M1363.6,687.7v49.2c0,6.2-0.6,12.4-1.8,18.4c-1.2,6.1-3,12-5.4,17.8c-4.7,11.5-11.8,21.9-20.5,30.7
		c-8.7,8.7-19.2,15.8-30.7,20.5c-3,1.2-6,2.3-9.1,3.2c-0.9,0.3-1.7,0.5-2.6,0.7c-1,0.3-2,0.5-3,0.8c-0.9,0.2-1.8,0.4-2.6,0.6
		c-0.1,0-0.2,0-0.4,0.1c-0.9,0.2-1.8,0.3-2.7,0.5c-0.9,0.1-1.8,0.3-2.7,0.4c-1,0.1-2,0.3-3.1,0.4c-0.9,0.1-1.8,0.2-2.7,0.2
		c-1,0.1-2,0.1-3.1,0.2c-0.9,0-1.8,0.1-2.7,0.1c-0.5,0-1.1,0-1.6,0c-0.5,0-1,0-1.5,0c-0.9,0-1.8,0-2.7-0.1
		c-4.8-0.2-9.6-0.8-14.3-1.7c-6.1-1.2-12-3-17.8-5.4c-11.5-4.7-21.9-11.8-30.7-20.5c-8.5-8.5-15.4-18.7-20.1-29.8
		c0.9-0.3,1.7-0.5,2.6-0.8c4.6,10.7,11.2,20.5,19.5,28.7c8.5,8.5,18.7,15.3,29.8,19.9c5.6,2.3,11.4,4.1,17.3,5.2
		c4.5,0.9,9,1.4,13.6,1.7c0.9,0,1.8,0.1,2.7,0.1c0.5,0,1.1,0,1.6,0c0.5,0,1,0,1.5,0c0.9,0,1.8,0,2.7-0.1c1,0,2.1-0.1,3.1-0.2
		c0.9-0.1,1.8-0.1,2.7-0.2c1-0.1,2-0.2,3.1-0.4c0.9-0.1,1.8-0.3,2.6-0.4c0.8-0.1,1.6-0.3,2.4-0.4c0.2,0,0.5-0.1,0.7-0.1
		c0.9-0.2,1.8-0.4,2.6-0.6c1-0.2,2-0.5,3-0.8c0.9-0.2,1.7-0.5,2.6-0.8c2.8-0.9,5.6-1.9,8.3-3c11.1-4.6,21.3-11.4,29.8-19.9
		c8.5-8.5,15.3-18.7,19.9-29.8c2.3-5.6,4.1-11.4,5.2-17.3c1.2-5.9,1.8-11.9,1.8-17.9h0v-49.2h0c0-6-0.6-12-1.8-17.9
		c-1.2-5.9-2.9-11.7-5.2-17.3c-4.6-11.1-11.4-21.3-19.9-29.8c-8.5-8.5-18.7-15.3-29.8-19.9c-5.6-2.3-11.4-4.1-17.3-5.2
		c-5.9-1.2-11.9-1.8-17.9-1.8c-6,0-12,0.6-17.9,1.8c-5.9,1.2-11.7,2.9-17.3,5.2c-11.1,4.6-21.3,11.4-29.8,19.9
		c-8.5,8.5-15.3,18.7-19.9,29.8c-2.3,5.6-4.1,11.4-5.2,17.3c-1.2,5.9-1.8,11.9-1.8,17.9h0v49.2h0c0,1.9,0.1,3.8,0.2,5.7
		c-0.9,0.2-1.8,0.5-2.6,0.7c-0.1-2.2-0.2-4.3-0.2-6.5v-49.2c0-6.2,0.6-12.4,1.8-18.4c1.2-6.1,3-12,5.4-17.8
		c4.7-11.5,11.8-21.9,20.5-30.7c8.7-8.7,19.2-15.8,30.7-20.5c5.7-2.4,11.7-4.2,17.8-5.4c6.1-1.2,12.3-1.8,18.4-1.8
		c6.2,0,12.4,0.6,18.4,1.8c6.1,1.2,12,3,17.8,5.4c11.5,4.7,21.9,11.8,30.7,20.5c8.7,8.7,15.8,19.2,20.5,30.7
		c2.4,5.7,4.2,11.7,5.4,17.8C1363,675.3,1363.6,681.5,1363.6,687.7z"/>
	<g>
		<path class="st1" d="M1214.8,769.5c-1.1-0.2-2.3-0.4-3.4-0.6c0.6,1,1.2,2,1.8,3c1.3,0.2,2.5,0.5,3.7,0.8
			C1216.2,771.7,1215.5,770.6,1214.8,769.5z"/>
		<path class="st1" d="M1334.8,736.9L1334.8,736.9c0,8.7-1.6,17.2-5,25.2c-3.3,8-8.2,15.3-14.3,21.4c-6.1,6.1-13.4,11-21.4,14.3
			c-1.5,0.6-2.9,1.2-4.4,1.7c-0.8,0.3-1.7,0.5-2.6,0.8c-1,0.3-2,0.5-3,0.8c-0.9,0.2-1.8,0.4-2.6,0.6c-1,0.2-2.1,0.4-3.1,0.5
			c-0.9,0.1-1.8,0.2-2.8,0.3c-1.1,0.1-2.2,0.2-3.2,0.2c-1,0.1-1.9,0.1-2.9,0.1c-0.2,0-0.4,0-0.6,0c-1,0-1.9,0-2.9-0.1
			c-1,0-2.1-0.1-3.1-0.2c-1.3-0.1-2.5-0.3-3.7-0.4c-1.1-0.2-2.3-0.4-3.4-0.6c-4.1-0.8-8.2-2.1-12.1-3.7c-8-3.3-15.3-8.2-21.4-14.3
			c-3.5-3.5-6.6-7.4-9.2-11.6c1.3,0.2,2.5,0.5,3.7,0.8c2.2,3.2,4.7,6.2,7.4,8.9c5.9,5.9,12.9,10.6,20.5,13.7c2.9,1.2,5.9,2.2,9,2.9
			c1.2,0.3,2.5,0.6,3.7,0.8c1.3,0.2,2.6,0.4,4,0.6h0c1.1,0.1,2.2,0.2,3.2,0.3c1.2,0.1,2.4,0.1,3.6,0.1c0.2,0,0.5,0,0.7,0
			c0.7,0,1.5,0,2.2,0c1.1,0,2.2-0.1,3.3-0.2c0.9-0.1,1.9-0.2,2.8-0.3c1.1-0.1,2.1-0.3,3.2-0.5c0.9-0.2,1.8-0.3,2.7-0.6
			c1-0.2,2-0.5,3-0.8c0.9-0.2,1.7-0.5,2.6-0.8c1.5-0.5,3-1,4.4-1.6c7.6-3.2,14.6-7.9,20.5-13.7c5.9-5.9,10.6-12.9,13.7-20.5
			c3.2-7.6,4.8-15.9,4.8-24.2h0v-49.2h0c0-8.3-1.6-16.6-4.8-24.2c-3.2-7.6-7.9-14.6-13.7-20.5c-5.9-5.9-12.9-10.6-20.5-13.7
			c-7.6-3.2-15.9-4.8-24.2-4.8c-8.3,0-16.5,1.6-24.2,4.8c-7.6,3.2-14.6,7.9-20.5,13.7c-5.9,5.9-10.6,12.9-13.7,20.5
			c-3.2,7.6-4.8,15.9-4.8,24.2h0v49.2h0c0,0.9,0,1.7,0.1,2.6c-0.9,0-1.8-0.1-2.7-0.1c0-0.8,0-1.7,0-2.5h0.1v-49.2h-0.1
			c0-8.7,1.7-17.2,5-25.2c3.3-8,8.2-15.3,14.3-21.4c6.1-6.1,13.4-11,21.4-14.3c8-3.3,16.5-5,25.2-5c8.7,0,17.2,1.7,25.2,5
			c8,3.3,15.3,8.2,21.4,14.3c6.1,6.1,11,13.4,14.3,21.4c3.3,8,5,16.5,5,25.2h-0.1V736.9z"/>
		<path class="st1" d="M1201.1,768.2c-1,0-1.9,0-2.9,0.1c0.4,0.9,0.8,1.8,1.2,2.6c0.7,0,1.5,0,2.2,0c0.2,0,0.5,0,0.7,0
			C1202,770,1201.5,769.1,1201.1,768.2z"/>
		<path class="st1" d="M1346.2,736.9L1346.2,736.9c0.1,10.1-1.9,20.3-5.8,29.6c-3.9,9.4-9.6,17.9-16.8,25.1
			c-7.2,7.2-15.7,12.9-25.1,16.8c-1.7,0.7-3.5,1.4-5.3,2c-0.8,0.3-1.7,0.5-2.6,0.8c-1,0.3-2,0.6-3,0.8c-0.9,0.2-1.7,0.4-2.6,0.6
			c-1,0.2-2,0.4-3,0.6c-0.9,0.1-1.8,0.3-2.7,0.4c-1,0.1-2.1,0.3-3.1,0.4c-0.9,0.1-1.8,0.2-2.7,0.2h0c-1.1,0.1-2.1,0.1-3.2,0.1
			c-0.5,0-1,0-1.5,0c-0.4,0-0.8,0-1.2,0h0c-1.1,0-2.2-0.1-3.3-0.1c-1-0.1-1.9-0.1-2.9-0.2c-7.6-0.7-15.2-2.6-22.2-5.5
			c-9.4-3.9-17.9-9.6-25.1-16.8c-6-6-11.1-13.1-14.8-20.7c0.7,0,1.5,0,2.2,0c0.2,0,0.5,0,0.7,0c3.5,6.9,8.2,13.3,13.7,18.9
			c6.9,6.9,15.2,12.5,24.2,16.2c6.4,2.7,13.3,4.4,20.2,5.2c1,0.1,2,0.2,3,0.3c1.1,0.1,2.2,0.1,3.3,0.2c0.7,0,1.4,0,2.1,0
			c0.2,0,0.5,0,0.7,0c1.1,0,2.1,0,3.2-0.1c0.9,0,1.8-0.1,2.7-0.2c1-0.1,2.1-0.2,3.1-0.3c0.9-0.1,1.8-0.3,2.7-0.4c1-0.2,2-0.4,3-0.6
			c0.9-0.2,1.7-0.4,2.6-0.6c1-0.2,2-0.5,3-0.8c0.9-0.2,1.7-0.5,2.5-0.8c1.7-0.6,3.3-1.2,5-1.9c9-3.7,17.3-9.3,24.2-16.2
			c6.9-6.9,12.5-15.2,16.2-24.2c3.7-9,5.7-18.8,5.7-28.6h0v-49.2h0c0-9.8-1.9-19.6-5.7-28.6c-3.7-9-9.3-17.3-16.2-24.2
			c-6.9-6.9-15.2-12.5-24.2-16.2c-9-3.8-18.8-5.7-28.6-5.7c-9.8,0-19.6,1.9-28.6,5.7c-9,3.7-17.3,9.3-24.2,16.2
			s-12.5,15.2-16.2,24.2c-3.8,9-5.7,18.8-5.7,28.6h-0.1v49.2h0.1c0,0.9,0,1.9,0.1,2.8c-0.9,0.1-1.8,0.1-2.7,0.2c0-1-0.1-2-0.1-3.1h0
			v-49.2h0c0-10.1,2-20.3,5.9-29.6c3.9-9.4,9.6-17.9,16.8-25.1c7.2-7.2,15.7-12.9,25.1-16.8c9.4-3.9,19.5-5.9,29.6-5.9
			c10.1,0,20.3,2,29.6,5.9c9.4,3.9,17.9,9.6,25.1,16.8c7.2,7.2,12.9,15.7,16.8,25.1c3.9,9.4,5.9,19.5,5.9,29.6h-0.1V736.9z"/>
		<path class="st1" d="M1195,768.5c-0.9,0.1-1.8,0.2-2.8,0.3c0.4,0.9,0.7,1.7,1.1,2.5c0.9-0.1,1.9-0.2,2.8-0.3
			C1195.7,770.3,1195.3,769.4,1195,768.5z"/>
		<path class="st1" d="M1352,736.9L1352,736.9c0.1,10.9-2.1,21.8-6.3,31.8c-4.2,10.1-10.3,19.3-18,27c-7.7,7.7-16.9,13.9-27,18
			c-2,0.8-4.1,1.6-6.2,2.3c-0.9,0.3-1.7,0.5-2.6,0.8c-1,0.3-2,0.6-3,0.8c-0.9,0.2-1.7,0.4-2.6,0.6c-1,0.2-2,0.4-3,0.6
			c-0.9,0.2-1.8,0.3-2.6,0.4c-1,0.1-2,0.3-3.1,0.4c-0.9,0.1-1.8,0.2-2.7,0.2c-1,0.1-2.1,0.1-3.1,0.2c-0.9,0-1.8,0-2.7,0.1h-0.2
			c-1,0-2,0-2.9-0.1c-0.9,0-1.8-0.1-2.8-0.1c-8.9-0.6-17.8-2.7-26.1-6.1c-10.1-4.2-19.3-10.3-27-18c-7-7-12.7-15.3-16.9-24.3
			c0.9-0.1,1.9-0.2,2.8-0.3c4,8.4,9.4,16.1,15.9,22.7c7.4,7.4,16.4,13.4,26.1,17.4c7.8,3.2,16,5.2,24.4,5.9c0.9,0.1,1.9,0.1,2.8,0.2
			c1.1,0,2.1,0.1,3.2,0.1c0.1,0,0.3,0,0.4,0v0c0.8,0,1.6,0,2.4,0c1,0,2.1-0.1,3.1-0.2c0.9-0.1,1.8-0.1,2.7-0.2
			c1-0.1,2.1-0.2,3.1-0.4c0.9-0.1,1.8-0.3,2.6-0.4c1-0.2,2-0.4,3-0.6c0.9-0.2,1.7-0.4,2.6-0.6c1-0.3,2-0.5,3-0.8
			c0.9-0.3,1.7-0.5,2.6-0.8c1.9-0.6,3.9-1.3,5.7-2.1c9.7-4,18.6-10,26.1-17.4c7.4-7.4,13.4-16.4,17.4-26.1c4-9.7,6.1-20.3,6.1-30.8
			h0v-49.2h0c0-10.5-2.1-21.1-6.1-30.8c-4-9.7-10-18.6-17.4-26.1c-7.4-7.4-16.4-13.4-26.1-17.4c-9.7-4-20.3-6.1-30.8-6.1
			c-10.5,0-21.1,2.1-30.8,6.1c-9.7,4-18.6,10-26.1,17.4c-7.4,7.4-13.4,16.4-17.4,26.1c-4,9.7-6.1,20.3-6.1,30.8h-0.1v49.2h0.1
			c0,1.1,0,2.3,0.1,3.4c-0.9,0.1-1.8,0.3-2.7,0.4c-0.1-1.3-0.1-2.6-0.1-3.8h0v-49.2h0c0-10.9,2.1-21.8,6.3-31.8
			c4.2-10.1,10.3-19.3,18-27c7.7-7.7,16.9-13.9,27-18c10.1-4.2,20.9-6.3,31.8-6.3c10.9,0,21.8,2.1,31.8,6.3
			c10.1,4.2,19.3,10.3,27,18c7.7,7.7,13.9,16.9,18,27c4.2,10,6.3,20.9,6.3,31.8h-0.1V736.9z"/>
		<path class="st1" d="M1189.3,769.9c-0.1-0.2-0.1-0.3-0.2-0.5c-0.9,0.2-1.8,0.4-2.7,0.6c0.1,0.3,0.3,0.6,0.4,1
			c0.2,0.5,0.4,1,0.7,1.5c0.9-0.2,1.8-0.4,2.7-0.6C1189.9,771.3,1189.6,770.6,1189.3,769.9z"/>
		<path class="st1" d="M1357.8,736.9L1357.8,736.9c0,11.6-2.3,23.3-6.7,34c-4.5,10.8-11.1,20.6-19.3,28.8
			c-8.2,8.2-18.1,14.8-28.8,19.3c-2.5,1-5,1.9-7.5,2.7c-0.9,0.3-1.7,0.5-2.6,0.8c-1,0.3-2,0.5-3,0.8c-0.9,0.2-1.7,0.4-2.6,0.6h0
			c-1,0.2-2,0.4-3,0.6c-0.9,0.2-1.8,0.3-2.6,0.4c-1,0.1-2,0.3-3.1,0.4c-0.9,0.1-1.8,0.2-2.7,0.2c-1,0.1-2.1,0.1-3.1,0.2
			c-0.9,0-1.8,0.1-2.7,0.1c-0.4,0-0.8,0-1.2,0c-0.6,0-1.3,0-1.9,0c-0.9,0-1.8-0.1-2.7-0.1c-10.1-0.5-20-2.8-29.4-6.6
			c-10.8-4.5-20.6-11-28.8-19.3c-7.8-7.8-14.2-17.1-18.6-27.3c0.9-0.2,1.8-0.4,2.7-0.6c4.3,9.7,10.4,18.5,17.8,25.9
			c8,8,17.5,14.4,28,18.7c8.9,3.7,18.4,5.8,27.9,6.4c0.9,0.1,1.8,0.1,2.7,0.1c0.8,0,1.6,0,2.3,0c0.3,0,0.5,0,0.8,0
			c0.9,0,1.8,0,2.7-0.1c1,0,2.1-0.1,3.1-0.2c0.9-0.1,1.8-0.1,2.7-0.2c1-0.1,2-0.2,3.1-0.4c0.9-0.1,1.8-0.3,2.6-0.4
			c1-0.2,2-0.4,3-0.6c0.9-0.2,1.7-0.4,2.6-0.6c1-0.2,2-0.5,3-0.8c0.9-0.2,1.7-0.5,2.6-0.8c2.3-0.7,4.6-1.6,6.9-2.5
			c10.4-4.3,20-10.7,28-18.7c8-8,14.4-17.5,18.7-28c4.3-10.4,6.6-21.7,6.6-33h0v-49.2h0c0-11.3-2.2-22.6-6.6-33
			c-4.3-10.4-10.7-20-18.7-28c-8-8-17.5-14.4-28-18.7c-10.4-4.3-21.7-6.6-33-6.6v0c-11.3,0-22.6,2.2-33,6.6
			c-10.4,4.3-20,10.7-28,18.7c-8,8-14.4,17.5-18.7,28c-4.3,10.4-6.6,21.7-6.6,33h-0.1v49.2h0.1c0,1.5,0,2.9,0.1,4.4
			c-0.9,0.2-1.8,0.4-2.6,0.6c-0.1-1.7-0.1-3.3-0.1-5h-0.1v-49.2h0.1c0-11.6,2.3-23.3,6.8-34c4.5-10.8,11-20.6,19.3-28.8
			c8.2-8.2,18.1-14.8,28.8-19.3c10.8-4.5,22.4-6.8,34-6.8c11.6,0,23.3,2.3,34,6.8c10.8,4.5,20.6,11,28.8,19.3
			c8.2,8.2,14.8,18.1,19.3,28.8c4.5,10.8,6.8,22.4,6.8,34h0V736.9z"/>
	</g>
	<path class="st1" d="M1207.6,768.5c-1-0.1-2.1-0.2-3.1-0.2c0.5,0.9,0.9,1.8,1.4,2.8c1.1,0.1,2.2,0.2,3.2,0.3
		C1208.7,770.4,1208.1,769.4,1207.6,768.5z"/>
	<path class="st1" d="M1340.4,736.9h0.1c0,9.4-1.8,18.8-5.4,27.4c-3.6,8.7-8.9,16.6-15.5,23.2c-6.6,6.6-14.6,11.9-23.2,15.5
		c-1.5,0.6-3.1,1.2-4.7,1.8c-0.8,0.3-1.7,0.6-2.5,0.8c-1,0.3-2,0.6-3,0.8c-0.9,0.2-1.7,0.4-2.6,0.6c-1,0.2-2,0.4-3.1,0.6
		c-0.9,0.1-1.8,0.3-2.7,0.4c-1,0.1-2.1,0.2-3.2,0.3c-0.9,0.1-1.9,0.1-2.8,0.2c-1,0-1.9,0.1-2.9,0.1c-0.1,0-0.2,0-0.4,0
		c-1,0-1.9,0-2.9-0.1c-1.1-0.1-2.3-0.1-3.4-0.2c-1-0.1-2.1-0.2-3.1-0.4h0c-6.1-0.8-12-2.4-17.6-4.8c-8.7-3.6-16.6-8.9-23.2-15.5
		c-4.9-4.9-9.1-10.5-12.3-16.5c1.1,0.1,2.2,0.2,3.2,0.3v0c3,5.2,6.7,10.1,11,14.3c6.4,6.4,14,11.5,22.4,15c4.9,2,10,3.5,15.2,4.3
		c1.1,0.2,2.1,0.3,3.2,0.4c1.2,0.1,2.4,0.2,3.6,0.3c1,0.1,2,0.1,3,0.1c0.5,0,1,0,1.4,0c0.6,0,1.3,0,1.9,0c0.9,0,1.9-0.1,2.8-0.1
		c1.1-0.1,2.1-0.2,3.2-0.3c0.9-0.1,1.8-0.2,2.7-0.4c1-0.2,2.1-0.3,3.1-0.5c0.9-0.2,1.8-0.4,2.6-0.6c1-0.2,2-0.5,3-0.8
		c0.9-0.2,1.7-0.5,2.5-0.8c1.5-0.5,3-1.1,4.5-1.7c8.3-3.4,16-8.6,22.4-15c6.4-6.4,11.5-14,15-22.4c3.5-8.3,5.2-17.3,5.2-26.4h-0.1
		v-49.2h0.1c0-9.1-1.8-18.1-5.2-26.4c-3.4-8.3-8.6-16-15-22.4c-6.4-6.4-14-11.5-22.4-15c-8.3-3.5-17.3-5.2-26.4-5.2
		c-9.1,0-18.1,1.8-26.4,5.2c-8.3,3.4-16,8.6-22.4,15c-6.4,6.4-11.5,14-15,22.4c-3.5,8.3-5.2,17.3-5.2,26.4h0v49.2h0
		c0,0.8,0,1.7,0,2.5c-0.9,0-1.8,0-2.7,0.1c0-0.9,0-1.7,0-2.6h0v-49.2h0c0-9.4,1.8-18.8,5.4-27.4c3.6-8.7,8.9-16.6,15.5-23.2
		c6.6-6.6,14.6-11.9,23.2-15.5c8.7-3.6,18-5.4,27.4-5.4c9.4,0,18.8,1.8,27.4,5.4c8.7,3.6,16.6,8.9,23.2,15.5
		c6.6,6.6,12,14.6,15.5,23.2c3.6,8.7,5.4,18,5.4,27.4h-0.1V736.9z"/>
	<path class="st1" d="M1090.4,920c3.4,5,7.2,9.7,11.4,13.9l-1.9,1.9c-4.4-4.4-8.3-9.2-11.8-14.3c-3.4-5.2-6.4-10.6-8.8-16.4
		c-4.7-11.5-7.2-23.8-7.2-36.2c0-0.9,0-1.7,0-2.6c0.9,0.1,1.8,0.2,2.7,0.4c0,0.7,0,1.5,0,2.2c0,12,2.4,24.1,7,35.2
		C1084.2,909.6,1087.1,915,1090.4,920z"/>
	<path class="st1" d="M1087.2,901.9c4.3,10.4,10.7,20,18.7,28l-1.9,1.9c-8.2-8.2-14.8-18.1-19.3-28.8c-4.5-10.8-6.8-22.4-6.8-34
		c0-0.5,0-1.1,0-1.6c0.9,0.2,1.8,0.4,2.7,0.6c0,0.3,0,0.6,0,1C1080.7,880.2,1082.9,891.4,1087.2,901.9z"/>
	<path class="st1" d="M1092.5,899.7c4,9.7,10,18.6,17.4,26.1l-1.9,1.9c-7.7-7.7-13.9-16.9-18-27c-4.2-10.1-6.3-20.9-6.3-31.8v-0.1
		c0.9,0.3,1.8,0.6,2.7,0.9C1086.5,880,1088.6,890.2,1092.5,899.7z"/>
	<path class="st1" d="M1097.8,897.5c3.7,9,9.3,17.3,16.2,24.2l-1.9,1.9c-7.2-7.2-12.9-15.7-16.8-25.1c-3.6-8.7-5.6-18.1-5.9-27.5
		c0.9,0.4,1.8,0.8,2.7,1.2C1092.6,880.9,1094.5,889.5,1097.8,897.5z"/>
	<path class="st1" d="M1108.5,893.1c3.2,7.6,7.8,14.6,13.7,20.5l-1.9,1.9c-6.1-6.1-11-13.4-14.3-21.4c-2.2-5.2-3.6-10.7-4.4-16.3
		c1.1,0.8,2.1,1.6,3.1,2.4C1105.5,884.6,1106.7,888.9,1108.5,893.1z"/>
	<path class="st1" d="M1103.1,895.3c3.4,8.3,8.6,16,15,22.4l-1.9,1.9c-6.6-6.6-12-14.6-15.5-23.2c-3-7.1-4.7-14.7-5.3-22.4
		c1,0.5,1.9,1.1,2.8,1.7C1098.9,882.3,1100.5,889,1103.1,895.3z"/>
	<path class="st1" d="M1264.7,800c-1.1-0.1-2.2-0.2-3.2-0.3h0c-3-5.2-6.7-10.1-11-14.3c-6.4-6.4-14-11.5-22.4-15
		c-4.9-2-10-3.5-15.2-4.3c-1.1-0.2-2.1-0.3-3.2-0.4c-1.2-0.1-2.4-0.2-3.6-0.3c-1-0.1-2-0.1-3-0.1c-0.5,0-1,0-1.4,0
		c-0.6,0-1.3,0-1.9,0c-0.9,0-1.9,0.1-2.8,0.1c-1.1,0.1-2.1,0.2-3.2,0.3c-0.9,0.1-1.8,0.2-2.7,0.4c-1,0.2-2.1,0.3-3.1,0.6
		c-0.9,0.2-1.8,0.4-2.6,0.6c-1,0.2-2,0.5-3,0.8c-0.9,0.2-1.7,0.5-2.6,0.8c-1.5,0.5-3,1.1-4.5,1.7c-8.3,3.4-16,8.6-22.4,15l0,0
		l-34.8,34.8l0,0c-6.4,6.4-11.5,14-14.9,22.4c0,0,0,0.1,0,0.1c-0.8-0.3-1.5-0.7-2.3-1c0,0-0.1,0-0.1,0c0,0,0-0.1,0-0.1
		c3.6-8.7,8.9-16.6,15.5-23.2l0,0l34.8-34.8l0,0c6.6-6.6,14.6-12,23.2-15.5c1.5-0.6,3.1-1.2,4.7-1.8v0c0.8-0.3,1.7-0.5,2.5-0.8
		c1-0.3,2-0.6,3-0.8c0.9-0.2,1.7-0.4,2.6-0.6c1-0.2,2-0.4,3.1-0.6c0.9-0.1,1.8-0.3,2.7-0.4c1-0.1,2.1-0.2,3.2-0.3
		c0.9-0.1,1.9-0.1,2.8-0.2c1,0,1.9-0.1,2.9-0.1c0.1,0,0.2,0,0.4,0c1,0,1.9,0,2.9,0.1c1.1,0,2.3,0.1,3.4,0.2c1,0.1,2.1,0.2,3.1,0.4
		c6.1,0.8,12,2.4,17.6,4.8c8.7,3.6,16.6,8.9,23.2,15.5C1257.2,788.3,1261.4,793.9,1264.7,800z"/>
	<path class="st1" d="M1273.3,834.1c0,9.4-1.9,18.8-5.4,27.4c-3.6,8.7-8.9,16.6-15.5,23.2l-17.2,17h-3.7l19-18.9
		c6.4-6.4,11.5-14,15-22.4c3.5-8.3,5.2-17.4,5.2-26.4c0-0.8,0-1.7,0-2.5c0.9,0,1.8,0,2.7-0.1
		C1273.3,832.3,1273.3,833.2,1273.3,834.1z"/>
	<path class="st1" d="M1288.7,797c-0.9,0.3-1.7,0.5-2.6,0.8c-2.2-5.2-4.9-10.1-8-14.8c-3.3-5-7.2-9.7-11.4-13.9
		c-4.2-4.2-8.9-8.1-13.9-11.4c-5-3.4-10.3-6.2-15.9-8.5c-9.8-4.1-20.3-6.4-30.9-6.9c-0.9,0-1.8-0.1-2.7-0.1c-0.5,0-1.1,0-1.6,0
		c-0.5,0-1,0-1.5,0c-0.9,0-1.8,0-2.7,0.1c-1,0-2,0.1-3.1,0.2c-0.9,0.1-1.8,0.1-2.7,0.2c-1,0.1-2,0.2-3.1,0.4
		c-0.9,0.1-1.8,0.3-2.6,0.4c-1,0.2-2,0.4-3,0.6c-0.9,0.2-1.8,0.4-2.6,0.6c-1,0.2-2,0.5-3,0.8c-0.9,0.2-1.7,0.5-2.6,0.8
		c-2.8,0.9-5.6,1.8-8.3,3c-5.6,2.3-10.9,5.2-15.9,8.5c-5,3.3-9.7,7.2-13.9,11.4l0,0l-34.8,34.8l0,0c-4.2,4.2-8.1,8.9-11.4,13.9
		c-3.4,5-6.2,10.3-8.5,15.9c-0.3,0.7-0.6,1.4-0.9,2.2c-0.9-0.2-1.8-0.3-2.7-0.4c0.3-0.9,0.7-1.8,1.1-2.7c2.4-5.7,5.3-11.2,8.8-16.4
		c3.4-5.2,7.4-10,11.8-14.3l34.8-34.8c4.4-4.4,9.2-8.3,14.3-11.8c5.1-3.4,10.6-6.4,16.4-8.8c3-1.2,6-2.3,9.1-3.2
		c0.9-0.3,1.7-0.5,2.6-0.7c1-0.3,2-0.5,3-0.8c0.9-0.2,1.8-0.4,2.6-0.6c1-0.2,2-0.4,3.1-0.6c0.9-0.2,1.8-0.3,2.7-0.4
		c1-0.1,2-0.3,3.1-0.4c0.9-0.1,1.8-0.2,2.7-0.2c1-0.1,2-0.1,3.1-0.2c0.9,0,1.8-0.1,2.7-0.1c0.5,0,1.1,0,1.6,0c0.5,0,1,0,1.5,0
		c0.9,0,1.8,0,2.7,0.1c11,0.5,21.9,2.9,32.1,7.1c5.7,2.4,11.2,5.3,16.4,8.8c5.2,3.4,10,7.4,14.3,11.8c4.4,4.4,8.3,9.2,11.8,14.3
		C1283.6,786.4,1286.4,791.6,1288.7,797z"/>
	<path class="st1" d="M1296.3,834.1c0,12.4-2.4,24.8-7.2,36.2c-2.4,5.7-5.3,11.2-8.8,16.4c-3.4,5.2-7.4,10-11.8,14.3l-0.8,0.8h-3.7
		l2.6-2.6c2.1-2.1,4.1-4.4,6-6.7c1.9-2.3,3.7-4.8,5.4-7.3c3.4-5,6.2-10.3,8.5-15.9c4.6-11.1,7-23.2,7-35.2c0-1.9-0.1-3.8-0.2-5.7
		c0.9-0.2,1.8-0.5,2.6-0.7C1296.2,829.7,1296.3,831.9,1296.3,834.1z"/>
	<path class="st1" d="M1283.1,798.5c-0.9,0.2-1.8,0.4-2.7,0.6c-4.3-9.7-10.4-18.5-17.8-25.9c-8-8-17.5-14.4-28-18.7
		c-8.9-3.7-18.3-5.8-27.9-6.4c-0.9-0.1-1.8-0.1-2.7-0.1c-0.8,0-1.6,0-2.3,0c-0.3,0-0.5,0-0.8,0c-0.9,0-1.8,0-2.7,0.1
		c-1,0-2.1,0.1-3.1,0.2c-0.9,0.1-1.8,0.1-2.7,0.2c-1,0.1-2,0.2-3.1,0.4c-0.9,0.1-1.8,0.3-2.6,0.4c-1,0.2-2,0.4-3,0.6
		c-0.9,0.2-1.7,0.4-2.6,0.6c-1,0.2-2,0.5-3,0.8c-0.9,0.2-1.7,0.5-2.6,0.8c-2.3,0.7-4.6,1.6-6.8,2.5c-10.4,4.3-20,10.7-28,18.7
		l-0.1-0.1l-34.8,34.8l0.1,0.1c-8,8-14.4,17.5-18.7,28c-0.2,0.4-0.3,0.8-0.5,1.1c-0.9-0.2-1.8-0.4-2.6-0.6c0.2-0.5,0.4-1,0.6-1.6
		c4.4-10.8,11.1-20.6,19.3-28.8l-0.1-0.1l34.8-34.8l0.1,0.1c8.2-8.2,18.1-14.8,28.8-19.3c2.5-1,5-1.9,7.5-2.7
		c0.9-0.3,1.7-0.5,2.6-0.8c1-0.3,2-0.5,3-0.8c0.9-0.2,1.7-0.4,2.6-0.6c1-0.2,2-0.4,3-0.6c0.9-0.2,1.8-0.3,2.6-0.4
		c1-0.1,2-0.3,3.1-0.4c0.9-0.1,1.8-0.2,2.7-0.2c1-0.1,2.1-0.1,3.1-0.2c0.9,0,1.8-0.1,2.7-0.1c0.4,0,0.8,0,1.2,0c0.6,0,1.3,0,1.9,0
		c0.9,0,1.8,0.1,2.7,0.1c10.1,0.5,20,2.8,29.4,6.6c10.8,4.4,20.6,11.1,28.8,19.3C1272.3,779,1278.7,788.4,1283.1,798.5z"/>
	<path class="st1" d="M1290.5,834.1c0,11.6-2.3,23.3-6.8,34c-4.4,10.8-11.1,20.6-19.3,28.8l-4.9,4.9h-3.7l6.7-6.7
		c4-4,7.6-8.4,10.7-13.1c3.1-4.7,5.8-9.7,8-14.9c4.3-10.4,6.6-21.7,6.6-33c0-1.5,0-2.9-0.1-4.4c0.9-0.2,1.8-0.4,2.6-0.6
		C1290.5,830.7,1290.5,832.4,1290.5,834.1z"/>
	<path class="st1" d="M1277.3,799.6c-0.9,0.1-1.9,0.2-2.8,0.3c-3.9-8.4-9.4-16.1-15.9-22.7c-7.4-7.4-16.4-13.4-26.1-17.4
		c-7.8-3.2-16-5.2-24.4-5.9c-0.9-0.1-1.9-0.1-2.8-0.2c-1.1,0-2.1-0.1-3.2-0.1c-0.1,0-0.3,0-0.4,0c-0.8,0-1.6,0-2.4,0
		c-1,0-2.1,0.1-3.1,0.2c-0.9,0.1-1.8,0.1-2.7,0.2c-1,0.1-2,0.2-3.1,0.4c-0.9,0.1-1.8,0.3-2.6,0.4c-1,0.2-2,0.4-3,0.6
		c-0.9,0.2-1.7,0.4-2.6,0.6c-1,0.2-2,0.5-3,0.8c-0.9,0.2-1.7,0.5-2.6,0.8c-1.9,0.6-3.9,1.3-5.7,2.1c-9.7,4-18.6,10-26.1,17.4
		l-0.1-0.1l-34.8,34.8l0.1,0.1c-7.4,7.4-13.4,16.4-17.4,26.1c-0.1,0.2-0.1,0.3-0.2,0.5c-0.9-0.3-1.7-0.5-2.6-0.7
		c0.1-0.2,0.2-0.5,0.3-0.7c4.2-10.1,10.3-19.3,18-27l0,0l34.8-34.8l0,0c7.7-7.7,16.9-13.9,27-18c2-0.8,4.1-1.6,6.2-2.3
		c0.9-0.3,1.7-0.5,2.6-0.8c1-0.3,2-0.6,3-0.8c0.9-0.2,1.7-0.4,2.6-0.6c1-0.2,2-0.4,3-0.6c0.9-0.2,1.8-0.3,2.6-0.4
		c1-0.1,2-0.3,3.1-0.4c0.9-0.1,1.8-0.2,2.7-0.2c1-0.1,2.1-0.1,3.1-0.2c0.9,0,1.8,0,2.7-0.1h0.2c1,0,2,0,2.9,0.1
		c0.9,0,1.8,0.1,2.8,0.1c9,0.6,17.8,2.7,26.1,6.1c10.1,4.2,19.3,10.3,27,18C1267.4,782.3,1273.2,790.6,1277.3,799.6z"/>
	<path class="st1" d="M1284.8,834.1c0,10.9-2.2,21.8-6.3,31.8c-4.2,10.1-10.3,19.3-18,27l-9,8.9h-3.7l10.8-10.8
		c3.7-3.7,7.1-7.8,10-12.2c2.9-4.4,5.4-9,7.4-13.9c4-9.7,6.1-20.3,6.1-30.8c0-1.1,0-2.3-0.1-3.4c0.9-0.1,1.8-0.3,2.7-0.4
		C1284.8,831.5,1284.8,832.8,1284.8,834.1z"/>
	<path class="st1" d="M1271.2,800.1c-0.7,0-1.5,0-2.2,0c-0.2,0-0.5,0-0.7,0c-3.6-6.9-8.2-13.3-13.7-18.9
		c-6.9-6.9-15.2-12.5-24.2-16.2c-6.4-2.7-13.3-4.4-20.2-5.2c-1-0.1-2-0.2-3-0.3c-1.1-0.1-2.2-0.1-3.3-0.2c-0.7,0-1.4,0-2.1,0
		c-0.2,0-0.5,0-0.7,0c-1.1,0-2.1,0-3.2,0.1c-0.9,0-1.8,0.1-2.7,0.2c-1,0.1-2.1,0.2-3.1,0.3c-0.9,0.1-1.8,0.3-2.7,0.4
		c-1,0.2-2,0.4-3,0.6c-0.9,0.2-1.7,0.4-2.6,0.6c-1,0.2-2,0.5-3,0.8c-0.9,0.2-1.7,0.5-2.6,0.8c-1.7,0.6-3.3,1.2-5,1.9
		c-9,3.7-17.3,9.3-24.2,16.2l0,0L1114,816l0,0c-6.9,6.9-12.5,15.2-16.2,24.2c0,0,0,0.1-0.1,0.1c-0.8-0.3-1.7-0.6-2.5-0.9
		c0-0.1,0.1-0.2,0.1-0.2c3.9-9.4,9.6-17.9,16.8-25.1l0,0l34.8-34.8l0,0c7.2-7.2,15.7-12.9,25.1-16.8c1.7-0.7,3.5-1.4,5.3-2v0
		c0.8-0.3,1.7-0.5,2.6-0.8c1-0.3,2-0.6,3-0.8c0.9-0.2,1.7-0.4,2.6-0.6v0c1-0.2,2-0.4,3-0.6c0.9-0.2,1.8-0.3,2.7-0.4
		c1-0.1,2.1-0.3,3.1-0.4c0.9-0.1,1.8-0.2,2.7-0.2c1.1-0.1,2.1-0.1,3.2-0.1c0.5,0,1,0,1.5,0c0.4,0,0.8,0,1.2,0c1.1,0,2.2,0.1,3.3,0.1
		c1,0.1,1.9,0.1,2.9,0.2c7.6,0.7,15.2,2.6,22.2,5.5c9.4,3.9,17.9,9.6,25.1,16.8C1262.4,785.4,1267.4,792.4,1271.2,800.1z"/>
	<path class="st1" d="M1279,834.1c0,10.1-2,20.3-5.9,29.6c-3.9,9.4-9.6,17.9-16.8,25.1l-0.1-0.1l-13,13h-3.7l14.9-14.9l0,0
		c6.9-6.9,12.5-15.2,16.2-24.2c3.7-9,5.7-18.8,5.7-28.6c0-0.9,0-1.9-0.1-2.8c0.9-0.1,1.8-0.1,2.7-0.2C1279,832,1279,833,1279,834.1z
		"/>
	<path class="st1" d="M1257.5,799.1c-1.3-0.2-2.5-0.5-3.7-0.8c-2.2-3.2-4.7-6.1-7.4-8.9c-5.9-5.9-12.9-10.6-20.5-13.7
		c-2.9-1.2-5.9-2.2-9-3c-1.2-0.3-2.5-0.6-3.7-0.8c-1.3-0.2-2.6-0.4-4-0.6v0c-1.1-0.1-2.2-0.2-3.2-0.3c-1.2-0.1-2.4-0.1-3.6-0.1
		c-0.2,0-0.5,0-0.7,0c-0.7,0-1.5,0-2.2,0c-1.1,0-2.2,0.1-3.3,0.2c-0.9,0.1-1.9,0.2-2.8,0.3c-1.1,0.1-2.1,0.3-3.2,0.5
		c-0.9,0.2-1.8,0.4-2.7,0.6c-1,0.2-2,0.5-3,0.8c-0.9,0.2-1.7,0.5-2.6,0.8c-1.5,0.5-3,1-4.4,1.6c-7.6,3.2-14.6,7.8-20.5,13.7l0,0
		l-34.8,34.8l0,0c-5.9,5.9-10.6,12.9-13.7,20.5c-0.1,0.1-0.1,0.3-0.2,0.4c-0.8-0.4-1.6-0.8-2.4-1.2c0-0.1,0.1-0.2,0.1-0.2
		c3.3-8,8.2-15.2,14.3-21.3l34.8-34.8l0,0c6.1-6.1,13.4-11,21.4-14.3c1.5-0.6,2.9-1.2,4.4-1.7c0.8-0.3,1.7-0.5,2.6-0.8
		c1-0.3,2-0.5,3-0.8c0.9-0.2,1.8-0.4,2.7-0.6c1-0.2,2.1-0.4,3.1-0.5c0.9-0.1,1.8-0.2,2.8-0.3c1.1-0.1,2.2-0.2,3.3-0.3
		c1-0.1,1.9-0.1,2.9-0.1c0.2,0,0.4,0,0.6,0c1,0,1.9,0,2.9,0.1c1,0,2.1,0.1,3.1,0.2c1.2,0.1,2.5,0.3,3.7,0.4c1.2,0.2,2.3,0.4,3.4,0.6
		c4.1,0.8,8.2,2.1,12.1,3.7c8,3.3,15.2,8.2,21.4,14.3C1251.7,791,1254.8,794.9,1257.5,799.1z"/>
	<path class="st1" d="M1267.5,834.1c0,8.6-1.7,17.3-5,25.2c-3.3,8-8.2,15.2-14.3,21.4l-21.2,21.1h-3.7l23-23l0,0
		c5.9-5.9,10.5-12.9,13.7-20.5c3.2-7.6,4.8-15.9,4.8-24.2c0-0.9,0-1.7-0.1-2.6c0.9,0,1.8,0.1,2.7,0.1
		C1267.5,832.4,1267.5,833.2,1267.5,834.1z"/>
	<path class="st1" d="M1136.2,929h-2.7c0-9.1-1.8-18.1-5.2-26.4c-3.4-8.3-8.6-16-15-22.4c-2.9-2.9-6.1-5.6-9.6-8
		c-0.9-0.6-1.8-1.2-2.7-1.8c-1-0.6-2.1-1.2-3.1-1.8c-0.9-0.5-1.8-0.9-2.7-1.4c-1-0.5-2-1-3-1.4c-0.4-0.2-0.9-0.4-1.3-0.5
		c-0.4-0.2-0.9-0.4-1.3-0.5c-1-0.4-2-0.8-3-1.1c-0.9-0.3-1.7-0.6-2.6-0.8c-1-0.3-2-0.6-3-0.8c-0.9-0.2-1.7-0.4-2.6-0.6
		c-1-0.2-2-0.4-3-0.5c-0.9-0.1-1.8-0.3-2.7-0.4c-2.7-0.3-5.4-0.5-8-0.5h-49.2l0,0c-9.1,0-18.1,1.8-26.4,5.3c-8.3,3.4-16,8.6-22.4,15
		s-11.5,14-15,22.4c-3.5,8.3-5.2,17.3-5.2,26.4h-2.7c0-9.4,1.8-18.8,5.4-27.4c3.6-8.7,8.9-16.6,15.5-23.2c6.6-6.6,14.6-12,23.2-15.5
		c8.7-3.6,18-5.4,27.4-5.4l0,0h49.2c2.8,0,5.6,0.1,8.3,0.5c0.9,0.1,1.8,0.2,2.6,0.4c1,0.2,2,0.3,3,0.5c0.9,0.2,1.8,0.4,2.6,0.6
		c1,0.2,2,0.5,3,0.8c0.9,0.2,1.7,0.5,2.6,0.8c1,0.3,2,0.7,3,1.1c0.7,0.3,1.4,0.6,2.2,0.9c0.1,0.1,0.3,0.1,0.4,0.2c1,0.4,2,0.9,3,1.3
		c0.9,0.4,1.7,0.9,2.6,1.3c1,0.5,2,1.1,3,1.7c0.9,0.5,1.8,1.1,2.7,1.7c4.2,2.7,8,5.8,11.5,9.4c6.6,6.6,12,14.6,15.5,23.2
		C1134.3,910.3,1136.2,919.6,1136.2,929z"/>
	<path class="st1" d="M1141.9,929h-2.7c0-9.8-1.9-19.6-5.7-28.6c-3.7-9-9.3-17.3-16.2-24.2c-4.1-4.1-8.7-7.7-13.6-10.8
		c-0.9-0.5-1.7-1-2.6-1.5c-1-0.5-2-1.1-3-1.6c-0.8-0.4-1.7-0.8-2.6-1.2c-0.8-0.4-1.7-0.7-2.5-1.1c-0.1-0.1-0.3-0.1-0.4-0.2
		c-0.8-0.3-1.7-0.7-2.6-1c-1-0.4-2-0.7-3-1c-0.9-0.3-1.7-0.5-2.6-0.8c-1-0.3-2-0.5-3-0.8c-0.9-0.2-1.7-0.4-2.6-0.6
		c-1-0.2-2-0.4-3-0.5c-0.9-0.1-1.8-0.3-2.6-0.4c-2.9-0.3-5.8-0.6-8.7-0.6h-49.2l0,0c-9.8,0-19.6,2-28.6,5.7
		c-9,3.7-17.3,9.3-24.2,16.2c-6.9,6.9-12.5,15.2-16.2,24.2c-3.8,9-5.7,18.8-5.7,28.6H938c0-10.1,2-20.3,5.9-29.6
		c3.9-9.4,9.6-17.9,16.8-25.1s15.7-12.9,25.1-16.8c9.4-3.9,19.5-5.9,29.6-5.9l0,0h49.2c1.5,0,3.1,0.1,4.6,0.1
		c1.5,0.1,3.1,0.2,4.6,0.4c0.9,0.1,1.8,0.2,2.6,0.4c1,0.2,2,0.3,3,0.5c0.9,0.2,1.7,0.4,2.6,0.6c1,0.2,2,0.5,3,0.8
		c0.9,0.2,1.7,0.5,2.6,0.8c1,0.3,2,0.6,3,1c0.9,0.3,1.7,0.6,2.5,1c0.4,0.1,0.7,0.3,1.1,0.4c0.6,0.3,1.2,0.5,1.9,0.8
		c0.9,0.4,1.7,0.8,2.5,1.2c1,0.5,2,1,2.9,1.5c0.9,0.5,1.7,0.9,2.5,1.4c5.6,3.3,10.7,7.3,15.3,11.9c7.2,7.2,12.9,15.7,16.8,25.1
		C1139.9,908.8,1141.9,918.9,1141.9,929z"/>
	<path class="st1" d="M1147.7,929h-2.7c0-10.5-2.1-21.1-6.1-30.8c-4-9.7-10-18.6-17.4-26.1c-5.1-5.1-10.8-9.4-17-13
		c-0.8-0.5-1.6-0.9-2.5-1.4c-0.9-0.5-1.9-1-2.9-1.4c-0.8-0.4-1.7-0.8-2.5-1.1c-0.4-0.2-0.8-0.3-1.2-0.5c-0.6-0.2-1.1-0.5-1.7-0.7
		c-0.8-0.3-1.7-0.6-2.5-0.9c-1-0.3-2-0.7-2.9-1c-0.9-0.3-1.7-0.5-2.6-0.7c-1-0.3-2-0.5-3-0.7h0c-0.9-0.2-1.7-0.4-2.6-0.6
		c-1-0.2-2-0.4-3-0.5c-0.9-0.1-1.8-0.3-2.7-0.4c-3.2-0.4-6.5-0.7-9.8-0.7h-49.2l0,0c-10.5,0-21.1,2.2-30.8,6.2
		c-9.7,4-18.6,10-26.1,17.4c-7.4,7.4-13.4,16.4-17.4,26.1c-4,9.7-6.1,20.3-6.1,30.8h-2.7c0-10.9,2.1-21.8,6.3-31.8
		c4.2-10.1,10.3-19.3,18-27c7.7-7.7,16.9-13.9,27-18c10.1-4.2,20.9-6.4,31.8-6.4l0,0h49.2c1.7,0,3.5,0.1,5.2,0.2
		c1.7,0.1,3.4,0.3,5.2,0.5c0.9,0.1,1.8,0.2,2.7,0.4c1,0.2,2,0.3,3,0.5c0.9,0.2,1.7,0.4,2.6,0.6c1,0.2,2,0.5,3,0.7
		c0.9,0.2,1.7,0.5,2.6,0.7c1,0.3,2,0.6,2.9,1c0.8,0.3,1.7,0.6,2.5,0.9c0.7,0.3,1.4,0.6,2.1,0.9c0.3,0.1,0.5,0.2,0.8,0.3
		c0.8,0.4,1.7,0.7,2.5,1.1c1,0.4,1.9,0.9,2.8,1.4c0.8,0.4,1.6,0.9,2.5,1.3c6.7,3.7,13,8.4,18.4,13.9c7.7,7.7,13.9,16.9,18,27
		C1145.5,907.3,1147.7,918.2,1147.7,929z"/>
	<path class="st1" d="M1153.4,929h-2.7c0-11.3-2.2-22.6-6.6-33c-4.3-10.4-10.7-20-18.7-28c-5.9-5.9-12.6-10.9-19.9-14.8
		c-0.8-0.4-1.6-0.9-2.4-1.3c-0.9-0.5-1.9-0.9-2.8-1.4c-0.8-0.4-1.6-0.7-2.5-1.1c-0.1-0.1-0.2-0.1-0.4-0.1c-0.8-0.3-1.7-0.7-2.5-1
		c-0.8-0.3-1.7-0.6-2.5-0.9c-1-0.3-1.9-0.6-2.9-0.9c-0.9-0.3-1.7-0.5-2.6-0.7c-1-0.3-2-0.5-3-0.7c-0.9-0.2-1.7-0.4-2.6-0.6
		c-1-0.2-2-0.4-3-0.5c-0.9-0.1-1.8-0.3-2.7-0.4c-3.7-0.5-7.4-0.8-11.1-0.8h-49.2l0,0c-11.3,0-22.6,2.3-33,6.7
		c-10.4,4.3-20,10.7-28,18.7c-8,8-14.4,17.5-18.7,28c-4.3,10.4-6.6,21.7-6.6,33h-2.7c0-11.6,2.3-23.3,6.8-34
		c4.5-10.8,11.1-20.6,19.3-28.8c8.2-8.2,18.1-14.8,28.8-19.3c10.8-4.5,22.4-6.8,34-6.8l0,0h49.2c2,0,4,0.1,6,0.2
		c2,0.2,4,0.4,5.9,0.6c0.9,0.1,1.8,0.3,2.7,0.4c1,0.2,2,0.4,3.1,0.6c0.9,0.2,1.7,0.4,2.6,0.6c1,0.2,2,0.5,3,0.8
		c0.9,0.2,1.7,0.5,2.6,0.7c1,0.3,2,0.6,2.9,0.9c0.8,0.3,1.7,0.6,2.5,0.9c0.9,0.3,1.9,0.7,2.8,1.1c0,0,0.1,0,0.1,0
		c0.8,0.3,1.6,0.7,2.5,1.1c0.9,0.4,1.9,0.9,2.8,1.3c0.8,0.4,1.6,0.8,2.4,1.2c7.7,4.1,14.8,9.4,21,15.6c8.2,8.2,14.8,18.1,19.3,28.8
		C1151.1,905.8,1153.4,917.4,1153.4,929z"/>
	<path class="st1" d="M1159.2,929h-2.7c0-6-0.6-12-1.8-17.9s-2.9-11.7-5.2-17.3c-4.6-11.1-11.4-21.3-19.9-29.8
		c-6.5-6.5-14.1-12.1-22.2-16.4c-0.8-0.4-1.6-0.8-2.4-1.2c-0.9-0.4-1.9-0.9-2.8-1.3c-0.8-0.4-1.6-0.7-2.4-1c0,0-0.1,0-0.1,0
		c-1-0.4-1.9-0.8-2.9-1.1c-0.8-0.3-1.7-0.6-2.5-0.9c-1-0.3-2-0.6-2.9-0.9c-0.9-0.3-1.7-0.5-2.6-0.7c-1-0.3-2-0.5-3-0.8
		c-0.9-0.2-1.7-0.4-2.6-0.6c-0.2,0-0.5-0.1-0.7-0.1c-0.8-0.2-1.6-0.3-2.4-0.4c-0.9-0.2-1.8-0.3-2.7-0.4c-4.3-0.6-8.6-0.9-12.9-0.9
		h-49.2c-3,0-6,0.2-9,0.5c-3,0.3-6,0.8-8.9,1.3c-5.9,1.2-11.7,2.9-17.3,5.2c-11.1,4.6-21.3,11.4-29.8,19.9
		c-8.5,8.5-15.3,18.7-19.9,29.8c-2.3,5.6-4.1,11.4-5.2,17.3c-1.2,5.9-1.8,11.9-1.8,17.9h-2.7c0-6.2,0.6-12.4,1.8-18.4
		c1.2-6.1,3-12,5.4-17.8c4.7-11.5,11.8-21.9,20.5-30.7s19.2-15.8,30.7-20.5c5.7-2.4,11.7-4.2,17.8-5.4c6.1-1.2,12.3-1.8,18.4-1.8
		h49.2c4.6,0,9.2,0.3,13.8,1c0.9,0.1,1.8,0.3,2.7,0.4c0.7,0.1,1.3,0.2,2,0.4c0.4,0.1,0.7,0.1,1.1,0.2c0.9,0.2,1.8,0.4,2.6,0.6
		c1,0.2,2,0.5,3,0.8c0.9,0.2,1.7,0.5,2.6,0.7c1,0.3,2,0.6,2.9,1c0.8,0.3,1.7,0.6,2.5,0.9c1,0.4,1.9,0.7,2.9,1.1c0,0,0.1,0,0.1,0
		c0.8,0.3,1.6,0.7,2.3,1c0.9,0.4,1.9,0.9,2.8,1.3c0.8,0.4,1.6,0.8,2.4,1.2c8.5,4.5,16.4,10.2,23.2,17c8.7,8.7,15.8,19.2,20.5,30.7
		c2.4,5.7,4.2,11.7,5.4,17.8C1158.6,916.7,1159.2,922.9,1159.2,929z"/>
	<path class="st1" d="M1130.4,929h-2.7c0-8.3-1.6-16.6-4.8-24.2c-3.2-7.6-7.9-14.6-13.7-20.5c-1.5-1.4-3-2.8-4.6-4.1
		c-1-0.8-2-1.6-3.1-2.4c-1.1-0.8-2.2-1.6-3.4-2.3c-0.9-0.6-1.9-1.1-2.8-1.7c-1-0.6-2.1-1.1-3.2-1.7c-0.9-0.4-1.8-0.9-2.7-1.2
		c-0.3-0.1-0.5-0.2-0.8-0.3c-0.8-0.3-1.5-0.6-2.3-0.9c-0.9-0.3-1.8-0.6-2.7-0.9c-1-0.3-2-0.6-3.1-0.9c-0.9-0.2-1.8-0.4-2.7-0.6
		c-1-0.2-2-0.4-3.1-0.6c-0.9-0.1-1.8-0.3-2.7-0.4c-2.6-0.3-5.1-0.5-7.7-0.5v0l-49.2,0l0,0c-8.3,0-16.6,1.6-24.2,4.8
		c-7.6,3.2-14.6,7.9-20.5,13.7c-5.9,5.9-10.6,12.9-13.7,20.5c-3.2,7.6-4.8,15.9-4.8,24.2h-2.7c0-8.7,1.7-17.2,5-25.2
		c3.3-8,8.2-15.3,14.3-21.4c6.1-6.1,13.4-11,21.4-14.3c8-3.3,16.5-5,25.2-5l49.2,0.1v-0.1c2.6,0,5.2,0.2,7.8,0.5
		c0.9,0.1,1.8,0.2,2.7,0.4c1,0.2,2,0.4,3.1,0.6c0.9,0.2,1.8,0.4,2.6,0.6c1,0.3,2,0.5,3.1,0.9c0.9,0.3,1.8,0.6,2.6,0.9
		c1,0.4,2.1,0.7,3.1,1.2c0.1,0,0.2,0.1,0.3,0.1c0.8,0.3,1.6,0.7,2.4,1.1c1,0.5,2.1,1,3.1,1.5c0.9,0.5,1.8,1,2.7,1.5
		c1.1,0.6,2.2,1.3,3.2,2c1,0.7,1.9,1.3,2.9,2.1c2.5,1.9,4.8,3.9,7,6.1c6.1,6.1,11,13.4,14.3,21.4
		C1128.7,911.8,1130.4,920.4,1130.4,929z"/>
</g>
</svg>
