<?xml version="1.0" encoding="utf-8"?>
<!-- Generator: Adobe Illustrator 26.1.0, SVG Export Plug-In . SVG Version: 6.00 Build 0)  -->
<svg version="1.1" xmlns="http://www.w3.org/2000/svg" xmlns:xlink="http://www.w3.org/1999/xlink" x="0px" y="0px"
	 viewBox="0 0 2041.8 900" style="enable-background:new 0 0 2041.8 900;" xml:space="preserve">
<style type="text/css">
	.st0{fill:#F4F4F4;}
	.st1{fill:#C9C9C9;}
	.st2{fill:#E0E0DD;}
</style>
<g id="Layer_3">
	<polygon class="st0" points="1670.8,900 377.9,900 377.9,900 	"/>
</g>
<g id="Layer_4">
</g>
<g id="Layer_2_00000139253918418474231250000016859014656631316608_">
	<path class="st1" d="M2273.4,1989.4l-897.6,0H681.6c-248.5,0-450-201.5-450-450v0c0-248.5,201.5-450,450-450h612h979.8
		l-1942.2,16.2c-0.6,0-1.2,0-1.8,0c-0.2,0-0.4,0-0.5,0c-44.5,0.3-80.4,36.4-80.4,81v705.6c0,44.7,36.2,81,81,81L2273.4,1989.4z"/>
	<rect class="st0" width="2041.8" height="900"/>
	<g>
		<path class="st2" d="M1059.4,497.4c-0.6-1.4-1.2-2.8-1.7-4.2c-2.7,0.8-5.4,1.6-8,2.5c0.7,1.7,1.3,3.3,2,5c0.4,0.9,0.8,1.9,1.2,2.8
			c2.7-0.9,5.3-1.7,8-2.4C1060.4,499.8,1059.9,498.6,1059.4,497.4z"/>
		<path class="st2" d="M1621.6,233v154.2c0,19.3-1.9,38.7-5.7,57.7c-3.8,19-9.4,37.7-16.9,55.7c-14.9,35.9-36.8,68.7-64.2,96.1
			c-27.4,27.4-60.2,49.4-96.1,64.2c-9.3,3.9-18.8,7.3-28.5,10.1c-2.7,0.8-5.5,1.6-8.2,2.3c-3.2,0.8-6.3,1.6-9.5,2.4
			c-2.8,0.6-5.5,1.2-8.3,1.8c-0.4,0.1-0.7,0.2-1.1,0.2c-2.8,0.6-5.6,1.1-8.5,1.5c-2.8,0.5-5.5,0.9-8.3,1.3c-3.2,0.4-6.4,0.8-9.6,1.2
			c-2.8,0.3-5.6,0.6-8.3,0.8c-3.2,0.3-6.4,0.4-9.6,0.6c-2.8,0.1-5.6,0.2-8.4,0.3c-1.7,0-3.4,0.1-5,0.1c-1.5,0-3.1,0-4.6,0
			c-2.8,0-5.6-0.1-8.4-0.3c-15-0.7-30-2.4-44.8-5.4c-19-3.8-37.7-9.4-55.7-16.9c-35.9-14.9-68.7-36.8-96.1-64.2
			c-26.7-26.7-48.2-58.5-63.1-93.3c2.7-0.9,5.3-1.7,8-2.4c14.4,33.5,35.2,64.1,60.9,89.8c26.6,26.6,58.5,48,93.4,62.4
			c17.4,7.2,35.6,12.7,54.1,16.4c14.1,2.8,28.3,4.5,42.6,5.2c2.8,0.1,5.6,0.2,8.4,0.3c1.7,0,3.4,0.1,5.1,0.1c1.5,0,3,0,4.6,0
			c2.8-0.1,5.6-0.1,8.4-0.3c3.2-0.1,6.4-0.3,9.6-0.6c2.8-0.2,5.6-0.5,8.3-0.8c3.2-0.3,6.4-0.7,9.6-1.2c2.8-0.4,5.5-0.8,8.3-1.3
			c2.5-0.4,4.9-0.9,7.4-1.4c0.7-0.1,1.4-0.3,2.2-0.4c2.8-0.6,5.5-1.2,8.2-1.8c3.2-0.7,6.3-1.6,9.5-2.4c2.7-0.7,5.5-1.5,8.2-2.4
			c8.8-2.7,17.5-5.8,26-9.3c34.9-14.4,66.7-35.8,93.4-62.4c26.6-26.6,48-58.5,62.4-93.4c7.2-17.4,12.7-35.6,16.4-54.1
			c3.7-18.5,5.5-37.3,5.5-56.1h0.1V233h-0.1c0-18.8-1.8-37.6-5.5-56.1c-3.7-18.5-9.1-36.6-16.4-54.1C1577,87.9,1555.6,56,1529,29.4
			c-26.6-26.6-58.5-48-93.4-62.4c-17.4-7.2-35.6-12.7-54.1-16.4c-18.5-3.7-37.3-5.5-56.1-5.5c-18.8,0-37.6,1.8-56.1,5.5
			c-18.5,3.7-36.6,9.2-54.1,16.4c-34.9,14.4-66.7,35.8-93.4,62.4c-26.6,26.6-48,58.5-62.4,93.4c-7.2,17.4-12.7,35.6-16.4,54.1
			c-3.7,18.5-5.5,37.3-5.5,56.1h-0.1v154.2h0.1c0,6,0.2,12,0.6,18c-2.8,0.7-5.5,1.5-8.2,2.3c-0.5-6.8-0.7-13.5-0.7-20.3V233
			c0-19.3,1.9-38.7,5.7-57.8c3.8-19,9.4-37.7,16.9-55.7c14.9-35.9,36.9-68.7,64.2-96.1c27.4-27.4,60.2-49.4,96.1-64.2
			c17.9-7.4,36.6-13.1,55.7-16.9c19-3.8,38.4-5.7,57.8-5.7c19.3,0,38.7,1.9,57.8,5.7c19,3.8,37.7,9.4,55.6,16.9
			c35.9,14.9,68.7,36.8,96.1,64.2c27.4,27.4,49.4,60.2,64.2,96.1c7.4,17.9,13.1,36.6,16.9,55.7
			C1619.7,194.3,1621.6,213.7,1621.6,233z"/>
		<g>
			<path class="st2" d="M1155.9,489.3c-3.6-0.7-7.2-1.4-10.8-1.9c1.8,3.2,3.6,6.3,5.6,9.4c3.9,0.7,7.8,1.6,11.7,2.5
				C1160.1,496,1157.9,492.7,1155.9,489.3z"/>
			<path class="st2" d="M1531.5,387.2h0.2c0,27.1-5.3,54-15.7,78.9c-10.3,24.9-25.6,47.8-44.7,66.9c-19.1,19.1-42,34.4-66.9,44.7
				c-4.6,1.9-9.2,3.6-13.9,5.2c-2.7,0.9-5.3,1.7-8,2.5c-3.1,0.9-6.3,1.7-9.4,2.5c-2.8,0.7-5.5,1.2-8.3,1.8c-3.2,0.6-6.5,1.2-9.8,1.6
				c-2.9,0.4-5.7,0.8-8.6,1.1c-3.4,0.3-6.8,0.6-10.2,0.8c-3,0.2-6,0.3-9.1,0.3c-0.6,0-1.2,0-1.7,0c-3,0-6-0.1-9-0.2
				c-3.2-0.1-6.5-0.4-9.7-0.7c-3.9-0.3-7.8-0.8-11.7-1.4c-3.6-0.5-7.2-1.2-10.8-1.9c-12.9-2.6-25.6-6.5-37.8-11.5
				c-24.9-10.3-47.8-25.6-66.9-44.7c-11-11-20.7-23.1-28.9-36.2c3.9,0.7,7.8,1.6,11.7,2.5c6.8,9.9,14.6,19.3,23.1,27.8
				c18.4,18.4,40.3,33,64.2,42.9c9.1,3.8,18.5,6.9,28.1,9.2c3.9,0.9,7.7,1.8,11.6,2.5c4.1,0.8,8.2,1.4,12.4,1.9h0
				c3.4,0.4,6.7,0.7,10.1,1c3.7,0.2,7.4,0.4,11.1,0.4c0.8,0,1.6,0,2.3,0c2.3,0,4.7,0,7-0.1c3.5-0.1,6.9-0.3,10.4-0.6
				c2.9-0.3,5.9-0.6,8.8-1c3.3-0.4,6.6-1,9.9-1.6c2.8-0.5,5.6-1.1,8.4-1.7c3.2-0.7,6.3-1.5,9.5-2.4c2.7-0.8,5.4-1.6,8-2.4
				c4.7-1.5,9.3-3.2,13.8-5.1c23.9-9.9,45.8-24.6,64.2-42.9c18.3-18.4,33-40.3,42.9-64.2c9.9-23.9,15-49.7,15-75.7h0V233h0
				c0-26-5.1-51.8-15-75.7c-9.9-23.9-24.6-45.8-42.9-64.2c-18.4-18.3-40.3-33-64.2-42.9c-23.9-9.9-49.7-15-75.7-15
				c-26,0-51.8,5.1-75.7,15c-23.9,9.9-45.8,24.6-64.2,42.9c-18.4,18.4-33,40.3-42.9,64.2c-9.9,23.9-15,49.7-15,75.7h0v154.2h0
				c0,2.7,0.1,5.5,0.2,8.2c-2.8-0.1-5.6-0.2-8.4-0.3c-0.1-2.6-0.2-5.3-0.2-7.9h0.2V233h-0.2c0-27.1,5.3-54,15.7-78.9
				c10.3-24.9,25.6-47.8,44.7-66.9c19.1-19.1,42-34.4,66.9-44.7c24.9-10.3,51.8-15.6,78.9-15.7c27.1,0,54,5.3,78.9,15.7
				c24.9,10.3,47.8,25.6,66.9,44.7c19.1,19.1,34.4,42,44.7,66.9c10.3,24.9,15.6,51.8,15.7,78.9h-0.2V387.2z"/>
			<path class="st2" d="M1113,485.1c-3,0-6,0.1-9.1,0.3c1.2,2.8,2.5,5.5,3.8,8.2c2.3-0.1,4.6-0.1,7-0.1c0.8,0,1.6,0,2.3,0
				C1115.6,490.7,1114.3,487.9,1113,485.1z"/>
			<path class="st2" d="M1567.3,387.2h0.3c0,31.7-6.2,63.4-18.4,92.7c-12.1,29.3-30.1,56.2-52.5,78.6
				c-22.4,22.4-49.3,40.4-78.6,52.5c-5.4,2.3-11,4.3-16.6,6.2c-2.6,0.9-5.3,1.7-8,2.5c-3.1,0.9-6.2,1.8-9.3,2.5
				c-2.7,0.7-5.4,1.3-8.2,1.9c-3.2,0.7-6.3,1.3-9.5,1.8c-2.8,0.5-5.5,0.9-8.3,1.3c-3.2,0.4-6.4,0.8-9.7,1.1
				c-2.8,0.3-5.7,0.5-8.5,0.7h0c-3.3,0.2-6.6,0.3-9.9,0.4c-1.6,0-3.2,0.1-4.8,0.1c-1.3,0-2.6,0-3.9,0h0c-3.4,0-6.8-0.2-10.2-0.4
				c-3-0.2-6-0.4-9-0.7c-23.9-2.3-47.5-8.1-69.6-17.3c-29.3-12.1-56.2-30.1-78.6-52.5c-18.9-18.9-34.6-40.9-46.3-64.9
				c2.3-0.1,4.6-0.1,7-0.1c0.8,0,1.6,0,2.3,0c11.1,21.8,25.7,41.8,43,59.1c21.7,21.7,47.6,39,75.9,50.7
				c20.2,8.4,41.5,13.9,63.3,16.3c3.1,0.3,6.2,0.6,9.3,0.9c3.5,0.3,6.9,0.4,10.4,0.5c2.2,0.1,4.4,0.1,6.6,0.1c0.8,0,1.5,0,2.3,0
				c3.3,0,6.7-0.1,10-0.3c2.9-0.1,5.7-0.3,8.6-0.6c3.3-0.3,6.5-0.7,9.8-1.1c2.8-0.4,5.6-0.8,8.3-1.3c3.2-0.5,6.4-1.1,9.5-1.8
				c2.7-0.6,5.5-1.2,8.2-1.9c3.1-0.8,6.2-1.6,9.3-2.5c2.7-0.8,5.3-1.6,8-2.5c5.3-1.7,10.4-3.7,15.6-5.8
				c28.3-11.7,54.2-29.1,75.9-50.7c21.7-21.7,39-47.6,50.7-75.9c11.7-28.3,17.8-58.9,17.8-89.5h-0.2V233h0.2
				c0-30.7-6-61.2-17.8-89.5c-11.7-28.3-29.1-54.2-50.7-75.9c-21.7-21.7-47.6-39-75.9-50.7c-28.3-11.8-58.9-17.8-89.5-17.8
				c-30.7,0-61.2,6-89.5,17.8c-28.3,11.7-54.2,29.1-75.9,50.7c-21.7,21.7-39,47.6-50.7,75.9c-11.8,28.3-17.8,58.9-17.8,89.5h-0.2
				v154.2h0.2c0,2.9,0.1,5.9,0.2,8.8c-2.8,0.2-5.6,0.5-8.3,0.8c-0.1-3.2-0.2-6.4-0.2-9.6h0V233h0c0-31.7,6.2-63.4,18.4-92.7
				c12.1-29.3,30.1-56.2,52.5-78.6c22.4-22.4,49.3-40.4,78.6-52.5c29.3-12.2,61-18.4,92.7-18.4c31.7,0,63.4,6.2,92.7,18.4
				c29.3,12.1,56.1,30.1,78.6,52.5c22.4,22.4,40.4,49.3,52.5,78.6c12.2,29.3,18.4,61,18.4,92.7h-0.3V387.2z"/>
			<path class="st2" d="M1093.7,486.2c-2.9,0.3-5.8,0.6-8.6,1.1c1.1,2.7,2.3,5.3,3.5,8c2.9-0.4,5.8-0.7,8.8-1
				C1096.1,491.6,1094.9,488.9,1093.7,486.2z"/>
			<path class="st2" d="M1585.4,387.2h0.2c0,34-6.7,68.1-19.8,99.6c-13,31.5-32.4,60.3-56.4,84.4c-24.1,24.1-52.9,43.4-84.4,56.4
				c-6.4,2.7-12.9,5-19.5,7.2c-2.7,0.9-5.4,1.7-8,2.4c-3.1,0.9-6.2,1.7-9.3,2.5c-2.7,0.7-5.4,1.3-8.1,1.9c-3.1,0.7-6.3,1.3-9.5,1.8
				c-2.7,0.5-5.5,0.9-8.3,1.3c-3.2,0.5-6.4,0.9-9.6,1.2c-2.8,0.3-5.6,0.5-8.4,0.8c-3.2,0.2-6.5,0.4-9.7,0.5
				c-2.8,0.1-5.7,0.2-8.5,0.2h-0.7c-3.1,0-6.1-0.1-9.2-0.2c-2.9-0.1-5.8-0.3-8.7-0.5c-28-1.9-55.8-8.4-81.7-19.2
				c-31.5-13-60.3-32.4-84.4-56.4c-21.9-21.9-39.9-47.8-52.8-76c2.9-0.4,5.8-0.7,8.8-1c12.4,26.3,29.3,50.5,49.9,71
				c23.3,23.3,51.2,42,81.7,54.6c24.3,10.1,50.2,16.2,76.4,18.3c2.9,0.2,5.9,0.4,8.8,0.6c3.3,0.2,6.7,0.2,10,0.2c0.4,0,0.8,0,1.2,0
				v0c2.5,0,4.9,0,7.4-0.1c3.3-0.1,6.5-0.3,9.8-0.5c2.8-0.2,5.6-0.4,8.4-0.7c3.2-0.3,6.4-0.7,9.6-1.2c2.8-0.4,5.5-0.8,8.3-1.3
				c3.2-0.6,6.3-1.2,9.5-1.8c2.7-0.6,5.4-1.2,8.1-1.9c3.1-0.8,6.2-1.6,9.3-2.5c2.7-0.8,5.4-1.6,8-2.5c6.1-2,12.1-4.2,18-6.7
				c30.5-12.6,58.4-31.3,81.7-54.6c23.3-23.3,42-51.2,54.6-81.7c12.7-30.5,19.1-63.4,19.1-96.4h-0.1V233h0.1c0-33-6.5-66-19.1-96.4
				c-12.6-30.5-31.3-58.4-54.6-81.7c-23.3-23.3-51.2-42-81.7-54.6c-30.5-12.7-63.4-19.1-96.4-19.1c-33,0-65.9,6.5-96.4,19.1
				c-30.5,12.6-58.4,31.3-81.7,54.6c-23.3,23.3-42,51.2-54.6,81.7c-12.7,30.5-19.1,63.4-19.1,96.4h-0.3v154.2h0.3
				c0,3.6,0.1,7.2,0.2,10.8c-2.8,0.4-5.5,0.8-8.3,1.3c-0.2-4-0.3-8-0.3-12h-0.1V233h0.1c0-34,6.7-68.1,19.8-99.6
				c13-31.5,32.4-60.3,56.4-84.4c24.1-24.1,52.9-43.4,84.4-56.4c31.5-13.1,65.6-19.8,99.6-19.8c34,0,68.1,6.7,99.6,19.8
				c31.5,13,60.3,32.4,84.4,56.4c24.1,24.1,43.4,52.9,56.4,84.4c13.1,31.5,19.8,65.6,19.8,99.6h-0.2V387.2z"/>
			<path class="st2" d="M1076,490.5c-0.2-0.5-0.4-1.1-0.6-1.6c-2.8,0.5-5.6,1.1-8.3,1.8c0.4,1,0.8,2,1.2,3c0.7,1.6,1.4,3.2,2.1,4.8
				c2.8-0.6,5.6-1.2,8.4-1.7C1077.8,494.7,1076.9,492.6,1076,490.5z"/>
			<path class="st2" d="M1603.6,387.2L1603.6,387.2c0.1,36.3-7.1,72.8-21.1,106.5c-13.9,33.7-34.6,64.5-60.3,90.3
				c-25.7,25.7-56.6,46.4-90.3,60.3c-7.7,3.2-15.5,6-23.5,8.5c-2.7,0.8-5.4,1.6-8.1,2.4c-3.1,0.9-6.3,1.7-9.4,2.4
				c-2.7,0.7-5.5,1.3-8.2,1.9h0c-3.2,0.7-6.3,1.3-9.5,1.8c-2.7,0.5-5.5,0.9-8.3,1.3c-3.2,0.5-6.4,0.9-9.6,1.2
				c-2.8,0.3-5.5,0.6-8.3,0.8c-3.2,0.3-6.4,0.5-9.6,0.6c-2.8,0.1-5.6,0.2-8.4,0.2c-1.2,0-2.4,0-3.6,0c-2,0-4.1,0-6.1-0.1
				c-2.8-0.1-5.6-0.2-8.5-0.3c-31.5-1.7-62.8-8.6-91.9-20.8c-33.7-13.9-64.5-34.6-90.3-60.3c-24.5-24.5-44.4-53.6-58.3-85.4
				c2.8-0.6,5.6-1.2,8.4-1.7c13.4,30.2,32.5,57.9,55.8,81.3c25,25,54.9,45,87.5,58.5c27.8,11.5,57.5,18.3,87.4,20.1
				c2.8,0.2,5.7,0.3,8.5,0.4c2.4,0.1,4.9,0.1,7.3,0.1c0.8,0,1.6,0,2.5,0c2.8,0,5.6-0.1,8.4-0.2c3.2-0.1,6.5-0.3,9.7-0.6
				c2.8-0.2,5.6-0.5,8.3-0.8c3.2-0.3,6.4-0.7,9.6-1.2c2.8-0.4,5.5-0.8,8.3-1.3c3.2-0.6,6.3-1.2,9.5-1.8c2.7-0.6,5.5-1.2,8.2-1.9
				c3.1-0.8,6.3-1.6,9.4-2.5c2.7-0.8,5.4-1.6,8.1-2.4c7.3-2.3,14.4-4.9,21.5-7.8c32.7-13.5,62.6-33.6,87.5-58.5
				c25-25,45-54.9,58.5-87.5c13.6-32.7,20.5-68,20.5-103.3h0V233h0c0-35.3-6.9-70.7-20.5-103.3c-13.5-32.7-33.5-62.6-58.5-87.5
				c-25-25-54.9-45-87.5-58.5c-32.7-13.6-68-20.5-103.3-20.5v0c-35.3,0-70.7,7-103.3,20.5c-32.7,13.5-62.6,33.6-87.5,58.5
				c-25,25-45,54.9-58.5,87.5c-13.6,32.7-20.5,68-20.5,103.3h-0.4v154.2h0.4c0,4.6,0.1,9.2,0.4,13.8c-2.8,0.6-5.5,1.2-8.3,1.8
				c-0.3-5.2-0.4-10.4-0.4-15.6h-0.2V233h0.2c0-36.4,7.2-72.8,21.2-106.5c13.9-33.7,34.6-64.5,60.3-90.3
				c25.7-25.7,56.6-46.4,90.3-60.3c33.7-14,70.2-21.1,106.5-21.2c36.3,0,72.8,7.2,106.5,21.2c33.7,13.9,64.5,34.6,90.3,60.3
				c25.7,25.7,46.4,56.6,60.3,90.3c14,33.7,21.2,70.2,21.2,106.5h-0.1V387.2z"/>
		</g>
		<path class="st2" d="M1133.4,486c-3.2-0.3-6.5-0.5-9.7-0.7c1.4,2.9,2.9,5.8,4.4,8.6c3.4,0.2,6.8,0.5,10.1,0.9
			C1136.6,492,1135,489,1133.4,486z"/>
		<path class="st2" d="M1549.2,387.2h0.4c0,29.4-5.8,58.7-17,85.8c-11.2,27.1-27.9,52-48.6,72.7c-20.8,20.8-45.6,37.4-72.7,48.6
			c-4.8,2-9.7,3.8-14.7,5.5c-2.6,0.9-5.3,1.7-8,2.5c-3.1,0.9-6.2,1.7-9.3,2.5c-2.7,0.7-5.4,1.3-8.2,1.9c-3.2,0.7-6.4,1.3-9.6,1.8
			c-2.8,0.5-5.6,0.9-8.4,1.2c-3.3,0.4-6.6,0.7-9.9,1c-2.9,0.2-5.8,0.4-8.7,0.5c-3,0.1-6,0.2-9.1,0.2c-0.4,0-0.8,0-1.2,0
			c-3,0-6-0.1-9-0.2c-3.6-0.2-7.2-0.4-10.8-0.8c-3.2-0.3-6.4-0.7-9.6-1.1h0c-19-2.6-37.6-7.6-55.2-14.9
			c-27.1-11.2-52-27.9-72.7-48.6c-15.3-15.3-28.4-32.8-38.6-51.8c3.4,0.2,6.8,0.5,10.1,0.9v0c9.4,16.4,21.1,31.5,34.4,44.9
			c20,20,44,36,70,46.8c15.3,6.3,31.3,10.9,47.6,13.5c3.3,0.6,6.7,1,10,1.4c3.7,0.4,7.4,0.8,11.1,1c3.1,0.2,6.2,0.3,9.3,0.4
			c1.5,0,3,0.1,4.5,0.1c2,0,3.9,0,5.9-0.1c2.9-0.1,5.9-0.2,8.8-0.4c3.3-0.2,6.7-0.5,10-0.9c2.8-0.3,5.7-0.7,8.5-1.2
			c3.2-0.5,6.4-1.1,9.6-1.7c2.8-0.6,5.5-1.2,8.2-1.8c3.1-0.8,6.3-1.6,9.4-2.5c2.7-0.8,5.3-1.6,8-2.5c4.8-1.6,9.5-3.4,14.2-5.3
			c26.1-10.8,50-26.8,70-46.8c20-20,36-44,46.8-70c10.8-26.1,16.4-54.3,16.4-82.6h-0.3V233h0.3c0-28.3-5.6-56.5-16.4-82.6
			c-10.8-26.1-26.8-50-46.8-70c-20-20-44-36-70-46.8c-26.1-10.8-54.3-16.4-82.6-16.4c-28.3,0-56.5,5.6-82.6,16.4
			c-26.1,10.8-50,26.8-70,46.8c-20,20-36,44-46.8,70c-10.8,26.1-16.4,54.3-16.4,82.6h-0.1v154.2h0.1c0,2.7,0.1,5.3,0.2,7.9
			c-2.8,0-5.6,0.1-8.4,0.3c-0.1-2.7-0.2-5.5-0.2-8.2h0.1V233h-0.1c0-29.4,5.8-58.7,17-85.8c11.2-27.1,27.9-52,48.6-72.8
			c20.8-20.8,45.6-37.4,72.7-48.6c27.1-11.3,56.4-17,85.8-17c29.4,0,58.7,5.8,85.8,17c27.1,11.2,52,27.9,72.7,48.6
			c20.8,20.8,37.4,45.6,48.6,72.8c11.3,27.1,17,56.4,17,85.8h-0.4V387.2z"/>
		<path class="st2" d="M766.3,960.4c10.5,15.7,22.5,30.3,35.8,43.6l-5.9,5.9c-13.6-13.7-26-28.7-36.8-44.8
			c-10.8-16.1-20-33.3-27.4-51.3c-14.9-35.9-22.5-74.6-22.5-113.4c0-2.7,0-5.4,0.1-8.1c2.8,0.3,5.6,0.7,8.3,1.2
			c-0.1,2.3-0.1,4.6-0.1,6.9c0,37.7,7.4,75.3,21.9,110.2C746.9,928,755.8,944.7,766.3,960.4z"/>
		<path class="st2" d="M756.3,903.7c13.5,32.7,33.6,62.6,58.5,87.6l-5.9,5.9c-25.7-25.7-46.4-56.6-60.3-90.3
			c-14-33.7-21.2-70.1-21.2-106.5c0-1.7,0-3.4,0-5c2.8,0.6,5.6,1.3,8.3,2c0,1,0,2,0,3.1C735.8,835.7,742.8,871,756.3,903.7z"/>
		<path class="st2" d="M772.9,896.8c12.6,30.5,31.3,58.4,54.6,81.7l-5.9,5.9c-24.1-24.1-43.4-52.9-56.4-84.4
			c-13.1-31.5-19.8-65.5-19.8-99.6v-0.3c2.8,0.9,5.6,1.9,8.4,2.9C754.2,835.1,760.7,867.1,772.9,896.8z"/>
		<path class="st2" d="M789.6,889.9c11.7,28.3,29.1,54.2,50.7,75.9l-5.9,5.9c-22.4-22.4-40.4-49.3-52.5-78.6
			c-11.3-27.3-17.5-56.7-18.3-86.2c2.9,1.2,5.7,2.5,8.5,3.9C773.2,837.9,779.2,864.8,789.6,889.9z"/>
		<path class="st2" d="M822.9,876.1c9.9,23.9,24.5,45.7,42.9,64.2l-5.9,5.9c-19.2-19.2-34.4-42-44.7-66.9
			c-6.7-16.3-11.4-33.5-13.8-51c3.3,2.4,6.5,4.9,9.7,7.5C813.5,849.6,817.5,863.2,822.9,876.1z"/>
		<path class="st2" d="M806.2,883c10.8,26.1,26.8,50,46.8,70l-5.9,5.9c-20.8-20.8-37.4-45.6-48.6-72.7
			c-9.2-22.3-14.8-46.1-16.5-70.2c3,1.7,5.9,3.4,8.8,5.3C792.9,842.4,798.1,863.3,806.2,883z"/>
		<path class="st2" d="M1311.9,584.6c-3.4-0.2-6.8-0.6-10.1-1h0c-9.4-16.4-21-31.5-34.5-44.9c-20.1-20-43.9-36-70-46.8
			c-15.3-6.3-31.3-10.9-47.6-13.5c-3.3-0.6-6.7-1-10-1.4c-3.7-0.4-7.4-0.8-11.1-1c-3.1-0.2-6.2-0.3-9.3-0.4c-1.5,0-3-0.1-4.5-0.1
			c-2,0-3.9,0-5.9,0.1c-3,0.1-5.9,0.2-8.9,0.4c-3.3,0.2-6.7,0.5-10,0.9c-2.8,0.3-5.7,0.7-8.5,1.1c-3.2,0.5-6.5,1.1-9.6,1.7
			c-2.8,0.6-5.5,1.2-8.2,1.8c-3.1,0.8-6.3,1.6-9.3,2.5c-2.7,0.8-5.3,1.6-8,2.5c-4.8,1.6-9.5,3.4-14.2,5.3
			c-26.1,10.8-50,26.8-70,46.8l-0.1-0.1l-109,109l0,0.1c-20,20.1-36,43.9-46.8,70c-0.1,0.1-0.1,0.2-0.2,0.3
			c-2.4-1.1-4.8-2.1-7.3-3.1c-0.1-0.1-0.3-0.1-0.4-0.2c0-0.1,0.1-0.2,0.1-0.2c11.2-27.1,27.8-51.9,48.6-72.7l0,0.1l109-109l0-0.1
			c20.8-20.8,45.6-37.4,72.7-48.6c4.8-2,9.7-3.8,14.7-5.5v0c2.6-0.9,5.3-1.7,8-2.5c3.1-0.9,6.2-1.7,9.3-2.5c2.7-0.7,5.4-1.3,8.2-1.9
			c3.2-0.7,6.4-1.3,9.6-1.8c2.8-0.5,5.6-0.9,8.4-1.2c3.3-0.4,6.6-0.7,9.9-1c2.9-0.2,5.8-0.4,8.7-0.5c3-0.1,6.1-0.2,9.1-0.2
			c0.4,0,0.8,0,1.1,0c3,0,6,0.1,9.1,0.2c3.6,0.2,7.2,0.4,10.7,0.7c3.2,0.3,6.4,0.7,9.6,1.1c19,2.6,37.6,7.6,55.3,15
			c27.1,11.2,51.9,27.8,72.7,48.6C1288.6,548.1,1301.6,565.6,1311.9,584.6z"/>
		<path class="st2" d="M1338.9,691.3c0,29.4-5.8,58.7-17,85.8c-11.2,27.1-27.8,51.9-48.6,72.7l-53.9,53.3h-11.6l59.6-59.3
			c20-20.1,36-43.9,46.8-70c10.8-26.1,16.4-54.3,16.4-82.6c0-2.7-0.1-5.3-0.2-7.9c2.8,0,5.6-0.1,8.4-0.3
			C1338.9,685.9,1338.9,688.6,1338.9,691.3z"/>
		<path class="st2" d="M1387.3,575.1c-2.7,0.9-5.3,1.7-8,2.4c-6.9-16.1-15.4-31.7-25.1-46.2c-10.5-15.7-22.5-30.3-35.8-43.6
			c-13.3-13.3-27.9-25.3-43.6-35.8c-15.7-10.5-32.4-19.4-49.8-26.7c-30.7-12.7-63.5-20-96.7-21.6c-2.8-0.1-5.6-0.2-8.4-0.3
			c-1.7,0-3.4-0.1-5.1-0.1c-1.5,0-3,0-4.6,0c-2.8,0-5.6,0.1-8.4,0.3c-3.2,0.1-6.4,0.3-9.6,0.6c-2.8,0.2-5.5,0.5-8.3,0.8
			c-3.2,0.3-6.4,0.7-9.6,1.2c-2.8,0.4-5.5,0.8-8.3,1.3c-3.2,0.5-6.4,1.1-9.5,1.8c-2.8,0.6-5.5,1.2-8.2,1.8c-3.2,0.7-6.3,1.6-9.5,2.4
			c-2.7,0.7-5.5,1.5-8.2,2.4c-8.8,2.7-17.5,5.8-26,9.3c-17.4,7.2-34.1,16.2-49.8,26.7c-15.7,10.5-30.3,22.5-43.6,35.8l-0.1-0.1
			l-109,109l0.1,0.1c-13.3,13.3-25.3,27.9-35.8,43.6c-10.5,15.7-19.4,32.4-26.7,49.8c-0.9,2.2-1.8,4.5-2.7,6.7
			c-2.8-0.5-5.6-0.9-8.4-1.4c1.1-2.9,2.2-5.7,3.4-8.6c7.4-17.9,16.6-35.1,27.4-51.3c10.8-16.1,23.2-31.2,36.8-44.9l109-109
			c13.7-13.6,28.7-26,44.9-36.8c16.1-10.8,33.3-20,51.3-27.4c9.3-3.9,18.8-7.2,28.5-10.1c2.7-0.8,5.5-1.6,8.2-2.3
			c3.2-0.8,6.3-1.6,9.5-2.4c2.7-0.6,5.5-1.2,8.3-1.8c3.2-0.6,6.4-1.2,9.6-1.8c2.8-0.5,5.5-0.9,8.3-1.3c3.2-0.4,6.4-0.8,9.6-1.2
			c2.8-0.3,5.5-0.6,8.3-0.8c3.2-0.3,6.4-0.5,9.6-0.6c2.8-0.1,5.6-0.2,8.4-0.3c1.7,0,3.4-0.1,5-0.1c1.5,0,3.1,0,4.6,0
			c2.8,0,5.6,0.1,8.4,0.3c34.4,1.5,68.5,9,100.4,22.2c17.9,7.4,35.1,16.6,51.3,27.4c16.1,10.8,31.2,23.2,44.8,36.8
			c13.7,13.7,26,28.7,36.8,44.9C1371.3,542,1380.1,558.2,1387.3,575.1z"/>
		<path class="st2" d="M1411,691.3c0,38.7-7.7,77.5-22.5,113.4c-7.4,17.9-16.6,35.1-27.4,51.3c-10.8,16.1-23.2,31.2-36.8,44.9
			l-2.4,2.4h-11.6l8.2-8.2c6.6-6.7,12.9-13.7,18.9-21c5.9-7.3,11.6-14.9,16.8-22.7c10.5-15.7,19.4-32.4,26.7-49.8
			c14.4-34.9,21.9-72.5,21.9-110.2c0-6-0.2-12-0.6-18c2.8-0.7,5.5-1.5,8.2-2.3C1410.7,677.8,1411,684.6,1411,691.3z"/>
		<path class="st2" d="M1369.8,580c-2.8,0.6-5.6,1.2-8.4,1.7c-13.4-30.2-32.5-57.9-55.8-81.3c-24.9-24.9-54.9-45-87.6-58.5
			c-27.8-11.5-57.4-18.3-87.4-20.1c-2.8-0.2-5.7-0.3-8.5-0.4c-2.4-0.1-4.9-0.1-7.3-0.1c-0.8,0-1.6,0-2.5,0c-2.8,0-5.6,0.1-8.4,0.2
			c-3.2,0.1-6.4,0.3-9.7,0.6c-2.8,0.2-5.6,0.5-8.3,0.8c-3.2,0.3-6.4,0.7-9.6,1.2c-2.8,0.4-5.5,0.8-8.3,1.3c-3.2,0.6-6.3,1.2-9.5,1.8
			c-2.7,0.6-5.5,1.2-8.2,1.9c-3.1,0.8-6.3,1.6-9.4,2.5c-2.7,0.8-5.4,1.6-8.1,2.4c-7.3,2.3-14.4,4.9-21.4,7.8
			c-32.7,13.5-62.6,33.6-87.6,58.5l-0.3-0.3l-109,109l0.3,0.3c-24.9,24.9-45,54.9-58.5,87.6c-0.5,1.2-1,2.4-1.4,3.6
			c-2.7-0.7-5.5-1.3-8.3-1.9c0.6-1.6,1.3-3.3,2-4.9c13.9-33.7,34.6-64.6,60.4-90.3l-0.2-0.2l109-109l0.2,0.2
			c25.7-25.7,56.6-46.4,90.3-60.4c7.7-3.2,15.5-6,23.4-8.5c2.7-0.8,5.4-1.6,8.1-2.4c3.1-0.9,6.3-1.7,9.4-2.4
			c2.7-0.7,5.5-1.3,8.2-1.9c3.2-0.7,6.3-1.3,9.5-1.8c2.7-0.5,5.5-0.9,8.3-1.3c3.2-0.5,6.4-0.9,9.6-1.2c2.8-0.3,5.6-0.6,8.3-0.8
			c3.2-0.3,6.4-0.5,9.6-0.6c2.8-0.1,5.6-0.2,8.4-0.2c1.2,0,2.4,0,3.6,0c2,0,4.1,0,6.1,0.1c2.8,0.1,5.7,0.2,8.5,0.3
			c31.5,1.7,62.7,8.7,91.9,20.8c33.7,13.9,64.6,34.6,90.3,60.4C1335.9,519.1,1355.9,548.2,1369.8,580z"/>
		<path class="st2" d="M1393,691.3c0,36.4-7.2,72.8-21.2,106.5c-13.9,33.7-34.7,64.5-60.4,90.2l-15.2,15.2h-11.6l21-21
			c12.5-12.5,23.7-26.2,33.5-40.9c9.8-14.7,18.2-30.4,25-46.7c13.5-32.7,20.5-68,20.5-103.3c0-4.6-0.1-9.2-0.4-13.8
			c2.8-0.6,5.5-1.2,8.3-1.8C1392.8,680.9,1393,686.1,1393,691.3z"/>
		<path class="st2" d="M1351.5,583.3c-2.9,0.4-5.8,0.7-8.8,1c-12.4-26.3-29.4-50.5-49.9-71c-23.3-23.3-51.2-42-81.7-54.6
			c-24.3-10.1-50.2-16.2-76.4-18.3c-2.9-0.2-5.9-0.4-8.8-0.6c-3.3-0.2-6.7-0.2-10-0.2c-0.4,0-0.8,0-1.2,0c-2.5,0-4.9,0-7.4,0.1
			c-3.3,0.1-6.5,0.3-9.8,0.5c-2.8,0.2-5.6,0.4-8.4,0.7c-3.2,0.3-6.4,0.7-9.6,1.2c-2.8,0.4-5.5,0.8-8.3,1.3c-3.2,0.6-6.3,1.2-9.5,1.8
			c-2.7,0.6-5.4,1.2-8.1,1.9c-3.1,0.8-6.2,1.6-9.3,2.5c-2.7,0.8-5.4,1.6-8,2.5c-6.1,2-12.1,4.2-18,6.7
			c-30.5,12.6-58.4,31.3-81.7,54.6l-0.2-0.2l-109,109l0.2,0.2c-23.3,23.3-42,51.2-54.6,81.7c-0.2,0.5-0.4,1-0.6,1.5
			c-2.7-0.8-5.4-1.6-8.1-2.3c0.3-0.8,0.6-1.6,0.9-2.3c13-31.5,32.4-60.4,56.4-84.4l-0.1-0.1l109-109l0.1,0.1
			c24.1-24.1,52.9-43.4,84.4-56.4c6.4-2.7,12.9-5,19.5-7.2c2.7-0.9,5.4-1.7,8-2.4c3.1-0.9,6.2-1.7,9.3-2.5c2.7-0.7,5.4-1.3,8.1-1.9
			c3.2-0.7,6.3-1.3,9.5-1.8c2.7-0.5,5.5-0.9,8.3-1.3c3.2-0.5,6.4-0.9,9.6-1.2c2.8-0.3,5.6-0.6,8.4-0.8c3.2-0.2,6.5-0.4,9.7-0.5
			c2.8-0.1,5.7-0.2,8.5-0.2h0.7c3.1,0,6.1,0.1,9.2,0.2c2.9,0.1,5.8,0.3,8.7,0.5c28,1.9,55.8,8.4,81.7,19.2
			c31.5,13,60.3,32.4,84.4,56.4C1320.6,529.2,1338.7,555.1,1351.5,583.3z"/>
		<path class="st2" d="M1375,691.3c0,34.1-6.7,68.1-19.8,99.6c-13,31.5-32.4,60.4-56.4,84.4l-28.1,27.9H1259l33.8-33.8
			c11.6-11.7,22.2-24.4,31.4-38.1c9.2-13.7,17-28.3,23.3-43.5c12.6-30.5,19.1-63.4,19.1-96.4c0-3.6-0.1-7.2-0.2-10.8
			c2.8-0.4,5.6-0.8,8.3-1.3C1374.9,683.3,1375,687.3,1375,691.3z"/>
		<path class="st2" d="M1332.4,584.9c-2.3,0.1-4.7,0.1-7,0.1c-0.8,0-1.6,0-2.3,0c-11.1-21.8-25.7-41.7-43-59.1
			c-21.7-21.7-47.6-39-75.9-50.7c-20.2-8.4-41.6-13.8-63.3-16.3c-3.1-0.3-6.2-0.6-9.3-0.9c-3.5-0.3-7-0.4-10.4-0.5
			c-2.2-0.1-4.4-0.1-6.6-0.1c-0.8,0-1.5,0-2.3,0c-3.3,0-6.7,0.1-10,0.3c-2.9,0.2-5.7,0.4-8.6,0.6c-3.3,0.3-6.5,0.7-9.8,1.1
			c-2.8,0.4-5.6,0.8-8.3,1.3c-3.2,0.5-6.4,1.1-9.5,1.8c-2.7,0.6-5.5,1.2-8.2,1.9c-3.1,0.8-6.2,1.6-9.3,2.5c-2.7,0.8-5.3,1.6-8,2.5
			c-5.3,1.7-10.4,3.7-15.6,5.8c-28.3,11.7-54.2,29.1-75.9,50.7l-0.1-0.1l-109,109l0.1,0.1c-21.7,21.7-39,47.6-50.7,75.9
			c-0.1,0.1-0.1,0.3-0.2,0.4c-2.6-1-5.2-1.9-7.9-2.8c0.1-0.3,0.2-0.5,0.3-0.8c12.1-29.3,30.1-56.1,52.5-78.6l0,0l109-109l0,0
			c22.4-22.4,49.3-40.4,78.6-52.5c5.4-2.3,11-4.3,16.6-6.2v0c2.6-0.9,5.3-1.7,8-2.5c3.1-0.9,6.2-1.8,9.3-2.5
			c2.7-0.7,5.4-1.3,8.1-1.9v0c3.2-0.7,6.3-1.3,9.5-1.8c2.8-0.5,5.5-0.9,8.3-1.3c3.2-0.4,6.4-0.8,9.7-1.1c2.8-0.3,5.7-0.5,8.5-0.7
			c3.3-0.2,6.6-0.3,9.9-0.4c1.6,0,3.2-0.1,4.8-0.1c1.3,0,2.6,0,3.9,0c3.4,0.1,6.8,0.2,10.2,0.4c3,0.2,6,0.4,9,0.7
			c23.9,2.3,47.5,8.1,69.6,17.3c29.3,12.1,56.1,30.1,78.6,52.5C1304.9,538.9,1320.6,560.9,1332.4,584.9z"/>
		<path class="st2" d="M1357,691.3c0,31.7-6.3,63.4-18.4,92.7c-12.1,29.3-30.1,56.1-52.5,78.6l-0.2-0.2l-40.8,40.8h-11.6l46.6-46.6
			l0.1,0.1c21.7-21.7,39-47.6,50.7-75.9c11.7-28.3,17.8-58.9,17.8-89.5c0-2.9-0.1-5.9-0.2-8.8c2.8-0.2,5.6-0.5,8.3-0.8
			C1356.9,685,1357,688.1,1357,691.3z"/>
		<path class="st2" d="M1289.4,581.8c-3.9-0.7-7.8-1.6-11.6-2.5c-6.8-9.9-14.6-19.2-23.2-27.8c-18.4-18.4-40.3-33-64.2-42.9
			c-9.1-3.8-18.5-6.9-28.1-9.2c-3.9-0.9-7.7-1.8-11.7-2.5c-4.1-0.8-8.2-1.4-12.4-1.9v0c-3.4-0.4-6.7-0.7-10.1-0.9
			c-3.7-0.3-7.4-0.4-11.1-0.5c-0.8,0-1.6,0-2.3,0c-2.3,0-4.7,0-7,0.1c-3.5,0.1-6.9,0.3-10.4,0.6c-2.9,0.3-5.9,0.6-8.8,1
			c-3.3,0.4-6.6,1-9.9,1.6c-2.8,0.5-5.6,1.1-8.4,1.7c-3.2,0.7-6.3,1.5-9.5,2.4c-2.7,0.8-5.4,1.6-8,2.4c-4.7,1.5-9.3,3.3-13.9,5.2
			c-23.9,9.9-45.7,24.5-64.2,42.9l0,0l-109,109l0,0c-18.4,18.4-33,40.2-42.9,64.2c-0.2,0.4-0.4,0.9-0.5,1.3c-2.5-1.3-5-2.6-7.5-3.8
			c0.1-0.2,0.2-0.5,0.3-0.7c10.3-24.9,25.7-47.6,44.9-66.8l109-109l-0.1-0.1c19.2-19.2,42-34.4,66.9-44.7c4.6-1.9,9.2-3.6,13.9-5.2
			c2.7-0.9,5.3-1.7,8-2.5c3.1-0.9,6.2-1.7,9.4-2.5c2.8-0.6,5.5-1.2,8.3-1.8c3.2-0.6,6.5-1.2,9.8-1.6c2.9-0.4,5.7-0.8,8.6-1.1
			c3.4-0.3,6.8-0.6,10.2-0.8c3-0.2,6-0.3,9.1-0.3c0.6,0,1.2,0,1.7,0c3,0,6,0.1,9,0.2c3.2,0.1,6.5,0.4,9.7,0.7
			c3.9,0.3,7.8,0.8,11.7,1.4c3.6,0.5,7.2,1.2,10.8,1.9c12.9,2.6,25.6,6.5,37.8,11.5c24.9,10.3,47.7,25.6,66.9,44.7
			C1271.5,556.5,1281.2,568.7,1289.4,581.8z"/>
		<path class="st2" d="M1320.9,691.3c0,27-5.4,54.1-15.7,78.9c-10.3,24.9-25.6,47.7-44.7,66.9l-66.3,66.1h-11.6l72-72l0,0
			c18.4-18.4,33-40.2,42.9-64.2c9.9-23.9,15-49.8,15-75.8c0-2.7-0.1-5.5-0.2-8.2c2.8,0.1,5.6,0.2,8.4,0.3
			C1320.9,686,1320.9,688.7,1320.9,691.3z"/>
		<path class="st2" d="M909.6,988.7h-8.4c0-28.3-5.6-56.5-16.4-82.6C874.1,880,858,856,838,836c-9.2-9.2-19.2-17.6-29.9-24.9
			c-2.8-2-5.7-3.8-8.6-5.6c-3.2-2-6.4-3.9-9.7-5.7c-2.7-1.5-5.5-3-8.3-4.4c-3.1-1.6-6.3-3-9.5-4.4c-1.3-0.6-2.7-1.2-4-1.7
			c-1.4-0.6-2.8-1.1-4.2-1.7c-3.1-1.2-6.3-2.4-9.5-3.4c-2.7-0.9-5.4-1.8-8.2-2.6c-3.1-0.9-6.3-1.8-9.5-2.5c-2.7-0.7-5.5-1.3-8.2-1.8
			c-3.2-0.6-6.3-1.2-9.5-1.7c-2.8-0.4-5.5-0.8-8.3-1.1c-8.3-1-16.8-1.5-25.2-1.6H531.2l0,0c-28.3,0-56.5,5.6-82.6,16.5
			c-26.1,10.8-50,26.8-70,46.8c-20,20-36,44-46.8,70c-10.8,26.1-16.4,54.3-16.4,82.6H307c0-29.4,5.8-58.7,17-85.8
			c11.2-27.1,27.9-52,48.6-72.7c20.8-20.8,45.6-37.4,72.7-48.6c27.1-11.3,56.4-17,85.8-17l0,0h154.2c8.7,0,17.4,0.5,26,1.5
			c2.8,0.3,5.5,0.7,8.3,1.1c3.2,0.5,6.4,1,9.5,1.7c2.7,0.5,5.5,1.1,8.2,1.8c3.2,0.7,6.3,1.6,9.4,2.5c2.7,0.8,5.5,1.6,8.1,2.5
			c3.2,1,6.3,2.1,9.4,3.3c2.3,0.9,4.5,1.8,6.8,2.7c0.4,0.2,0.9,0.4,1.3,0.6c3.2,1.3,6.3,2.7,9.4,4.2c2.7,1.3,5.5,2.7,8.1,4.1
			c3.2,1.7,6.4,3.5,9.5,5.3c2.8,1.7,5.6,3.4,8.3,5.2c13,8.5,25.1,18.3,36.1,29.3c20.8,20.8,37.4,45.6,48.6,72.7
			C903.8,930,909.6,959.3,909.6,988.7z"/>
		<path class="st2" d="M927.6,988.7h-8.4c0-30.7-6-61.2-17.8-89.5c-11.7-28.3-29.1-54.2-50.7-75.9c-12.8-12.8-27.2-24.2-42.6-33.7
			c-2.7-1.6-5.4-3.2-8.1-4.8c-3-1.7-6.1-3.4-9.3-4.9c-2.6-1.3-5.3-2.6-8-3.9c-2.6-1.2-5.2-2.3-7.9-3.4c-0.4-0.2-0.9-0.4-1.4-0.6
			c-2.7-1.1-5.3-2.1-8-3.1c-3.1-1.1-6.2-2.2-9.3-3.2c-2.7-0.8-5.4-1.7-8.1-2.4c-3.1-0.9-6.2-1.7-9.4-2.4c-2.7-0.6-5.4-1.2-8.2-1.8
			c-3.2-0.6-6.3-1.2-9.5-1.7c-2.8-0.4-5.5-0.8-8.3-1.1c-9.1-1.1-18.2-1.8-27.3-1.8H531.2l0,0c-30.7,0-61.2,6.2-89.5,17.9
			c-28.3,11.7-54.2,29.1-75.9,50.7c-21.7,21.7-39,47.6-50.7,75.9c-11.7,28.3-17.8,58.9-17.8,89.5H289c0-31.7,6.2-63.4,18.4-92.7
			c12.1-29.3,30.1-56.2,52.5-78.6s49.3-40.4,78.6-52.5c29.3-12.2,61-18.4,92.7-18.4l0,0h154.2c4.8,0,9.6,0.2,14.4,0.4
			c4.8,0.3,9.6,0.7,14.3,1.3c2.8,0.3,5.5,0.7,8.3,1.1c3.2,0.5,6.3,1,9.5,1.7c2.7,0.5,5.5,1.1,8.2,1.7c3.1,0.7,6.3,1.5,9.4,2.4
			c2.7,0.7,5.4,1.5,8.1,2.4c3.1,1,6.2,2,9.3,3.1c2.7,1,5.3,2,8,3c1.1,0.4,2.2,0.9,3.4,1.4c1.9,0.8,3.9,1.6,5.8,2.5
			c2.7,1.2,5.3,2.4,7.9,3.7c3.1,1.5,6.1,3.1,9.1,4.7c2.7,1.4,5.3,3,7.9,4.5c17.4,10.3,33.5,22.8,47.8,37.1
			c22.4,22.4,40.4,49.3,52.5,78.6C921.4,925.2,927.6,956.9,927.6,988.7z"/>
		<path class="st2" d="M945.6,988.7h-8.4c0-33-6.5-66-19.1-96.4c-12.6-30.5-31.3-58.4-54.6-81.7c-15.9-15.9-33.8-29.6-53.3-40.7
			c-2.6-1.5-5.2-2.9-7.8-4.3c-3-1.6-6-3.1-9-4.5c-2.6-1.2-5.2-2.4-7.8-3.6c-1.3-0.6-2.5-1.1-3.8-1.6c-1.8-0.7-3.5-1.4-5.3-2.1
			c-2.6-1-5.3-2-7.9-2.9c-3-1.1-6.1-2.1-9.2-3c-2.7-0.8-5.4-1.6-8.1-2.3c-3.1-0.8-6.2-1.6-9.4-2.3h0c-2.7-0.6-5.4-1.2-8.2-1.7
			c-3.2-0.6-6.3-1.2-9.5-1.7c-2.8-0.4-5.5-0.8-8.3-1.2c-10.1-1.2-20.3-2.1-30.5-2.1H531.2l0,0c-33,0-66,6.8-96.4,19.4
			c-30.5,12.6-58.4,31.3-81.7,54.6c-23.3,23.3-42,51.2-54.6,81.7c-12.7,30.5-19.1,63.4-19.1,96.4H271c0-34,6.7-68.1,19.8-99.6
			c13-31.5,32.4-60.3,56.4-84.4c24.1-24.1,52.9-43.4,84.4-56.4c31.5-13.1,65.6-19.9,99.6-19.9l0,0h154.2c5.4,0,10.8,0.2,16.2,0.6
			c5.4,0.4,10.8,0.9,16.2,1.6c2.8,0.3,5.5,0.7,8.3,1.2c3.2,0.5,6.4,1.1,9.5,1.7c2.7,0.5,5.5,1.1,8.2,1.7c3.1,0.7,6.3,1.5,9.4,2.3
			c2.7,0.7,5.4,1.5,8.1,2.3c3.1,0.9,6.2,1.9,9.2,3c2.6,0.9,5.3,1.9,7.9,2.9c2.2,0.9,4.5,1.7,6.7,2.7c0.8,0.3,1.6,0.7,2.4,1
			c2.6,1.1,5.2,2.3,7.8,3.5c3,1.4,6,2.8,8.9,4.4c2.6,1.3,5.2,2.7,7.7,4.1c21.1,11.7,40.6,26.4,57.7,43.5
			c24.1,24.1,43.4,52.9,56.4,84.4C938.9,920.5,945.6,954.6,945.6,988.7z"/>
		<path class="st2" d="M963.6,988.7h-8.4c0-35.3-7-70.7-20.5-103.3c-13.5-32.7-33.6-62.6-58.5-87.6c-18.4-18.4-39.4-34.1-62.3-46.5
			c-2.5-1.4-5.1-2.7-7.6-4c-2.9-1.5-5.9-2.9-8.8-4.2c-2.6-1.2-5.1-2.3-7.7-3.4c-0.4-0.2-0.7-0.3-1.1-0.5c-2.6-1.1-5.3-2.1-7.9-3.1
			c-2.6-1-5.2-1.9-7.9-2.8c-3-1-6.1-2-9.2-3c-2.7-0.8-5.3-1.6-8-2.3c-3.1-0.8-6.2-1.6-9.4-2.3c-2.7-0.6-5.5-1.2-8.2-1.8
			c-3.2-0.6-6.3-1.2-9.5-1.7c-2.8-0.4-5.6-0.9-8.3-1.2c-11.6-1.5-23.2-2.6-34.8-2.6H531.2l0,0c-35.3,0-70.7,7.3-103.3,20.9
			c-32.7,13.5-62.6,33.6-87.5,58.5c-25,25-45,54.9-58.5,87.5c-13.6,32.7-20.5,68-20.5,103.3h-8.4c0-36.3,7.2-72.8,21.2-106.5
			c13.9-33.7,34.6-64.5,60.3-90.3c25.7-25.7,56.6-46.4,90.3-60.3c33.7-14,70.2-21.4,106.5-21.4l0,0h154.2c6.2,0,12.4,0.3,18.6,0.7
			c6.2,0.5,12.4,1.2,18.6,2c2.8,0.4,5.6,0.8,8.4,1.3c3.2,0.5,6.4,1.1,9.6,1.8c2.7,0.6,5.5,1.1,8.2,1.8c3.1,0.7,6.3,1.5,9.4,2.4
			c2.7,0.7,5.4,1.5,8,2.3c3.1,0.9,6.1,1.9,9.2,3c2.6,0.9,5.3,1.8,7.9,2.8c2.9,1.1,5.8,2.2,8.7,3.4c0.1,0,0.2,0.1,0.3,0.1
			c2.6,1.1,5.2,2.2,7.7,3.3c3,1.3,5.9,2.7,8.8,4.2c2.5,1.2,5.1,2.5,7.6,3.9c24.2,12.9,46.5,29.4,65.9,48.8
			c25.7,25.7,46.4,56.6,60.3,90.3C956.5,915.8,963.6,952.3,963.6,988.7z"/>
		<path class="st2" d="M981.6,988.7h-8.4c0-18.8-1.8-37.6-5.5-56.1c-3.7-18.5-9.2-36.6-16.4-54.1c-14.4-34.9-35.8-66.8-62.4-93.4
			c-20.5-20.5-44-37.8-69.6-51.3c-2.5-1.3-5-2.6-7.5-3.8c-2.9-1.4-5.8-2.8-8.8-4.1c-2.5-1.1-5-2.2-7.5-3.2c-0.1,0-0.2-0.1-0.2-0.1
			c-3-1.2-6-2.4-9-3.5c-2.6-1-5.2-1.9-7.9-2.8c-3-1-6.1-2-9.2-3c-2.7-0.8-5.4-1.6-8-2.3c-3.1-0.9-6.3-1.6-9.4-2.4
			c-2.7-0.7-5.5-1.3-8.2-1.8c-0.7-0.2-1.4-0.3-2.1-0.4c-2.5-0.5-5-0.9-7.5-1.4c-2.8-0.5-5.6-0.9-8.4-1.3c-13.4-1.9-26.8-2.9-40.3-3
			H531.2c-9.4,0-18.8,0.5-28.2,1.5c-9.4,0.9-18.7,2.4-27.9,4.2c-18.5,3.7-36.6,9.2-54.1,16.4c-34.9,14.4-66.7,35.8-93.4,62.4
			c-26.6,26.6-48,58.5-62.4,93.4c-7.2,17.4-12.7,35.6-16.4,54.1c-3.7,18.5-5.5,37.3-5.5,56.1h-8.4c0-19.3,1.9-38.7,5.7-57.8
			c3.8-19,9.4-37.7,16.9-55.7c14.9-35.9,36.8-68.7,64.2-96.1c27.4-27.4,60.2-49.4,96.1-64.3c17.9-7.4,36.6-13.1,55.7-16.9
			c19-3.8,38.4-5.7,57.8-5.7h154.2c14.4,0,28.9,1.1,43.2,3.2c2.8,0.4,5.6,0.9,8.4,1.4c2.1,0.4,4.1,0.7,6.2,1.1
			c1.2,0.2,2.3,0.5,3.5,0.7c2.8,0.6,5.5,1.2,8.3,1.9c3.2,0.7,6.3,1.6,9.4,2.4c2.7,0.7,5.4,1.5,8.1,2.3c3.1,0.9,6.2,1.9,9.2,3
			c2.6,0.9,5.3,1.8,7.9,2.8c3,1.1,6,2.3,9,3.5c0.1,0.1,0.3,0.1,0.4,0.2c2.4,1,4.9,2.1,7.3,3.1c2.9,1.3,5.9,2.7,8.8,4.1
			c2.5,1.2,5,2.5,7.5,3.8c26.7,13.9,51.3,32,72.6,53.2c27.4,27.4,49.4,60.2,64.2,96.1c7.4,17.9,13.1,36.6,16.9,55.7
			C979.8,950,981.6,969.3,981.6,988.7z"/>
		<path class="st2" d="M891.6,988.7h-8.4c0-26-5.1-51.8-15-75.7c-9.9-23.9-24.6-45.8-42.9-64.2c-4.5-4.5-9.3-8.9-14.3-12.9
			c-3.1-2.6-6.4-5.1-9.7-7.5c-3.4-2.5-6.9-4.9-10.5-7.1c-2.9-1.8-5.8-3.6-8.8-5.3c-3.3-1.8-6.6-3.6-10-5.2c-2.8-1.4-5.6-2.7-8.5-3.9
			c-0.8-0.4-1.6-0.7-2.4-1c-2.4-1-4.8-2-7.3-2.8c-2.8-1-5.6-2-8.4-2.9c-3.2-1-6.4-1.9-9.6-2.8c-2.8-0.7-5.5-1.4-8.3-2
			c-3.2-0.7-6.4-1.3-9.6-1.8c-2.8-0.5-5.5-0.9-8.3-1.2c-8-1-16.1-1.5-24.2-1.5v0l-154.2,0l0,0c-26,0-51.8,5.1-75.7,15
			c-23.9,9.9-45.9,24.6-64.2,42.9c-18.3,18.4-33,40.3-42.9,64.2c-9.9,23.9-15,49.7-15,75.7H325c0-27.1,5.3-54,15.7-78.9
			c10.3-24.9,25.6-47.8,44.7-66.9c19.1-19.1,42-34.4,66.9-44.7c24.9-10.3,51.8-15.6,78.9-15.7l154.2,0.2v-0.2
			c8.2,0,16.4,0.5,24.5,1.5c2.8,0.3,5.6,0.7,8.3,1.2c3.2,0.5,6.4,1.1,9.6,1.8c2.8,0.6,5.5,1.2,8.3,1.9c3.2,0.8,6.4,1.7,9.6,2.7
			c2.8,0.8,5.5,1.7,8.3,2.7c3.2,1.1,6.4,2.3,9.6,3.6c0.3,0.1,0.6,0.2,0.8,0.3c2.5,1,5,2.1,7.5,3.3c3.3,1.5,6.5,3.1,9.7,4.8
			c2.9,1.5,5.7,3.1,8.5,4.8c3.4,2,6.8,4.1,10.1,6.4c3.1,2.1,6.1,4.2,9.1,6.4c7.8,5.8,15.1,12.2,22,19.1c19.1,19.1,34.4,42,44.7,66.9
			C886.3,934.7,891.6,961.6,891.6,988.7z"/>
	</g>
	<g>
		<path class="st2" d="M455.6,166.1c-1.2-0.3-2.4-0.7-3.5-1.1c-0.2,0.4-0.3,0.8-0.5,1.2c-0.3,0.7-0.6,1.4-0.9,2.2
			c1.2,0.4,2.3,0.7,3.5,1.1c0.2-0.6,0.5-1.2,0.8-1.9C455.2,167.1,455.4,166.6,455.6,166.1z"/>
		<path class="st2" d="M701.4,283.5v-67.6c0-8.5-0.8-17-2.5-25.3c-1.7-8.3-4.1-16.5-7.4-24.4c-6.5-15.7-16.2-30.1-28.2-42.1
			c-12-12-26.4-21.7-42.1-28.2c-4.1-1.7-8.3-3.2-12.5-4.4c-1.2-0.4-2.4-0.7-3.6-1c-1.4-0.4-2.8-0.7-4.2-1c-1.2-0.3-2.4-0.5-3.6-0.8
			c-0.2,0-0.3-0.1-0.5-0.1c-1.2-0.2-2.5-0.5-3.7-0.7c-1.2-0.2-2.4-0.4-3.6-0.6c-1.4-0.2-2.8-0.4-4.2-0.5c-1.2-0.1-2.4-0.2-3.7-0.3
			c-1.4-0.1-2.8-0.2-4.2-0.3c-1.2-0.1-2.4-0.1-3.7-0.1c-0.7,0-1.5,0-2.2,0c-0.7,0-1.3,0-2,0c-1.2,0-2.5,0.1-3.7,0.1
			c-6.6,0.3-13.1,1.1-19.6,2.4c-8.3,1.7-16.5,4.1-24.4,7.4c-15.7,6.5-30.1,16.2-42.1,28.2c-11.7,11.7-21.1,25.6-27.6,40.9
			c1.2,0.4,2.3,0.7,3.5,1.1c6.3-14.7,15.4-28.1,26.7-39.4c11.7-11.7,25.7-21,40.9-27.4c7.6-3.2,15.6-5.6,23.7-7.2
			c6.2-1.2,12.4-2,18.7-2.3c1.2-0.1,2.5-0.1,3.7-0.1c0.7,0,1.5,0,2.2,0c0.7,0,1.3,0,2,0c1.2,0,2.4,0.1,3.7,0.1
			c1.4,0.1,2.8,0.1,4.2,0.3c1.2,0.1,2.4,0.2,3.6,0.3c1.4,0.1,2.8,0.3,4.2,0.5c1.2,0.2,2.4,0.4,3.6,0.6c1.1,0.2,2.2,0.4,3.2,0.6
			c0.3,0.1,0.6,0.1,0.9,0.2c1.2,0.2,2.4,0.5,3.6,0.8c1.4,0.3,2.8,0.7,4.1,1.1c1.2,0.3,2.4,0.7,3.6,1c3.9,1.2,7.7,2.5,11.4,4.1
			c15.3,6.3,29.3,15.7,40.9,27.4c11.7,11.7,21,25.7,27.4,40.9c3.2,7.6,5.6,15.6,7.2,23.7c1.6,8.1,2.4,16.4,2.4,24.6h0.1v67.6h-0.1
			c0,8.2-0.8,16.5-2.4,24.6c-1.6,8.1-4,16.1-7.2,23.7c-6.3,15.3-15.7,29.3-27.4,40.9c-11.7,11.7-25.7,21-40.9,27.4
			c-7.6,3.2-15.6,5.6-23.7,7.2c-8.1,1.6-16.4,2.4-24.6,2.4c-8.2,0-16.5-0.8-24.6-2.4c-8.1-1.6-16.1-4-23.7-7.2
			c-15.3-6.3-29.3-15.7-40.9-27.4c-11.7-11.7-21-25.7-27.4-40.9c-3.2-7.6-5.6-15.6-7.2-23.7c-1.6-8.1-2.4-16.4-2.4-24.6h-0.1v-67.6
			h0.1c0-2.6,0.1-5.3,0.3-7.9c-1.2-0.3-2.4-0.7-3.6-1c-0.2,3-0.3,5.9-0.3,8.9v67.6c0,8.5,0.8,17,2.5,25.3c1.7,8.3,4.1,16.5,7.4,24.4
			c6.5,15.7,16.2,30.1,28.2,42.1c12,12,26.4,21.7,42.1,28.2c7.9,3.3,16.1,5.7,24.4,7.4c8.3,1.7,16.8,2.5,25.3,2.5
			c8.5,0,17-0.8,25.3-2.5c8.3-1.7,16.5-4.1,24.4-7.4c15.7-6.5,30.1-16.2,42.1-28.2c12-12,21.7-26.4,28.2-42.1
			c3.3-7.9,5.7-16.1,7.4-24.4C700.6,300.5,701.4,292,701.4,283.5z"/>
		<g>
			<path class="st2" d="M500.1,166.8c-1.7,0.4-3.4,0.8-5.1,1.1c-0.8,1.4-1.7,2.7-2.4,4.1c1.6-0.2,3.2-0.5,4.7-0.8
				C498.1,169.7,499.1,168.2,500.1,166.8z"/>
			<path class="st2" d="M661.9,215.9L661.9,215.9c0.1-11.9-2.3-23.7-6.8-34.6c-4.5-10.9-11.2-21-19.6-29.3
				c-8.4-8.4-18.4-15.1-29.3-19.6c-2-0.8-4-1.6-6.1-2.3c-1.2-0.4-2.3-0.7-3.5-1.1c-1.4-0.4-2.7-0.8-4.1-1.1
				c-1.2-0.3-2.4-0.5-3.6-0.8c-1.4-0.3-2.8-0.5-4.3-0.7c-1.3-0.2-2.5-0.3-3.8-0.5c-1.5-0.2-3-0.3-4.5-0.3c-1.3-0.1-2.6-0.1-4-0.1
				c-0.3,0-0.5,0-0.8,0c-1.3,0-2.6,0-4,0.1c-1.4,0.1-2.8,0.2-4.2,0.3c-1.7,0.2-3.4,0.4-5.1,0.6c-1.6,0.2-3.2,0.5-4.7,0.8
				c-5.7,1.1-11.2,2.8-16.6,5.1c-10.9,4.5-21,11.2-29.3,19.6c-4.8,4.8-9.1,10.1-12.7,15.9c1.7-0.3,3.4-0.7,5.1-1.1
				c3-4.4,6.4-8.4,10.1-12.2c8-8,17.7-14.5,28.1-18.8c4-1.7,8.1-3,12.3-4c1.7-0.4,3.4-0.8,5.1-1.1c1.8-0.3,3.6-0.6,5.4-0.8h0
				c1.5-0.2,3-0.3,4.4-0.4c1.6-0.1,3.2-0.2,4.9-0.2c0.3,0,0.7,0,1,0c1,0,2,0,3.1,0.1c1.5,0.1,3,0.1,4.5,0.3c1.3,0.1,2.6,0.3,3.9,0.4
				c1.4,0.2,2.9,0.4,4.3,0.7c1.2,0.2,2.5,0.5,3.7,0.8c1.4,0.3,2.8,0.7,4.1,1.1c1.2,0.3,2.4,0.7,3.5,1.1c2.1,0.7,4.1,1.4,6.1,2.2
				c10.5,4.3,20.1,10.8,28.1,18.8c8,8,14.5,17.7,18.8,28.1c4.3,10.5,6.6,21.8,6.6,33.2h0v67.6h0c0,11.4-2.2,22.7-6.6,33.2
				c-4.3,10.5-10.8,20.1-18.8,28.1c-8,8-17.7,14.5-28.1,18.8c-10.5,4.3-21.8,6.6-33.2,6.6c-11.4,0-22.7-2.2-33.2-6.6
				c-10.5-4.3-20.1-10.8-28.1-18.8c-8-8-14.5-17.7-18.8-28.1c-4.4-10.5-6.6-21.8-6.6-33.2h0v-67.6h0c0-1.2,0-2.4,0.1-3.6
				c-1.2,0.1-2.5,0.1-3.7,0.1c0,1.2-0.1,2.3-0.1,3.5h0.1v67.6h-0.1c0,11.9,2.3,23.7,6.9,34.6c4.5,10.9,11.2,21,19.6,29.3
				c8.4,8.4,18.4,15.1,29.3,19.6c10.9,4.5,22.7,6.9,34.6,6.9c11.9,0,23.7-2.3,34.6-6.9c10.9-4.5,21-11.2,29.3-19.6
				c8.4-8.4,15.1-18.4,19.6-29.3c4.5-10.9,6.9-22.7,6.9-34.6h-0.1V215.9z"/>
			<path class="st2" d="M480.2,169.3c-0.3,0-0.7,0-1,0c-1,0-2,0-3.1-0.1c-0.6,1.2-1.1,2.4-1.7,3.6c1.3,0.1,2.6,0.1,4,0.1
				C479,171.8,479.6,170.5,480.2,169.3z"/>
			<path class="st2" d="M677.6,215.9h0.1c0-13.9-2.7-27.8-8.1-40.6c-5.3-12.8-13.2-24.6-23-34.5c-9.8-9.8-21.6-17.7-34.5-23
				c-2.4-1-4.8-1.9-7.3-2.7c-1.2-0.4-2.3-0.7-3.5-1.1c-1.4-0.4-2.7-0.8-4.1-1.1c-1.2-0.3-2.4-0.6-3.6-0.8c-1.4-0.3-2.8-0.6-4.2-0.8
				c-1.2-0.2-2.4-0.4-3.6-0.6c-1.4-0.2-2.8-0.4-4.2-0.5c-1.2-0.1-2.5-0.2-3.7-0.3h0c-1.4-0.1-2.9-0.1-4.3-0.2c-0.7,0-1.4,0-2.1,0
				c-0.6,0-1.1,0-1.7,0h0c-1.5,0-3,0.1-4.5,0.2c-1.3,0.1-2.6,0.2-4,0.3c-10.5,1-20.8,3.6-30.5,7.6c-12.8,5.3-24.6,13.2-34.5,23
				c-8.3,8.3-15.2,17.9-20.3,28.4c1,0,2,0.1,3.1,0.1c0.3,0,0.7,0,1,0c4.9-9.5,11.3-18.3,18.8-25.9c9.5-9.5,20.9-17.1,33.3-22.2
				c8.8-3.7,18.2-6.1,27.7-7.1c1.4-0.2,2.7-0.3,4.1-0.4c1.5-0.1,3-0.2,4.6-0.2c1,0,1.9,0,2.9,0c0.3,0,0.7,0,1,0
				c1.5,0,2.9,0.1,4.4,0.1c1.3,0.1,2.5,0.2,3.8,0.3c1.4,0.1,2.9,0.3,4.3,0.5c1.2,0.2,2.4,0.3,3.7,0.6c1.4,0.2,2.8,0.5,4.2,0.8
				c1.2,0.3,2.4,0.5,3.6,0.8c1.4,0.3,2.7,0.7,4.1,1.1c1.2,0.3,2.3,0.7,3.5,1.1c2.3,0.8,4.6,1.6,6.8,2.5
				c12.4,5.1,23.8,12.7,33.3,22.2c9.5,9.5,17.1,20.9,22.2,33.3c5.1,12.4,7.8,25.8,7.8,39.2H674v67.6h0.1c0,13.4-2.6,26.8-7.8,39.2
				c-5.1,12.4-12.7,23.8-22.2,33.3c-9.5,9.5-20.9,17.1-33.3,22.2c-12.4,5.2-25.8,7.8-39.2,7.8c-13.4,0-26.8-2.6-39.2-7.8
				c-12.4-5.1-23.8-12.7-33.3-22.2c-9.5-9.5-17.1-20.9-22.2-33.3c-5.2-12.4-7.8-25.8-7.8-39.2H469v-67.6h0.1c0-1.3,0-2.6,0.1-3.9
				c-1.2-0.1-2.4-0.2-3.7-0.3c-0.1,1.4-0.1,2.8-0.1,4.2h0v67.6h0c0,13.9,2.7,27.8,8.1,40.6c5.3,12.8,13.2,24.6,23,34.5
				c9.8,9.8,21.6,17.7,34.5,23c12.8,5.3,26.7,8.1,40.6,8.1c13.9,0,27.8-2.7,40.6-8.1c12.8-5.3,24.6-13.2,34.5-23
				c9.8-9.8,17.7-21.6,23-34.5c5.3-12.8,8.1-26.7,8.1-40.6h-0.1V215.9z"/>
			<path class="st2" d="M471.6,169c-1.3-0.1-2.6-0.3-3.8-0.4c-0.5,1.2-1,2.3-1.5,3.5c1.3,0.2,2.5,0.3,3.8,0.5
				C470.5,171.3,471,170.2,471.6,169z"/>
			<path class="st2" d="M685.6,215.9L685.6,215.9c0.1-14.9-2.9-29.9-8.6-43.7c-5.7-13.8-14.2-26.5-24.7-37
				c-10.6-10.6-23.2-19-37-24.7c-2.8-1.2-5.7-2.2-8.5-3.1c-1.2-0.4-2.3-0.7-3.5-1.1c-1.4-0.4-2.7-0.8-4.1-1.1
				c-1.2-0.3-2.4-0.6-3.6-0.8c-1.4-0.3-2.8-0.6-4.1-0.8c-1.2-0.2-2.4-0.4-3.6-0.6c-1.4-0.2-2.8-0.4-4.2-0.5
				c-1.2-0.1-2.4-0.2-3.7-0.3c-1.4-0.1-2.8-0.2-4.3-0.2c-1.2,0-2.5-0.1-3.7-0.1h-0.3c-1.3,0-2.7,0-4,0.1c-1.3,0-2.5,0.1-3.8,0.2
				c-12.3,0.8-24.4,3.7-35.8,8.4c-13.8,5.7-26.5,14.2-37,24.7c-9.6,9.6-17.5,20.9-23.1,33.3c1.3,0.2,2.6,0.3,3.8,0.4
				c5.4-11.5,12.9-22.1,21.9-31.1c10.2-10.2,22.5-18.4,35.8-24c10.6-4.4,22-7.1,33.5-8c1.3-0.1,2.6-0.2,3.9-0.2
				c1.5-0.1,2.9-0.1,4.4-0.1c0.2,0,0.4,0,0.5,0v0c1.1,0,2.2,0,3.2,0c1.4,0,2.9,0.1,4.3,0.2c1.2,0.1,2.5,0.2,3.7,0.3
				c1.4,0.1,2.8,0.3,4.2,0.5c1.2,0.2,2.4,0.4,3.6,0.6c1.4,0.2,2.8,0.5,4.2,0.8c1.2,0.3,2.4,0.5,3.6,0.8c1.4,0.3,2.7,0.7,4.1,1.1
				c1.2,0.3,2.4,0.7,3.5,1.1c2.7,0.9,5.3,1.8,7.9,2.9c13.4,5.5,25.6,13.7,35.8,24c10.2,10.2,18.4,22.5,24,35.8
				c5.5,13.4,8.4,27.8,8.4,42.3h0v67.6h0c0,14.5-2.8,28.9-8.4,42.3c-5.5,13.4-13.7,25.6-24,35.8c-10.2,10.2-22.5,18.4-35.8,23.9
				c-13.4,5.5-27.8,8.4-42.3,8.4c-14.4,0-28.9-2.8-42.3-8.4c-13.4-5.5-25.6-13.7-35.8-23.9c-10.2-10.2-18.4-22.5-23.9-35.8
				c-5.5-13.4-8.4-27.8-8.4-42.3H461v-67.6h0.1c0-1.6,0-3.1,0.1-4.7c-1.2-0.2-2.4-0.4-3.6-0.6c-0.1,1.8-0.1,3.5-0.1,5.3h-0.1v67.6
				h0.1c0,14.9,2.9,29.9,8.7,43.7c5.7,13.8,14.2,26.5,24.7,37c10.6,10.6,23.2,19,37,24.7c13.8,5.7,28.7,8.7,43.7,8.7
				c14.9,0,29.9-2.9,43.7-8.7c13.8-5.7,26.4-14.2,37-24.7c10.6-10.6,19-23.2,24.7-37c5.7-13.8,8.7-28.7,8.7-43.7h-0.1V215.9z"/>
			<path class="st2" d="M463.4,167.9c-1.2-0.2-2.5-0.5-3.7-0.8c-0.3,0.7-0.6,1.4-0.9,2.1c-0.2,0.4-0.4,0.9-0.5,1.3
				c1.2,0.3,2.4,0.5,3.6,0.8c0.1-0.2,0.2-0.5,0.3-0.7C462.6,169.7,463,168.8,463.4,167.9z"/>
			<path class="st2" d="M693.5,215.9L693.5,215.9c0-15.9-3.1-31.9-9.2-46.7c-6.1-14.8-15.2-28.3-26.5-39.6
				c-11.3-11.3-24.8-20.3-39.6-26.5c-3.4-1.4-6.8-2.6-10.3-3.7c-1.2-0.4-2.4-0.7-3.6-1.1c-1.4-0.4-2.7-0.7-4.1-1.1
				c-1.2-0.3-2.4-0.6-3.6-0.8h0c-1.4-0.3-2.8-0.6-4.2-0.8c-1.2-0.2-2.4-0.4-3.6-0.6c-1.4-0.2-2.8-0.4-4.2-0.5
				c-1.2-0.1-2.4-0.2-3.7-0.3c-1.4-0.1-2.8-0.2-4.2-0.3c-1.2-0.1-2.5-0.1-3.7-0.1c-0.5,0-1.1,0-1.6,0c-0.9,0-1.8,0-2.7,0
				c-1.2,0-2.5,0.1-3.7,0.1c-13.8,0.7-27.5,3.8-40.3,9.1c-14.8,6.1-28.3,15.2-39.6,26.5c-10.7,10.7-19.5,23.5-25.6,37.4
				c1.2,0.3,2.4,0.5,3.7,0.8c5.9-13.2,14.2-25.4,24.5-35.6c10.9-10.9,24.1-19.7,38.4-25.7c12.2-5.1,25.2-8,38.3-8.8
				c1.2-0.1,2.5-0.1,3.7-0.2c1.1,0,2.1,0,3.2,0c0.4,0,0.7,0,1.1,0c1.2,0,2.5,0,3.7,0.1c1.4,0.1,2.8,0.1,4.2,0.3
				c1.2,0.1,2.4,0.2,3.7,0.3c1.4,0.1,2.8,0.3,4.2,0.5c1.2,0.2,2.4,0.4,3.6,0.6c1.4,0.2,2.8,0.5,4.2,0.8c1.2,0.3,2.4,0.5,3.6,0.8
				c1.4,0.3,2.7,0.7,4.1,1.1c1.2,0.3,2.4,0.7,3.5,1.1c3.2,1,6.3,2.2,9.4,3.4c14.3,5.9,27.4,14.7,38.4,25.7
				c11,11,19.7,24.1,25.7,38.4c6,14.3,9,29.8,9,45.3h0v67.6h0c0,15.5-3,31-9,45.3c-5.9,14.3-14.7,27.4-25.7,38.4
				c-10.9,10.9-24.1,19.7-38.4,25.7c-14.3,5.9-29.8,9-45.3,9v0c-15.5,0-31-3-45.3-9c-14.3-5.9-27.4-14.7-38.4-25.7
				c-10.9-10.9-19.7-24.1-25.7-38.4c-6-14.3-9-29.8-9-45.3h-0.2v-67.6h0.2c0-2,0.1-4,0.2-6.1c-1.2-0.2-2.4-0.5-3.6-0.8
				c-0.1,2.3-0.2,4.6-0.2,6.8h-0.1v67.6h0.1c0,15.9,3.1,31.9,9.3,46.7c6.1,14.8,15.2,28.3,26.5,39.6c11.3,11.3,24.8,20.3,39.6,26.5
				c14.8,6.1,30.8,9.3,46.7,9.3c15.9,0,31.9-3.1,46.7-9.3c14.8-6.1,28.3-15.2,39.6-26.5c11.3-11.3,20.3-24.8,26.5-39.6
				c6.1-14.8,9.3-30.8,9.3-46.7h0V215.9z"/>
		</g>
		<path class="st2" d="M489.5,168.7c-1.5,0.2-3,0.3-4.4,0.4c-0.7,1.2-1.3,2.5-1.9,3.8c1.4-0.1,2.8-0.2,4.2-0.3
			C488.1,171.3,488.8,170,489.5,168.7z"/>
		<path class="st2" d="M669.7,215.9h0.2c0-12.9-2.5-25.7-7.5-37.6c-4.9-11.9-12.2-22.8-21.3-31.9c-9.1-9.1-20-16.4-31.9-21.3
			c-2.1-0.9-4.3-1.7-6.4-2.4c-1.2-0.4-2.3-0.8-3.5-1.1c-1.4-0.4-2.7-0.8-4.1-1.1c-1.2-0.3-2.4-0.6-3.6-0.8c-1.4-0.3-2.8-0.6-4.2-0.8
			c-1.2-0.2-2.5-0.4-3.7-0.5c-1.4-0.2-2.9-0.3-4.3-0.4c-1.3-0.1-2.5-0.2-3.8-0.2c-1.3-0.1-2.7-0.1-4-0.1c-0.2,0-0.3,0-0.5,0
			c-1.3,0-2.6,0-4,0.1c-1.6,0.1-3.1,0.2-4.7,0.3c-1.4,0.1-2.8,0.3-4.2,0.5h0c-8.3,1.1-16.5,3.3-24.2,6.6
			c-11.9,4.9-22.8,12.2-31.9,21.3c-6.7,6.7-12.4,14.4-16.9,22.7c1.5-0.1,3-0.2,4.4-0.4v0c4.1-7.2,9.2-13.8,15.1-19.7
			c8.8-8.8,19.3-15.8,30.7-20.5c6.7-2.8,13.7-4.8,20.9-5.9c1.5-0.2,2.9-0.4,4.4-0.6c1.6-0.2,3.2-0.3,4.9-0.4
			c1.4-0.1,2.7-0.1,4.1-0.2c0.7,0,1.3,0,2,0c0.9,0,1.7,0,2.6,0c1.3,0,2.6,0.1,3.9,0.2c1.5,0.1,2.9,0.2,4.4,0.4
			c1.2,0.1,2.5,0.3,3.7,0.5c1.4,0.2,2.8,0.5,4.2,0.8c1.2,0.2,2.4,0.5,3.6,0.8c1.4,0.3,2.7,0.7,4.1,1.1c1.2,0.3,2.3,0.7,3.5,1.1
			c2.1,0.7,4.2,1.5,6.2,2.3c11.4,4.7,21.9,11.8,30.7,20.5c8.8,8.8,15.8,19.3,20.5,30.7c4.7,11.4,7.2,23.8,7.2,36.2h-0.1v67.6h0.1
			c0,12.4-2.4,24.8-7.2,36.2c-4.7,11.4-11.8,21.9-20.5,30.7c-8.8,8.8-19.3,15.8-30.7,20.5c-11.4,4.8-23.8,7.2-36.2,7.2
			c-12.4,0-24.8-2.4-36.2-7.2c-11.4-4.7-21.9-11.8-30.7-20.5c-8.8-8.8-15.8-19.3-20.5-30.7c-4.7-11.4-7.2-23.8-7.2-36.2h0v-67.6h0
			c0-1.2,0-2.3,0.1-3.5c-1.2,0-2.4-0.1-3.7-0.1c0,1.2-0.1,2.4-0.1,3.6h0v67.6h0c0,12.9,2.5,25.7,7.5,37.6
			c4.9,11.9,12.2,22.8,21.3,31.9c9.1,9.1,20,16.4,31.9,21.3c11.9,4.9,24.7,7.5,37.6,7.5c12.9,0,25.7-2.5,37.6-7.5
			c11.9-4.9,22.8-12.2,31.9-21.3c9.1-9.1,16.4-20,21.3-31.9c4.9-11.9,7.5-24.7,7.5-37.6h-0.2V215.9z"/>
		<path class="st2" d="M326.5-35.4c4.6-6.9,9.9-13.3,15.7-19.1l-2.6-2.6c-6,6-11.4,12.6-16.1,19.7c-4.7,7.1-8.8,14.6-12,22.5
			c-6.5,15.7-9.9,32.7-9.9,49.7c0,1.2,0,2.4,0.1,3.5c1.2-0.1,2.4-0.3,3.7-0.5c0-1,0-2,0-3c0-16.5,3.3-33,9.6-48.3
			C317.9-21.2,321.9-28.5,326.5-35.4z"/>
		<path class="st2" d="M322.1-10.5c5.9-14.3,14.7-27.4,25.7-38.4l-2.6-2.6c-11.3,11.3-20.4,24.8-26.5,39.6
			c-6.1,14.8-9.3,30.7-9.3,46.7c0,0.7,0,1.5,0,2.2c1.2-0.3,2.4-0.6,3.7-0.9c0-0.4,0-0.9,0-1.3C313.1,19.3,316.1,3.8,322.1-10.5z"/>
		<path class="st2" d="M329.4-7.5c5.5-13.4,13.7-25.6,23.9-35.8l-2.6-2.6c-10.5,10.6-19,23.2-24.7,37c-5.7,13.8-8.7,28.7-8.7,43.7
			v0.1c1.2-0.4,2.5-0.8,3.7-1.3C321.1,19.6,324,5.5,329.4-7.5z"/>
		<path class="st2" d="M336.7-4.5c5.1-12.4,12.7-23.8,22.2-33.3l-2.6-2.6c-9.8,9.8-17.7,21.6-23,34.4c-5,12-7.7,24.8-8,37.8
			c1.3-0.5,2.5-1.1,3.7-1.7C329.5,18.3,332.1,6.5,336.7-4.5z"/>
		<path class="st2" d="M351.3,1.6c4.3-10.5,10.7-20.1,18.8-28.1l-2.6-2.6c-8.4,8.4-15.1,18.4-19.6,29.3c-3,7.1-5,14.7-6,22.3
			c1.4-1,2.9-2.1,4.2-3.3C347.2,13.2,348.9,7.3,351.3,1.6z"/>
		<path class="st2" d="M344-1.4c4.7-11.4,11.7-21.9,20.5-30.7l-2.6-2.6c-9.1,9.1-16.4,20-21.3,31.9c-4,9.8-6.5,20.2-7.2,30.8
			c1.3-0.7,2.6-1.5,3.9-2.3C338.1,16.3,340.4,7.2,344-1.4z"/>
		<path class="st2" d="M565.7,129.4c-1.5,0.1-3,0.2-4.4,0.4h0c-4.1,7.2-9.2,13.8-15.1,19.7c-8.8,8.8-19.3,15.8-30.7,20.5
			c-6.7,2.8-13.7,4.8-20.9,5.9c-1.5,0.2-2.9,0.4-4.4,0.6c-1.6,0.2-3.2,0.3-4.9,0.4c-1.4,0.1-2.7,0.1-4.1,0.2c-0.7,0-1.3,0-2,0
			c-0.9,0-1.7,0-2.6,0c-1.3,0-2.6-0.1-3.9-0.2c-1.5-0.1-2.9-0.2-4.4-0.4c-1.2-0.1-2.5-0.3-3.7-0.5c-1.4-0.2-2.8-0.5-4.2-0.8
			c-1.2-0.2-2.4-0.5-3.6-0.8c-1.4-0.3-2.7-0.7-4.1-1.1c-1.2-0.3-2.3-0.7-3.5-1.1c-2.1-0.7-4.2-1.5-6.2-2.3
			c-11.4-4.7-21.9-11.7-30.7-20.5l0,0l-47.8-47.8l0,0c-8.8-8.8-15.8-19.3-20.5-30.7c0-0.1,0-0.1-0.1-0.2c-1.1,0.5-2.1,0.9-3.2,1.4
			c-0.1,0-0.1,0-0.2,0.1c0,0,0,0.1,0,0.1c4.9,11.9,12.2,22.8,21.3,31.9l0,0l47.8,47.8l0,0c9.1,9.1,20,16.4,31.9,21.3
			c2.1,0.9,4.3,1.7,6.4,2.4v0c1.2,0.4,2.3,0.8,3.5,1.1c1.4,0.4,2.7,0.8,4.1,1.1c1.2,0.3,2.4,0.6,3.6,0.8c1.4,0.3,2.8,0.6,4.2,0.8
			c1.2,0.2,2.5,0.4,3.7,0.5c1.4,0.2,2.9,0.3,4.3,0.4c1.3,0.1,2.5,0.2,3.8,0.2c1.3,0.1,2.7,0.1,4,0.1c0.2,0,0.3,0,0.5,0
			c1.3,0,2.7,0,4-0.1c1.6-0.1,3.1-0.2,4.7-0.3c1.4-0.1,2.8-0.3,4.2-0.5c8.3-1.1,16.5-3.3,24.2-6.6c11.9-4.9,22.8-12.2,31.9-21.3
			C555.4,145.4,561.1,137.7,565.7,129.4z"/>
		<path class="st2" d="M577.5,82.6c0-12.9-2.5-25.7-7.5-37.6c-4.9-11.9-12.2-22.8-21.3-31.9l-23.6-23.4H520l26.1,26
			c8.8,8.8,15.8,19.2,20.5,30.7c4.7,11.4,7.2,23.8,7.2,36.2c0,1.2,0,2.3-0.1,3.5c1.2,0,2.4,0.1,3.7,0.1
			C577.5,85,577.5,83.8,577.5,82.6z"/>
		<path class="st2" d="M598.7,133.5c-1.2-0.4-2.3-0.7-3.5-1.1c-3,7.1-6.7,13.9-11,20.3c-4.6,6.9-9.9,13.3-15.7,19.1
			c-5.8,5.8-12.2,11.1-19.1,15.7c-6.9,4.6-14.2,8.5-21.8,11.7c-13.5,5.6-27.9,8.8-42.4,9.5c-1.2,0.1-2.5,0.1-3.7,0.1
			c-0.7,0-1.5,0-2.2,0c-0.7,0-1.3,0-2,0c-1.2,0-2.5-0.1-3.7-0.1c-1.4-0.1-2.8-0.1-4.2-0.3c-1.2-0.1-2.4-0.2-3.6-0.3
			c-1.4-0.1-2.8-0.3-4.2-0.5c-1.2-0.2-2.4-0.4-3.6-0.6c-1.4-0.2-2.8-0.5-4.2-0.8c-1.2-0.3-2.4-0.5-3.6-0.8c-1.4-0.3-2.8-0.7-4.1-1.1
			c-1.2-0.3-2.4-0.7-3.6-1c-3.9-1.2-7.7-2.5-11.4-4.1c-7.6-3.2-15-7.1-21.8-11.7c-6.9-4.6-13.3-9.9-19.1-15.7l0,0l-47.8-47.8l0,0
			c-5.8-5.8-11.1-12.2-15.7-19.1c-4.6-6.9-8.5-14.2-11.7-21.8c-0.4-1-0.8-2-1.2-3c-1.2,0.2-2.5,0.4-3.7,0.6c0.5,1.3,1,2.5,1.5,3.8
			c3.3,7.9,7.3,15.4,12,22.5c4.7,7.1,10.2,13.7,16.1,19.7l47.8,47.8c6,6,12.6,11.4,19.7,16.1c7.1,4.7,14.6,8.8,22.5,12
			c4.1,1.7,8.3,3.2,12.5,4.4c1.2,0.4,2.4,0.7,3.6,1c1.4,0.4,2.8,0.7,4.2,1c1.2,0.3,2.4,0.5,3.6,0.8c1.4,0.3,2.8,0.5,4.2,0.8
			c1.2,0.2,2.4,0.4,3.6,0.6c1.4,0.2,2.8,0.4,4.2,0.5c1.2,0.1,2.4,0.2,3.7,0.3c1.4,0.1,2.8,0.2,4.2,0.3c1.2,0.1,2.4,0.1,3.7,0.1
			c0.7,0,1.5,0,2.2,0c0.7,0,1.3,0,2,0c1.2,0,2.5-0.1,3.7-0.1c15.1-0.7,30-4,44-9.7c7.9-3.3,15.4-7.3,22.5-12
			c7.1-4.7,13.7-10.2,19.7-16.1c6-6,11.4-12.6,16.1-19.7C591.7,148.1,595.5,140.9,598.7,133.5z"/>
		<path class="st2" d="M609.1,82.6c0-17-3.4-34-9.9-49.7c-3.3-7.9-7.3-15.4-12-22.5C582.5,3.3,577-3.3,571-9.3l-1.1-1.1h-5.1
			l3.6,3.6c2.9,2.9,5.7,6,8.3,9.2c2.6,3.2,5.1,6.5,7.4,10c4.6,6.9,8.5,14.2,11.7,21.8c6.3,15.3,9.6,31.8,9.6,48.3
			c0,2.6-0.1,5.3-0.2,7.9c1.2,0.3,2.4,0.7,3.6,1C609,88.5,609.1,85.6,609.1,82.6z"/>
		<path class="st2" d="M591,131.4c-1.2-0.3-2.4-0.5-3.7-0.8c-5.9,13.2-14.3,25.4-24.5,35.6c-10.9,10.9-24.1,19.7-38.4,25.7
			c-12.2,5-25.2,8-38.3,8.8c-1.2,0.1-2.5,0.1-3.7,0.2c-1.1,0-2.1,0-3.2,0c-0.4,0-0.7,0-1.1,0c-1.2,0-2.5,0-3.7-0.1
			c-1.4-0.1-2.8-0.1-4.2-0.3c-1.2-0.1-2.4-0.2-3.7-0.3c-1.4-0.1-2.8-0.3-4.2-0.5c-1.2-0.2-2.4-0.4-3.6-0.6c-1.4-0.2-2.8-0.5-4.2-0.8
			c-1.2-0.3-2.4-0.5-3.6-0.8c-1.4-0.3-2.7-0.7-4.1-1.1c-1.2-0.3-2.4-0.7-3.6-1.1c-3.2-1-6.3-2.2-9.4-3.4
			c-14.3-5.9-27.4-14.7-38.4-25.7l-0.1,0.1l-47.8-47.8l0.1-0.1c-10.9-10.9-19.7-24.1-25.7-38.4c-0.2-0.5-0.4-1-0.6-1.6
			c-1.2,0.3-2.4,0.6-3.6,0.8c0.3,0.7,0.6,1.4,0.9,2.2c6.1,14.8,15.2,28.3,26.5,39.6l-0.1,0.1l47.8,47.8l0.1-0.1
			c11.3,11.3,24.8,20.4,39.6,26.5c3.4,1.4,6.8,2.6,10.3,3.7c1.2,0.4,2.4,0.7,3.6,1.1c1.4,0.4,2.7,0.7,4.1,1.1
			c1.2,0.3,2.4,0.6,3.6,0.8c1.4,0.3,2.8,0.6,4.2,0.8c1.2,0.2,2.4,0.4,3.6,0.6c1.4,0.2,2.8,0.4,4.2,0.5c1.2,0.1,2.4,0.2,3.7,0.3
			c1.4,0.1,2.8,0.2,4.2,0.3c1.2,0.1,2.5,0.1,3.7,0.1c0.5,0,1.1,0,1.6,0c0.9,0,1.8,0,2.7,0c1.2,0,2.5-0.1,3.7-0.1
			c13.8-0.7,27.5-3.8,40.3-9.1c14.8-6.1,28.3-15.2,39.6-26.5C576.2,158.1,584.9,145.3,591,131.4z"/>
		<path class="st2" d="M601.2,82.6c0-16-3.2-31.9-9.3-46.7c-6.1-14.8-15.2-28.3-26.5-39.5l-6.7-6.7h-5.1l9.2,9.2
			c5.5,5.5,10.4,11.5,14.7,17.9c4.3,6.4,8,13.3,10.9,20.5c5.9,14.3,9,29.8,9,45.3c0,2-0.1,4-0.2,6c1.2,0.2,2.4,0.5,3.6,0.8
			C601.1,87.1,601.2,84.9,601.2,82.6z"/>
		<path class="st2" d="M583,129.9c-1.3-0.2-2.6-0.3-3.9-0.4c-5.4,11.5-12.9,22.1-21.9,31.1c-10.2,10.2-22.5,18.4-35.8,24
			c-10.6,4.4-22,7.1-33.5,8c-1.3,0.1-2.6,0.2-3.9,0.2c-1.5,0.1-2.9,0.1-4.4,0.1c-0.2,0-0.4,0-0.5,0c-1.1,0-2.2,0-3.2,0
			c-1.4,0-2.9-0.1-4.3-0.2c-1.2-0.1-2.5-0.2-3.7-0.3c-1.4-0.1-2.8-0.3-4.2-0.5c-1.2-0.2-2.4-0.4-3.6-0.6c-1.4-0.2-2.8-0.5-4.2-0.8
			c-1.2-0.3-2.4-0.5-3.6-0.8c-1.4-0.3-2.7-0.7-4.1-1.1c-1.2-0.3-2.4-0.7-3.5-1.1c-2.7-0.9-5.3-1.8-7.9-2.9
			c-13.4-5.5-25.6-13.7-35.8-24l-0.1,0.1L353.2,113l0.1-0.1c-10.2-10.2-18.4-22.5-24-35.8c-0.1-0.2-0.2-0.4-0.3-0.6
			c-1.2,0.4-2.4,0.7-3.5,1c0.1,0.3,0.3,0.7,0.4,1c5.7,13.8,14.2,26.5,24.7,37l0,0l47.8,47.8l0,0c10.6,10.5,23.2,19,37,24.7
			c2.8,1.2,5.6,2.2,8.5,3.1c1.2,0.4,2.3,0.7,3.5,1.1c1.4,0.4,2.7,0.8,4.1,1.1c1.2,0.3,2.4,0.6,3.6,0.8c1.4,0.3,2.8,0.6,4.2,0.8
			c1.2,0.2,2.4,0.4,3.6,0.6c1.4,0.2,2.8,0.4,4.2,0.5c1.2,0.1,2.4,0.2,3.7,0.3c1.4,0.1,2.8,0.2,4.3,0.2c1.2,0,2.5,0.1,3.7,0.1h0.3
			c1.3,0,2.7,0,4-0.1c1.3,0,2.5-0.1,3.8-0.2c12.3-0.8,24.4-3.7,35.8-8.4c13.8-5.7,26.5-14.2,37-24.7
			C569.5,153.7,577.4,142.3,583,129.9z"/>
		<path class="st2" d="M593.3,82.6c0-14.9-3-29.9-8.7-43.7c-5.7-13.8-14.2-26.5-24.7-37l-12.3-12.2h-5.1l14.8,14.8
			c5.1,5.1,9.7,10.7,13.7,16.7c4,6,7.5,12.4,10.2,19.1c5.5,13.4,8.4,27.8,8.4,42.3c0,1.6,0,3.1-0.1,4.7c1.2,0.2,2.4,0.4,3.6,0.6
			C593.3,86.1,593.3,84.3,593.3,82.6z"/>
		<path class="st2" d="M574.6,129.2c-1,0-2-0.1-3.1-0.1c-0.3,0-0.7,0-1,0c-4.9,9.5-11.3,18.3-18.8,25.9
			c-9.5,9.5-20.9,17.1-33.3,22.2c-8.8,3.7-18.2,6.1-27.7,7.1c-1.3,0.2-2.7,0.3-4.1,0.4c-1.5,0.1-3,0.2-4.6,0.2c-1,0-1.9,0-2.9,0
			c-0.3,0-0.7,0-1,0c-1.5,0-2.9-0.1-4.4-0.1c-1.3-0.1-2.5-0.2-3.8-0.3c-1.4-0.1-2.9-0.3-4.3-0.5c-1.2-0.2-2.4-0.3-3.7-0.6
			c-1.4-0.2-2.8-0.5-4.2-0.8c-1.2-0.3-2.4-0.5-3.6-0.8c-1.4-0.3-2.7-0.7-4.1-1.1c-1.2-0.3-2.3-0.7-3.5-1.1c-2.3-0.8-4.6-1.6-6.8-2.5
			c-12.4-5.1-23.7-12.7-33.3-22.2l0,0.1l-47.8-47.8l0.1-0.1c-9.5-9.5-17.1-20.9-22.2-33.3c0-0.1,0-0.1-0.1-0.2
			c-1.1,0.4-2.3,0.8-3.5,1.2c0,0.1,0.1,0.2,0.1,0.3c5.3,12.9,13.2,24.6,23,34.4l0,0l47.8,47.8l0,0c9.8,9.8,21.6,17.7,34.4,23
			c2.4,1,4.8,1.9,7.3,2.7v0c1.2,0.4,2.3,0.7,3.5,1.1c1.4,0.4,2.7,0.8,4.1,1.1c1.2,0.3,2.4,0.6,3.6,0.8v0c1.4,0.3,2.8,0.6,4.2,0.8
			c1.2,0.2,2.4,0.4,3.6,0.6c1.4,0.2,2.8,0.4,4.2,0.5c1.2,0.1,2.5,0.2,3.7,0.3c1.4,0.1,2.9,0.1,4.3,0.2c0.7,0,1.4,0,2.1,0
			c0.6,0,1.1,0,1.7,0c1.5,0,3-0.1,4.5-0.2c1.3-0.1,2.6-0.2,3.9-0.3c10.5-1,20.8-3.6,30.5-7.6c12.9-5.3,24.6-13.2,34.4-23
			C562.6,149.4,569.5,139.8,574.6,129.2z"/>
		<path class="st2" d="M585.4,82.6c0-13.9-2.8-27.8-8.1-40.6c-5.3-12.9-13.2-24.6-23-34.4l-0.1,0.1l-17.9-17.9h-5.1l20.4,20.4l0,0
			c9.5,9.5,17.1,20.9,22.2,33.3c5.1,12.4,7.8,25.8,7.8,39.2c0,1.3,0,2.6-0.1,3.9c1.2,0.1,2.4,0.2,3.7,0.3
			C585.4,85.4,585.4,84,585.4,82.6z"/>
		<path class="st2" d="M555.8,130.6c-1.7,0.3-3.4,0.7-5.1,1.1c-3,4.4-6.4,8.4-10.2,12.2c-8.1,8.1-17.6,14.5-28.1,18.8
			c-4,1.7-8.1,3-12.3,4.1c-1.7,0.4-3.4,0.8-5.1,1.1c-1.8,0.3-3.6,0.6-5.4,0.8v0c-1.5,0.2-3,0.3-4.4,0.4c-1.6,0.1-3.3,0.2-4.9,0.2
			c-0.3,0-0.7,0-1,0c-1,0-2,0-3.1-0.1c-1.5-0.1-3-0.1-4.6-0.3c-1.3-0.1-2.6-0.3-3.8-0.4c-1.4-0.2-2.9-0.4-4.3-0.7
			c-1.2-0.2-2.5-0.5-3.7-0.8c-1.4-0.3-2.8-0.7-4.1-1.1c-1.2-0.3-2.4-0.7-3.5-1.1c-2.1-0.7-4.1-1.4-6.1-2.3
			c-10.5-4.3-20.1-10.7-28.1-18.8l0,0l-47.8-47.8l0,0c-8.1-8.1-14.5-17.6-18.8-28.1c-0.1-0.2-0.2-0.4-0.2-0.6
			c-1.1,0.6-2.2,1.1-3.3,1.7c0,0.1,0.1,0.2,0.1,0.3c4.5,10.9,11.3,20.9,19.7,29.3l47.8,47.8l-0.1,0c8.4,8.4,18.4,15.1,29.3,19.6
			c2,0.8,4,1.6,6.1,2.3c1.2,0.4,2.3,0.7,3.5,1.1c1.4,0.4,2.7,0.8,4.1,1.1c1.2,0.3,2.4,0.5,3.6,0.8c1.4,0.3,2.8,0.5,4.3,0.7
			c1.3,0.2,2.5,0.3,3.8,0.5c1.5,0.2,3,0.3,4.5,0.3c1.3,0.1,2.6,0.1,4,0.1c0.3,0,0.5,0,0.8,0c1.3,0,2.6,0,4-0.1
			c1.4-0.1,2.8-0.2,4.2-0.3c1.7-0.2,3.4-0.4,5.1-0.6c1.6-0.2,3.2-0.5,4.7-0.8c5.7-1.1,11.2-2.8,16.6-5.1
			c10.9-4.5,20.9-11.2,29.3-19.6C547.9,141.7,552.2,136.4,555.8,130.6z"/>
		<path class="st2" d="M569.6,82.6c0-11.9-2.3-23.7-6.9-34.6c-4.5-10.9-11.2-20.9-19.6-29.3l-29.1-29H509l31.6,31.6l0,0
			c8.1,8.1,14.5,17.6,18.8,28.1c4.3,10.5,6.6,21.8,6.6,33.2c0,1.2,0,2.4-0.1,3.6c1.2-0.1,2.5-0.1,3.7-0.1
			C569.6,84.9,569.6,83.7,569.6,82.6z"/>
		<path class="st2" d="M389.3-47.8h-3.7c0,12.4-2.4,24.8-7.2,36.2c-4.7,11.4-11.8,21.9-20.5,30.7c-4,4-8.4,7.7-13.1,10.9
			c-1.2,0.9-2.5,1.7-3.8,2.5c-1.4,0.9-2.8,1.7-4.3,2.5c-1.2,0.7-2.4,1.3-3.6,1.9c-1.4,0.7-2.8,1.3-4.2,2c-0.6,0.3-1.2,0.5-1.8,0.8
			c-0.6,0.3-1.2,0.5-1.8,0.7c-1.4,0.5-2.8,1-4.1,1.5c-1.2,0.4-2.4,0.8-3.6,1.1c-1.4,0.4-2.8,0.8-4.2,1.1c-1.2,0.3-2.4,0.6-3.6,0.8
			c-1.4,0.3-2.8,0.5-4.2,0.8c-1.2,0.2-2.4,0.4-3.6,0.5c-3.7,0.4-7.3,0.7-11,0.7h-67.6l0,0c-12.4,0-24.8-2.5-36.2-7.2
			c-11.4-4.7-21.9-11.8-30.7-20.5c-8.8-8.8-15.8-19.3-20.5-30.7c-4.8-11.4-7.2-23.8-7.2-36.2h-3.7c0,12.9,2.5,25.7,7.5,37.6
			c4.9,11.9,12.2,22.8,21.3,31.9c9.1,9.1,20,16.4,31.9,21.3c11.9,4.9,24.7,7.4,37.6,7.4l0,0H291c3.8,0,7.6-0.2,11.4-0.6
			c1.2-0.1,2.4-0.3,3.6-0.5c1.4-0.2,2.8-0.5,4.2-0.7c1.2-0.2,2.4-0.5,3.6-0.8c1.4-0.3,2.8-0.7,4.1-1.1c1.2-0.3,2.4-0.7,3.6-1.1
			c1.4-0.5,2.8-0.9,4.1-1.4c1-0.4,2-0.8,3-1.2c0.2-0.1,0.4-0.2,0.6-0.2c1.4-0.6,2.8-1.2,4.1-1.8c1.2-0.6,2.4-1.2,3.6-1.8
			c1.4-0.7,2.8-1.5,4.1-2.3c1.2-0.7,2.4-1.5,3.6-2.3c5.7-3.7,11-8,15.8-12.8c9.1-9.1,16.4-20,21.3-31.9
			C386.8-22,389.3-34.9,389.3-47.8z"/>
		<path class="st2" d="M397.2-47.8h-3.7c0,13.4-2.6,26.8-7.8,39.2c-5.1,12.4-12.7,23.8-22.2,33.3c-5.6,5.6-11.9,10.6-18.7,14.8
			c-1.2,0.7-2.3,1.4-3.5,2.1c-1.3,0.8-2.7,1.5-4.1,2.2c-1.2,0.6-2.3,1.1-3.5,1.7c-1.1,0.5-2.3,1-3.5,1.5c-0.2,0.1-0.4,0.2-0.6,0.2
			c-1.2,0.5-2.3,0.9-3.5,1.4c-1.3,0.5-2.7,1-4.1,1.4c-1.2,0.4-2.4,0.7-3.6,1.1c-1.4,0.4-2.7,0.7-4.1,1c-1.2,0.3-2.4,0.5-3.6,0.8
			c-1.4,0.3-2.8,0.5-4.2,0.7c-1.2,0.2-2.4,0.4-3.6,0.5c-4,0.5-8,0.8-12,0.8h-67.6l0,0c-13.4,0-26.8-2.7-39.2-7.9
			c-12.4-5.1-23.8-12.7-33.3-22.2c-9.5-9.5-17.1-20.9-22.2-33.3c-5.1-12.4-7.8-25.8-7.8-39.2h-3.7c0,13.9,2.7,27.8,8.1,40.6
			c5.3,12.8,13.2,24.6,23,34.5s21.6,17.7,34.5,23c12.8,5.3,26.7,8.1,40.6,8.1l0,0H291c2.1,0,4.2-0.1,6.3-0.2
			c2.1-0.1,4.2-0.3,6.3-0.6c1.2-0.1,2.4-0.3,3.6-0.5c1.4-0.2,2.8-0.5,4.2-0.7c1.2-0.2,2.4-0.5,3.6-0.8c1.4-0.3,2.7-0.7,4.1-1
			c1.2-0.3,2.4-0.7,3.5-1c1.4-0.4,2.7-0.9,4.1-1.4c1.2-0.4,2.3-0.9,3.5-1.3c0.5-0.2,1-0.4,1.5-0.6c0.9-0.4,1.7-0.7,2.5-1.1
			c1.2-0.5,2.3-1.1,3.5-1.6c1.3-0.7,2.7-1.3,4-2.1c1.2-0.6,2.3-1.3,3.5-2c7.6-4.5,14.7-10,21-16.3c9.8-9.8,17.7-21.6,23-34.5
			C394.4-20,397.2-33.9,397.2-47.8z"/>
		<path class="st2" d="M405.1-47.8h-3.7c0,14.5-2.8,28.9-8.4,42.3c-5.5,13.4-13.7,25.6-24,35.8c-6.9,7-14.8,13-23.4,17.8
			c-1.1,0.6-2.3,1.3-3.4,1.9c-1.3,0.7-2.6,1.3-3.9,2c-1.1,0.5-2.3,1.1-3.4,1.6c-0.6,0.2-1.1,0.5-1.7,0.7c-0.8,0.3-1.5,0.6-2.3,0.9
			c-1.2,0.4-2.3,0.9-3.5,1.3c-1.3,0.5-2.7,0.9-4,1.3c-1.2,0.4-2.3,0.7-3.5,1c-1.4,0.4-2.7,0.7-4.1,1h0c-1.2,0.3-2.4,0.5-3.6,0.8
			c-1.4,0.3-2.8,0.5-4.2,0.7c-1.2,0.2-2.4,0.4-3.6,0.5c-4.4,0.5-8.9,0.9-13.4,0.9h-67.6l0,0c-14.5,0-28.9-3-42.3-8.5
			c-13.4-5.5-25.6-13.7-35.8-24c-10.2-10.2-18.4-22.5-23.9-35.8c-5.5-13.4-8.4-27.8-8.4-42.3h-3.7c0,14.9,2.9,29.9,8.7,43.7
			c5.7,13.8,14.2,26.5,24.7,37c10.6,10.6,23.2,19,37,24.7c13.8,5.7,28.7,8.7,43.7,8.7l0,0H291c2.4,0,4.7-0.1,7.1-0.3
			c2.4-0.2,4.7-0.4,7.1-0.7c1.2-0.2,2.4-0.3,3.6-0.5c1.4-0.2,2.8-0.5,4.2-0.7c1.2-0.2,2.4-0.5,3.6-0.8c1.4-0.3,2.7-0.7,4.1-1
			c1.2-0.3,2.4-0.7,3.5-1c1.4-0.4,2.7-0.8,4-1.3c1.2-0.4,2.3-0.8,3.5-1.3c1-0.4,2-0.8,2.9-1.2c0.3-0.1,0.7-0.3,1-0.4
			c1.1-0.5,2.3-1,3.4-1.5c1.3-0.6,2.6-1.2,3.9-1.9c1.1-0.6,2.3-1.2,3.4-1.8c9.3-5.1,17.8-11.6,25.3-19.1c10.6-10.6,19-23.2,24.7-37
			C402.1-17.9,405.1-32.8,405.1-47.8z"/>
		<path class="st2" d="M413-47.8h-3.7c0,15.5-3,31-9,45.3c-5.9,14.3-14.7,27.4-25.7,38.4c-8.1,8.1-17.3,14.9-27.3,20.4
			c-1.1,0.6-2.2,1.2-3.3,1.7c-1.3,0.6-2.6,1.3-3.9,1.9c-1.1,0.5-2.3,1-3.4,1.5c-0.2,0.1-0.3,0.1-0.5,0.2c-1.1,0.5-2.3,0.9-3.5,1.4
			c-1.1,0.4-2.3,0.9-3.5,1.2c-1.3,0.5-2.7,0.9-4,1.3c-1.2,0.4-2.3,0.7-3.5,1c-1.4,0.4-2.7,0.7-4.1,1c-1.2,0.3-2.4,0.5-3.6,0.8
			c-1.4,0.3-2.8,0.5-4.2,0.8c-1.2,0.2-2.4,0.4-3.7,0.5c-5.1,0.7-10.2,1.2-15.3,1.2h-67.6l0,0c-15.5,0-31-3.2-45.3-9.2
			c-14.3-5.9-27.4-14.7-38.4-25.7C128.8,25,120,11.8,114.1-2.5c-5.9-14.3-9-29.8-9-45.3h-3.7c0,15.9,3.1,31.9,9.3,46.7
			c6.1,14.8,15.2,28.3,26.5,39.6c11.3,11.3,24.8,20.3,39.6,26.5c14.8,6.1,30.8,9.4,46.7,9.4l0,0H291c2.7,0,5.4-0.1,8.2-0.3
			c2.7-0.2,5.4-0.5,8.1-0.9c1.2-0.2,2.4-0.3,3.7-0.6c1.4-0.2,2.8-0.5,4.2-0.8c1.2-0.2,2.4-0.5,3.6-0.8c1.4-0.3,2.7-0.7,4.1-1
			c1.2-0.3,2.4-0.7,3.5-1c1.3-0.4,2.7-0.8,4-1.3c1.2-0.4,2.3-0.8,3.5-1.2c1.3-0.5,2.5-1,3.8-1.5c0,0,0.1,0,0.1-0.1
			c1.1-0.5,2.3-1,3.4-1.5c1.3-0.6,2.6-1.2,3.9-1.8c1.1-0.5,2.2-1.1,3.3-1.7c10.6-5.7,20.4-12.9,28.9-21.4
			c11.3-11.3,20.3-24.8,26.5-39.6C409.8-15.8,413-31.8,413-47.8z"/>
		<path class="st2" d="M420.9-47.8h-3.7c0,8.2-0.8,16.5-2.4,24.6c-1.6,8.1-4,16.1-7.2,23.7c-6.3,15.3-15.7,29.3-27.4,40.9
			c-9,9-19.3,16.6-30.5,22.5c-1.1,0.6-2.2,1.1-3.3,1.7c-1.3,0.6-2.5,1.2-3.8,1.8c-1.1,0.5-2.2,1-3.3,1.4c0,0-0.1,0-0.1,0
			c-1.3,0.5-2.6,1.1-3.9,1.5c-1.1,0.4-2.3,0.8-3.4,1.2c-1.3,0.5-2.7,0.9-4,1.3c-1.2,0.4-2.3,0.7-3.5,1c-1.4,0.4-2.7,0.7-4.1,1
			c-1.2,0.3-2.4,0.6-3.6,0.8c-0.3,0.1-0.6,0.1-0.9,0.2c-1.1,0.2-2.2,0.4-3.3,0.6c-1.2,0.2-2.5,0.4-3.7,0.6
			c-5.9,0.8-11.8,1.3-17.6,1.3h-67.6c-4.1,0-8.2-0.2-12.4-0.6c-4.1-0.4-8.2-1-12.3-1.8c-8.1-1.6-16.1-4-23.7-7.2
			c-15.3-6.3-29.3-15.7-40.9-27.4c-11.7-11.7-21-25.7-27.4-40.9c-3.2-7.6-5.6-15.6-7.2-23.7c-1.6-8.1-2.4-16.4-2.4-24.6h-3.7
			c0,8.5,0.8,17,2.5,25.3c1.7,8.3,4.1,16.5,7.4,24.4c6.5,15.7,16.2,30.1,28.2,42.1c12,12,26.4,21.7,42.1,28.2
			c7.9,3.3,16,5.7,24.4,7.4c8.3,1.7,16.8,2.5,25.3,2.5H291c6.3,0,12.7-0.5,18.9-1.4c1.2-0.2,2.5-0.4,3.7-0.6
			c0.9-0.2,1.8-0.3,2.7-0.5c0.5-0.1,1-0.2,1.5-0.3c1.2-0.3,2.4-0.5,3.6-0.8c1.4-0.3,2.8-0.7,4.1-1.1c1.2-0.3,2.4-0.7,3.5-1
			c1.4-0.4,2.7-0.8,4-1.3c1.2-0.4,2.3-0.8,3.5-1.2c1.3-0.5,2.6-1,3.9-1.6c0.1,0,0.1,0,0.2-0.1c1.1-0.4,2.1-0.9,3.2-1.4
			c1.3-0.6,2.6-1.2,3.8-1.8c1.1-0.5,2.2-1.1,3.3-1.7c11.7-6.1,22.5-14,31.8-23.3c12-12,21.7-26.4,28.2-42.1c3.3-7.9,5.7-16,7.4-24.4
			C420-30.8,420.9-39.3,420.9-47.8z"/>
		<path class="st2" d="M381.4-47.8h-3.7c0,11.4-2.2,22.7-6.6,33.2c-4.3,10.5-10.8,20.1-18.8,28.1c-2,2-4.1,3.9-6.3,5.7
			c-1.4,1.1-2.8,2.2-4.2,3.3c-1.5,1.1-3,2.1-4.6,3.1c-1.3,0.8-2.6,1.6-3.9,2.3c-1.4,0.8-2.9,1.6-4.4,2.3c-1.2,0.6-2.5,1.2-3.7,1.7
			c-0.4,0.2-0.7,0.3-1.1,0.5c-1.1,0.4-2.1,0.9-3.2,1.2c-1.2,0.4-2.4,0.9-3.7,1.3c-1.4,0.4-2.8,0.9-4.2,1.2c-1.2,0.3-2.4,0.6-3.7,0.9
			c-1.4,0.3-2.8,0.6-4.2,0.8c-1.2,0.2-2.4,0.4-3.7,0.5c-3.5,0.4-7,0.6-10.6,0.7v0l-67.6,0l0,0c-11.4,0-22.7-2.2-33.2-6.6
			c-10.5-4.3-20.1-10.8-28.1-18.8c-8-8-14.5-17.7-18.8-28.1c-4.3-10.5-6.6-21.8-6.6-33.2H133c0,11.9,2.3,23.7,6.9,34.6
			c4.5,10.9,11.2,21,19.6,29.3c8.4,8.4,18.4,15.1,29.3,19.6c10.9,4.5,22.7,6.9,34.6,6.9l67.6-0.1v0.1c3.6,0,7.2-0.2,10.7-0.6
			c1.2-0.1,2.4-0.3,3.6-0.5c1.4-0.2,2.8-0.5,4.2-0.8c1.2-0.3,2.4-0.5,3.6-0.8c1.4-0.4,2.8-0.7,4.2-1.2c1.2-0.4,2.4-0.8,3.6-1.2
			c1.4-0.5,2.8-1,4.2-1.6c0.1,0,0.2-0.1,0.4-0.1c1.1-0.5,2.2-0.9,3.3-1.4c1.4-0.7,2.9-1.4,4.3-2.1c1.3-0.7,2.5-1.4,3.7-2.1
			c1.5-0.9,3-1.8,4.4-2.8c1.3-0.9,2.7-1.8,4-2.8c3.4-2.6,6.6-5.4,9.6-8.4c8.4-8.4,15.1-18.4,19.6-29.3
			C379.1-24.1,381.4-35.9,381.4-47.8z"/>
	</g>
	<g>
		<g>
			<g>
				
					<rect x="1.6" y="720.2" transform="matrix(-1 -1.224647e-16 1.224647e-16 -1 8.0875 1463.3484)" class="st2" width="4.9" height="23"/>
				
					<rect x="1.6" y="753.6" transform="matrix(-1 -1.224647e-16 1.224647e-16 -1 8.0875 1530.236)" class="st2" width="4.9" height="23"/>
				
					<rect x="1.6" y="787.1" transform="matrix(-1 -1.224647e-16 1.224647e-16 -1 8.0875 1597.1235)" class="st2" width="4.9" height="23"/>
			</g>
			<g>
				
					<rect x="1.6" y="620.8" transform="matrix(-1 -1.224647e-16 1.224647e-16 -1 8.0875 1264.6572)" class="st2" width="4.9" height="23"/>
				
					<rect x="1.6" y="654.3" transform="matrix(-1 -1.224647e-16 1.224647e-16 -1 8.0875 1331.5448)" class="st2" width="4.9" height="23"/>
				
					<rect x="1.6" y="687.7" transform="matrix(-1 -1.224647e-16 1.224647e-16 -1 8.0875 1398.4324)" class="st2" width="4.9" height="23"/>
			</g>
			<g>
				
					<rect x="1.6" y="819.5" transform="matrix(-1 -1.224647e-16 1.224647e-16 -1 8.0875 1662.0396)" class="st2" width="4.9" height="23"/>
				
					<rect x="1.6" y="853" transform="matrix(-1 -1.224647e-16 1.224647e-16 -1 8.0875 1728.9271)" class="st2" width="4.9" height="23"/>
				
					<rect x="1.6" y="886.4" transform="matrix(-1 -1.224647e-16 1.224647e-16 -1 8.0875 1786.4054)" class="st2" width="4.9" height="13.6"/>
			</g>
		</g>
		<g>
			<g>
				
					<rect x="1.6" y="409.8" transform="matrix(-1 -1.224647e-16 1.224647e-16 -1 8.0875 842.5217)" class="st2" width="4.9" height="23"/>
				
					<rect x="1.6" y="443.2" transform="matrix(-1 -1.224647e-16 1.224647e-16 -1 8.0875 909.4092)" class="st2" width="4.9" height="23"/>
				
					<rect x="1.6" y="476.6" transform="matrix(-1 -1.224647e-16 1.224647e-16 -1 8.0875 976.2968)" class="st2" width="4.9" height="23"/>
			</g>
			<g>
				
					<rect x="1.6" y="310.4" transform="matrix(-1 -1.224647e-16 1.224647e-16 -1 8.0875 643.8306)" class="st2" width="4.9" height="23"/>
				
					<rect x="1.6" y="343.9" transform="matrix(-1 -1.224647e-16 1.224647e-16 -1 8.0875 710.7181)" class="st2" width="4.9" height="23"/>
				
					<rect x="1.6" y="377.3" transform="matrix(-1 -1.224647e-16 1.224647e-16 -1 8.0875 777.6057)" class="st2" width="4.9" height="23"/>
			</g>
			<g>
				
					<rect x="1.6" y="509.1" transform="matrix(-1 -1.224647e-16 1.224647e-16 -1 8.0875 1041.2129)" class="st2" width="4.9" height="23"/>
				
					<rect x="1.6" y="542.5" transform="matrix(-1 -1.224647e-16 1.224647e-16 -1 8.0875 1108.1005)" class="st2" width="4.9" height="23"/>
				
					<rect x="1.6" y="576" transform="matrix(-1 -1.224647e-16 1.224647e-16 -1 8.0875 1174.9879)" class="st2" width="4.9" height="23"/>
			</g>
		</g>
		<g>
			<g>
				
					<rect x="1.6" y="99.3" transform="matrix(-1 -1.224647e-16 1.224647e-16 -1 8.0875 221.695)" class="st2" width="4.9" height="23"/>
				
					<rect x="1.6" y="132.8" transform="matrix(-1 -1.224647e-16 1.224647e-16 -1 8.0875 288.5825)" class="st2" width="4.9" height="23"/>
				
					<rect x="1.6" y="166.2" transform="matrix(-1 -1.224647e-16 1.224647e-16 -1 8.0875 355.4701)" class="st2" width="4.9" height="23"/>
			</g>
			<g>
				
					<rect x="1.6" y="0" transform="matrix(-1 -1.224647e-16 1.224647e-16 -1 8.0875 23.0038)" class="st2" width="4.9" height="23"/>
				
					<rect x="1.6" y="33.4" transform="matrix(-1 -1.224647e-16 1.224647e-16 -1 8.0875 89.8914)" class="st2" width="4.9" height="23"/>
				
					<rect x="1.6" y="66.9" transform="matrix(-1 -1.224647e-16 1.224647e-16 -1 8.0875 156.7789)" class="st2" width="4.9" height="23"/>
			</g>
			<g>
				
					<rect x="1.6" y="198.7" transform="matrix(-1 -1.224647e-16 1.224647e-16 -1 8.0875 420.3861)" class="st2" width="4.9" height="23"/>
				
					<rect x="1.6" y="232.1" transform="matrix(-1 -1.224647e-16 1.224647e-16 -1 8.0875 487.2737)" class="st2" width="4.9" height="23"/>
				
					<rect x="1.6" y="265.6" transform="matrix(-1 -1.224647e-16 1.224647e-16 -1 8.0875 554.1613)" class="st2" width="4.9" height="23"/>
			</g>
		</g>
	</g>
</g>
</svg>
