<?xml version="1.0" encoding="utf-8"?>
<!-- Generator: Adobe Illustrator 26.1.0, SVG Export Plug-In . SVG Version: 6.00 Build 0)  -->
<svg version="1.1" id="Layer_2_00000139253918418474231250000016859014656631316608_"
	 xmlns="http://www.w3.org/2000/svg" xmlns:xlink="http://www.w3.org/1999/xlink" x="0px" y="0px" viewBox="0 0 1420 900"
	 style="enable-background:new 0 0 1420 900;" xml:space="preserve">
<style type="text/css">
	.st0{fill:#F4F4F4;}
	.st1{fill:#FFFFFF;}
</style>
<path class="st0" d="M1420,0v900H109.1c0-42.8,15.7-63.8,32.3-86c17.2-23,35-46.8,35-94s-17.8-71-35-94
	c-16.6-22.2-32.3-43.2-32.3-86s15.7-63.8,32.3-86c17.2-23,35-46.8,35-94s-17.8-71-35-94c-16.6-22.2-32.3-43.2-32.3-86
	s15.7-63.8,32.3-86c17.2-23,35-46.8,35-94H1420z"/>
<path class="st1" d="M141.9,900h-13.5c0-47.2,17.8-71,35-94c16.6-22.2,32.3-43.2,32.3-86s-15.7-63.8-32.3-86c-17.2-23-35-46.8-35-94
	s17.8-71,35-94c16.6-22.2,32.3-43.2,32.3-86s-15.7-63.8-32.3-86c-17.2-23-35-46.8-35-94s17.8-71,35-94c16.6-22.2,32.3-43.2,32.3-86
	h13.5c0,47.2-17.8,71-35,94c-16.6,22.2-32.3,43.2-32.3,86s15.7,63.8,32.3,86c17.2,23,35,46.8,35,94s-17.8,71-35,94
	c-16.6,22.2-32.3,43.2-32.3,86s15.7,63.8,32.3,86c17.2,23,35,46.8,35,94s-17.8,71-35,94C157.5,836.2,141.9,857.2,141.9,900z"/>
<path class="st1" d="M141.4,454c-16.6,22.2-32.3,43.2-32.3,86s15.7,63.8,32.3,86c17.2,23,35,46.8,35,94s-17.8,71-35,94
	c-16.6,22.2-32.3,43.2-32.3,86H-1.8V0h178.2c0,47.2-17.8,71-35,94c-16.6,22.2-32.3,43.2-32.3,86s15.7,63.8,32.3,86
	c17.2,23,35,46.8,35,94S158.6,431,141.4,454z"/>
<path class="st1" d="M207.4,900h-13.4c0-47.2,17.8-71,35-94c16.6-22.2,32.3-43.2,32.3-86s-15.7-63.8-32.3-86c-17.2-23-35-46.8-35-94
	s17.8-71,35-94c16.6-22.2,32.3-43.2,32.3-86s-15.7-63.8-32.3-86c-17.2-23-35-46.8-35-94s17.8-71,35-94c16.6-22.2,32.3-43.2,32.3-86
	h13.5c0,47.2-17.8,71-35,94c-16.6,22.2-32.3,43.2-32.3,86s15.7,63.8,32.3,86c17.2,23,35,46.8,35,94s-17.8,71-35,94
	c-16.6,22.2-32.3,43.2-32.3,86s15.7,63.8,32.3,86c17.2,23,35,46.8,35,94s-17.8,71-35,94C223.1,836.2,207.4,857.2,207.4,900z"/>
<path class="st1" d="M240.1,900h-13.5c0-47.2,17.8-71,35-94c16.6-22.2,32.3-43.2,32.3-86s-15.7-63.8-32.3-86c-17.2-23-35-46.8-35-94
	s17.8-71,35-94c16.6-22.2,32.3-43.2,32.3-86s-15.7-63.8-32.3-86c-17.2-23-35-46.8-35-94s17.8-71,35-94C278.3,63.8,294,42.8,294,0
	h13.5c0,47.2-17.8,71-35,94c-16.6,22.2-32.3,43.2-32.3,86s15.7,63.8,32.3,86c17.2,23,35,46.8,35,94s-17.8,71-35,94
	c-16.6,22.2-32.3,43.2-32.3,86s15.7,63.8,32.3,86c17.2,23,35,46.8,35,94s-17.8,71-35,94C255.8,836.2,240.1,857.2,240.1,900z"/>
<path class="st1" d="M272.9,900h-13.4c0-47.2,17.8-71,35-94c16.6-22.2,32.3-43.2,32.3-86s-15.7-63.8-32.3-86c-17.2-23-35-46.8-35-94
	s17.8-71,35-94c16.6-22.2,32.3-43.2,32.3-86s-15.7-63.8-32.3-86c-17.2-23-35-46.8-35-94s17.8-71,35-94c16.6-22.2,32.3-43.2,32.3-86
	h13.5c0,47.2-17.8,71-35,94c-16.6,22.2-32.3,43.2-32.3,86s15.7,63.8,32.3,86c17.2,23,35,46.8,35,94s-17.8,71-35,94
	c-16.6,22.2-32.3,43.2-32.3,86s15.7,63.8,32.3,86c17.2,23,35,46.8,35,94s-17.8,71-35,94C288.6,836.2,272.9,857.2,272.9,900z"/>
<path class="st1" d="M174.6,900h-13.5c0-47.2,17.8-71,35-94c16.6-22.2,32.3-43.2,32.3-86s-15.7-63.8-32.3-86c-17.2-23-35-46.8-35-94
	s17.8-71,35-94c16.6-22.2,32.3-43.2,32.3-86s-15.7-63.8-32.3-86c-17.2-23-35-46.8-35-94s17.8-71,35-94c16.6-22.2,32.3-43.2,32.3-86
	h13.4c0,47.2-17.8,71-35,94c-16.6,22.2-32.3,43.2-32.3,86s15.7,63.8,32.3,86c17.2,23,35,46.8,35,94s-17.8,71-35,94
	c-16.6,22.2-32.3,43.2-32.3,86s15.7,63.8,32.3,86c17.2,23,35,46.8,35,94s-17.8,71-35,94C190.3,836.2,174.6,857.2,174.6,900z"/>
</svg>
