<?xml version="1.0" encoding="utf-8"?>
<!-- Generator: Adobe Illustrator 23.0.1, SVG Export Plug-In . SVG Version: 6.00 Build 0)  -->
<svg version="1.1" id="Layer_1" xmlns="http://www.w3.org/2000/svg" xmlns:xlink="http://www.w3.org/1999/xlink" x="0px" y="0px"
	 viewBox="0 0 852.1 968.5" style="enable-background:new 0 0 852.1 968.5;" xml:space="preserve">
<style type="text/css">
	.st0{opacity:0.1;fill:url(#SVGID_1_);}
	.st1{fill:url(#SVGID_2_);stroke:#000000;stroke-width:9;stroke-miterlimit:10;}
	.st2{fill:#16519F;}
	.st3{font-family:'ArialMT';}
	.st4{font-size:80.3583px;}
	.st5{font-family:'Montserrat-Regular';}
	.st6{font-size:61.6008px;}
	.st7{fill:#214489;}
	.st8{font-size:61.4505px;}
	.st9{fill:#577DC8;}
	.st10{font-size:47.2696px;}
	.st11{fill:#3C76E8;}
	.st12{font-size:56.5018px;}
	.st13{font-size:18.8813px;}
	.st14{font-size:21.2713px;}
	.st15{font-size:18.9078px;}
	.st16{font-size:16.522px;}
	.st17{font-size:33.0887px;}
	.st18{font-size:52.1238px;}
	.st19{font-size:37.8157px;}
	.st20{font-size:51.9965px;}
	.st21{font-size:20.0896px;}
	.st22{font-size:15.3357px;}
	.st23{font-size:15.3419px;}
	.st24{font-size:30.7943px;}
	.st25{font-size:23.6348px;}
	.st26{font-size:28.3617px;}
	.st27{font-size:10.6357px;}
	.st28{font-size:9.4539px;}
	.st29{font-size:16.5444px;}
	.st30{font-size:25.9983px;}
	.st31{font-size:7.6813px;}
	.st32{font-size:15.3626px;}
	.st33{font-size:11.8463px;}
	.st34{font-size:14.1809px;}
	.st35{font-size:11.8174px;}
	.st36{font-size:18.8558px;}
	.st37{font-size:16.5286px;}
	.st38{font-size:8.2722px;}
	.st39{font-size:25.9371px;}
	.st40{font-size:10.0448px;}
	.st41{font-size:14.1198px;}
	.st42{font-size:9.47px;}
	.st43{font-size:12.9991px;}
	.st44{font-size:7.7139px;}
</style>
<desc>Created @ WordClouds.com</desc>
<linearGradient id="SVGID_1_" gradientUnits="userSpaceOnUse" x1="854.5047" y1="486.0701" x2="9.094947e-13" y2="486.0701">
	<stop  offset="0" style="stop-color:#000000"/>
	<stop  offset="1" style="stop-color:#16519F"/>
</linearGradient>
<path class="st0" d="M854.5,245.9v3.9c0,5.2-0.3,10.5-0.7,15.7c-1.9,23-6.9,45.5-15.5,67.1c-10.6,27-26.9,50.4-43.3,73.8
	c-11.4,16.3-19.9,34.2-27.8,52.3c-11.4,26.4-18.5,54-23.9,82.1c-3.4,17.7-5.8,35.6-7.5,53.6c-2.2,23.4-5.4,46.7-7.7,70.1
	c-2.3,23.9-5.8,47.7-9.4,71.4c-6,39.6-12.2,79.2-21.4,118.3c-6.2,26.2-12.4,52.3-18.3,78.5c-5,22.2-29.8,40.4-49.9,39.2
	c-9.2-0.6-18.5,0.8-27.4-3.5c-11.7-5.7-20.8-14-27.5-25.1c-6.8-11.3-8.6-24.3-11.7-36.8c-6.4-25.6-12.4-51.3-18.7-76.9
	c-8.7-35.6-17.5-71.2-26.3-106.8c-4.2-17.1-8.3-34.2-12.4-51.3c-5.1-21.4-16.9-38.3-34.5-51.4c-12.6-9.3-26.9-14.1-42.3-14.1
	c-19.5-0.1-36.3,7-51.2,19.9c-18.6,16.1-25.9,37.4-31.1,60.3c-7.7,33.5-16.1,66.8-24.3,100.1c-10.1,41.3-20.3,82.5-30.2,123.8
	c-3.2,13.4-5.5,27.1-14.3,38.4c-11.2,14.5-24.9,23.5-44.2,23.5H233c-13.4,0-25.7-2.1-36.7-10.1c-10-7.3-17.1-16.7-20.1-28.7
	c-9.2-37.2-18.6-74.3-25.7-112c-4.5-24.3-8.5-48.6-12.4-73c-3.3-20.6-6.2-41.3-8.9-61.9c-2.4-18.2-4-36.5-6.3-54.8
	c-3.3-26.6-5.3-53.4-9.6-79.9c-5-30.6-13-60.3-24.3-89.2c-10.5-27-25-51.7-42-75.1c-14.2-19.6-25.8-40.8-33.5-63.8
	c-5-14.9-9.2-30.1-10.6-46c-0.8-9.6-1.8-19.1-2.9-28.7c-0.6-5,0.7-9.9,1-14.9c1.9-25.5,6.1-50.7,14.7-74.9
	c11.3-32.1,28.4-60.6,51.7-85.5c21.3-22.8,45.8-40.9,74.1-53.9c21.5-9.9,44-16.5,67.8-19c35.4-3.6,67.9,5.2,98.5,22.1
	c21.7,12,42,26.2,62.9,39.5c43.9,27.9,87.6,56.1,131.5,84c11,7,23,7.2,33.4-0.3c10.7-7.6,16.1-19,14.1-32.6
	c-1-6.3-5.6-10.9-10.7-14.5c-17.3-12.4-35.5-23.5-53.2-35.2c-1.5-1-2.9-2.1-4.8-3.4c8.3-4.1,16.8-6.7,24-11.8
	c15.6-11,31.7-21.4,49.2-29.3c23.1-10.5,47-17.6,72.8-18.6c28.1-1.1,54.3,5.9,79.7,16.3c26.4,10.8,49.6,26.6,70.4,46.4
	c19.4,18.5,35.6,39.4,48,63.2c11.4,21.8,18.9,44.9,23.8,69C852.4,212.2,854.4,229,854.5,245.9z"/>
<linearGradient id="SVGID_2_" gradientUnits="userSpaceOnUse" x1="854.5047" y1="-879.0099" x2="-9.094947e-13" y2="-879.0099">
	<stop  offset="0" style="stop-color:#000000"/>
	<stop  offset="1" style="stop-color:#16519F"/>
</linearGradient>
<path class="st1" d="M854.5-1119.2v3.9c0,5.2-0.3,10.5-0.7,15.7c-1.9,23-6.9,45.5-15.5,67.2c-10.6,27-26.9,50.4-43.3,73.8
	c-11.4,16.3-19.9,34.2-27.8,52.3c-11.4,26.4-18.5,54-23.9,82.1c-3.4,17.7-5.8,35.6-7.5,53.6c-2.2,23.4-5.4,46.7-7.7,70.1
	c-2.3,23.9-5.8,47.7-9.4,71.4c-6,39.6-12.2,79.2-21.4,118.3c-6.2,26.1-12.4,52.3-18.3,78.5c-5,22.2-29.8,40.4-49.9,39.2
	c-9.2-0.6-18.5,0.9-27.4-3.5c-11.7-5.7-20.8-14-27.5-25.1c-6.8-11.3-8.6-24.3-11.7-36.8c-6.4-25.6-12.4-51.3-18.7-76.9
	c-8.7-35.6-17.5-71.2-26.3-106.8c-4.2-17.1-8.3-34.2-12.4-51.3c-5.1-21.4-16.9-38.3-34.5-51.4c-12.6-9.3-26.9-14.1-42.3-14.1
	c-19.5-0.1-36.3,7-51.2,19.9c-18.6,16.1-25.9,37.4-31.1,60.3c-7.7,33.5-16.1,66.8-24.3,100.1c-10.1,41.3-20.3,82.5-30.2,123.8
	c-3.2,13.4-5.5,27.1-14.3,38.4c-11.2,14.5-24.9,23.5-44.2,23.5H233c-13.4,0-25.7-2.1-36.7-10.1c-10-7.3-17.1-16.7-20.1-28.7
	c-9.2-37.2-18.6-74.3-25.7-112c-4.5-24.3-8.5-48.6-12.4-73c-3.3-20.6-6.2-41.3-8.9-61.9c-2.4-18.2-4-36.5-6.3-54.8
	c-3.3-26.6-5.3-53.4-9.6-79.9c-5-30.6-13-60.3-24.3-89.2c-10.5-27-25-51.7-42-75.1c-14.2-19.6-25.8-40.8-33.5-63.8
	c-5-14.9-9.2-30.1-10.6-46c-0.8-9.6-1.8-19.1-2.9-28.7c-0.6-5,0.7-9.9,1-14.9c1.9-25.6,6.1-50.7,14.7-74.9
	c11.3-32.1,28.4-60.6,51.7-85.5c21.3-22.8,45.8-40.9,74.1-53.9c21.5-9.9,44-16.5,67.8-19c35.4-3.6,67.9,5.2,98.5,22.1
	c21.7,12,42,26.2,62.9,39.5c43.9,27.9,87.6,56.1,131.5,84c11,7,23,7.2,33.4-0.3c10.7-7.6,16.1-19,14.1-32.6
	c-1-6.4-5.6-10.9-10.7-14.6c-17.3-12.4-35.5-23.5-53.2-35.2c-1.5-1-2.9-2.1-4.8-3.4c8.3-4.1,16.8-6.7,24-11.8
	c15.6-11,31.7-21.4,49.2-29.3c23.1-10.5,47-17.6,72.8-18.6c28.1-1.1,54.3,5.9,79.7,16.3c26.4,10.8,49.6,26.6,70.4,46.4
	c19.4,18.6,35.6,39.4,48,63.2c11.4,21.8,18.9,44.9,23.8,69C852.4-1152.9,854.4-1136,854.5-1119.2z"/>
<g transform="matrix(1 0 0 1 512 512)">
	<text transform="matrix(1 0 0 1 -358.5252 -1.8598)" class="st2 st3 st4">fogfehérítés</text>
</g>
<g transform="matrix(1 0.07 -0.07 1 490 425)">
	<text transform="matrix(0.9976 0 0 0.9976 -434.064 -1.6826)" class="st2 st5 st6">szájhigiéniai kezelések</text>
</g>
<g transform="matrix(1 0 0 1 475 356)">
	<text transform="matrix(1 0 0 1 -457.9753 -7.7998)" class="st7 st5 st8">fogorvosi szűrővizsgálat</text>
</g>
<g transform="matrix(1 0 0 1 534 579)">
	<text transform="matrix(1 0 0 1 -340.3653 -7.7998)" class="st9 st3 st8">implantátumok</text>
</g>
<g transform="matrix(0.28 0.96 -0.96 0.28 257 652)">
	<text transform="matrix(1 0 0 1 -233.8948 89.7504)" class="st7 st5 st10">állapotfelmérés</text>
</g>
<g transform="matrix(0.99 0.11 -0.11 0.99 343 195)">
	<text transform="matrix(1.0039 0 0 1.0039 -255.0795 0.3064)" class="st11 st5 st12">fogfelépítés</text>
</g>
<g transform="matrix(0.84 0.54 -0.54 0.84 609 652)">
	<text transform="matrix(1.0014 0 0 1.0014 -184.6453 29.6419)" class="st9 st3 st13">teljes szájrendezés</text>
</g>
<g transform="matrix(1 0 0 1 425 621)">
	<text transform="matrix(1 0 0 1 -198.3653 -20.4198)" class="st9 st5 st14">röntgendiagnosztika</text>
</g>
<g transform="matrix(1 0 0 1 335 132)">
	<text transform="matrix(1 0 0 1 -248.0353 -12.2498)" class="st2 st5 st10">fogeltávolítás</text>
</g>
<g transform="matrix(1 0 0 1 528 384)">
	<text transform="matrix(1 0 0 1 -181.6853 -21.1598)" class="st11 st5 st15">fogmentő kezelések</text>
</g>
<g transform="matrix(1 0 0 1 681 619)">
	<text transform="matrix(1 0 0 1 -172.5253 -21.1598)" class="st2 st3 st15">fogkő-eltávolítás</text>
</g>
<g transform="matrix(0.82 -0.57 0.57 0.82 396 687)">
	<text transform="matrix(1.0014 0 0 1.0014 -133.4809 -66.1932)" class="st9 st5 st16">panoráma röntgen</text>
</g>
<g transform="matrix(1 0 0 1 777 174)">
	<text transform="matrix(1 0 0 1 -214.1553 -16.7097)" class="st7 st3 st17">gyökérkezelés</text>
</g>
<g transform="matrix(1 0 0 1 739 136)">
	<text transform="matrix(1 0 0 1 -191.0253 -12.2498)" class="st11 st3 st10">protézis</text>
</g>
<g transform="matrix(0.95 -0.32 0.32 0.95 718 716)">
	<text transform="matrix(0.9976 0 0 0.9976 -163.2913 -36.6516)" class="st9 st5 st18">korona</text>
</g>
<g transform="matrix(1 0 0 1 303 91)">
	<text transform="matrix(1 0 0 1 -193.9853 -15.2198)" class="st7 st5 st19">góckutatás</text>
</g>
<g transform="matrix(1 0 0 1 689 89)">
	<text transform="matrix(1 0 0 1 -188.6152 -16.7097)" class="st11 st5 st17">fogászati CT</text>
</g>
<g transform="matrix(1 0 0 1 713 644)">
	<text transform="matrix(1 0 0 1 -168.5952 -15.2198)" class="st2 st5 st19">tömések</text>
</g>
<g transform="matrix(1 0 0 1 342 667)">
	<text transform="matrix(1 0 0 1 -130.0053 -10.7698)" class="st7 st3 st20">híd</text>
</g>
<g transform="matrix(1 0 0 1 715 404)">
	<text transform="matrix(1 0 0 1 -154.0753 -20.7898)" class="st2 st3 st21">fogfehérítés</text>
</g>
<g transform="matrix(0.19 -0.98 0.98 0.19 387 796)">
	<text transform="matrix(1.0018 0 0 1.0018 -76.4028 -84.8401)" class="st2 st5 st22">szájhigiéniai kezelések</text>
</g>
<g transform="matrix(0.57 0.82 -0.82 0.57 660 807)">
	<text transform="matrix(1.0014 0 0 1.0014 -164.4019 59.9905)" class="st7 st5 st23">fogorvosi szűrővizsgálat</text>
</g>
<g transform="matrix(0.42 0.91 -0.91 0.42 281 863)">
	<text transform="matrix(0.9978 0 0 0.9978 -187.6971 76.1601)" class="st9 st3 st24">implantátumok</text>
</g>
<g transform="matrix(1 0 0 1 482 461)">
	<text transform="matrix(1 0 0 1 -130.3553 -21.1598)" class="st11 st5 st15">fogpótlás</text>
</g>
<g transform="matrix(1 0 0 1 471 165)">
	<text transform="matrix(1 0 0 1 -177.8353 -19.6798)" class="st7 st5 st25">állapotfelmérés</text>
</g>
<g transform="matrix(1 0 0 1 840 204)">
	<text transform="matrix(1 0 0 1 -169.0952 -18.1898)" class="st11 st5 st26">fogfelépítés</text>
</g>
<g transform="matrix(1 0 0 1 310 456)">
	<text transform="matrix(1 0 0 1 -183.5152 -21.1598)" class="st9 st3 st15">teljes szájrendezés</text>
</g>
<g transform="matrix(1 0 0 1 622 463)">
	<text transform="matrix(1 0 0 1 -142.1452 -23.7597)" class="st9 st5 st27">röntgendiagnosztika</text>
</g>
<g transform="matrix(1 0 0 1 311 55)">
	<text transform="matrix(1 0 0 1 -166.9853 -19.6798)" class="st2 st5 st25">fogeltávolítás</text>
</g>
<g transform="matrix(1 0 0 1 589 318)">
	<text transform="matrix(1 0 0 1 -181.6853 -21.1598)" class="st11 st5 st15">fogmentő kezelések</text>
</g>
<g transform="matrix(1 0 0 1 605 604)">
	<text transform="matrix(1 0 0 1 -129.2253 -24.1298)" class="st2 st3 st28">fogkő-eltávolítás</text>
</g>
<g transform="matrix(1 0 0 1 840 321)">
	<text transform="matrix(1 0 0 1 -164.2453 -21.8997)" class="st9 st5 st29">panoráma röntgen</text>
</g>
<g transform="matrix(1 0 0 1 565 187)">
	<text transform="matrix(1 0 0 1 -150.0453 -21.8997)" class="st7 st3 st29">gyökérkezelés</text>
</g>
<g transform="matrix(1 0 0 1 710 763)">
	<text transform="matrix(1 0 0 1 -138.4753 -19.6797)" class="st11 st3 st25">protézis</text>
</g>
<g transform="matrix(1 0 0 1 678 549)">
	<text transform="matrix(1 0 0 1 -131.2654 -18.9298)" class="st9 st5 st30">korona</text>
</g>
<g transform="matrix(1 0 0 1 734 667)">
	<text transform="matrix(1 0 0 1 -139.9553 -21.1598)" class="st7 st5 st15">góckutatás</text>
</g>
<g transform="matrix(1 0 0 1 717 783)">
	<text transform="matrix(1 0 0 1 -137.2753 -21.8997)" class="st11 st5 st29">fogászati CT</text>
</g>
<g transform="matrix(1 0 0 1 463 547)">
	<text transform="matrix(1 0 0 1 -127.2553 -21.1598)" class="st2 st5 st15">tömések</text>
</g>
<g transform="matrix(1 0 0 1 730 823)">
	<text transform="matrix(1 0 0 1 -130.0054 -10.7698)" class="st7 st3 st20">híd</text>
</g>
<g transform="matrix(1 0 0 1 710 65)">
	<text transform="matrix(1 0 0 1 -154.0753 -20.7898)" class="st2 st3 st21">fogfehérítés</text>
</g>
<g transform="matrix(1 0 0 1 599 403)">
	<text transform="matrix(1 0 0 1 -129.2553 -24.6898)" class="st2 st5 st31">szájhigiéniai kezelések</text>
</g>
<g transform="matrix(1 0 0 1 432 602)">
	<text transform="matrix(1 0 0 1 -132.4353 -24.6898)" class="st7 st5 st31">fogorvosi szűrővizsgálat</text>
</g>
<g transform="matrix(1 0 0 1 200 332)">
	<text transform="matrix(1 0 0 1 -149.5353 -22.2697)" class="st9 st3 st32">implantátumok</text>
</g>
<g transform="matrix(1 0 0 1 833 402)">
	<text transform="matrix(1 0 0 1 -130.3552 -21.1598)" class="st11 st5 st15">fogpótlás</text>
</g>
<g transform="matrix(1 0.07 -0.07 1 789 475)">
	<text transform="matrix(0.9976 0 0 0.9976 -133.3442 -17.2724)" class="st7 st5 st33">állapotfelmérés</text>
</g>
<g transform="matrix(1 0 0 1 336 475)">
	<text transform="matrix(1 0 0 1 -127.5152 -22.6497)" class="st11 st5 st34">fogfelépítés</text>
</g>
<g transform="matrix(1 0 0 1 374 382)">
	<text transform="matrix(1 0 0 1 -134.7253 -24.1298)" class="st9 st3 st28">teljes szájrendezés</text>
</g>
<g transform="matrix(1 0 0 1 673 334)">
	<text transform="matrix(1 0 0 1 -142.1452 -23.7597)" class="st9 st5 st27">röntgendiagnosztika</text>
</g>
<g transform="matrix(1 0 0 1 450 323)">
	<text transform="matrix(1 0 0 1 -126.4553 -23.3897)" class="st2 st5 st35">fogeltávolítás</text>
</g>
<g transform="matrix(0.12 -0.99 0.99 0.12 360 817)">
	<text transform="matrix(1.0028 0 0 1.0028 -79.1517 -82.8666)" class="st11 st5 st36">fogmentő kezelések</text>
</g>
<g transform="matrix(1 0 0 1 763 742)">
	<text transform="matrix(1 0 0 1 -129.2253 -24.1298)" class="st2 st3 st28">fogkő-eltávolítás</text>
</g>
<g transform="matrix(0.66 -0.75 0.75 0.66 728 896)">
	<text transform="matrix(1.001 0 0 1.001 -114.775 -77.2864)" class="st9 st5 st37">panoráma röntgen</text>
</g>
<g transform="matrix(1 0 0 1 626 701)">
	<text transform="matrix(1 0 0 1 -117.9853 -24.4998)" class="st7 st3 st38">gyökérkezelés</text>
</g>
<g transform="matrix(1 0 0 1 884 296)">
	<text transform="matrix(1 0 0 1 -138.4753 -19.6798)" class="st11 st3 st25">protézis</text>
</g>
<g transform="matrix(1 0 0 1 875 264)">
	<text transform="matrix(1 0 0 1 -131.2654 -18.9298)" class="st9 st5 st30">korona</text>
</g>
<g transform="matrix(0.96 -0.28 0.28 0.96 335 702)">
	<text transform="matrix(1 0 0 1 -101.9103 -47.1049)" class="st7 st5 st28">góckutatás</text>
</g>
<g transform="matrix(1 0 0 1 605 476)">
	<text transform="matrix(1 0 0 1 -111.5952 -24.4998)" class="st11 st5 st38">fogászati CT</text>
</g>
<g transform="matrix(1 0 0 1 872 242)">
	<text transform="matrix(1 0 0 1 -127.2553 -21.1598)" class="st2 st5 st15">tömések</text>
</g>
<g transform="matrix(0.68 -0.73 0.73 0.68 525 272)">
	<text transform="matrix(1.0024 0 0 1.0024 -60.8693 -73.3661)" class="st7 st3 st39">híd</text>
</g>
<g transform="matrix(1 0 0 1 301 604)">
	<text transform="matrix(1 0 0 1 -120.0053 -23.9398)" class="st2 st3 st40">fogfehérítés</text>
</g>
<g transform="matrix(1 0 0 1 643 713)">
	<text transform="matrix(1 0 0 1 -129.2554 -24.6898)" class="st2 st5 st31">szájhigiéniai kezelések</text>
</g>
<g transform="matrix(1 0 0 1 222 318)">
	<text transform="matrix(1 0 0 1 -132.4353 -24.6898)" class="st7 st5 st31">fogorvosi szűrővizsgálat</text>
</g>
<g transform="matrix(1 0 0 1 587 202)">
	<text transform="matrix(1 0 0 1 -117.7353 -24.6898)" class="st9 st3 st31">implantátumok</text>
</g>
<g transform="matrix(1 0 0 1 869 223)">
	<text transform="matrix(1 0 0 1 -130.3552 -21.1598)" class="st11 st5 st15">fogpótlás</text>
</g>
<g transform="matrix(1 0 0 1 840 389)">
	<text transform="matrix(1 0 0 1 -131.8752 -23.3897)" class="st7 st5 st35">állapotfelmérés</text>
</g>
<g transform="matrix(0.83 -0.55 0.55 0.83 730 941)">
	<text transform="matrix(1.0043 0 0 1.0043 -98.4926 -65.9067)" class="st11 st5 st41">fogfelépítés</text>
</g>
<g transform="matrix(1 0 0 1 319 221)">
	<text transform="matrix(1 0 0 1 -134.7253 -24.1298)" class="st9 st3 st28">teljes szájrendezés</text>
</g>
<g transform="matrix(1 0 0 1 311 155)">
	<text transform="matrix(1 0 0 1 -142.1452 -23.7597)" class="st9 st5 st27">röntgendiagnosztika</text>
</g>
<g transform="matrix(1 0 0 1 669 113)">
	<text transform="matrix(1 0 0 1 -126.4553 -23.3897)" class="st2 st5 st35">fogeltávolítás</text>
</g>
<g transform="matrix(0.53 0.85 -0.85 0.53 321 744)">
	<text transform="matrix(0.9983 0 0 0.9983 -116.2226 61.4448)" class="st11 st5 st42">fogmentő kezelések</text>
</g>
<g transform="matrix(1 0 0 1 731 41)">
	<text transform="matrix(1 0 0 1 -129.2253 -24.1298)" class="st2 st3 st28">fogkő-eltávolítás</text>
</g>
<g transform="matrix(1 0 0 1 879 353)">
	<text transform="matrix(1 0 0 1 -125.0852 -24.4998)" class="st9 st5 st38">panoráma röntgen</text>
</g>
<g transform="matrix(1 0 0 1 284 439)">
	<text transform="matrix(1 0 0 1 -117.9853 -24.4998)" class="st7 st3 st38">gyökérkezelés</text>
</g>
<g transform="matrix(1 0 0 1 418 641)">
	<text transform="matrix(1 0 0 1 -112.1953 -23.3898)" class="st11 st3 st35">protézis</text>
</g>
<g transform="matrix(1 0 0 1 429 276)">
	<text transform="matrix(1 0 0 1 -108.5953 -23.0197)" class="st9 st5 st43">korona</text>
</g>
<g transform="matrix(1 0 0 1 719 687)">
	<text transform="matrix(1 0 0 1 -112.9353 -24.1298)" class="st7 st5 st28">góckutatás</text>
</g>
<g transform="matrix(1 0 0 1 524 475)">
	<text transform="matrix(1 0 0 1 -111.5953 -24.4998)" class="st11 st5 st38">fogászati CT</text>
</g>
<g transform="matrix(1 0 0 1 605 678)">
	<text transform="matrix(1 0 0 1 -106.5952 -24.1298)" class="st2 st5 st28">tömések</text>
</g>
<g transform="matrix(1 0 0 1 812 512)">
	<text transform="matrix(1 0 0 1 -107.9653 -18.9298)" class="st7 st3 st30">híd</text>
</g>
<g transform="matrix(1 0 0 1 677 898)">
	<text transform="matrix(1 0 0 1 -120.0053 -23.9398)" class="st2 st3 st40">fogfehérítés</text>
</g>
<g transform="matrix(0.79 0.62 -0.62 0.79 662 851)">
	<text transform="matrix(0.9958 0 0 0.9958 -127.2993 34.0062)" class="st2 st5 st44">szájhigiéniai kezelések</text>
</g>
</svg>
